<svg id="Layer_1" data-name="Layer 1" xmlns="http://www.w3.org/2000/svg" viewBox="0 0 519.25 69.03"><title>lynx</title><g id="Layer_1-2" data-name="Layer 1"><polygon points="408.77 51.22 360.29 68.8 409.08 68.8 427.64 58.55 408.77 51.22" fill="#fff"/><polygon points="363.5 0.48 421.1 0.48 497.78 39.35 467.71 39.35 446.56 29.64 433.53 34.94 363.5 0.48" fill="#fff"/><polygon points="470.77 18.29 519.25 0.72 470.46 0.72 451.91 10.95 470.77 18.29" fill="#fff"/><polygon points="516.05 69.03 458.45 69.03 381.77 30.15 411.84 30.15 432.99 39.87 446.02 34.57 516.05 69.03" fill="#fff"/><rect y="0.01" width="38.18" height="46.65" fill="#fff"/><rect y="52.37" width="97.82" height="14.28" fill="#fff"/><polygon points="62.03 0.01 107.37 0.01 138.39 26.18 115.97 42.63 62.03 0.01" fill="#fff"/><polygon points="119.3 45.23 119.3 66.65 155.09 66.65 155.09 45.23 224.29 0.01 190.88 0.01 121.69 45.23 119.3 45.23" fill="#fff"/><polygon points="229.06 7.14 267.24 30.94 267.24 66.65 229.06 66.65 229.06 7.14" fill="#fff"/><polygon points="233.83 0.01 331.66 66.65 353.13 66.65 353.13 0 334.52 0 334.52 46.87 264.85 0.01 233.83 0.01" fill="#fff"/></g></svg>