<svg xmlns="http://www.w3.org/2000/svg" viewBox="0 0 1000.3 142"><title>atomiswave</title><path d="M0,140.8c0-.7,7.5-32.7,16.7-71L33.4,0H69.9l1,3.8c.6,2,2.8,11.1,5.1,20.2s4.3,17.2,4.7,18,2.2-5.2,4.2-13.5l3.6-15h36.9l1.3,5.5c3.3,13.1,3.5,13.7,4.3,11l.6-2.5,17.7-.3c9.7-.1,17.7,0,17.7.4s-4.1,17.4-9,38.1-9,37.7-9,37.9-8.5.4-18.8.4H111.4l-1.8-7.7a72.74,72.74,0,0,0-2.4-8.7c-.3-.5-2.2,6-4.2,14.5l-3.7,15.4H62.6l-5-20.2c-2.8-11.1-5.3-20.4-5.7-20.7S47.8,90.9,43.5,109l-7.9,33H17.8C4.2,142,0,141.7,0,140.8Z" fill="#fff"/><path d="M171.2,102.3c.2-1,4.7-18.3,9.9-38.5L190.5,27h26.6c25.6,0,26.7.1,28.5,2.1,1.5,1.7,2.4,7,5,32.7,1.8,16.9,3.5,33.3,3.9,36.5l.6,5.8-13.3-.3-13.3-.3-.9-9.2-.8-9.3H202.3l-2.5,9.3-2.5,9.2-13.3.3C171.7,104,170.8,103.9,171.2,102.3ZM225,71.6c0-4-3.1-31.9-3.6-32.8-.3-.4-2-.8-3.8-.8h-3.3L210,54.7c-2.3,9.2-4.4,17.3-4.7,18-.4,1,1.7,1.3,9.6,1.3C224.9,74,225,74,225,71.6Z" fill="#fff"/><path d="M268.6,101.8a8.26,8.26,0,0,1-1.6-3.6c0-.8,3.4-14.4,7.5-30.2S282,38.9,282,38.6s-5.8-.6-12.9-.6c-14.3,0-13.2.5-14.6-7.2l-.6-3.8H337l-.6,2.7c-2.2,8.6-.6,7.7-14.9,8.3l-12.8.5-8.5,32.8L291.7,104H280.9C270.9,104,270,103.8,268.6,101.8Z" fill="#fff"/><path d="M328.2,102.4c-1.6-1.1-2.2-2.5-2.2-5.1,0-2,3.8-18.4,8.5-36.4s8.5-33,8.5-33.3,14.6-.6,32.3-.6c30.1,0,32.5.1,34,1.8a7.53,7.53,0,0,1,1.8,4.3c0,1.3-4,17.8-8.8,36.6L393.5,104H362C335.1,104,330.1,103.8,328.2,102.4Zm42.7-13.6c.6-2.4,3.7-14.6,7-27.1,4.5-17.1,5.6-22.9,4.7-23.3-.7-.3-4.6-.4-8.6-.2l-7.3.3L359.9,65c-3.8,14.6-6.9,26.8-6.9,27.3s3.8.7,8.4.7h8.4Z" fill="#fff"/><path d="M405,103.3c0-.4,4.3-17.8,9.7-38.5L424.3,27h47.9c46.5,0,47.9.1,49.8,2a7.13,7.13,0,0,1,2,4.3c0,1.2-4,17.5-8.9,36.2l-8.8,34-13.2.3c-7.2.1-13.1-.1-13.1-.6s3.6-14.7,8-31.5,8-31.3,8-32.1c0-1.3-1.2-1.6-5.2-1.6h-5.3l-8.4,33-8.5,33H455.3c-12.3,0-13.4-.1-12.9-1.7.8-2.6,16.6-63.4,16.6-63.9,0-.2-2.4-.4-5.4-.4h-5.4l-1.6,6.2c-1,3.5-4.8,18.2-8.5,32.8l-6.8,26.5-13.1.3C410.9,103.9,405,103.7,405,103.3Z" fill="#fff"/><path d="M522.2,102a7.89,7.89,0,0,1-2.2-4.8c-.1-1.5,3.9-17.9,8.6-36.4L537.4,27h13.3c12.3,0,13.4.1,12.9,1.8-.3.9-4.4,16.6-9.1,34.7s-9.1,34.7-9.6,36.8l-1,3.7h-9.7C525.7,104,524.1,103.7,522.2,102Z" fill="#fff"/><path d="M555.5,102.8c.2-.7.9-3.2,1.5-5.5l1.1-4.3h43.4l3.3-12.7c1.8-7.1,3.2-13.1,3.2-13.5s-8.3-.8-18.3-.8c-25,0-24.7.4-18.2-24.4L575.3,27h67.9l-.6,2.6c-.4,1.5-1,3.9-1.3,5.5l-.5,2.9H599.1L598,42.3c-.6,2.3-1.6,5.7-2.1,7.5-2,6.3-1.7,6.5,16.4,6.2,19.6-.3,19.2-.4,21.1,1.6,2.5,2.5,1.9,7.6-3.3,27.4l-4.8,18.5-35.1.3C562.2,104,555.1,103.8,555.5,102.8Z" fill="#fff"/><path d="M641.2,101.7a8.39,8.39,0,0,1-2.2-4.8c0-1.3,4-17.5,8.8-35.9l8.8-33.5,13.2-.3c7.3-.1,13.2,0,13.2.3s-3.6,14.3-8,31.2-8,31.6-8,32.6c0,1.4.9,1.7,4.9,1.7s5.1-.4,5.5-1.7c.3-1,4.2-15.7,8.6-32.8s8.3-31.1,8.4-31.3,6.2-.1,13.3,0l12.9.3-8.2,31.9c-4.6,17.6-8.1,32.3-7.8,32.8s2.6.8,5.2.8h4.7L723,60.3l8.5-32.8,13.4-.3c12.4-.2,13.3-.1,12.9,1.5-.2,1-4.7,18.3-9.9,38.5L738.5,104H643.3Z" fill="#fff"/><path d="M750,103.3c.1-.5,4.4-17.7,9.8-38.3l9.7-37.5h53.8L825,30c1.4,2,2.5,9.1,4.9,33.5,1.8,17.1,3.4,33.1,3.8,35.8l.6,4.7H821.2c-15,0-13.7,1-14.7-11.2l-.7-7.8H781.2l-2.3,9.5-2.3,9.5H763.3C756,104,750,103.7,750,103.3Zm52.8-45.5c-.9-9-1.7-17.1-1.7-18-.1-1.4-1-1.8-3.9-1.8h-3.8l-4.6,18-4.6,18h20.4Z" fill="#fff"/><path d="M846.5,101.6c-1.4-1.4-2.5-3.1-2.5-3.8S842.4,81,840.5,62,837,27.4,837,27.3s5.8-.3,12.9-.3h12.9l.6,3.8c.3,2,1.7,15.9,3.1,30.7s2.8,28,3.1,29.3c.4,1.8,1.1,2.2,4.2,2.2h3.7L886,60.3l8.5-32.8,13.3-.3c7.2-.1,13.2.1,13.2.5s-4.5,17.7-9.9,38.3l-9.8,37.5-26.2.3-26.2.2Z" fill="#fff"/><path d="M917.2,102.4c-1.6-1.1-2.2-2.5-2.2-5.5,0-2.2,3.8-18.6,8.5-36.5S932,27.7,932,27.5s15.4-.5,34.1-.5h34.2l-.7,4.2a27.79,27.79,0,0,1-1.2,5c-.3.4-9.9.8-21.4.8H956.1l-1,3.8c-.5,2-1.5,5.7-2.1,8.2s-1.3,5.3-1.6,6.3c-.5,1.6.8,1.7,18.5,1.7,10.5,0,19.1.1,19.1.3s-.6,2.2-1.4,4.7l-1.3,4.5-19,.3-19,.2-3.1,12.1c-1.8,6.7-2.9,12.5-2.6,13s9.9.9,21.5.9c23.4,0,22-.5,19.8,7.3l-1,3.7H951.2C924.1,104,919.1,103.8,917.2,102.4Z" fill="#fff"/></svg>