<svg id="Ebene_1" data-name="Ebene 1" xmlns="http://www.w3.org/2000/svg" viewBox="0 0 562.96 454.95"><title>fba</title><path d="M564.9,182.7c.1-1.35,0-2.75,0-3.88q0-38.73,0-77.46a15.48,15.48,0,0,0-.42-4C557,69.36,543.53,45,521.18,26.12,502.82,10.64,481.74,2,457.45,2H265.39Q136.14,2,6.88,2C5.29,2,3.7,2,2,2V60.72c1.2.46,2.25.94,3.33,1.29q11.88,3.8,23.78,7.54l239.46,75.82q56.55,17.91,113.1,35.83a24.83,24.83,0,0,0,7.33,1.44q86,.12,172,.06C562.16,182.7,563.55,182.8,564.9,182.7ZM342.66,179l-154-48.82V356.84l-65.86,33.22v66.88H392.29V327H342.66Zm17.45,17.72v114H564.65v-114Z" transform="translate(-1.99 -1.99)" fill="#fff"/></svg>