<svg id="Layer_1" data-name="Layer 1" xmlns="http://www.w3.org/2000/svg" viewBox="0 0 566.93 102.84"><title>n64</title><g id="g3"><g id="layer3"><polygon id="polygon3538" points="29.18 19.74 36.04 33.69 39.61 32.32 51.49 11.13 37.12 5.54 29.18 19.74" fill="#fff"/><polygon id="polygon3540" points="62.83 32.11 73.81 19.74 88.39 25.37 88.39 64.35 66.94 33.69 62.83 32.11" fill="#fff"/><polygon id="polygon3552" points="14.59 25.37 0 19.74 0 81.16 14.59 87.29 14.59 54.65 36.04 96.31 51.49 102.84 51.49 39.61 36.04 33.69 36.04 65.79 14.59 25.37" fill="#fff"/></g><g id="layer4"><polygon id="polygon3556" points="88.39 87.29 66.94 59.29 66.94 74.59 71.32 80.73 88.39 87.29" fill="#fff"/></g><g id="layer5"><polygon id="polygon3544" points="66.94 33.69 51.49 39.61 36.04 33.69 51.49 27.77 66.94 33.69" fill="#fff"/><polygon id="polygon3546" points="73.8 19.74 88.39 14.13 102.98 19.74 88.39 25.37 73.8 19.74" fill="#fff"/><polygon id="polygon3548" points="0 19.74 14.59 14.13 29.18 19.74 14.59 25.37 0 19.74" fill="#fff"/><polygon id="polygon3550" points="65.86 5.55 51.49 0 37.12 5.54 51.49 11.13 65.86 5.55" fill="#fff"/></g><g id="g23"><g id="g3516"><polygon id="polygon3518" points="154.07 81.25 175.45 81.25 175.45 33.75 160.98 33.75 160.98 60.99 160.86 60.99 151.32 33.75 129.95 33.75 129.95 81.25 144.4 81.25 144.4 53.83 144.53 53.83 154.07 81.25" fill="#fff"/><polygon id="polygon3520" points="234.71 81.25 256.09 81.25 256.09 33.75 241.64 33.75 241.64 60.99 241.5 60.99 231.97 33.75 210.59 33.75 210.59 81.25 225.06 81.25 225.06 53.83 225.18 53.83 234.71 81.25" fill="#fff"/><polygon id="polygon3522" points="373.58 81.25 394.96 81.25 394.96 33.75 380.5 33.75 380.5 60.99 380.37 60.99 370.83 33.75 349.46 33.75 349.46 81.25 363.91 81.25 363.91 53.83 364.04 53.83 373.58 81.25" fill="#fff"/><polygon id="polygon3524" points="184.18 33.75 202.01 33.75 202.01 81.25 184.18 81.25 184.18 33.75" fill="#fff"/><polygon id="polygon3526" points="272.59 46.66 261.26 46.66 261.26 33.75 301.78 33.75 301.78 46.66 290.42 46.66 290.42 81.25 272.59 81.25 272.59 46.66" fill="#fff"/><polygon id="polygon3536" points="307.05 33.74 342.31 33.74 342.31 46.3 324.6 46.3 324.6 51.27 340.91 51.27 340.91 63.45 324.6 63.45 324.6 68.78 342.88 68.78 342.88 81.24 307.05 81.24 307.05 33.74" fill="#fff"/></g><g id="layer6"><path id="path3528" d="M402.63,33.75h21.12c18,0,23.75,10.2,23.75,24.28,0,14.34-8.85,23.22-22.68,23.22H402.63V33.75Zm17.45,36.71h1.74c2.87,0,4.79-.88,5.91-2.79s1.32-5.57,1.32-10.17-.13-8.19-1.32-10.17-3-2.79-5.91-2.79h-1.74V70.46Z" fill="#fff"/><path id="path3530" d="M475.45,32.51c15.52,0,23.24,10.19,23.24,25s-7.72,25-23.24,25-23.25-10.19-23.25-25,7.72-25,23.25-25Zm0,37.95c2.74,0,4.8-1.34,4.8-13,0-11.36-1.94-13-4.8-13s-4.8,1.6-4.8,13c0,11.62,2.06,13,4.8,13Z" fill="#fff"/><path id="path3562" d="M507,71.23a5.64,5.64,0,1,0,5.65,5.63A5.63,5.63,0,0,0,507,71.23Zm0,10.28a4.65,4.65,0,1,1,4.66-4.65A4.63,4.63,0,0,1,507,81.51Z" fill="#fff"/><path id="path3564" d="M506.11,80h-1.33v-6.2h2.64c1.06,0,2.15.36,2.15,1.62a1.49,1.49,0,0,1-1.29,1.5h0c1,.12,1,.74,1.14,1.61a3.69,3.69,0,0,0,.36,1.46h-1.47a15.76,15.76,0,0,1-.23-1.66c0-.34-.12-.82-.56-.84h-1.41V80Zm0-3.53h1.12a.81.81,0,0,0,.93-.85c0-.54-.35-.78-.93-.79h-1.12v1.64Z" fill="#fff"/><polygon id="polygon3566" points="154.07 81.25 175.45 81.25 175.45 33.75 160.98 33.75 160.98 60.99 160.86 60.99 151.32 33.75 129.95 33.75 129.95 81.25 144.4 81.25 144.4 53.83 144.53 53.83 154.07 81.25" fill="#fff"/><polygon id="polygon3568" points="234.71 81.25 256.09 81.25 256.09 33.75 241.64 33.75 241.64 60.99 241.5 60.99 231.97 33.75 210.59 33.75 210.59 81.25 225.06 81.25 225.06 53.83 225.18 53.83 234.71 81.25" fill="#fff"/><polygon id="polygon3570" points="373.58 81.25 394.96 81.25 394.96 33.75 380.5 33.75 380.5 60.99 380.37 60.99 370.83 33.75 349.46 33.75 349.46 81.25 363.91 81.25 363.91 53.83 364.04 53.83 373.58 81.25" fill="#fff"/><polygon id="polygon3572" points="184.18 33.75 202.01 33.75 202.01 81.25 184.18 81.25 184.18 33.75" fill="#fff"/><polygon id="polygon3574" points="272.59 46.66 261.26 46.66 261.26 33.75 301.78 33.75 301.78 46.66 290.42 46.66 290.42 81.25 272.59 81.25 272.59 46.66" fill="#fff"/><polygon id="polygon3576" points="307.05 33.74 342.31 33.74 342.31 46.3 324.6 46.3 324.6 51.27 340.91 51.27 340.91 63.45 324.6 63.45 324.6 68.78 342.88 68.78 342.88 81.24 307.05 81.24 307.05 33.74" fill="#fff"/></g><g id="layer7"><path id="path3532" d="M530.58,27.44a22.23,22.23,0,0,0-3.16,0c-7.52.35-10.56,3.55-11.59,7.17H516a10.5,10.5,0,0,1,7.29-2.4c6,0,11.42,4.34,11.42,12.48a13.67,13.67,0,0,1-14,13.85c-10.59,0-15.19-8.08-15.19-16.75,0-7,2.5-13,6.6-16.85,3.9-3.61,8.93-5.44,15.09-5.58a19.63,19.63,0,0,1,3.38.07v8Zm-10,23.45c2.44,0,3.92-2.49,3.92-5.67,0-2.69-1.25-5.61-4.52-5.61a4.42,4.42,0,0,0-4.14,2.79,5.32,5.32,0,0,0-.32,2.27c.21,3,1.68,6.22,5,6.22Z" fill="#fff"/><path id="path3534" d="M553.36,57.91V49.39H537.52V42.58l12.72-22.67H562.9V41.58h4v7.81h-4v8.52Zm0-16.33V35.05c0-2.42.15-4.93.27-7.57h-.2c-1.18,2.57-2.21,5-3.55,7.66l-3.11,6.32,0,.12Z" fill="#fff"/></g></g></g></svg>