<svg id="Layer_1" data-name="Layer 1" xmlns="http://www.w3.org/2000/svg" viewBox="0 0 604 132.52"><title>naomi</title><g id="layer101"><path d="M324.1,137.91c-17.9-4-35.7-17.9-43.8-34.2-10.4-20.8-9.7-45.9,1.9-65,12.9-21.2,36.9-33.8,61.3-31.9,29.2,2.2,52.4,22,59.7,50.9,2.8,11.1,2.2,25.9-1.5,36.5-7.1,20-22.7,35.5-42,41.8C349.5,139.31,333.9,140.11,324.1,137.91Zm34.1-23.7a49.62,49.62,0,0,0,22.1-22.5c3-6.5,3.2-7.4,3.2-18.8,0-11.6-.1-12.2-3.4-19-8.8-17.9-29-28.8-47.6-25.7a45.19,45.19,0,0,0-34.2,25.9c-3.2,6.6-3.8,8.9-4.1,16.3-.7,13.9,3,24.1,12.1,33.8,10,10.5,19.5,14.4,34.3,14C349.9,117.91,351.3,117.61,358.2,114.21Z" transform="translate(-14 -6.62)" fill="#fff"/><path d="M139,132.71c0-.5,3.3-6.4,7.4-13.3l7.4-12.5-6.9-.3-6.9-.3V87.41h23.5l20.4-37c11.2-20.3,20.9-37.6,21.5-38.5,1-1.4,4,3.5,18.3,29.2,9.4,16.9,24.5,44.2,33.7,60.6S274,132,274,132.51s-5.1.8-12.2.7l-12.3-.3-7-13.2-6.9-13.3H206l-29.5.1-7.3,13.4-7.3,13.5H150.5C144.2,133.41,139,133.11,139,132.71Zm85.4-49.5c-2.2-4.3-12.9-24.1-16.1-29.6l-2.5-4.4-9.9,18.2c-5.4,10-9.9,18.3-9.9,18.6s9,.4,20,.4h20.1Z" transform="translate(-14 -6.62)" fill="#fff"/><path d="M424.5,132.21c-.3-.7-.4-28.5-.3-61.8l.3-60.4,9.9,11.4c5.5,6.3,20.5,23.8,33.4,38.8s23.7,27.2,24.2,27c.8-.3,6.3-6.7,44-51.1,12.4-14.6,22.8-26.6,23.3-26.6s.7,27.8.7,61.9v62H538l-.1-14.7c-.1-8.2-.4-22.6-.8-32.2l-.6-17.4-21.9,26.4c-12,14.5-22.4,26.4-23.1,26.4s-10-10.3-20.6-23-20.7-24.7-22.6-26.8l-3.3-3.7v65H435C427.9,133.41,424.8,133,424.5,132.21Z" transform="translate(-14 -6.62)" fill="#fff"/><path d="M597,70.41v-63h21v126H597Z" transform="translate(-14 -6.62)" fill="#fff"/><path d="M14,71.41c0-33.5.2-61,.5-61s9.9,7.7,21.3,17.2c40.3,33.5,60.8,50.4,65.5,54.2l4.7,3.8V9.41h21V70c0,36.7-.4,60.4-.9,60.2-.9-.3-19.4-15.2-69.1-55.7L33.5,55.31l-.3,38.6-.2,38.5H14Z" transform="translate(-14 -6.62)" fill="#fff"/></g></svg>