<svg xmlns="http://www.w3.org/2000/svg" viewBox="0 0 462 90.48"><title>pspminis</title><path d="M443,3.07A79.74,79.74,0,0,0,431.5,5.44a38.81,38.81,0,0,0-8.89,4.32A32.7,32.7,0,0,0,416,16.51,52,52,0,0,0,411,27c-1.64,4.83-2.39,10.1-2.91,20.5-.6,12-1.06,14.72-3.15,18.93a23.69,23.69,0,0,1-5.44,7.19,35.29,35.29,0,0,1-7.5,3.91c-2.53.93-9.4,1.94-15.74,2.31L365,80.49v12c24.74-1.16,30.35-1.93,35.5-3.56,5.79-1.83,8-3.18,12.58-7.83A31.78,31.78,0,0,0,421,69.5c1.78-4.67,2.47-9.23,3.09-20.5.45-8,1.34-16.3,2-18.5a21.54,21.54,0,0,1,5.32-8A25.9,25.9,0,0,1,441,16.72c3-1,10.11-2.1,15.75-2.49L467,13.51V2C453.43,2.21,446.56,2.63,443,3.07ZM32.06,22.8a52.54,52.54,0,0,0-9,3.9,45.83,45.83,0,0,0-7.77,6.7,46.39,46.39,0,0,0-6.14,8.35,46,46,0,0,0-3,9C5.51,53.64,5,64.1,5,74V92H19.5C20.67,75.34,21,66.22,21,61c0-7.4.48-10.5,2.07-14a31.42,31.42,0,0,1,4.23-6.85,29.41,29.41,0,0,1,6.19-4.5c3.4-1.83,5.65-2.15,15-2.15C58.4,33.5,60,33.75,64,36a26.58,26.58,0,0,1,7.28,6.5,27.85,27.85,0,0,1,3.77,8c.52,2.2,1,12.44,1,22.75L76,92H92.18c.5-38.19.76-41,2.58-45a27.31,27.31,0,0,1,4.5-6.88,35.55,35.55,0,0,1,7.95-4.89c4.93-2.25,6.46-2.47,14.53-2.06,6.53.33,10.14,1,13,2.55a31,31,0,0,1,6.72,4.94A29.05,29.05,0,0,1,146,47.5c1.44,3.29,1.8,7.61,2.05,24.25L148.3,92h16.54c-1.13-31.6-1.93-40.48-2.92-44a44.11,44.11,0,0,0-5.41-11,44.7,44.7,0,0,0-9.3-9.23,41.8,41.8,0,0,0-11.94-5.37c-4.88-1.23-9.4-1.52-18-1.16-8.34.34-13,1.05-17,2.55a43.39,43.39,0,0,0-10.77,6.65L84.17,35c-8.16-7.07-13-10.08-16-11.24-4.32-1.67-8.22-2.19-18-2.44S36.44,21.38,32.06,22.8ZM184.2,26.75l.3,5.75L200,33V21H183.9ZM248,22.85a50.94,50.94,0,0,0-9,3.84,41.45,41.45,0,0,0-7.44,6.46,43.4,43.4,0,0,0-6.23,9.35,53.48,53.48,0,0,0-3.28,12,212.36,212.36,0,0,0-1,22.25L221,92h16c0-29.06.42-39.29.93-41.48a27.26,27.26,0,0,1,3.82-8A24.93,24.93,0,0,1,249.58,36c4.32-2.2,6.2-2.5,15.42-2.5s11,.27,14.92,2.5a31.21,31.21,0,0,1,7.29,6,27.17,27.17,0,0,1,4.33,9.5c1,4,1.45,11.65,1.46,23.25L293,92h16.51c-1.21-29.63-2.16-40-3-43.51a42.53,42.53,0,0,0-5.24-11.41,40.17,40.17,0,0,0-6.72-7.63,55.35,55.35,0,0,0-6.5-4,53.94,53.94,0,0,0-8.51-3.1c-2.75-.74-9.73-1.32-15.51-1.29C256.91,21.09,251.72,21.67,248,22.85ZM329,27v6h16V21H329ZM185,68.5V92h15V45H185ZM329.66,45.91c-.45.36-.75,10.83-.66,23.26l.17,22.59,15.83.49v-47C333.75,45.25,330.12,45.55,329.66,45.91Z" transform="translate(-5 -2.01)" fill="#fdfdfd"/></svg>