<svg id="Layer_1" data-name="Layer 1" xmlns="http://www.w3.org/2000/svg" viewBox="0 0 339.09 88.04"><title>retropie</title><path d="M32.31,88a35.29,35.29,0,0,1-14.13-2.76c-4.32-1.94-7.27-4.75-8.53-8.14C9.08,75.63,5.12,65,3.09,59.59l.3.06.38.05A3.71,3.71,0,0,1,5.06,60c.52.28.68.7.92,1.43l.67,2c.15.45.67.62,1.86.62h1.3a4.35,4.35,0,0,1,1,.09,3.42,3.42,0,0,1,1.65.76,1.67,1.67,0,0,1,.4.73,4.24,4.24,0,0,0,.24.58,3.47,3.47,0,0,0,3.26,1.55,7.37,7.37,0,0,0,.82,0c.36,0,.72-.13,1.06-.2a7.41,7.41,0,0,1,1.29-.22h.37a6.61,6.61,0,0,1,1.68.21,4.11,4.11,0,0,1,1.66.83l.29.27a4,4,0,0,0,1.07.81,5.19,5.19,0,0,0,2.28.51,5.88,5.88,0,0,0,2.45-.54l.14-.07a7.68,7.68,0,0,1,1.94-.7,7.45,7.45,0,0,1,1.25-.11c.29,0,.59,0,.89,0a8,8,0,0,1,2,.62,7.77,7.77,0,0,0,2.34.7,5.44,5.44,0,0,0,.57,0,5.55,5.55,0,0,0,1.84-.31,4.63,4.63,0,0,0,1.64-1.14l.13-.11a5,5,0,0,1,3.3-1.07h.42a10.84,10.84,0,0,1,1.45.22,10,10,0,0,0,1.83.23,4.32,4.32,0,0,0,1.31-.19A2.71,2.71,0,0,0,52.22,66v0A1.92,1.92,0,0,1,53,64.69a3.81,3.81,0,0,1,1.79-.62,3.73,3.73,0,0,1,.5,0l.6,0,.65,0,.42,0h.09c.42,0,1.2-.08,1.42-.73l.38-1.13c.06-.17.11-.36.16-.54a3.4,3.4,0,0,1,.55-1.29,2.49,2.49,0,0,1,1.55-.67h.11a6.2,6.2,0,0,0,.7-.1L55.27,77.08C54,80.47,51,83.3,46.6,85.25A35.77,35.77,0,0,1,32.31,88" fill="#fff"/><path d="M27,71.7a4.56,4.56,0,0,1-3.5-1.44A4.09,4.09,0,0,0,20.8,69c-1.43-.15-2.71.46-4.12.46a3.73,3.73,0,0,1-3.36-1.63c-.25-.46-.25-1-.64-1.38a3.28,3.28,0,0,0-1.92-.81c-1.34-.17-2.65.26-3.89-.53a2.22,2.22,0,0,1-1-1.41c-.08-.31-.6-2.12-.68-2.5-.1-.56-1.82-.18-2.4-.51a3,3,0,0,1-.95-1.47,10.73,10.73,0,0,1-.72-1.89,9.88,9.88,0,0,1,2-.56s-.33-.09-.91-.29a3.11,3.11,0,0,1-1.41-1.1C.6,55.09-.2,53.69.05,53c.36-.46,2.2-.41,2.61-.75-.09-.12-1.12-.88-1.24-1A2.22,2.22,0,0,1,1.53,49c.43-.51,2.31-.25,3-.64.26-.15-.92-.08-.69-.28S4,47,4,46.6c.19-1.48,2.68-1,3.63-1.39.28-.11.55.13.79-.07s.13-.55.25-.75A5.35,5.35,0,0,1,10.87,43c.61-.19.61.2,1.22,0a2.63,2.63,0,0,0,.86-.41c.21-.16.31-.47.55-.64a5.09,5.09,0,0,1,1.9-.86A10.62,10.62,0,0,1,17.53,41c.5,0,.78-.57,1.26-.74a5.11,5.11,0,0,1,1.83-.52,7,7,0,0,0,2,.05c.52-.15,1-.46,1.5-.57,1.21-.24,2.41.13,3.62-.08.53-.09,1-.33,1.55-.4a5,5,0,0,1,1.92.11c1.26.34,2.43-.16,3.68-.14.93,0,1.74.41,2.65.5a23,23,0,0,1,3.32.07c.51.12.92.42,1.42.55a6.41,6.41,0,0,0,1.9-.07,5.3,5.3,0,0,1,1.66.59c.65.27,1,.53,1.63.73s.8-.11,1.53,0a5.8,5.8,0,0,1,2.51,1.08c.21.19.29.48.53.62a3.39,3.39,0,0,0,.81.34c.48.15.11-.29.6-.21a7.08,7.08,0,0,1,2.45,1.26,1.31,1.31,0,0,1,.44.82c0,.3.3.38.57.33a.75.75,0,0,1,.37,0c.59.19,2-.11,2.65.42.43.38.79.39.87,1,0,.29.15,1.68.37,1.65.58.26,1.68,0,2.2.66a1,1,0,0,1,.29,1,9.7,9.7,0,0,0-.44,2c.55.41,1.42.28,1.66.89a3.4,3.4,0,0,1-.48,2.54,6.55,6.55,0,0,0-.74,1.06c.29.39.28.48.26.76a7.28,7.28,0,0,1-.7,2.11c-.45,1.46-2.16,1.16-3.26,1.54a14.71,14.71,0,0,1-1.07,3.65c-.9,1.15-2.39,1.06-3.66,1a4.45,4.45,0,0,0-1.9.34,2.36,2.36,0,0,0-.76.49,2,2,0,0,0-.46,1,3.27,3.27,0,0,1-3,2,11,11,0,0,1-2.91-.39,5.91,5.91,0,0,0-2.92.22A3.4,3.4,0,0,0,42.1,70a8.26,8.26,0,0,1-1,.91,4.94,4.94,0,0,1-2.77.79,5.64,5.64,0,0,1-2.85-.76,5.68,5.68,0,0,0-2.82-.68,5.56,5.56,0,0,0-2.82.69A5.67,5.67,0,0,1,27,71.7" fill="#fff"/><path d="M26.89,68.51a5,5,0,0,1-3.58-1.3,4.42,4.42,0,0,0-2.78-1.13c-1.46-.13-2.78.43-4.22.43A4,4,0,0,1,12.88,65c-.26-.42-.26-.92-.66-1.26a3.68,3.68,0,0,0-2-.74c-1.36-.15-2.71.24-4-.47a2,2,0,0,1-1-1.28,1.66,1.66,0,0,1,0-.8c.07-.26.22-.49.1-.76C5.16,59.24,4.47,59,4,59a5.91,5.91,0,0,1-1.86-.41,1.63,1.63,0,0,1-1-1.33,2.27,2.27,0,0,1,.81-1.57c.43-.48.15-.81-.43-1A1.85,1.85,0,0,1,.08,53.61,1.55,1.55,0,0,1,.75,52c.42-.35,1.07-.55,1.34-1,.09-.16-.46-.41-.58-.55a1.15,1.15,0,0,1,.14-1.57A4.21,4.21,0,0,1,3.3,47.9a3.36,3.36,0,0,0,.79-.43c.31-.23.08-.26,0-.59-.27-1.43,2-1.73,3-2.07a3.21,3.21,0,0,0,.83-.41c.14-.11.13-.5.26-.68a2.71,2.71,0,0,1,1.54-.87c.63-.17,1.29-.2,1.92-.38a3,3,0,0,0,.88-.37c.21-.14.31-.43.55-.58,1.22-.77,2.8-.44,4.13-.89.48-.16.8-.52,1.29-.67a6.15,6.15,0,0,1,2.09-.25,6.19,6.19,0,0,0,1.87-.18c.53-.14,1-.42,1.54-.52,1.23-.21,2.46.12,3.7-.07.54-.08,1-.3,1.59-.36a5.86,5.86,0,0,1,2,.1c1.29.31,2.49-.14,3.76-.13,1,0,1.78.38,2.72.46a25.55,25.55,0,0,1,3.39.06c.52.1.95.38,1.46.5a7.84,7.84,0,0,0,1.93.17,6.07,6.07,0,0,1,1.75.19c.62.17,1,.59,1.62.77,1.33.4,3,.08,4.14,1,.22.17.3.43.55.56a3.85,3.85,0,0,0,.82.31c.49.13,1,.17,1.5.28a3.88,3.88,0,0,1,1.62.67,1.17,1.17,0,0,1,.46.75c0,.27.33.37.58.48a21.62,21.62,0,0,1,2.49.88,1.37,1.37,0,0,1,.8,1.36c-.05.23-.24.32,0,.49a3.37,3.37,0,0,0,.87.49c.93.36,2.66,1.18,1.89,2.38a1.41,1.41,0,0,1-.61.52c-.17.08,0,.24.13.34.43.44,1.06.64,1.48,1.1a1.33,1.33,0,0,1,.29,1.59c-.34.61-1,.67-1.57.93s-.22.74.11,1.08a1.74,1.74,0,0,1,.53,1.73c-.46,1.33-2.07,1.11-3.19,1.45-.53.16-1.16.55-.9,1.15a1.72,1.72,0,0,1-.27,1.85c-.91,1.05-2.44,1-3.74.93a5.15,5.15,0,0,0-1.95.31,2.45,2.45,0,0,0-.77.44,1.7,1.7,0,0,0-.47.87c-.41,1.21-1.82,1.76-3.07,1.86a11.91,11.91,0,0,1-3-.35,6.86,6.86,0,0,0-3,.2,3.7,3.7,0,0,0-1.25.64,7.16,7.16,0,0,1-1,.83,5.45,5.45,0,0,1-2.83.72,6.37,6.37,0,0,1-2.92-.69,6.35,6.35,0,0,0-2.89-.62,6.19,6.19,0,0,0-2.88.63,6.41,6.41,0,0,1-2.93.69" fill="#fff"/><path d="M41.21,61.47A7.4,7.4,0,0,1,38.54,61a3.94,3.94,0,0,1-2.12-1.66l-.1-.18a1.29,1.29,0,0,1-.21-.78l0-.75L36,56.41l.9.79a4.66,4.66,0,0,0,.88.59,7.34,7.34,0,0,0,3.38.77,7.6,7.6,0,0,0,3.23-.69,4.63,4.63,0,0,0,1-.66l.91-.79-.07,1.21a2.11,2.11,0,0,1,0,.4c0,.08,0,.14,0,.33a3,3,0,0,1-1.72,2.32,6.87,6.87,0,0,1-3.27.79" fill="#fff"/><path d="M41.18,58.49a8.12,8.12,0,0,1-3.33-.67c-1.35-.62-2.06-1.57-1.94-2.63A3,3,0,0,1,38,53a8.29,8.29,0,0,1,3.17-.6,8.19,8.19,0,0,1,3.18.61,2.56,2.56,0,0,1,.31.14,2.73,2.73,0,0,1,1.79,2.33c0,1-.77,1.9-2.1,2.46a8.33,8.33,0,0,1-3.17.6" fill="#fff"/><path d="M51.45,56.24a7.62,7.62,0,0,1-2.67-.48,4,4,0,0,1-2.12-1.66,1.3,1.3,0,0,0-.1-.18,1.29,1.29,0,0,1-.21-.78l-.1-2,.91.79a4.26,4.26,0,0,0,.88.6,7.47,7.47,0,0,0,3.38.77,7.63,7.63,0,0,0,3.23-.69,4.63,4.63,0,0,0,1-.66l.9-.79-.06,1.2a3.6,3.6,0,0,1,0,.41c0,.08,0,.14,0,.32a3,3,0,0,1-1.71,2.32,6.76,6.76,0,0,1-3.27.79" fill="#fff"/><path d="M51.42,53.27a8.12,8.12,0,0,1-3.33-.68C46.74,52,46,51,46.15,50a3,3,0,0,1,2.08-2.24,8.59,8.59,0,0,1,6.36,0,2.1,2.1,0,0,1,.31.15,2.73,2.73,0,0,1,1.79,2.33,2.89,2.89,0,0,1-2.1,2.45,8.18,8.18,0,0,1-3.17.61" fill="#fff"/><path d="M32.17,49.24c-1.17,0-3.18-.46-3.25-2.2-.13-3.41-1.57-20.53-1.89-24.38l10.36,0c-.57,7.28-1.87,24-2,24.66a2.13,2.13,0,0,1-1.17,1.41,4.44,4.44,0,0,1-2.08.47" fill="#fff"/><path d="M40.85,20.94A12.22,12.22,0,1,1,41,3.55a12.3,12.3,0,0,1-.1,17.39" fill="#fff"/><path d="M39.22,4.34c2,2.17,2.23,4.75,1.25,5.28s-2.79-.55-4.48-2-2.72-3.26-2-4.51,3.29-.94,5.25,1.23" fill="#fff"/><path d="M90.19,71.7H83.57V20.15h17.56a16.1,16.1,0,0,1,11.42,4.43,14.38,14.38,0,0,1,4.71,10.91A14.27,14.27,0,0,1,113.77,45,15.54,15.54,0,0,1,105,50.25l-.14.21,14.47,21v.28h-7.85L97.53,50.82H90.19Zm0-45.21V44.63h10.66A9.64,9.64,0,0,0,107.69,42a8.55,8.55,0,0,0,2.8-6.51,9.08,9.08,0,0,0-9.21-9Z" fill="#fff"/><path d="M139.15,72.85a16.89,16.89,0,0,1-12.82-5.32,18.81,18.81,0,0,1-5-13.47,19.12,19.12,0,0,1,4.9-13.42,16.19,16.19,0,0,1,12.53-5.37q7.84,0,12.49,5.08t4.64,14.22l-.07.72H128.06a11.51,11.51,0,0,0,3.46,8.35,11,11,0,0,0,7.92,3.17q6.33,0,9.93-6.34l5.91,2.88a17.53,17.53,0,0,1-6.59,7A18.23,18.23,0,0,1,139.15,72.85Zm-10.59-23H148.8a8.83,8.83,0,0,0-3-6.08,10.45,10.45,0,0,0-7.24-2.41,9.63,9.63,0,0,0-6.44,2.3A11,11,0,0,0,128.56,49.81Z" fill="#fff"/><path d="M174.79,72.28a10.11,10.11,0,0,1-7.17-2.66,9.92,9.92,0,0,1-2.91-7.42V42.47h-6.19v-6h6.19V25.62h6.62v10.8H180v6h-8.64V60q0,3.52,1.37,4.79a4.46,4.46,0,0,0,3.1,1.26,6.62,6.62,0,0,0,1.54-.18,8,8,0,0,0,1.41-.47l2.09,5.9A17.67,17.67,0,0,1,174.79,72.28Z" fill="#fff"/><path d="M192.93,71.7h-6.62V36.42h6.33v5.76h.29a9.53,9.53,0,0,1,4.14-4.78,11.5,11.5,0,0,1,6.16-2,12.3,12.3,0,0,1,4.89.86l-2,6.41a10.87,10.87,0,0,0-3.89-.51,8.57,8.57,0,0,0-6.52,3,10.14,10.14,0,0,0-2.77,7Z" fill="#fff"/><path d="M208.27,54.06a18.65,18.65,0,0,1,5.11-13.46,17.44,17.44,0,0,1,13-5.33,17.21,17.21,0,0,1,13,5.33,18.5,18.5,0,0,1,5.19,13.46,18.37,18.37,0,0,1-5.19,13.47,17.2,17.2,0,0,1-13,5.32,17.43,17.43,0,0,1-13-5.32A18.66,18.66,0,0,1,208.27,54.06Zm6.62,0a12.9,12.9,0,0,0,3.31,9.22,11.31,11.31,0,0,0,16.42,0,12.9,12.9,0,0,0,3.31-9.22,12.8,12.8,0,0,0-3.31-9.14,11.16,11.16,0,0,0-16.42,0A12.8,12.8,0,0,0,214.89,54.06Z" fill="#fff"/><path d="M268.6,72.85a15.27,15.27,0,0,1-7.09-1.65,12.43,12.43,0,0,1-4.93-4.39h-.29l.29,4.89V87.25H250V36.42h6.33v4.9h.29a12.43,12.43,0,0,1,4.93-4.39,15.65,15.65,0,0,1,18.9,3.81,19.3,19.3,0,0,1,5,13.32,19.1,19.1,0,0,1-5,13.32A15.13,15.13,0,0,1,268.6,72.85Zm-1.08-6a10.34,10.34,0,0,0,8-3.6,13,13,0,0,0,3.24-9.15,13.15,13.15,0,0,0-3.24-9.14,10.76,10.76,0,0,0-16.06,0,13.34,13.34,0,0,0-3.17,9.14,13.45,13.45,0,0,0,3.17,9.22A10.51,10.51,0,0,0,267.52,66.81Z" fill="#fff"/><path d="M299.64,24.25a4.68,4.68,0,1,1-8-3.31,4.68,4.68,0,0,1,8,3.31Zm-1.37,12.17V71.7h-6.62V36.42Z" fill="#fff"/><path d="M322.39,72.85a16.88,16.88,0,0,1-12.82-5.32,18.81,18.81,0,0,1-5-13.47,19.12,19.12,0,0,1,4.9-13.42A16.19,16.19,0,0,1,322,35.27q7.85,0,12.49,5.08t4.64,14.22l-.07.72H311.3a11.51,11.51,0,0,0,3.46,8.35,11,11,0,0,0,7.92,3.17q6.33,0,9.93-6.34l5.91,2.88a17.53,17.53,0,0,1-6.59,7A18.23,18.23,0,0,1,322.39,72.85Zm-10.59-23H332a8.83,8.83,0,0,0-3-6.08,10.45,10.45,0,0,0-7.24-2.41,9.63,9.63,0,0,0-6.44,2.3A11,11,0,0,0,311.8,49.81Z" fill="#fff"/></svg>