<svg id="Layer_1" data-name="Layer 1" xmlns="http://www.w3.org/2000/svg" viewBox="0 0 1106.4 300.73"><title>scummvm</title><path d="M25,239.62a5.9,5.9,0,0,0,.75-1.48c1.06-5.18,3.81-9.49,7.09-13.45,3.72-4.5,7.63-8.84,11.45-13.25.79-.91,1.61-1.78,2.36-2.71a4.26,4.26,0,0,0,.55-4.95A29.65,29.65,0,0,0,43.46,198c-6.91-7.64-9.7-17-11.23-26.8a65.39,65.39,0,0,1,1.2-26.89c3.7-14.2,12.25-24.76,24.57-32.43A70,70,0,0,1,86.82,102,90.19,90.19,0,0,1,136,109.33,132.44,132.44,0,0,1,157.76,122a49.36,49.36,0,0,1,6.71,5.79c5.8,6,8.2,13.2,7.61,21.46-.14,2.05-.42,4.1-.67,6.5a17.22,17.22,0,0,0,2.58-.81,41.07,41.07,0,0,0,6.06-3.38c6.67-5,14.23-7.89,22.32-9.5,16.06-3.2,32-2.72,47.57,2.55a44.56,44.56,0,0,1,14.9,8.05,22,22,0,0,0,2.13,1.56c2.24,1.46,3.55,1.51,5.66-.21a48.73,48.73,0,0,0,5.23-4.93,13.23,13.23,0,0,1,7.46-4,109.73,109.73,0,0,1,20.29-1.79c6.23-.07,12.48.09,18.7.47a21.11,21.11,0,0,1,7.38,1.81c4.81,2.22,9.11,1.82,13.22-1.45,3-2.42,6.62-3.38,10.41-3.9a155.64,155.64,0,0,1,35.18-.84c3.88.35,7.56,1.28,10.7,3.77,3.32,2.63,7,3,11.11,2.17,9.48-1.82,19.1-1.75,28.69-1.46a23,23,0,0,1,7,1.6,24,24,0,0,0,14.83.74c7.5-2,14.74-.47,21.86,2a8.14,8.14,0,0,1,1.32.58c4.13,2.33,8.23,2,12.39,0,9.61-4.66,19.84-5.15,30.24-4.31a62.18,62.18,0,0,1,15.69,3.27,49.07,49.07,0,0,1,6.67,3.18c1.55.82,3,1.84,4.49,2.77A5.83,5.83,0,0,0,563,153a36.81,36.81,0,0,0,3.25-2.83c2.69-2.88,6.09-4.28,9.85-5.09,7.09-1.54,14.28-1.65,21.48-1.58,1.6,0,3.2.12,4.8.09a35.38,35.38,0,0,1,13.4,2.21,19,19,0,0,0,12.26.57c7.78-2.31,15.19-.71,22.54,1.83,1.51.53,3,1.13,4.49,1.69a8.57,8.57,0,0,0,6.32-.13,15.1,15.1,0,0,0,2-.87A36.49,36.49,0,0,1,675.6,145c.78-.12,1.54-.32,2.49-.53-.51-.93-.9-1.7-1.34-2.45q-17.32-29.19-34.65-58.38c-3.63-6.12-3.72-12.29.09-18.35a15.67,15.67,0,0,1,10.39-7.15Q672.19,54,691.79,50c4.07-.84,8.13-1.72,12.21-2.5a16.52,16.52,0,0,1,18,8.41c4.67,8.19,9.26,16.44,13.88,24.66l38.79,69c.38.67.81,1.33,1.37,2.24a12.07,12.07,0,0,0,.5-1.59q2-14.49,4-29,2.26-16.51,4.55-33T789.67,55c.56-4,1-8.1,1.71-12.11A16.5,16.5,0,0,1,804.85,29c9.63-2,19.27-3.89,28.91-5.83l15.29-3.05c9.59-1.92,16.59,1.77,20.42,10.78a5.13,5.13,0,0,0,.49.72l1.51-1.07a21.08,21.08,0,0,1,14.67-4.17c9.39.87,18.78,1.85,28.17,2.79,3.58.35,7.15.74,10.73,1.1a24,24,0,0,1,21.2,17.8c4.49,16.42,8.89,32.86,13.32,49.29q11.58,42.94,23.14,85.88c.14.53.33,1.06.65,2.09.64-1.09,1.11-1.84,1.54-2.62L1023,113.07q14.74-26.92,29.48-53.86A24.39,24.39,0,0,1,1072.37,46c3.22-.33,6.54.16,9.8.43q12.8,1,25.57,2.24a44,44,0,0,1,7.36,1c8,2.15,13.13,7.31,15.48,15.22a40.83,40.83,0,0,1,.84,4.41v2.4c-.15.85-.37,1.7-.44,2.57-.41,5.1-.75,10.2-1.19,15.3-.87,10.12-1.8,20.23-2.71,30.35q-1,11.7-2.07,23.41-1.35,15.18-2.72,30.35-1.05,11.82-2.09,23.65-1.35,15.06-2.7,30.11c-.71,7.88-1.39,15.77-2.09,23.66q-1.37,15.16-2.73,30.34c-.61,6.77-1.06,13.56-1.9,20.3-1.55,12.43-13.08,19.68-23.47,18.6-12.25-1.28-24.48-2.67-36.74-3.85A22.06,22.06,0,0,1,1030.25,292c1.58-17.52,3.08-35,4.6-52.58.16-1.86.27-3.72.4-5.59a4.41,4.41,0,0,0-1.46,1.61q-7.14,12.36-14.26,24.73c-7,12.19-13.93,24.46-21.13,36.55-5.53,9.26-13.94,13.29-24.7,12.26q-7.87-.76-15.74-1.67a46.58,46.58,0,0,1-8-1.24c-8.88-2.67-14.55-8.61-17.14-17.52q-9.85-34-19.75-67.91c-.21-.7-.47-1.39-.71-2.09a4.59,4.59,0,0,0-.74,2.1q-1.53,11-3.06,22.09c-1.69,12.19-3.49,24.37-5.07,36.58-1.63,12.55-11.87,20.89-24.51,19.75-10.2-.92-20.4-1.73-30.59-2.75-8.42-.84-14.4-5.25-17.89-13-.31-.68-.6-1.38-1.12-2.55-.19.84-.28,1.12-.32,1.41a17.24,17.24,0,0,1-14.62,14.73c-9.7,1.6-19.32,3.63-29,5.44a17.78,17.78,0,0,1-7.85-.11A16.77,16.77,0,0,1,767,294.13q-9.65-16.31-19.34-32.59c-.41-.68-.87-1.34-1.53-2.35-.6,3.3-1,6.07-1.62,8.8a37.53,37.53,0,0,1-5.2,13.32c-2.93,4.32-6.91,7.18-12.12,7.79a41.12,41.12,0,0,1-9.79.13c-7.21-.89-14.39-2.09-21.55-3.34-5.22-.92-10.09-.8-14.71,2.36a16.91,16.91,0,0,1-6.26,2.18,38.16,38.16,0,0,1-7.4.58c-8.56-.07-17.11-.27-25.67-.41a30.82,30.82,0,0,1-13.71-3,11.72,11.72,0,0,0-8.86-.61,32.72,32.72,0,0,1-7,1.42c-6.94.43-13.9.8-20.85.81-5.49,0-11.08.19-16.38-1.76a13.85,13.85,0,0,0-11,.34,19.53,19.53,0,0,1-9.36,1.65c-2.63-.16-5.28-.31-7.88-.73q-7.21-1.17-14.38-2.65c-7-1.45-13.62-.94-20,2.63a22.86,22.86,0,0,1-11.32,2.7c-6,0-12,.19-18-.1-7.58-.38-15.19-.8-22.28-4.07a11.72,11.72,0,0,0-7.76-.37,44.41,44.41,0,0,1-8.22,1.55c-8.71.33-17.43.4-26.14.49a21.44,21.44,0,0,1-5.49-.49c-4.34-1.1-8.34-.3-12.38,1.34a28.84,28.84,0,0,1-7.36,2,142.46,142.46,0,0,1-23,1c-5.1-.2-10.26-.18-15.18-1.87a21,21,0,0,0-13-.12,47,47,0,0,1-7,1.66,62.33,62.33,0,0,1-28.59-3.18c-11.33-3.95-20.87-10.66-29.2-19.2-.59-.62-1.21-1.22-1.86-1.87a19.93,19.93,0,0,0-2.42,1.41c-2.14,1.68-4.34,3.3-6.3,5.17a51,51,0,0,1-21.39,11.89,81.47,81.47,0,0,1-30.41,2.54,85.49,85.49,0,0,1-29.05-7.73c-6.27-3-12.11-6.51-16.39-12.19a19.55,19.55,0,0,0-3.06-3c-2.24-1.85-3.77-1.92-6-.12a41.09,41.09,0,0,0-4.71,4.43,38.68,38.68,0,0,1-9.1,7.38A92.68,92.68,0,0,1,137,283.3c-19.22,8.37-39.09,9.86-59.39,5a82.94,82.94,0,0,1-43.94-26.78c-3.66-4.21-6.55-8.87-7.76-14.42a7.54,7.54,0,0,0-.84-1.68Zm589-66.26a9.85,9.85,0,0,1-1-2.17c-.26-1.57-.4-3.16-.54-4.74-.29-3.35-2.1-5.11-5.41-5.12-1.83,0-3.67.11-5.51.15l-15.8.32c-2.4,0-4.8.07-7.19.17-2.23.1-3,1-2.88,3.17.28,4.61.58,9.22.77,13.84.23,5.42.38,10.85.49,16.27q.15,7.56.16,15.11,0,18.72,0,37.43c0,1-.09,1.92-.09,2.88,0,5.19-.07,10.39.09,15.58.1,3.46,1.35,4.53,4.76,4.5,7.82-.08,15.65-.2,23.48-.31,2.32,0,4.63-.08,6.95-.17,2.58-.1,4.05-1.64,4.17-4.26.11-2.39.25-4.78.31-7.17.18-7.19.36-14.37.49-21.55q.27-15.71.48-31.4a14.91,14.91,0,0,1,1.52-6.46c1.32-2.7,3.84-3.28,6.41-3.5a5.46,5.46,0,0,1,5.72,3.14,29.7,29.7,0,0,1,1.85,4.4,38,38,0,0,1,1.46,10.87q0,19.42,0,38.87c0,.88-.08,1.75-.1,2.63-.13,4.07-.31,8.14-.35,12.2,0,2.68,1.27,4,3.87,4.14,5.34.22,10.69.36,16,.49,2.71.07,5.44,0,8.15.09,2.87.08,5.74.34,8.6.37,2.67,0,3.71-1.35,3.39-4s-.56-5.23-.69-7.85c-.15-3.19-.12-6.39-.2-9.59-.13-5-.41-10-.41-15.07s.15-10.22.47-15.31c.33-5.25.84-10.49,1.51-15.69a18.33,18.33,0,0,1,1.89-5.39,7.45,7.45,0,0,1,7-4.32c3.23,0,6,1.26,7.43,4.34a18,18,0,0,1,1.87,6.11,94.43,94.43,0,0,1,.06,13.35A176.9,176.9,0,0,1,691,237.53c-1.51,8.4-3.43,16.72-5.17,25.08-.56,2.65.55,4.38,3.21,4.82,2.36.39,4.74.64,7.11.94l18.25,2.29c2.53.33,5,.71,7.58,1,2.82.35,3.94-.48,4.48-3.31.3-1.56.52-3.13.75-4.71.61-4.25,1.27-8.51,1.78-12.77.74-6.25,1.66-12.5,2-18.77a184.26,184.26,0,0,0-.23-25.63c-.6-6.85-1.56-13.63-4-20.12-4.6-12.34-13.19-20.31-26-23.55a64.3,64.3,0,0,0-16.88-1.53,32.77,32.77,0,0,0-14.33,3.38A34.68,34.68,0,0,0,659,172.43c-1.19,1.34-2.24,1.31-3.47.06a8.5,8.5,0,0,1-.74-.94c-4.93-6.54-11.74-9.17-19.65-9.06a25.25,25.25,0,0,0-16.42,6.37C617.17,170.14,615.82,171.59,614,173.36Zm329.29,4.56v55.44h-9.12c1.48,5.09,2.87,9.82,4.25,14.56q5.3,18.16,10.59,36.32c1,3.38,3.17,5.49,6.76,5.9,6.88.79,13.77,1.57,20.67,2.24a8.8,8.8,0,0,0,3.48-.59c2.15-.74,3.45-2.41,4.57-4.35q24.79-43.08,49.65-86.15,10.84-18.78,21.69-37.55a17.51,17.51,0,0,1,1.64-2.13l.54.21c0,1.08.07,2.16,0,3.23q-.95,11.19-1.94,22.38c-.42,4.83-.9,9.67-1.31,14.51-.33,3.95-.6,7.91-.91,12h18.63V211.2c0-11.52,0-23,0-34.55,0-3,.18-5.9.33-8.84a9.26,9.26,0,0,1,.42-1.86c1.68-6.16,3.35-12.32,5-18.48,1.14-4.13,2.32-8.26,3.51-12.48h27.08c.46-4.47.94-8.81,1.33-13.16.85-9.6,1.64-19.2,2.48-28.81.63-7.22,1.31-14.44,1.91-21.66.28-3.38-1.57-5.57-4.87-5.86-4.44-.41-8.89-.76-13.34-1.13-2.28-.19-4.57-.36-7-.54-4.28,12.91-8.49,25.63-12.73,38.44h-2.75q-12,0-24,0c-1.15,0-2.06,0-2.74,1.32-4.11,7.68-8.33,15.29-12.51,22.93q-11.45,20.91-22.88,41.82l-21.95,40.15q-4.65,8.5-9.32,17c-.54,1-1,2-2.76,2a19,19,0,0,1-1.15-2.66q-5-18.26-9.86-36.52c-.93-3.46-1.88-6.91-2.82-10.36Zm-435.7,94c-.17-2.07-.46-4.36-.54-6.65-.26-7.42-.6-14.84-.62-22.26q0-12.83.5-25.64A98.6,98.6,0,0,1,508.4,205a14.3,14.3,0,0,1,2-5.1,8.21,8.21,0,0,1,14.35.39,20.14,20.14,0,0,1,1.94,5.85,41.43,41.43,0,0,1,.26,12.38c-.58,4.82-1,9.65-1.67,14.45-.42,3.06-1.12,6.08-1.71,9.12q-1,5.24-2.06,10.47c-.71,3.59-1.5,7.17-2.11,10.77-.44,2.53.48,3.73,3,4.09,3.62.53,7.26.93,10.89,1.39s7.09.93,10.64,1.37c4,.51,8.06,1.05,12.1,1.48,2.31.25,2.94-.26,3.35-2.61.74-4.16,1.4-8.34,2.07-12.51a247.47,247.47,0,0,0,3-26.59,155.69,155.69,0,0,0-.9-28c-.83-6.35-2-12.59-4.69-18.48-4.41-9.78-11.59-16.48-21.84-19.82-6.23-2-12.65-2.45-19.15-2.42a33.82,33.82,0,0,0-21,7c-1.52,1.16-2.91,2.48-4.34,3.76-1.93,1.73-2.92,1.64-4.48-.37a20.6,20.6,0,0,0-2.64-3.09c-7-6.07-15-7.35-23.73-5-4.77,1.26-8.64,4-12.16,7.38-.81.76-1.52,1.69-3.06,1.41a14.62,14.62,0,0,1-.41-1.7c-.14-1.11-.15-2.23-.32-3.33-.8-5.27-2.13-6.29-7.43-6q-6.21.31-12.44.46c-4.39.11-8.79.12-13.18.18-2.61,0-3.29.66-3.27,3.25,0,3.81.06,7.63.21,11.44.17,4,.59,7.94.71,11.92.24,8.3.49,16.6.47,24.9,0,13.1-.3,26.2-.43,39.3-.05,4.4,0,8.8,0,13.2,0,3.27,1.39,4.95,5,4.84,9.74-.31,19.49-.38,29.24-.53,3.67,0,5.19-1.53,5.28-5.24.1-3.91.23-7.82.32-11.72.17-7.91.35-15.81.47-23.72.1-5.83.09-11.67.18-17.51a68.17,68.17,0,0,1,.39-8.35c.75-5.34,2.43-7.32,7.95-7.73a5.6,5.6,0,0,1,5.48,2.73,16.35,16.35,0,0,1,2.29,5.19A60.65,60.65,0,0,1,468.39,215c.06,14.63-.15,29.25-.26,43.87,0,.4-.09.8-.11,1.2-.12,2.62-.31,5.24-.34,7.87,0,2.44,1,4.2,4,4.27s5.9.35,8.84.41c3.92.07,7.84,0,11.76,0,3.27.06,6.53.36,9.8.42C503.87,273.15,505.81,273.67,507.58,271.9ZM100.24,273c4-.4,8.09-.69,12.12-1.21A60.28,60.28,0,0,0,136,263.65a43.1,43.1,0,0,0,18.28-20.91c2.28-5.57,2.87-11.39,2.88-17.36,0-13.27-5-24.39-14-33.85a76.11,76.11,0,0,0-17.68-13.46c-7-4-14.1-7.84-21.06-11.92a35.35,35.35,0,0,1-6.23-4.81,6.89,6.89,0,0,1-2.31-6.49c.84-4.29,3.55-6,8.55-5.78a36.48,36.48,0,0,1,11.81,2.9,80.37,80.37,0,0,1,21.18,12.46c2.6,2.16,4.54,1.9,6.38-.84,1.52-2.26,3-4.53,4.5-6.81,2.18-3.35,4.37-6.69,6.51-10.06,1.33-2.09,1.26-2.6-.45-4.36-.89-.92-1.83-1.78-2.77-2.64a89.05,89.05,0,0,0-20.23-14c-10.19-5.11-21.11-7.18-32.4-7.37a70.23,70.23,0,0,0-11.67.88,48.74,48.74,0,0,0-24.16,10.29c-9.5,7.79-13.88,18-14.42,30.08a67,67,0,0,0,.4,6.92c.42,7.42,3.44,13.86,7.56,19.86a64.43,64.43,0,0,0,17.73,16.95c7.57,5.06,15.47,9.6,23.13,14.53a68.81,68.81,0,0,1,8.71,6.7,8.37,8.37,0,0,1,3,7.91c-.78,4.52-2.72,6.43-7.27,6.73a30.8,30.8,0,0,1-10.93-1c-10.5-3.09-20.06-7.84-27.85-15.74-2.24-2.26-4.18-2.08-6.23.47-2.45,3.06-4.85,6.14-7.27,9.21-2,2.58-4,5.18-6.08,7.72a4.17,4.17,0,0,0-.75,3.73,6.45,6.45,0,0,0,1.74,2.51c3.13,3.41,6.13,6.95,9.5,10.11a58,58,0,0,0,21.18,12.69C83.35,271.66,91.71,272.62,100.24,273ZM307.51,161.31v.17H290c-2,.1-2.61.45-2.94,2.42-.6,3.44-1,6.9-1.48,10.37s-.84,7.09-1.23,10.64c-.26,2.38-.5,4.76-.69,7.14-.21,2.62-.13,5.28-.57,7.86a74.44,74.44,0,0,0-.9,13.33c.07,4.78.06,9.55,0,14.33A55.21,55.21,0,0,0,285,244.68c.61,2,1.58,3.83,2.12,5.82s1.84,3.49,2.9,5.15a37.83,37.83,0,0,0,16.73,14.45,46.73,46.73,0,0,0,14.92,4,67.14,67.14,0,0,0,12.66.41,35.19,35.19,0,0,0,20.12-8.68,9.55,9.55,0,0,1,.94-.74c1.58-1,2.53-.51,2.68,1.4.07.8,0,1.6,0,2.4,0,4.54.9,5.48,5.49,5.41,7-.11,14.05-.32,21.07-.47,3.12-.07,6.23-.1,9.35-.17,2.26-.05,3-.77,2.95-3.06,0-1.59-.23-3.18-.29-4.77-.18-4.86-.31-9.73-.49-14.59q-.47-12.56-1-25.1-.46-12-.95-23.91-.5-12.67-1-25.35c-.19-5.1-.32-10.2-.49-15.31-.12-3.67-1.77-5.16-5.44-5-4.62.18-9.25.36-13.87.45-5.76.11-11.51.13-17.27.18a9.63,9.63,0,0,0-1.2,0,2.51,2.51,0,0,0-2.41,2.76c.09,3.72.15,7.45.41,11.17.3,4.44,1,8.86,1.17,13.3.31,6.36.36,12.72.53,19.08.06,2.08.06,4.16.21,6.23a65.27,65.27,0,0,1-.26,15.74,15.81,15.81,0,0,1-4.15,8.73c-4.29,4.4-9.6,5.92-15.53,5.27a12.76,12.76,0,0,1-11.16-8.57,19.3,19.3,0,0,1-1.22-6.29,232.2,232.2,0,0,1,1.8-29.82c1.05-9.75,2.18-19.48,3.86-29.14a3.58,3.58,0,0,0-3.7-4.4C318.87,161.43,313.19,161.31,307.51,161.31Zm561.87-47c-5.1,34.28-10.18,68.39-15.28,102.64a48.22,48.22,0,0,0,7.21.43,16.63,16.63,0,0,1,11.29,2.93,6.59,6.59,0,0,0,4.09,1c5.12,0,10.24,0,15.36,0h2.54c1.28-9.19,2.54-18.16,3.78-27.14s2.39-18,3.74-27,2.29-17.93,3.92-27c1.33.51,1.39,1.46,1.63,2.24q1.22,4,2.38,8,11.12,38.28,22.25,76.56c.33,1.12.75,2.22,1.14,3.37a74.14,74.14,0,0,0,7.45-.09V174.92h22.29c-7.24-26.87-14.4-53.42-21.58-80H896.78c-2.09,6.49-4.16,12.92-6.26,19.46ZM762.75,254.12l29.39-10.83v-2.43c0-3.2.05-6.4,0-9.6a3,3,0,0,1,1.36-2.82c2.27-1.63,4.46-3.37,6.66-5.1a4,4,0,0,1,2.83-.94c2.63.12,5.28,0,7.92.06a4.07,4.07,0,0,0,2.83-1q4.29-3.45,8.65-6.82a3.74,3.74,0,0,0,1.52-2.54c1.51-9.13,3.1-18.24,4.66-27.35.16-.92.25-1.85.41-3.11H814.65c0-.85-.11-1.39-.1-1.94,0-9.91.13-19.82.12-29.74a3.3,3.3,0,0,1,1.61-3,5.77,5.77,0,0,0,2.75-6.32,6.14,6.14,0,0,1,0-1c0-1.48.07-3,.12-4.65H837c.62-3.73,1.2-7.25,1.8-10.78q3.74-21.92,7.48-43.84,3.27-19.33,6.49-38.68c.57-3.42-1-5.07-4.41-4.46-2.12.38-4.22.87-6.33,1.3l-12.56,2.55v2.51c0,2.72,0,5.44,0,8.15a2.7,2.7,0,0,1-1.2,2.68c-2.61,1.51-3.46,3.75-3,6.63.08.47-.06,1,0,1.44a5.08,5.08,0,0,1-1.95,4.85,6,6,0,0,1-.51.5,3.73,3.73,0,0,0-1.42,3.34c.07,5.19.05,10.39,0,15.59,0,2.15.51,4.59-.33,6.37s-3.16,2.82-4.69,4.32a4.15,4.15,0,0,1-3.26,1.1c-3.52,0-7,0-10.56,0-.61,0-1.23.1-1.91.15a10.28,10.28,0,0,0-.35,1.22q-1,7-1.93,14c-1.83,13.5-3.63,27-5.48,40.5q-3,22-6.12,44c-.13,1-.55,2.42-1.17,2.63-1.33.43-1.71-1.09-2.23-2q-7-12.42-14-24.85c-1-1.78-2.06-3.54-3.24-5.57l-21.27,17.77a9.51,9.51,0,0,0,.11,1.08c3.65,13.64,4,27.58,3.71,41.58a4.3,4.3,0,0,0,.59,2.44c2.25,3.77,4.47,7.56,6.72,11.33S760.44,250.26,762.75,254.12ZM167,214.84a60.46,60.46,0,0,0,2.55,19.61c.73,2.27,1.19,4.64,2.1,6.83a67,67,0,0,0,3.33,6,46.94,46.94,0,0,0,13.89,15.24,50.85,50.85,0,0,0,12.56,6.31c5.79,2.16,11.87,2.82,18,3.28a53.91,53.91,0,0,0,14-.84c13.24-2.51,23.53-9.44,31.11-20.52,3.29-4.81,5.25-10.21,7.12-15.65,1.16-3.39,0-5.54-3.46-6.54q-10.8-3.12-21.63-6.18c-2.67-.76-3.2-.56-4.35,1.85a23.68,23.68,0,0,1-13.61,12.1,13.93,13.93,0,0,1-5.61.83c-7-.4-11.94-4.12-15.1-10.24-3.42-6.61-3.84-13.69-2.15-20.76,2.13-8.94,9.41-16.73,20.89-15.13,6.73.94,11.7,4.2,14.57,10.48,1.26,2.76,2.67,3.47,5.73,3,.39-.06.77-.17,1.16-.27q6.61-1.62,13.24-3.27c3.33-.83,6.67-1.62,10-2.53,2-.55,2.23-1,1.67-2.93-.66-2.3-1.36-4.6-2.22-6.83a50.09,50.09,0,0,0-16.46-22.26c-8-6.12-17.36-8.59-27.25-9.27a72.57,72.57,0,0,0-20,1.35c-10.64,2.24-19.84,7.09-27,15.34s-11,18.39-12.33,29.29C167.23,207,167.21,210.94,167,214.84ZM1108.71,138H1084a13,13,0,0,0-.53,1.39c-2.55,9.16-5.1,18.3-7.59,27.47a15.49,15.49,0,0,0-.5,4q0,21.46,0,42.95c0,.92,0,1.85-.08,2.91h-21.5a24.29,24.29,0,0,0-.48,2.44c-.66,7.46-1.29,14.92-1.94,22.38s-1.28,14.77-1.91,22.15c-.84,9.92-1.56,19.86-2.54,29.77a5.65,5.65,0,0,0,5.33,6.3c3.81.23,7.6.84,11.4,1.2,1.39.13,2.79,0,4.29,0,.68-9.35,1.34-18.55,2-27.87l10.86-1.5,3-5.75H1097a5,5,0,0,0,.31-.9q.93-9.75,1.82-19.51,1-10.71,1.92-21.42c.85-9.69,1.67-19.38,2.52-29.06.6-7,1.24-14,1.85-20.95.38-4.37.72-8.74,1.11-13.1C1107.26,153.39,1108,145.86,1108.71,138Zm-344,28.17c-.47-.93-.83-1.73-1.25-2.48-2.3-4.11-4.63-8.2-6.94-12.31q-11.77-21-23.56-42c-4-7-7.93-14.05-11.84-21.1a2.69,2.69,0,0,0-2.8-1.7,46.4,46.4,0,0,1-6.24,0,3.14,3.14,0,0,0-3.32,1.76c-.12.21-.31.37-.42.58a3.23,3.23,0,0,1-3.47,1.89c-3.27-.13-6.56-.05-9.84,0-.6,0-1.21.12-2,.21v19.38c-5.19.22-10.17-.06-15.42.18.52,1,.83,1.6,1.19,2.2,5.93,10,11.9,20.06,17.78,30.13a4.2,4.2,0,0,0,3.38,2.19,60.37,60.37,0,0,1,18.9,5.89c9.89,5.13,16.71,13.2,21.37,23.18,1.37,2.93,2.46,6,3.8,9.29Zm176-74c-.11-.63-.13-.86-.19-1.08q-5.17-19.31-10.37-38.6a7.8,7.8,0,0,0-7-5.67c-6.74-.68-13.48-1.31-20.22-2-5.63-.55-11.26-1-16.88-1.68-3.93-.45-6.15,1-6.76,4.86-1.49,9.36-2.86,18.74-4.28,28.11q-2.07,13.71-4.11,27.41c-.38,2.51-.69,5-1.05,7.71h18.68c2-6.35,4.09-12.69,6.15-19.1ZM764.43,256.6a9.84,9.84,0,0,0,.41,1.08c4.77,8,9.5,16.08,14.33,24.08a6.82,6.82,0,0,0,7.41,3.29q10.26-1.76,20.45-3.84a7.41,7.41,0,0,0,6.24-6.43c.51-3,1-6,1.49-8.95q4-23.08,7.92-46.18a11.19,11.19,0,0,0,0-1.58l-3.91,3c-1.84,1.4-3.49,3.37-5.57,4s-4.74.21-7.12,0a7.54,7.54,0,0,0-6.14,1.93,24.19,24.19,0,0,1-3.41,2.63,3.3,3.3,0,0,0-1.54,3.23c.07,3.51,0,7,0,10.55,0,.61-.1,1.23-.15,1.86Zm86.05-13.93a8.54,8.54,0,0,0-.37,1.23q-2.29,15.25-4.56,30.5a4.53,4.53,0,0,0,3.43,5.06,27,27,0,0,0,4,.47c9.12.81,18.25,1.63,27.38,2.4,3.6.31,5.78-1.3,6.32-4.95,1.44-9.69,2.76-19.4,4.11-29.1,0-.21-.13-.44-.27-.84ZM718.29,83.72c-.35-.8-.51-1.31-.77-1.77-2.3-4.11-4.63-8.2-6.92-12.32-2.4-4.31-4.89-5.45-9.68-4.46q-18.15,3.77-36.32,7.49c-1.32.28-2.67.51-4,.89a3.24,3.24,0,0,0-2.24,4.7,8.94,8.94,0,0,0,.65,1.27q7.94,13.4,15.87,26.79a2.14,2.14,0,0,0,2.07,1.27c4.07-.06,8.15,0,12.23-.06a4.35,4.35,0,0,0,1.07-.33V87.88h2.58c3.19,0,6.4-.17,9.59.05,2.34.16,4-.46,5.07-2.58.7-1.41,1.86-1.73,3.36-1.66C713.26,83.81,715.63,83.72,718.29,83.72Zm108.24-41.8a7.27,7.27,0,0,0-1.18,0c-4.22.84-8.45,1.65-12.66,2.58a7.35,7.35,0,0,0-5.65,6.4c-.51,3.63-1,7.26-1.47,10.89q-2.15,15.51-4.28,31c-.12.9-.1,1.82-.15,2.91,3.34,0,6.37-.15,9.39,0A7.93,7.93,0,0,0,817,93.44a4.28,4.28,0,0,0,1.6-3.45c-.09-6.64,0-13.28,0-19.91,0-1,0-1.92.85-2.6a8.39,8.39,0,0,0,3.31-8.6v-.24A4.77,4.77,0,0,1,825,53.57a3.26,3.26,0,0,0,1.45-2C826.61,48.37,826.53,45.18,826.53,41.92Zm24.22,197.65c3,.94,38.89,5,40.68,4.61.9-6.56,1.81-13.15,2.76-20h-2.61c-5,0-10.07-.07-15.11,0a8.33,8.33,0,0,1-5.2-1.38A15.52,15.52,0,0,0,860.44,220c-2.2.22-4.43,0-6.79,0C852.65,226.74,851.7,233.17,850.75,239.57Zm235.87-176c-3.82-.36-7.14-.64-10.46-1-4.33-.45-7.3,1.34-9.36,5.15-5.38,10-10.87,19.89-16.29,29.84a12.17,12.17,0,0,0-.64,1.72h24.85C1078.66,87.48,1082.58,75.7,1086.62,63.59Zm-14.07,212.06c-.6,8.69-1.19,17.24-1.79,26,2.22.25,4.11.47,6,.67,4,.43,8.07.92,12.12,1.25a4.92,4.92,0,0,0,5.49-4.76c.19-1.91.32-3.81.5-5.71.46-5,1-10,1.4-15,.26-3,.43-6,.65-9.11h-11.5a23.3,23.3,0,0,0-1.6,3.2c-.6,1.83-1.88,2.31-3.61,2.47C1077.68,274.86,1075.18,275.29,1072.55,275.65Zm-243-97c2.31-13.59,4.59-27.07,6.9-40.69H821.9a21.2,21.2,0,0,0,0,3,7.11,7.11,0,0,1-3.07,7.45,3.19,3.19,0,0,0-1.3,2.9c0,8.39-.08,16.79-.12,25.18,0,.69.09,1.39.14,2.16Z" transform="translate(-25.02 -19.63)" fill="#fff"/></svg>