<svg id="svg4139" xmlns="http://www.w3.org/2000/svg" viewBox="0 0 189.69 27.24"><title>sg-1000</title><g id="layer1"><g id="text4145"><path id="path6759" d="M30.24,26.45a5.13,5.13,0,0,1-5.48,5.44H5.32V26.45H24.76V21H10.28a5.25,5.25,0,0,1-3.9-1.52,5.35,5.35,0,0,1-1.5-3.92V10.09a5.31,5.31,0,0,1,.44-2.16A5.54,5.54,0,0,1,6.5,6.21,5.73,5.73,0,0,1,8.22,5.07a5.2,5.2,0,0,1,2.06-.42H28.4v5.44H10.28v5.48H24.76a5.55,5.55,0,0,1,3.9,1.56,5,5,0,0,1,1.16,1.72A5.47,5.47,0,0,1,30.24,21Z" transform="translate(-4.88 -4.65)" fill="#fff"/><path id="path6761" d="M61.85,31.89H40.05c-3.63,0-5.44-1.82-5.44-5.44V10.09a5.15,5.15,0,0,1,.44-2.16,5.22,5.22,0,0,1,1.18-1.72A5.49,5.49,0,0,1,38,5.07a5.25,5.25,0,0,1,2.1-.42H60.93v5.44H40.05V26.45H56.37V21H45.53V15.57H61.85Z" transform="translate(-4.88 -4.65)" fill="#fff"/><path id="path6763" d="M82.31,21H66V15.57H82.31Z" transform="translate(-4.88 -4.65)" fill="#fff"/><path id="path6765" d="M101.26,31.89H84.94V26.45h5.48V10.09H84.94V4.65H95.86v21.8h5.4Z" transform="translate(-4.88 -4.65)" fill="#fff"/><path id="path6767" d="M132.07,26.45c0,3.62-1.81,5.44-5.44,5.44H110.31c-3.6,0-5.4-1.82-5.4-5.44V10.09a5.31,5.31,0,0,1,.44-2.16,5.37,5.37,0,0,1,1.18-1.72,5.61,5.61,0,0,1,1.72-1.14,5.16,5.16,0,0,1,2.06-.42h16.32a5.42,5.42,0,0,1,2.12.42,5.21,5.21,0,0,1,1.74,1.16,5.45,5.45,0,0,1,1.58,3.86Zm-5.44,0V10.09H110.31V26.45Z" transform="translate(-4.88 -4.65)" fill="#fff"/><path id="path6769" d="M163.32,26.45c0,3.62-1.81,5.44-5.44,5.44H141.56c-3.6,0-5.4-1.82-5.4-5.44V10.09a5.31,5.31,0,0,1,.44-2.16,5.37,5.37,0,0,1,1.18-1.72,5.61,5.61,0,0,1,1.72-1.14,5.16,5.16,0,0,1,2.06-.42h16.32a5.42,5.42,0,0,1,2.12.42,5.21,5.21,0,0,1,1.74,1.16,5.45,5.45,0,0,1,1.58,3.86Zm-5.44,0V10.09H141.56V26.45Z" transform="translate(-4.88 -4.65)" fill="#fff"/><path id="path6771" d="M194.57,26.45c0,3.62-1.81,5.44-5.44,5.44H172.81c-3.6,0-5.4-1.82-5.4-5.44V10.09a5.31,5.31,0,0,1,.44-2.16A5.37,5.37,0,0,1,169,6.21a5.61,5.61,0,0,1,1.72-1.14,5.16,5.16,0,0,1,2.06-.42h16.32a5.42,5.42,0,0,1,2.12.42A5.21,5.21,0,0,1,193,6.23a5.45,5.45,0,0,1,1.58,3.86Zm-5.44,0V10.09H172.81V26.45Z" transform="translate(-4.88 -4.65)" fill="#fff"/></g></g></svg>