<svg id="Ebene_1" data-name="Ebene 1" xmlns="http://www.w3.org/2000/svg" viewBox="0 0 566.93 98.44"><title>snes</title><g id="g3"><g id="g5"><path id="path2842" d="M61.84,64.83c0,8.19-13.27,14.83-29.65,14.83S2.54,73,2.54,64.84h0C2.53,56.64,15.81,50,32.19,50s29.65,6.64,29.65,14.83Z" transform="translate(-2.54 -4.91)" fill="#fff"/><path id="path3624" d="M112.91,88.26c0,8.19-13.27,14.83-29.65,14.83S53.61,96.46,53.61,88.27h0c0-8.18,13.27-14.82,29.65-14.82s29.65,6.63,29.65,14.82Z" transform="translate(-2.54 -4.91)" fill="#fff"/><path id="path3644" d="M62.93,5.16A27.48,27.48,0,0,0,35.48,32c.63,0,1.24-.07,1.88-.07A27.48,27.48,0,0,1,64.82,59.4c0,.23,0,.45,0,.68A27.49,27.49,0,0,0,62.93,5.16Z" transform="translate(-2.54 -4.91)" fill="#fff"/><path id="path3897" d="M114.93,29.24A27.47,27.47,0,0,0,87.47,56.72c0,.33,0,.68,0,1,.36,0,.73,0,1.1,0A27.48,27.48,0,0,1,116,84.16a27.47,27.47,0,0,0-1.1-54.92Z" transform="translate(-2.54 -4.91)" fill="#fff"/></g><path id="polyline2177" d="M189.43,4.91a8.59,8.59,0,0,0-8.08,6.92V12l-.07.07v.21l-.07.13v.14l-.07.14v.2l-.07.14v.21l-.07.2-.07.21-.06.41-.14.48-.07.48-.14.47-.07.55-.13.55-.14.62-.14.54-.2,1.17-.14.62-.14.54-.06.55-.14.55-.14.55-.07.54-.07.48-.13.41-.07.48v.21l-.07.14v.34l-.07.2v.28l-.07.14v.13c-.07,1.68.17,4,.69,4.39.66,3.69,13,20.76,12.6,23.36s-1.78,10.27-1.78,10.27c-.45,2.59-2.21,4.66-4.79,4.66a3.84,3.84,0,0,1-3.91-4.66l2.33-12.74h-9.18l-3.08,17.67A5.29,5.29,0,0,0,177,74.5H190a8.13,8.13,0,0,0,7.74-6.44s3.38-16.5,3.36-17.67-.34-1.3-.34-1.3c0-1.34-10.94-19.4-12.06-20.07-.48-.28-.87-2.07-.89-3.15s1.44-8.29,1.44-8.29a5.76,5.76,0,0,1,5.48-4.66c2.58,0,3.66,2.07,3.22,4.66L196,29h9.25l3.22-17.2C209.2,8,206.75,4.91,203,4.91Zm25.21,0-11,63.16a5.29,5.29,0,0,0,5.41,6.44h13.08A8.21,8.21,0,0,0,230,68.07L241.69,4.91h-8.22L222.31,66.28a2.07,2.07,0,0,1-1.92,1.65h-6.51a1.36,1.36,0,0,1-1.37-1.65L223.4,4.91Zm31.51,0L232.93,74.5h8.76l6-31.51h11.17a8.16,8.16,0,0,0,7.74-6.43l4.79-24.73C272.15,8,269.7,4.91,266,4.91h-19.8Zm31.3,0L263.75,74.5h19.73l1.37-8.63h-9.73l4-23.49h9.72l1.37-7.26h-9.72l4.31-21.58h9.73l1.37-8.63Zm23.57,0L287.87,74.5h8.76l6-31.51h6.24a4.91,4.91,0,0,1,1,2.88,12.67,12.67,0,0,1,.21,3.36c-.11,1-4.8,25.27-4.8,25.27H314S319,48.08,319,47.65a5.25,5.25,0,0,0-.48-2.53,7.23,7.23,0,0,0-1.51-2,16,16,0,0,0-2.6-1.3h-.62c2.51-1,7.24-2.62,7.74-5.27l4.79-24.73c.73-3.84-1.72-6.92-5.48-6.92Zm46.92,0L334.72,74.5h10.07l8.15-40.34,3.22,40.34h8.77L378.15,4.91H368.08l-6.85,36.37L356.71,4.91Zm34.8,0L369.52,74.5h8.77L391.51,4.91Zm13.35,0L382.88,74.5H393l8.16-40.34,3.22,40.34h8.76L426.38,4.91H416.24l-6.78,36.37L404.93,4.91Zm34,0-1.64,8.63h5.48l-10.83,61h10l11-61h5.27l1.37-8.63Zm24.11,0L440.49,74.5h19.72l1.37-8.63h-9.72l4-23.49h9.72L467,35.12h-9.73l4.24-21.58h9.73l1.37-8.63Zm22.27,0L463.23,74.5h10.14l8.15-40.34,3.22,40.34h8.77L506.73,4.91H496.59l-6.78,36.37L485.28,4.91Zm34.87,0L498.09,74.5h20a8.22,8.22,0,0,0,7.81-6.43l10.61-56.24c.72-3.84-1.72-6.92-5.47-6.92Zm37.6,0a8.52,8.52,0,0,0-8,6.92l-9.8,56.24a5.24,5.24,0,0,0,5.35,6.43h14.45a8.22,8.22,0,0,0,7.81-6.43l10.62-56.24c.72-3.83-1.73-6.92-5.48-6.92Zm-30.14,8h4.05a3.84,3.84,0,0,1,3.9,4.66L518.1,63.13a5.91,5.91,0,0,1-5.55,4.73h-4Zm35.28,0h.28a3.79,3.79,0,0,1,3.83,4.66L550,63.13a5.77,5.77,0,0,1-5.41,4.73c-2.59,0-3.67-2.14-3.22-4.73l8.15-45.55.07-.21.07-.2.06-.28.07-.2.07-.28.07-.2L550,16l.13-.2.07-.21.14-.2.07-.21.14-.21.13-.13.14-.21.14-.2.2-.14.14-.14.14-.14.2-.13.21-.14.14-.14.2-.13.21-.07.2-.14.14-.07.27-.07.21-.07h.2l.21-.06h.27Zm-299.49.28h4.25c.93,0,2.91,2.13,2.74,3.08l-3.63,17.19c-.17.89-1.37,3-2.26,3h-5.28l-.06-.07h-.28v-.07h-.14l-.07-.07h-.06l-.07-.07-.07-.06h-.07V36l-.07-.07-.07-.07V35.8l-.06-.07-.07-.07v-.13l-.07-.07v-.14l-.07-.07v-.06c0-.12,0-.29,0-.42l4.11-21A2.14,2.14,0,0,1,254.57,13.2Zm54.6,0h4.25c.93,0,2.92,2.13,2.73,3.08L312.52,33.4c-.16.9-2.39,3-3.28,3h-3.77a1.3,1.3,0,0,1-1.37-1.23,2.8,2.8,0,0,1,0-.41l4-21,.07-.07.07-.07.13-.07h.07l.07-.07.07-.07h.07l.06-.07h.07l.14-.06h.2V13.2ZM170,80.53v22.81H561V80.53Zm287.44,2.4h3.35A1.21,1.21,0,0,1,462,84.44l-.75,3.84h-1.85l.41-2.54a.82.82,0,0,0-.82-1,1.29,1.29,0,0,0-1.23,1l-.34,1.85a1.12,1.12,0,0,0,.2.69,30.31,30.31,0,0,1,2.67,4.45c.06.15.09.22.07.27-.07.5-.76,3.91-.76,3.91a1.8,1.8,0,0,1-1.71,1.43H455a1.16,1.16,0,0,1-1.17-1.43l.69-3.91h2L456,95.81a.87.87,0,0,0,.81,1.1,1.37,1.37,0,0,0,1.24-1.1l.41-2.26c-.37-.94-2.79-4.39-2.95-5.21a1.93,1.93,0,0,1-.13-1c0-.4.54-2.94.54-2.94H456v-.2l.07-.14V84l.07-.07v-.07l.07-.06v-.07l.06-.07.07-.07v-.07h.07l.07-.06.07-.07.07-.07v-.07h.07l.06-.07.07-.07h.07l.07-.06h.07l.06-.07h.21Zm15.75,0h2.47l.34,5.82,3.15-5.82h2.47l-5.07,8.91-1.24,6.5h-2.19l1.1-7Zm22.4,0h3.36a1.22,1.22,0,0,1,1.23,1.51l-.76,3.84h-1.85l.42-2.54a.83.83,0,0,0-.82-1,1.29,1.29,0,0,0-1.24,1l-.34,1.85a1,1,0,0,0,.2.69,30.37,30.37,0,0,1,2.68,4.45.56.56,0,0,1,.07.27c-.1.5-.69,3.91-.69,3.91a1.83,1.83,0,0,1-1.71,1.43h-2.95A1.16,1.16,0,0,1,492,96.91l.69-3.91h2l-.48,2.81a.89.89,0,0,0,.82,1.1,1.37,1.37,0,0,0,1.23-1.1l.41-2.26c-.37-.94-2.78-4.39-2.94-5.21a1.9,1.9,0,0,1-.14-1c0-.4.55-2.94.55-2.94l.07-.07v-.13l.07-.14V84l.06-.07v-.07l.07-.06v-.07l.07-.07.07-.07v-.07h.07l.06-.06.07-.07.07-.07.07-.07.07-.07.07-.07h.06l.07-.06h.07l.07-.07h.2Zm16,0h4.59l-.34,1.85H514.6l-2.39,13.56H510l2.39-13.56h-1.16Zm18,0h4.11l-.35,1.85h-2.12l-1,4.87h2.2L532,91.22h-2.12L529,96.43h2.12l-.27,1.91h-4.39Zm16.92,0h2.53l.41,8.91L553.24,83l2.46-.07-2.6,15.41h-1.92l1.24-8.15L549,98.34h-1.37L547.21,90l-1.51,8.35h-2.26Zm-367.92.55h4l-.28,1.92H180l-.89,4.79h2.13L181,91.84h-2.19L178,97h2.12L179.77,99h-4.38Zm18.9,0h1.92l1,8.08,1.5-8.08h2.27l-3,15.48h-1.92l-.75-9-1.78,9h-2.26Zm20.55,0h4.53l-.28,1.92H221L218.54,99h-2.19l2.4-13.56h-1.24Zm19.94,0H242l-.34,1.92H239.5l-1,4.79h2.13l-.28,1.65h-2.12l-.89,5.2h2.12L239.23,99h-4.38Zm19.32,0h4.38a1.22,1.22,0,0,1,1.16,1.57l-1,5.48c-.12.6-1.16,1.08-1.72,1.31h.28v.06h.27l.07.07h.21V92H261v.07H261a2.27,2.27,0,0,1,.14.75c0,.09-1.1,6.1-1.1,6.1h-2s1.06-5.39,1.09-5.62a2.66,2.66,0,0,0-.06-.75,1,1,0,0,0-.21-.62h-1.37l-1.3,7h-2Zm19.59,0h4.59l-.28,1.92h-1.16L277.45,99h-2.19l2.4-13.56h-1.23Zm22.81,0h2.6L301.36,99h-2.6l.34-3.56h-1.58L296.22,99h-2.33Zm18.22,0h2l-3,15.48h-1.92Zm17.67,0h1.92l1,8.08,1.51-8.08h2.19L339.24,99h-2l-.69-9-1.78,9h-2.26Zm22.68,0h2.53l.41,9,3.91-8.9h2.46L364.86,99h-1.92l1.24-8.15L360.75,99h-1.37L359,90.61,357.46,99h-2.19Zm24.86,0h4.05l-.28,1.92h-2.19l-.89,4.79h2.12l-.27,1.65h-2.19l-.89,5.2h2.19L384.31,99H380Zm19.87,0h1.92l1,8.08,1.51-8.08h2.19L406.65,99h-1.92L404,90l-1.78,9h-2.26Zm20.34,0h4.59l-.34,1.92h-1.16L423.91,99h-2.19l2.39-13.56h-1.23ZM259,85.33a.4.4,0,0,0-.28.14l-.89,4.65v.07a.27.27,0,0,0,.27.28H259a1.28,1.28,0,0,0,.75-.62l.75-3.84a.83.83,0,0,0-.55-.68ZM299.58,90l-1.44,3.9h1.1Z" transform="translate(-2.54 -4.91)" fill="#fff"/></g></svg>