<svg id="svg2" xmlns="http://www.w3.org/2000/svg" viewBox="0 0 566.93 142.56"><title>virtualboy</title><g id="g4263"><path id="path2952" d="M0,0,29.73,142.55,59.3,0h-16L29.73,80.12,16,0Z" fill="#fff"/><path id="path3726" d="M65.86,0h16V142.55h-16V0Z" fill="#fff"/><path id="path3728" d="M96.18,0V142.55h16V68.9l22.27,73.65h14.76l-17.81-67.4c9.89-5.93,12.81-13.71,12.81-13.71V16.16C137.66,1.6,126.35,0,126.35,0Zm16,14.51h16V64.05h-16Z" fill="#fff"/><path id="path3733" d="M149.24,0h47.87V14.5h-16V142.55h-16V14.5H149.24V0Z" fill="#fff"/><path id="path3735" d="M285.67,0,254.75,142.4v.15h15.86L274,123.34h22.37l3.2,19.21h16L285.67,0Zm0,61.44L293,110.53H277.16Z" fill="#fff"/><path id="path2882" d="M322,0h16v128H361.9v14.48H322V0Z" fill="#fff"/><path id="path3660" d="M493.15,0h14.63l14.94,61.43L536.29,0h16.16L530,83.86v58.69H514V83.86L493.15,0Z" fill="#fff"/><path id="path3662" d="M464.42,0c-18.19,0-24,16.14-24,16.14.15.23,0,107.18,0,110.23,2.41,17.33,24,16.16,24,16.16h0c24,0,24-16.16,24-16.16V16.16C482.21-.78,464.42,0,464.42,0Zm-8,16.14h16V128h-16Z" fill="#fff"/><path id="path3667" d="M203.36,0h16.16V126.39h16.16V0h15.85V126.39s-5.18,16.16-23.32,16.16-24.85-16.16-24.85-16.16V0Z" fill="#fff"/><path id="path3669" d="M379.59,0V142.55h32.17C426.7,138.66,427.62,128,427.62,128s0-38.07,0-47.92c-1.12-6.21-6.23-6.42-6.23-6.42s0-1.73,0-3.1c5.64-.43,6.25-6.56,6.25-6.56s0-38,0-47.88C425.18,4.53,411.76,0,411.76,0Zm16.06,16.26h16.11V64H395.65Zm0,62.25h16.16V128H395.6V78.51Z" fill="#fff"/><path id="path3699" d="M539.72,128.07h11.12v1.65h-4.72v12.83h-1.6V129.72h-4.81v-1.65Z" fill="#fff"/><path id="path3713" d="M552.45,142.55V128.07h1.6L559.77,141l5.48-12.92h1.68v14.48h-1.68V131.34l-4.73,11.21h-1.61l-4.86-11.21v11.21Z" fill="#fff"/></g></svg>