<svg id="svg2" xmlns="http://www.w3.org/2000/svg" viewBox="0 0 697.29 207.33"><title>wiiu</title><g id="Capa_1"><g id="_56610944" data-name=" 56610944"><path id="_56666168" data-name=" 56666168" d="M564,72c0,47.58,56.25,40.78,56.25,7.5V.79H564Z" transform="translate(-0.5 -0.5)" fill="#fff"/><path id="_56603080" data-name=" 56603080" d="M486.54,122c0,23.51,16.24,37.5,40,37.5h135c20.05,0,36.25-13.84,36.25-33.75V27c0-12-8.94-25-20-25H646.54V83.29c0,61.72-107.5,61.24-107.5,1.25V.79H515.29c-15.46,0-28.75,9.8-28.75,25V122Z" transform="translate(-0.5 -0.5)" fill="#fff"/><path id="_56604928" data-name=" 56604928" d="M299.68,24.14c0,12.83,10.81,23.63,24.31,23.63,14.19,0,25.33-10.46,25.33-23.63S338.18.5,324,.5C310.49.5,299.68,11,299.68,24.14Z" transform="translate(-0.5 -0.5)" fill="#fff"/><polygon id="_56605920" data-name=" 56605920" points="345.11 205.98 345.11 70.57 303.23 70.57 303.23 205.98 345.11 205.98" fill="#fff"/><path id="_56605848" data-name=" 56605848" d="M384.44,24.14c0,12.83,11.14,23.63,24.65,23.63,13.84,0,25-10.46,25-23.63S422.93.5,409.09.5C395.58.5,384.44,11,384.44,24.14Z" transform="translate(-0.5 -0.5)" fill="#fff"/><polygon id="_56607936" data-name=" 56607936" points="429.86 205.98 429.86 70.57 387.99 70.57 387.99 205.98 429.86 205.98" fill="#fff"/><path id="_56607472" data-name=" 56607472" d="M237.21,12,200.74,155.49S172.71,47.77,168,32.24c-4.39-15.19-13.85-22-27-22-13.5,0-22.62,6.76-27.35,22C109.23,47.77,81.2,155.49,81.2,155.49L44.4,12H.5s42.21,153,48,170.86c4.39,13.85,15.2,25,30.73,25,18.23,0,26.67-13.17,30.39-25C113.62,170.69,141,69.72,141,69.72s27.35,101,31.07,113.12c4.05,11.82,12.49,25,30.39,25,15.87,0,26.34-11.14,31.07-25C239.24,165,281.45,12,281.45,12Z" transform="translate(-0.5 -0.5)" fill="#fff"/></g></g></svg>