<svg xmlns="http://www.w3.org/2000/svg" viewBox="0 0 308.81 428.03"><title>3do</title><g id="Layer_3" data-name="Layer 3"><circle cx="154.4" cy="85.63" r="8.2" fill="#fff"/><line x1="11.9" y1="122.13" x2="296.9" y2="122.13" fill="none"/><rect x="11.9" y="119.13" width="285" height="6" fill="#fff"/><line x1="11.9" y1="378.63" x2="296.9" y2="378.63" fill="none"/><rect x="11.9" y="375.63" width="285" height="6" fill="#fff"/><circle cx="154.4" cy="419.83" r="8.2" fill="#fff"/></g><g id="TEXT_LAYER" data-name="TEXT LAYER"><path d="M14,37.62V58.5H7.4V7H25a15.9,15.9,0,0,1,11.38,4.46,14.35,14.35,0,0,1,4.75,10.87,14.29,14.29,0,0,1-4.75,10.95A15.84,15.84,0,0,1,25,37.62Zm0-24.34v18H25.11a8.74,8.74,0,0,0,6.55-2.66,8.65,8.65,0,0,0,2.66-6.34A8.55,8.55,0,0,0,31.66,16a8.66,8.66,0,0,0-6.55-2.74Z" transform="translate(-7.4 -6.37)" fill="#fff"/><path d="M58.8,22.07q7.35,0,11.6,3.92t4.25,10.77V58.5H68.31V53.6H68q-4.11,6.06-10.94,6a14.26,14.26,0,0,1-9.76-3.45,11,11,0,0,1-3.92-8.64,10.5,10.5,0,0,1,4.14-8.72q4.14-3.24,11.05-3.24a19.59,19.59,0,0,1,9.72,2.16V36.25a7.54,7.54,0,0,0-2.74-5.87A9.41,9.41,0,0,0,59.17,28a10.16,10.16,0,0,0-8.79,4.68L44.55,29Q49.36,22.07,58.8,22.07ZM50.24,47.7A5.29,5.29,0,0,0,52.43,52a8.11,8.11,0,0,0,5.15,1.73A10.53,10.53,0,0,0,65,50.65a9.68,9.68,0,0,0,3.28-7.27q-3.11-2.45-8.64-2.45a11.19,11.19,0,0,0-6.73,2A5.76,5.76,0,0,0,50.24,47.7Z" transform="translate(-7.4 -6.37)" fill="#fff"/><path d="M82.13,23.22h6.34v4.9h.29A11.67,11.67,0,0,1,93.4,23.8a13.24,13.24,0,0,1,6.52-1.73q6.48,0,10,3.71t3.49,10.54V58.5h-6.62V36.76q-.23-8.64-8.72-8.64a8.26,8.26,0,0,0-6.62,3.2A11.59,11.59,0,0,0,88.76,39V58.5H82.13Z" transform="translate(-7.4 -6.37)" fill="#fff"/><path d="M134.19,22.07q7.34,0,11.59,3.92T150,36.76V58.5h-6.34V53.6h-.29a12.61,12.61,0,0,1-10.94,6,14.26,14.26,0,0,1-9.76-3.45,11.07,11.07,0,0,1-3.92-8.64,10.5,10.5,0,0,1,4.14-8.72q4.14-3.24,11-3.24a19.54,19.54,0,0,1,9.72,2.16V36.25A7.56,7.56,0,0,0,141,30.38,9.43,9.43,0,0,0,134.55,28a10.17,10.17,0,0,0-8.79,4.68L119.93,29Q124.76,22.07,134.19,22.07ZM125.62,47.7a5.27,5.27,0,0,0,2.2,4.32A8.09,8.09,0,0,0,133,53.75a10.55,10.55,0,0,0,7.45-3.1,9.7,9.7,0,0,0,3.27-7.27q-3.09-2.45-8.64-2.45a11.19,11.19,0,0,0-6.73,2A5.76,5.76,0,0,0,125.62,47.7Z" transform="translate(-7.4 -6.37)" fill="#fff"/><path d="M184.16,48.71a9.57,9.57,0,0,1-4,7.77A15.91,15.91,0,0,1,170,59.65a16.11,16.11,0,0,1-9.36-2.77,15.31,15.31,0,0,1-5.76-7.31l5.91-2.52A10.88,10.88,0,0,0,164.54,52,9.13,9.13,0,0,0,170,53.75a9.59,9.59,0,0,0,5.29-1.37,3.88,3.88,0,0,0,2.13-3.24c0-2.26-1.73-3.91-5.18-5l-6.05-1.51q-10.31-2.59-10.3-9.94A9.19,9.19,0,0,1,159.79,25a18,18,0,0,1,18.5-.68,12.14,12.14,0,0,1,5.29,6l-5.9,2.44a7.52,7.52,0,0,0-3.28-3.49A10.25,10.25,0,0,0,169.33,28a8.49,8.49,0,0,0-4.65,1.3,3.72,3.72,0,0,0-2.05,3.17c0,2,1.89,3.45,5.69,4.32l5.32,1.36Q184.16,40.72,184.16,48.71Z" transform="translate(-7.4 -6.37)" fill="#fff"/><path d="M188.26,40.86a18.65,18.65,0,0,1,5.11-13.46,17.4,17.4,0,0,1,13-5.33,17.17,17.17,0,0,1,13,5.33,18.5,18.5,0,0,1,5.19,13.46,18.34,18.34,0,0,1-5.19,13.46,17.17,17.17,0,0,1-13,5.33,17.4,17.4,0,0,1-13-5.33A18.65,18.65,0,0,1,188.26,40.86Zm6.62,0a12.94,12.94,0,0,0,3.32,9.22,11.32,11.32,0,0,0,16.41,0,12.94,12.94,0,0,0,3.31-9.22,12.8,12.8,0,0,0-3.31-9.14,11.15,11.15,0,0,0-16.41,0A12.81,12.81,0,0,0,194.88,40.86Z" transform="translate(-7.4 -6.37)" fill="#fff"/><path d="M229.88,23.22h6.33v4.9h.29a11.74,11.74,0,0,1,4.64-4.32,13.24,13.24,0,0,1,6.52-1.73q6.48,0,10,3.71t3.49,10.54V58.5H254.5V36.76q-.21-8.64-8.71-8.64a8.28,8.28,0,0,0-6.63,3.2A11.64,11.64,0,0,0,236.5,39V58.5h-6.62Z" transform="translate(-7.4 -6.37)" fill="#fff"/><path d="M277.47,11.05a4.51,4.51,0,0,1-1.37,3.31,4.68,4.68,0,0,1-8-3.31,4.68,4.68,0,1,1,9.36,0ZM276.1,23.22V58.5h-6.63V23.22Z" transform="translate(-7.4 -6.37)" fill="#fff"/><path d="M300.51,59.65a17.41,17.41,0,0,1-13-5.33,19,19,0,0,1-5.11-13.46,18.69,18.69,0,0,1,5.11-13.46,17.41,17.41,0,0,1,13-5.33A16.16,16.16,0,0,1,316,32.22l-6.05,2.52q-2.81-6.63-9.87-6.62a10.21,10.21,0,0,0-7.84,3.67A13.22,13.22,0,0,0,289,40.86a13.22,13.22,0,0,0,3.24,9.07,10.21,10.21,0,0,0,7.84,3.67A10.37,10.37,0,0,0,310.3,47l5.9,2.52A15.75,15.75,0,0,1,310.12,57,17.21,17.21,0,0,1,300.51,59.65Z" transform="translate(-7.4 -6.37)" fill="#fff"/><path d="M55.83,159.28v102.6H42v-85.5l-20,8.7-5.25-11.7L47,159.28Z" transform="translate(-7.4 -6.37)" fill="#fff"/><path d="M106.52,224.38q-12.3,0-22.35-9.75a32.53,32.53,0,0,1-9.75-23.4q0-13.95,10.5-24,10.5-10.35,24.6-10.35a34.05,34.05,0,0,1,25,10.2,33,33,0,0,1,10.2,24.15q0,12.47-10.05,28.35l-29.85,44.7-11.1-7.65,25.35-35.1-.3-.3Q114,224.38,106.52,224.38Zm24.3-33.3a20,20,0,0,0-6.3-14.85,21.37,21.37,0,0,0-30,0,21,21,0,0,0,0,29.7,21.37,21.37,0,0,0,30,0A19.65,19.65,0,0,0,130.82,191.08Z" transform="translate(-7.4 -6.37)" fill="#fff"/><path d="M188.87,224.38q-12.3,0-22.35-9.75a32.53,32.53,0,0,1-9.75-23.4q0-13.95,10.5-24,10.5-10.35,24.6-10.35a34.05,34.05,0,0,1,25,10.2,33,33,0,0,1,10.2,24.15q0,12.47-10.05,28.35l-29.85,44.7-11.1-7.65,25.35-35.1-.3-.3Q196.37,224.38,188.87,224.38Zm24.3-33.3a20,20,0,0,0-6.3-14.85,21.11,21.11,0,1,0-30,29.7,21.37,21.37,0,0,0,30,0A19.65,19.65,0,0,0,213.17,191.08Z" transform="translate(-7.4 -6.37)" fill="#fff"/><path d="M306.77,232.78a29,29,0,0,1-10,22.5q-9.9,9-24.6,9a34.14,34.14,0,0,1-20.85-6.9,35.07,35.07,0,0,1-12.75-18.75l12.6-5.25q2.4,8.55,7.88,13.13a19.79,19.79,0,0,0,13.12,4.57,21.69,21.69,0,0,0,14.55-5.25,16.93,16.93,0,0,0,6-13.05,16.18,16.18,0,0,0-6.3-12.9,22.1,22.1,0,0,0-14.85-5.25h-8.85v-12.9h7.8q8.25,0,13.5-4.57a15.08,15.08,0,0,0,5.25-11.93,13.68,13.68,0,0,0-5-10.95c-3.3-2.79-7.65-4.2-13-4.2q-13.05,0-17.85,13.35L240.62,178a31.73,31.73,0,0,1,30.6-21.15q13.65,0,22.95,8.1a25.36,25.36,0,0,1,9.15,20.25q0,14.85-13.8,22.05v.6a28.73,28.73,0,0,1,12.68,10.05A25.47,25.47,0,0,1,306.77,232.78Z" transform="translate(-7.4 -6.37)" fill="#fff"/><path d="M124,335.13a13.89,13.89,0,0,1-4.83,10.8,16.87,16.87,0,0,1-11.8,4.32,16.36,16.36,0,0,1-10-3.31,16.74,16.74,0,0,1-6.12-9l6-2.52a12.17,12.17,0,0,0,3.77,6.3,9.52,9.52,0,0,0,6.31,2.2,10.42,10.42,0,0,0,7-2.52,8.14,8.14,0,0,0,2.88-6.27,7.77,7.77,0,0,0-3-6.19,10.63,10.63,0,0,0-7.13-2.52h-4.25v-6.19h3.74a9.48,9.48,0,0,0,6.48-2.2,7.22,7.22,0,0,0,2.52-5.72,6.59,6.59,0,0,0-2.37-5.26,9.4,9.4,0,0,0-6.27-2q-6.25,0-8.56,6.4l-6.12-2.59A15.23,15.23,0,0,1,107,298.7a16.2,16.2,0,0,1,11,3.89,12.16,12.16,0,0,1,4.39,9.72q0,7.13-6.62,10.58v.29a13.78,13.78,0,0,1,6.08,4.82A12.28,12.28,0,0,1,124,335.13Z" transform="translate(-7.4 -6.37)" fill="#fff"/><path d="M132.1,349.1V297.55h15.77q11.81,0,19,7.13T174,323.32q0,11.6-7.16,18.69t-19,7.09Zm6.62-45.22v38.88h9.15q9,0,14.18-5.14t5.19-14.3q0-9.06-5.19-14.25t-14.18-5.19Z" transform="translate(-7.4 -6.37)" fill="#fff"/><path d="M232.32,323.32a26.13,26.13,0,0,1-7.63,19.16,26.79,26.79,0,0,1-37.73,0,27.86,27.86,0,0,1,0-38.31,26.7,26.7,0,0,1,37.73.07A26,26,0,0,1,232.32,323.32Zm-46.22,0a20.37,20.37,0,0,0,5.62,14.76,18.91,18.91,0,0,0,14.11,5.84,18.7,18.7,0,0,0,14-5.84q5.69-5.74,5.69-14.76t-5.69-14.76a18.73,18.73,0,0,0-14-5.83,18.93,18.93,0,0,0-14.11,5.83A20.4,20.4,0,0,0,186.1,323.32Z" transform="translate(-7.4 -6.37)" fill="#fff"/></g></svg>