<svg xmlns="http://www.w3.org/2000/svg" viewBox="0 0 392.25 428.6"><title>amiga</title><g id="Layer_3" data-name="Layer 3"><circle cx="195.8" cy="86.2" r="8.2" fill="#fff"/><line x1="53.3" y1="122.7" x2="338.3" y2="122.7" fill="none"/><rect x="53.3" y="119.7" width="285" height="6" fill="#fff"/><line x1="53.3" y1="379.2" x2="338.3" y2="379.2" fill="none"/><rect x="53.3" y="376.2" width="285" height="6" fill="#fff"/><circle cx="195.8" cy="420.4" r="8.2" fill="#fff"/></g><g id="TEXT_LAYER" data-name="TEXT LAYER"><path d="M-7.22,59.65A26,26,0,0,1-26.37,52,26.23,26.23,0,0,1-34,32.72q0-11.52,7.63-19.15A25.73,25.73,0,0,1-7.22,5.8q11.67,0,18.94,8.42L7,18.83a17.6,17.6,0,0,0-14.19-6.7,19.46,19.46,0,0,0-14.33,5.76q-5.68,5.68-5.68,14.83t5.68,14.84A19.46,19.46,0,0,0-7.22,53.32q9,0,15.63-7.56l4.82,4.68a25.15,25.15,0,0,1-9,6.8A27.4,27.4,0,0,1-7.22,59.65Z" transform="translate(34 -5.8)" fill="#fff"/><path d="M16.4,40.86A18.65,18.65,0,0,1,21.51,27.4a17.4,17.4,0,0,1,13-5.33,17.17,17.17,0,0,1,13,5.33,18.5,18.5,0,0,1,5.19,13.46A18.34,18.34,0,0,1,47.5,54.32a17.17,17.17,0,0,1-13,5.33,17.4,17.4,0,0,1-13-5.33A18.65,18.65,0,0,1,16.4,40.86Zm6.62,0a13,13,0,0,0,3.31,9.22,10.82,10.82,0,0,0,8.21,3.52,10.8,10.8,0,0,0,8.21-3.52,12.94,12.94,0,0,0,3.31-9.22,12.8,12.8,0,0,0-3.31-9.14,11.16,11.16,0,0,0-16.42,0A12.85,12.85,0,0,0,23,40.86Z" transform="translate(34 -5.8)" fill="#fff"/><path d="M64.64,58.5H58V23.22h6.34v4.9h.29a11.74,11.74,0,0,1,4.64-4.32,12.75,12.75,0,0,1,6.23-1.73,12.88,12.88,0,0,1,6.84,1.8,10.56,10.56,0,0,1,4.32,5,13.75,13.75,0,0,1,12.17-6.77q6.12,0,9.43,3.74t3.31,10.66v22H105v-21c0-3.32-.6-5.7-1.8-7.17s-3.22-2.19-6-2.19a7.91,7.91,0,0,0-6.41,3.24A11.83,11.83,0,0,0,88.11,39V58.5H81.49v-21c0-3.32-.6-5.7-1.8-7.17s-3.22-2.19-6-2.19a7.91,7.91,0,0,0-6.41,3.24A11.83,11.83,0,0,0,64.64,39Z" transform="translate(34 -5.8)" fill="#fff"/><path d="M126,58.5h-6.62V23.22h6.33v4.9H126a11.81,11.81,0,0,1,4.64-4.32,12.75,12.75,0,0,1,6.23-1.73,12.88,12.88,0,0,1,6.84,1.8,10.56,10.56,0,0,1,4.32,5,13.76,13.76,0,0,1,12.17-6.77q6.12,0,9.43,3.74t3.31,10.66v22H166.3v-21c0-3.32-.6-5.7-1.8-7.17s-3.22-2.19-6.05-2.19A7.92,7.92,0,0,0,152,31.36,11.88,11.88,0,0,0,149.45,39V58.5h-6.62v-21c0-3.32-.6-5.7-1.8-7.17s-3.22-2.19-6.05-2.19a7.92,7.92,0,0,0-6.41,3.24A11.83,11.83,0,0,0,126,39Z" transform="translate(34 -5.8)" fill="#fff"/><path d="M178.68,40.86A18.66,18.66,0,0,1,183.8,27.4a17.39,17.39,0,0,1,13-5.33,17.17,17.17,0,0,1,13,5.33A18.54,18.54,0,0,1,215,40.86a18.37,18.37,0,0,1-5.18,13.46,17.17,17.17,0,0,1-13,5.33,17.39,17.39,0,0,1-13-5.33A18.66,18.66,0,0,1,178.68,40.86Zm6.63,0a12.94,12.94,0,0,0,3.31,9.22,11.33,11.33,0,0,0,16.42,0,13,13,0,0,0,3.31-9.22A12.85,12.85,0,0,0,205,31.72a11.16,11.16,0,0,0-16.42,0A12.8,12.8,0,0,0,185.31,40.86Z" transform="translate(34 -5.8)" fill="#fff"/><path d="M235.78,59.65a15.49,15.49,0,0,1-11.88-5.47A19.42,19.42,0,0,1,219,40.86a19.42,19.42,0,0,1,4.9-13.32,15.49,15.49,0,0,1,11.88-5.47,15.24,15.24,0,0,1,7.09,1.65,12.38,12.38,0,0,1,4.93,4.4h.29l-.29-4.9V7h6.63V58.5h-6.34V53.6h-.29a12.38,12.38,0,0,1-4.93,4.4A15.24,15.24,0,0,1,235.78,59.65Zm1.08-6a10.14,10.14,0,0,0,8-3.52,13.12,13.12,0,0,0,3.24-9.22,13.13,13.13,0,0,0-3.24-9.14,10.19,10.19,0,0,0-8-3.6,10.32,10.32,0,0,0-8,3.6,13.13,13.13,0,0,0-3.24,9.14A13,13,0,0,0,228.87,50,10.32,10.32,0,0,0,236.86,53.6Z" transform="translate(34 -5.8)" fill="#fff"/><path d="M260.12,40.86a18.65,18.65,0,0,1,5.11-13.46,17.39,17.39,0,0,1,13-5.33,17.17,17.17,0,0,1,13,5.33,18.49,18.49,0,0,1,5.18,13.46,18.34,18.34,0,0,1-5.18,13.46,17.17,17.17,0,0,1-13,5.33,17.39,17.39,0,0,1-13-5.33A18.65,18.65,0,0,1,260.12,40.86Zm6.62,0a12.94,12.94,0,0,0,3.31,9.22,11.33,11.33,0,0,0,16.42,0,13,13,0,0,0,3.31-9.22,12.85,12.85,0,0,0-3.31-9.14,11.16,11.16,0,0,0-16.42,0A12.8,12.8,0,0,0,266.74,40.86Z" transform="translate(34 -5.8)" fill="#fff"/><path d="M308.36,58.5h-6.63V23.22h6.34V29h.29a9.55,9.55,0,0,1,4.14-4.79,11.47,11.47,0,0,1,6.15-2,12.38,12.38,0,0,1,4.9.87l-2,6.4a11.11,11.11,0,0,0-3.89-.5,8.59,8.59,0,0,0-6.51,3,10.12,10.12,0,0,0-2.77,7.06Z" transform="translate(34 -5.8)" fill="#fff"/><path d="M341.55,59.65a16.85,16.85,0,0,1-12.82-5.33,18.81,18.81,0,0,1-5-13.46,19.14,19.14,0,0,1,4.9-13.43,16.22,16.22,0,0,1,12.53-5.36q7.85,0,12.49,5.07t4.64,14.22l-.07.72H330.46a11.49,11.49,0,0,0,3.46,8.36,11,11,0,0,0,7.91,3.16q6.35,0,9.94-6.33l5.9,2.88a17.63,17.63,0,0,1-6.58,7A18.23,18.23,0,0,1,341.55,59.65ZM331,36.61h20.23a8.76,8.76,0,0,0-3-6.08A10.45,10.45,0,0,0,341,28.12a9.56,9.56,0,0,0-6.44,2.3A11,11,0,0,0,331,36.61Z" transform="translate(34 -5.8)" fill="#fff"/><path d="M54.4,159.28v102.6H40.6v-85.5l-20,8.7-5.25-11.7,30.15-14.1Z" transform="translate(34 -5.8)" fill="#fff"/><path d="M105.1,224.38q-12.3,0-22.35-9.75A32.53,32.53,0,0,1,73,191.23q0-13.95,10.5-24,10.5-10.35,24.6-10.35a34.05,34.05,0,0,1,25.05,10.2,33,33,0,0,1,10.2,24.15q0,12.47-10,28.35l-29.85,44.7-11.1-7.65,25.35-35.1-.3-.3Q112.6,224.38,105.1,224.38Zm24.3-33.3a20,20,0,0,0-6.3-14.85,21.37,21.37,0,0,0-30,0,21,21,0,0,0,0,29.7,21.37,21.37,0,0,0,30,0A19.65,19.65,0,0,0,129.4,191.08Z" transform="translate(34 -5.8)" fill="#fff"/><path d="M225,233.53a27.74,27.74,0,0,1-10,21.9q-10.2,8.85-24.75,8.85t-24.75-8.85a27.74,27.74,0,0,1-10.05-21.9,26.48,26.48,0,0,1,4.35-14.77,30,30,0,0,1,12.45-10.58v-.6a32,32,0,0,1-9.67-9.6,21.72,21.72,0,0,1-3.68-12,27.6,27.6,0,0,1,8.85-20.85q8.7-8.24,22.5-8.25t22.5,8.25A27.6,27.6,0,0,1,221.5,186a21.8,21.8,0,0,1-3.68,12,32.09,32.09,0,0,1-9.67,9.6v.6a30,30,0,0,1,12.45,10.58A26.48,26.48,0,0,1,225,233.53Zm-55.5-.75a16.81,16.81,0,0,0,1.57,7.35,18.05,18.05,0,0,0,4.36,5.78,19.58,19.58,0,0,0,6.52,3.82,25.88,25.88,0,0,0,16.5,0,19.69,19.69,0,0,0,6.52-3.82,18.17,18.17,0,0,0,4.35-5.78,16.82,16.82,0,0,0,1.58-7.35,16.21,16.21,0,0,0-6-12.9,21.54,21.54,0,0,0-14.7-5.25,22.1,22.1,0,0,0-14.85,5.25A16.66,16.66,0,0,0,169.45,232.78Zm3.45-47.1a15.08,15.08,0,0,0,4.8,11.63q4.8,4.42,12.45,4.42t12.45-4.42a15.08,15.08,0,0,0,4.8-11.63q0-7.2-4.8-11.4c-3.2-2.79-7.35-4.2-12.45-4.2s-9.25,1.41-12.45,4.2S172.9,180.88,172.9,185.68Z" transform="translate(34 -5.8)" fill="#fff"/><path d="M307,229.78a32.89,32.89,0,0,1-10.2,24.6q-10.2,9.9-25.2,9.9a34.74,34.74,0,0,1-21.75-7.5A35.4,35.4,0,0,1,237,236.53l12.3-4.95a27.28,27.28,0,0,0,8.17,14.25,20.27,20.27,0,0,0,13.88,5.25q9.6,0,15.67-5.92t6.08-15.23q0-9.45-6.08-15.45t-15.52-6a20,20,0,0,0-17.25,8.85l-13.95-6,6.6-52.05H300.7v13.2H258.4l-3.75,29.4.6.15q7.65-6.15,18.6-6.15a31.83,31.83,0,0,1,23.47,9.75Q307,215.4,307,229.78Z" transform="translate(34 -5.8)" fill="#fff"/><path d="M68.63,349.1H61.29l19.44-51.55h7.49l19.44,51.55h-7.35l-5-14H73.67Zm15.7-43.42L75.9,328.94H93l-8.42-23.26Z" transform="translate(34 -5.8)" fill="#fff"/><path d="M119.18,349.1h-6.63V313.82h6.34v4.9h.29a11.67,11.67,0,0,1,4.64-4.32,12.72,12.72,0,0,1,6.23-1.73,12.88,12.88,0,0,1,6.84,1.8,10.61,10.61,0,0,1,4.32,5,13.75,13.75,0,0,1,12.17-6.77q6.12,0,9.43,3.74t3.31,10.66v22H159.5v-21c0-3.32-.6-5.7-1.8-7.17s-3.22-2.19-6-2.19a7.91,7.91,0,0,0-6.41,3.24,11.83,11.83,0,0,0-2.59,7.63V349.1H136v-21c0-3.32-.6-5.7-1.8-7.17s-3.21-2.19-6-2.19a7.91,7.91,0,0,0-6.41,3.24,11.83,11.83,0,0,0-2.59,7.63Z" transform="translate(34 -5.8)" fill="#fff"/><path d="M182.46,301.65a4.68,4.68,0,1,1-4.68-4.68,4.66,4.66,0,0,1,4.68,4.68Zm-1.36,12.17V349.1h-6.63V313.82Z" transform="translate(34 -5.8)" fill="#fff"/><path d="M205,365.8a19.78,19.78,0,0,1-5.54-.75,17.78,17.78,0,0,1-4.72-2.13,15.13,15.13,0,0,1-3.64-3.24,13.81,13.81,0,0,1-2.3-4.17l6.26-2.59a9.87,9.87,0,0,0,3.75,5,10.47,10.47,0,0,0,6.19,1.88q5.4,0,8.42-3.24t3-8.93V344.2h-.29a13,13,0,0,1-5.08,4.43,15.15,15.15,0,0,1-6.94,1.62,15.59,15.59,0,0,1-11.88-5.4,19.49,19.49,0,0,1-4.9-13.39,19.25,19.25,0,0,1,4.9-13.32,15.49,15.49,0,0,1,11.88-5.47,15.15,15.15,0,0,1,6.94,1.62,13,13,0,0,1,5.08,4.43h.29v-4.9h6.33v33.77q0,8.49-4.82,13.32C214.69,364.17,210.38,365.8,205,365.8Zm.22-21.6a10.15,10.15,0,0,0,8-3.52,14.62,14.62,0,0,0,0-18.36,10.21,10.21,0,0,0-8-3.6,10.34,10.34,0,0,0-8,3.6,13.13,13.13,0,0,0-3.24,9.14,13,13,0,0,0,3.24,9.14A10.34,10.34,0,0,0,205.22,344.2Z" transform="translate(34 -5.8)" fill="#fff"/><path d="M243.88,312.67q7.35,0,11.59,3.92t4.25,10.77V349.1h-6.34v-4.9h-.28q-4.11,6.06-10.95,6.05a14.21,14.21,0,0,1-9.75-3.45,11,11,0,0,1-3.93-8.64,10.5,10.5,0,0,1,4.14-8.72q4.14-3.24,11-3.24a19.54,19.54,0,0,1,9.72,2.16v-1.51a7.56,7.56,0,0,0-2.73-5.87,9.43,9.43,0,0,0-6.41-2.41,10.14,10.14,0,0,0-8.78,4.68l-5.84-3.67Q234.45,312.67,243.88,312.67Zm-8.57,25.63a5.27,5.27,0,0,0,2.2,4.32,8.09,8.09,0,0,0,5.15,1.73,10.55,10.55,0,0,0,7.45-3.1,9.7,9.7,0,0,0,3.27-7.27q-3.09-2.44-8.64-2.45a11.19,11.19,0,0,0-6.73,2A5.76,5.76,0,0,0,235.31,338.3Z" transform="translate(34 -5.8)" fill="#fff"/></g></svg>