<svg xmlns="http://www.w3.org/2000/svg" viewBox="0 0 297.3 427.45"><title>amstradcpc</title><g id="Layer_3" data-name="Layer 3"><circle cx="148.95" cy="85.05" r="8.2" fill="#fff"/><line x1="6.45" y1="121.55" x2="291.45" y2="121.55" fill="none"/><rect x="6.45" y="118.55" width="285" height="6" fill="#fff"/><line x1="6.45" y1="378.05" x2="291.45" y2="378.05" fill="none"/><rect x="6.45" y="375.05" width="285" height="6" fill="#fff"/><circle cx="148.95" cy="419.25" r="8.2" fill="#fff"/></g><g id="layer_to_be_outlined" data-name="layer to be outlined"><path d="M35.26,58.5H27.92L47.36,7h7.49L74.29,58.5H66.94l-5-14H40.3ZM51,15.08,42.53,38.34H59.67L51.25,15.08Z" transform="translate(-12.85 -6.95)" fill="#fff"/><path d="M85.8,58.5H79.18V23.22h6.34v4.9h.28a11.77,11.77,0,0,1,4.65-4.32,12.72,12.72,0,0,1,6.23-1.73,12.88,12.88,0,0,1,6.84,1.8,10.67,10.67,0,0,1,4.32,5A13.73,13.73,0,0,1,120,22.07q6.12,0,9.44,3.74t3.31,10.66v22h-6.62v-21c0-3.32-.61-5.7-1.81-7.17s-3.21-2.19-6-2.19a7.91,7.91,0,0,0-6.41,3.24A11.83,11.83,0,0,0,109.28,39V58.5h-6.63v-21c0-3.32-.6-5.7-1.8-7.17s-3.21-2.19-6-2.19a7.91,7.91,0,0,0-6.4,3.24A11.84,11.84,0,0,0,85.8,39Z" transform="translate(-12.85 -6.95)" fill="#fff"/><path d="M167.17,48.71a9.56,9.56,0,0,1-4,7.77A15.88,15.88,0,0,1,153,59.65a16.11,16.11,0,0,1-9.36-2.77,15.25,15.25,0,0,1-5.76-7.31l5.91-2.52A10.88,10.88,0,0,0,147.55,52,9.13,9.13,0,0,0,153,53.75a9.59,9.59,0,0,0,5.29-1.37,3.88,3.88,0,0,0,2.13-3.24c0-2.26-1.73-3.91-5.19-5l-6-1.51q-10.3-2.59-10.3-9.94A9.2,9.2,0,0,1,142.79,25a18,18,0,0,1,18.51-.68,12.14,12.14,0,0,1,5.29,6l-5.9,2.44a7.52,7.52,0,0,0-3.28-3.49A10.26,10.26,0,0,0,152.33,28a8.48,8.48,0,0,0-4.64,1.3,3.72,3.72,0,0,0-2.05,3.17c0,2,1.89,3.45,5.69,4.32l5.32,1.36Q167.17,40.72,167.17,48.71Z" transform="translate(-12.85 -6.95)" fill="#fff"/><path d="M186.53,59.08a10,10,0,0,1-7.16-2.67A9.87,9.87,0,0,1,176.45,49V29.27h-6.19V23.22h6.19V12.42h6.63v10.8h8.64v6.05h-8.64V46.84q0,3.52,1.36,4.78a4.48,4.48,0,0,0,3.1,1.26,6.7,6.7,0,0,0,1.55-.18,8.21,8.21,0,0,0,1.4-.46l2.09,5.9A17.88,17.88,0,0,1,186.53,59.08Z" transform="translate(-12.85 -6.95)" fill="#fff"/><path d="M204.68,58.5h-6.63V23.22h6.34V29h.29a9.55,9.55,0,0,1,4.14-4.79,11.47,11.47,0,0,1,6.15-2,12.38,12.38,0,0,1,4.9.87l-2,6.4A11.11,11.11,0,0,0,214,29a8.57,8.57,0,0,0-6.51,3,10.12,10.12,0,0,0-2.77,7.06Z" transform="translate(-12.85 -6.95)" fill="#fff"/><path d="M236.14,22.07q7.35,0,11.59,3.92T252,36.76V58.5h-6.34V53.6h-.28q-4.11,6.06-11,6a14.21,14.21,0,0,1-9.75-3.45,11,11,0,0,1-3.93-8.64,10.5,10.5,0,0,1,4.14-8.72q4.14-3.24,11-3.24a19.54,19.54,0,0,1,9.72,2.16V36.25a7.56,7.56,0,0,0-2.73-5.87A9.43,9.43,0,0,0,236.5,28a10.14,10.14,0,0,0-8.78,4.68L221.88,29Q226.71,22.07,236.14,22.07ZM227.57,47.7a5.27,5.27,0,0,0,2.2,4.32,8.09,8.09,0,0,0,5.15,1.73,10.55,10.55,0,0,0,7.45-3.1,9.7,9.7,0,0,0,3.27-7.27q-3.09-2.45-8.64-2.45a11.21,11.21,0,0,0-6.73,2A5.76,5.76,0,0,0,227.57,47.7Z" transform="translate(-12.85 -6.95)" fill="#fff"/><path d="M273.87,59.65A15.49,15.49,0,0,1,262,54.18a19.42,19.42,0,0,1-4.9-13.32A19.42,19.42,0,0,1,262,27.54a15.49,15.49,0,0,1,11.88-5.47A15.27,15.27,0,0,1,281,23.72a12.38,12.38,0,0,1,4.93,4.4h.29l-.29-4.9V7h6.63V58.5h-6.34V53.6h-.29A12.38,12.38,0,0,1,281,58,15.27,15.27,0,0,1,273.87,59.65Zm1.08-6a10.14,10.14,0,0,0,8-3.52,13.12,13.12,0,0,0,3.24-9.22,13.13,13.13,0,0,0-3.24-9.14,10.19,10.19,0,0,0-8-3.6,10.32,10.32,0,0,0-8,3.6,13.13,13.13,0,0,0-3.24,9.14A13,13,0,0,0,267,50,10.32,10.32,0,0,0,275,53.6Z" transform="translate(-12.85 -6.95)" fill="#fff"/><path d="M51.85,159.28v102.6H38.05v-85.5l-19.95,8.7-5.25-11.7L43,159.28Z" transform="translate(-12.85 -6.95)" fill="#fff"/><path d="M102.55,224.38q-12.3,0-22.35-9.75a32.53,32.53,0,0,1-9.75-23.4q0-13.95,10.5-24,10.5-10.35,24.6-10.35a34.05,34.05,0,0,1,25,10.2,33,33,0,0,1,10.2,24.15q0,12.47-10.05,28.35l-29.85,44.7-11.1-7.65,25.35-35.1-.3-.3Q110.05,224.38,102.55,224.38Zm24.3-33.3a20,20,0,0,0-6.3-14.85,21.37,21.37,0,0,0-30,0,21,21,0,0,0,0,29.7,21.37,21.37,0,0,0,30,0A19.65,19.65,0,0,0,126.85,191.08Z" transform="translate(-12.85 -6.95)" fill="#fff"/><path d="M222.4,233.53a27.74,27.74,0,0,1-10.05,21.9q-10.2,8.85-24.75,8.85t-24.75-8.85a27.74,27.74,0,0,1-10-21.9,26.48,26.48,0,0,1,4.35-14.77,30,30,0,0,1,12.45-10.58v-.6a32,32,0,0,1-9.67-9.6,21.72,21.72,0,0,1-3.68-12,27.6,27.6,0,0,1,8.85-20.85q8.7-8.24,22.5-8.25t22.5,8.25A27.6,27.6,0,0,1,219,186a21.8,21.8,0,0,1-3.68,12,32.09,32.09,0,0,1-9.67,9.6v.6a30,30,0,0,1,12.45,10.58A26.48,26.48,0,0,1,222.4,233.53Zm-55.5-.75a16.81,16.81,0,0,0,1.57,7.35,18.05,18.05,0,0,0,4.36,5.78,19.58,19.58,0,0,0,6.52,3.82,25.88,25.88,0,0,0,16.5,0,19.83,19.83,0,0,0,6.53-3.82,18.28,18.28,0,0,0,4.34-5.78,16.82,16.82,0,0,0,1.58-7.35,16.21,16.21,0,0,0-6-12.9,21.54,21.54,0,0,0-14.7-5.25,22.1,22.1,0,0,0-14.85,5.25A16.66,16.66,0,0,0,166.9,232.78Zm3.45-47.1a15.08,15.08,0,0,0,4.8,11.63q4.8,4.42,12.45,4.42t12.45-4.42a15.08,15.08,0,0,0,4.8-11.63q0-7.2-4.8-11.4c-3.2-2.79-7.35-4.2-12.45-4.2s-9.25,1.41-12.45,4.2S170.35,180.88,170.35,185.68Z" transform="translate(-12.85 -6.95)" fill="#fff"/><path d="M297,240.28v21.6h-13.8v-21.6H234.4v-10.5L282,159.28h15v68.1h13.2v12.9ZM250,227.38h33.15V179.53h-.6Z" transform="translate(-12.85 -6.95)" fill="#fff"/><path d="M118.82,350.25a26,26,0,0,1-19.16-7.7,27.95,27.95,0,0,1,0-38.38,25.76,25.76,0,0,1,19.16-7.77q11.66,0,18.93,8.42L133,309.43a17.58,17.58,0,0,0-14.18-6.7,19.44,19.44,0,0,0-14.33,5.76q-5.68,5.7-5.69,14.83t5.69,14.84a19.44,19.44,0,0,0,14.33,5.76q9,0,15.62-7.56l4.82,4.68a25,25,0,0,1-9,6.8A27.36,27.36,0,0,1,118.82,350.25Z" transform="translate(-12.85 -6.95)" fill="#fff"/><path d="M153.66,328.22V349.1H147V297.55h17.57A15.89,15.89,0,0,1,176,302a14.88,14.88,0,0,1,0,21.82,15.83,15.83,0,0,1-11.37,4.39Zm0-24.34v18h11.09a9.1,9.1,0,0,0,9.22-9,9.24,9.24,0,0,0-9.22-9Z" transform="translate(-12.85 -6.95)" fill="#fff"/><path d="M211.19,350.25a26.2,26.2,0,0,1-26.78-26.93q0-11.51,7.63-19.15a25.73,25.73,0,0,1,19.15-7.77q11.67,0,18.94,8.42l-4.75,4.61a17.6,17.6,0,0,0-14.19-6.7,19.46,19.46,0,0,0-14.33,5.76q-5.69,5.7-5.68,14.83t5.68,14.84a19.46,19.46,0,0,0,14.33,5.76q9,0,15.63-7.56l4.82,4.68a25.15,25.15,0,0,1-9,6.8A27.4,27.4,0,0,1,211.19,350.25Z" transform="translate(-12.85 -6.95)" fill="#fff"/></g></svg>