<svg xmlns="http://www.w3.org/2000/svg" viewBox="0 0 285 427.45"><title>apple2</title><g id="Layer_3" data-name="Layer 3"><circle cx="142.5" cy="85.05" r="8.2" fill="#fff"/><line y1="121.55" x2="285" y2="121.55" fill="none"/><rect y="118.55" width="285" height="6" fill="#fff"/><line y1="378.05" x2="285" y2="378.05" fill="none"/><rect y="375.05" width="285" height="6" fill="#fff"/><circle cx="142.5" cy="419.25" r="8.2" fill="#fff"/></g><g id="TEXT_LAYER" data-name="TEXT LAYER"><path d="M78.86,58.5H71.51L91,7h7.49L117.88,58.5h-7.34l-5-14H83.9ZM94.55,15.08,86.13,38.34h17.14L94.84,15.08Z" transform="translate(-19.3 -6.95)" fill="#fff"/><path d="M141.5,59.65A15.28,15.28,0,0,1,134.4,58a12.45,12.45,0,0,1-4.93-4.4h-.29l.29,4.9V74.05h-6.62V23.22h6.33v4.9h.29a12.45,12.45,0,0,1,4.93-4.4,15.28,15.28,0,0,1,7.1-1.65,15.13,15.13,0,0,1,11.8,5.47,19.25,19.25,0,0,1,5,13.32,19.08,19.08,0,0,1-5,13.32A15.13,15.13,0,0,1,141.5,59.65Zm-1.08-6a10.34,10.34,0,0,0,8-3.6,13,13,0,0,0,3.24-9.14,13.13,13.13,0,0,0-3.24-9.14,10.76,10.76,0,0,0-16.06,0,13.33,13.33,0,0,0-3.17,9.14,13.47,13.47,0,0,0,3.17,9.22A10.51,10.51,0,0,0,140.42,53.6Z" transform="translate(-19.3 -6.95)" fill="#fff"/><path d="M182,59.65A15.24,15.24,0,0,1,174.87,58a12.38,12.38,0,0,1-4.93-4.4h-.29l.29,4.9V74.05h-6.63V23.22h6.34v4.9h.29a12.38,12.38,0,0,1,4.93-4.4,15.68,15.68,0,0,1,18.9,3.82,19.3,19.3,0,0,1,5,13.32,19.12,19.12,0,0,1-5,13.32A15.15,15.15,0,0,1,182,59.65Zm-1.08-6a10.32,10.32,0,0,0,8-3.6,13,13,0,0,0,3.24-9.14,13.13,13.13,0,0,0-3.24-9.14,10.74,10.74,0,0,0-16.05,0,13.28,13.28,0,0,0-3.17,9.14,13.42,13.42,0,0,0,3.17,9.22A10.49,10.49,0,0,0,180.88,53.6Z" transform="translate(-19.3 -6.95)" fill="#fff"/><path d="M210.69,7V58.5h-6.63V7Z" transform="translate(-19.3 -6.95)" fill="#fff"/><path d="M234.23,59.65a16.83,16.83,0,0,1-12.81-5.33,18.81,18.81,0,0,1-5-13.46,19.18,19.18,0,0,1,4.89-13.43,16.23,16.23,0,0,1,12.53-5.36q7.84,0,12.49,5.07t4.65,14.22l-.08.72H223.14a11.53,11.53,0,0,0,3.46,8.36,11.06,11.06,0,0,0,7.92,3.16q6.33,0,9.94-6.33l5.9,2.88a17.59,17.59,0,0,1-6.59,7A18.23,18.23,0,0,1,234.23,59.65Zm-10.58-23h20.23a8.77,8.77,0,0,0-3-6.08,10.44,10.44,0,0,0-7.23-2.41,9.59,9.59,0,0,0-6.45,2.3A11,11,0,0,0,223.65,36.61Z" transform="translate(-19.3 -6.95)" fill="#fff"/><path d="M58.38,159.28v102.6H44.58v-85.5l-19.95,8.7-5.25-11.7,30.15-14.1Z" transform="translate(-19.3 -6.95)" fill="#fff"/><path d="M109.07,224.38q-12.3,0-22.35-9.75A32.53,32.53,0,0,1,77,191.23q0-13.95,10.5-24,10.5-10.35,24.6-10.35a34.09,34.09,0,0,1,25.06,10.2,33.05,33.05,0,0,1,10.19,24.15q0,12.47-10,28.35l-29.85,44.7-11.1-7.65,25.35-35.1-.29-.3Q116.57,224.38,109.07,224.38Zm24.31-33.3a20,20,0,0,0-6.31-14.85,21.37,21.37,0,0,0-30,0,21,21,0,0,0,0,29.7,21.37,21.37,0,0,0,30,0A19.66,19.66,0,0,0,133.38,191.08Z" transform="translate(-19.3 -6.95)" fill="#fff"/><path d="M225.77,173.38,176,264.28l-12.3-6.3,47.55-85.5h-51.9l.3-13.2h66.15Z" transform="translate(-19.3 -6.95)" fill="#fff"/><path d="M304.22,173.38l-49.8,90.9-12.3-6.3,47.55-85.5h-51.9l.3-13.2h66.15Z" transform="translate(-19.3 -6.95)" fill="#fff"/><path d="M156.62,358H141.93v-5.47h8.64v-55h-8.64v-5.47h14.69Z" transform="translate(-19.3 -6.95)" fill="#fff"/><path d="M181.67,358H167V292.08h14.69v5.47H173v55h8.64Z" transform="translate(-19.3 -6.95)" fill="#fff"/></g></svg>