<svg xmlns="http://www.w3.org/2000/svg" viewBox="0 0 285 428.03"><title>arcade</title><g id="Layer_3" data-name="Layer 3"><circle cx="142.5" cy="85.63" r="8.2" fill="#fff"/><line y1="122.13" x2="285" y2="122.13" fill="none"/><rect y="119.13" width="285" height="6" fill="#fff"/><line y1="378.63" x2="285" y2="378.63" fill="none"/><rect y="375.63" width="285" height="6" fill="#fff"/><circle cx="142.5" cy="419.83" r="8.2" fill="#fff"/></g><g id="TEXT_LAYER" data-name="TEXT LAYER"><path d="M71.91,58.5H65L46.85,7H54.2L68.31,48.78h.29L83.28,7h7.35Z" transform="translate(-19.3 -6.37)" fill="#fff"/><path d="M105.32,22.07q7.34,0,11.59,3.92t4.25,10.77V58.5h-6.34V53.6h-.29a12.61,12.61,0,0,1-10.94,6,14.26,14.26,0,0,1-9.76-3.45,11.07,11.07,0,0,1-3.92-8.64,10.5,10.5,0,0,1,4.14-8.72q4.14-3.24,11-3.24a19.54,19.54,0,0,1,9.72,2.16V36.25a7.54,7.54,0,0,0-2.74-5.87,9.39,9.39,0,0,0-6.4-2.41,10.16,10.16,0,0,0-8.79,4.68L91.06,29Q95.89,22.07,105.32,22.07ZM96.75,47.7A5.29,5.29,0,0,0,98.94,52a8.11,8.11,0,0,0,5.15,1.73,10.51,10.51,0,0,0,7.45-3.1,9.68,9.68,0,0,0,3.28-7.27q-3.09-2.45-8.64-2.45a11.19,11.19,0,0,0-6.73,2A5.76,5.76,0,0,0,96.75,47.7Z" transform="translate(-19.3 -6.37)" fill="#fff"/><path d="M135.27,58.5h-6.63V23.22H135V29h.29a9.55,9.55,0,0,1,4.14-4.79,11.49,11.49,0,0,1,6.15-2,12.34,12.34,0,0,1,4.9.87l-2,6.4a11.08,11.08,0,0,0-3.88-.5A8.59,8.59,0,0,0,138,32a10.12,10.12,0,0,0-2.77,7.06Z" transform="translate(-19.3 -6.37)" fill="#fff"/><path d="M163.35,11.05A4.51,4.51,0,0,1,162,14.36a4.68,4.68,0,0,1-8-3.31,4.68,4.68,0,1,1,9.36,0ZM162,23.22V58.5h-6.62V23.22Z" transform="translate(-19.3 -6.37)" fill="#fff"/><path d="M168.24,40.86a18.66,18.66,0,0,1,5.12-13.46,17.39,17.39,0,0,1,13-5.33,17.17,17.17,0,0,1,13,5.33,18.54,18.54,0,0,1,5.18,13.46,18.37,18.37,0,0,1-5.18,13.46,17.17,17.17,0,0,1-13,5.33,17.39,17.39,0,0,1-13-5.33A18.66,18.66,0,0,1,168.24,40.86Zm6.63,0a12.94,12.94,0,0,0,3.31,9.22,11.33,11.33,0,0,0,16.42,0,13,13,0,0,0,3.31-9.22,12.85,12.85,0,0,0-3.31-9.14,11.16,11.16,0,0,0-16.42,0A12.8,12.8,0,0,0,174.87,40.86Z" transform="translate(-19.3 -6.37)" fill="#fff"/><path d="M241.18,58.5h-6.34V53.6h-.28a11.77,11.77,0,0,1-4.65,4.32,13.23,13.23,0,0,1-6.51,1.73q-6.48,0-10-3.71T209.93,45.4V23.22h6.63V45q.21,8.64,8.71,8.64a8.25,8.25,0,0,0,6.62-3.2,11.6,11.6,0,0,0,2.67-7.67V23.22h6.62Z" transform="translate(-19.3 -6.37)" fill="#fff"/><path d="M275.88,48.71a9.55,9.55,0,0,1-4,7.77,15.88,15.88,0,0,1-10.15,3.17,16.11,16.11,0,0,1-9.36-2.77,15.25,15.25,0,0,1-5.76-7.31l5.9-2.52A11,11,0,0,0,256.26,52a9.18,9.18,0,0,0,5.44,1.77A9.59,9.59,0,0,0,267,52.38a3.88,3.88,0,0,0,2.13-3.24c0-2.26-1.73-3.91-5.19-5l-6.05-1.51q-10.29-2.59-10.29-9.94A9.2,9.2,0,0,1,251.51,25,18,18,0,0,1,270,24.3a12.14,12.14,0,0,1,5.29,6l-5.91,2.44a7.45,7.45,0,0,0-3.27-3.49A10.29,10.29,0,0,0,261.05,28a8.45,8.45,0,0,0-4.64,1.3,3.72,3.72,0,0,0-2.05,3.17q0,3,5.68,4.32l5.33,1.36Q275.89,40.72,275.88,48.71Z" transform="translate(-19.3 -6.37)" fill="#fff"/><path d="M100.15,173.38l-49.8,90.9L38.05,258l47.55-85.5H33.7l.3-13.2h66.15Z" transform="translate(-19.3 -6.37)" fill="#fff"/><path d="M111.25,210.58q0-23.4,11.55-38.55t29.7-15.15q18.15,0,29.7,15.3t11.55,38.4q0,23.1-11.55,38.55-11.55,15.17-29.7,15.15t-29.7-15.15Q111.25,233.68,111.25,210.58Zm68.4,0q0-17.69-7.5-29.1-7.35-11.39-19.65-11.4t-19.65,11.4q-7.5,11.4-7.5,29.1t7.5,29.25q7.35,11.25,19.65,11.25t19.65-11.4Q179.65,228.13,179.65,210.58Z" transform="translate(-19.3 -6.37)" fill="#fff"/><path d="M214,187.18l-6.45-4.2,7.5-11.4a9,9,0,0,1-5.33-3.15,9.16,9.16,0,0,1-2.17-6.15,9.74,9.74,0,0,1,3-7.27,10.17,10.17,0,0,1,17.4,7.27q0,4.2-3.15,9.15Z" transform="translate(-19.3 -6.37)" fill="#fff"/><path d="M292.3,241.48q0,9.6-8.4,16.2t-21.15,6.6a33.57,33.57,0,0,1-19.5-5.77,31.85,31.85,0,0,1-12-15.23l12.3-5.25a22.8,22.8,0,0,0,7.88,10.28A19.12,19.12,0,0,0,262.75,252a20,20,0,0,0,11-2.85c2.94-1.89,4.42-4.14,4.42-6.75q0-7-10.8-10.35l-12.6-3.15q-21.45-5.4-21.45-20.7a19.1,19.1,0,0,1,8.18-16.12q8.16-6.08,20.92-6.08a34.12,34.12,0,0,1,17.63,4.65,25.3,25.3,0,0,1,11,12.45l-12.3,5.1a15.51,15.51,0,0,0-6.82-7.27,21.43,21.43,0,0,0-10.58-2.63,17.72,17.72,0,0,0-9.67,2.7q-4.28,2.7-4.28,6.6,0,6.3,11.85,9l11.1,2.85Q292.3,224.83,292.3,241.48Z" transform="translate(-19.3 -6.37)" fill="#fff"/><path d="M57.33,349.1H50l19.44-51.55h7.49L96.35,349.1H89l-5-14H62.37ZM73,305.68,64.6,328.94H81.74l-8.43-23.26Z" transform="translate(-19.3 -6.37)" fill="#fff"/><path d="M107.87,349.1h-6.62V313.82h6.33v5.76h.29a9.55,9.55,0,0,1,4.14-4.79,11.5,11.5,0,0,1,6.16-2,12.29,12.29,0,0,1,4.89.87l-2,6.4a11.15,11.15,0,0,0-3.89-.5,8.59,8.59,0,0,0-6.52,3,10.16,10.16,0,0,0-2.77,7.06Z" transform="translate(-19.3 -6.37)" fill="#fff"/><path d="M141.35,350.25a17.4,17.4,0,0,1-13-5.33,19,19,0,0,1-5.11-13.46A18.65,18.65,0,0,1,128.32,318a17.4,17.4,0,0,1,13-5.33,16.16,16.16,0,0,1,15.48,10.15l-6.05,2.52q-2.81-6.63-9.86-6.62a10.24,10.24,0,0,0-7.85,3.67,14.32,14.32,0,0,0,0,18.14,10.24,10.24,0,0,0,7.85,3.67,10.35,10.35,0,0,0,10.22-6.62l5.91,2.52a15.82,15.82,0,0,1-6.09,7.45A17.19,17.19,0,0,1,141.35,350.25Z" transform="translate(-19.3 -6.37)" fill="#fff"/><path d="M175.84,312.67q7.35,0,11.59,3.92t4.25,10.77V349.1h-6.34v-4.9h-.28q-4.11,6.06-10.95,6.05a14.21,14.21,0,0,1-9.75-3.45,11,11,0,0,1-3.93-8.64,10.5,10.5,0,0,1,4.14-8.72q4.14-3.24,11.05-3.24a19.54,19.54,0,0,1,9.72,2.16v-1.51a7.56,7.56,0,0,0-2.73-5.87,9.43,9.43,0,0,0-6.41-2.41,10.14,10.14,0,0,0-8.78,4.68l-5.84-3.67Q166.41,312.67,175.84,312.67Zm-8.57,25.63a5.27,5.27,0,0,0,2.2,4.32,8.09,8.09,0,0,0,5.15,1.73,10.55,10.55,0,0,0,7.45-3.1,9.7,9.7,0,0,0,3.27-7.27q-3.09-2.44-8.64-2.45a11.19,11.19,0,0,0-6.73,2A5.76,5.76,0,0,0,167.27,338.3Z" transform="translate(-19.3 -6.37)" fill="#fff"/><path d="M213.57,350.25a15.49,15.49,0,0,1-11.88-5.47,20.55,20.55,0,0,1,0-26.64,15.49,15.49,0,0,1,11.88-5.47,15.27,15.27,0,0,1,7.09,1.65,12.45,12.45,0,0,1,4.93,4.4h.29l-.29-4.9V297.55h6.63V349.1h-6.34v-4.9h-.29a12.45,12.45,0,0,1-4.93,4.4A15.27,15.27,0,0,1,213.57,350.25Zm1.08-6.05a10.14,10.14,0,0,0,8-3.52,14.62,14.62,0,0,0,0-18.36,10.19,10.19,0,0,0-8-3.6,10.32,10.32,0,0,0-8,3.6,13.13,13.13,0,0,0-3.24,9.14,13,13,0,0,0,3.24,9.14A10.32,10.32,0,0,0,214.65,344.2Z" transform="translate(-19.3 -6.37)" fill="#fff"/><path d="M255.76,350.25a16.86,16.86,0,0,1-12.82-5.33,18.81,18.81,0,0,1-5-13.46A19.19,19.19,0,0,1,242.8,318a16.22,16.22,0,0,1,12.53-5.36q7.84,0,12.49,5.07T272.46,332l-.07.72H244.67a11.53,11.53,0,0,0,3.46,8.36,11,11,0,0,0,7.92,3.16q6.33,0,9.93-6.33l5.91,2.88a17.66,17.66,0,0,1-6.59,7A18.23,18.23,0,0,1,255.76,350.25Zm-10.58-23h20.23a8.77,8.77,0,0,0-3-6.08,10.45,10.45,0,0,0-7.24-2.41,9.58,9.58,0,0,0-6.44,2.3A11,11,0,0,0,245.18,327.21Z" transform="translate(-19.3 -6.37)" fill="#fff"/></g></svg>