<svg xmlns="http://www.w3.org/2000/svg" viewBox="0 0 291.9 428.03"><title>atari7800</title><g id="Layer_3" data-name="Layer 3"><circle cx="145.95" cy="85.63" r="8.2" fill="#fff"/><line x1="3.45" y1="122.13" x2="288.45" y2="122.13" fill="none"/><rect x="3.45" y="119.13" width="285" height="6" fill="#fff"/><line x1="3.45" y1="378.63" x2="288.45" y2="378.63" fill="none"/><rect x="3.45" y="375.63" width="285" height="6" fill="#fff"/><circle cx="145.95" cy="419.83" r="8.2" fill="#fff"/></g><g id="TEXT_LAYER" data-name="TEXT LAYER"><path d="M95.49,58.5H88.14L107.58,7h7.49L134.51,58.5h-7.34l-5-14H100.53Zm15.69-43.42-8.42,23.26H119.9l-8.43-23.26Z" transform="translate(-15.85 -6.37)" fill="#fff"/><path d="M150.86,59.08a10.08,10.08,0,0,1-7.17-2.67A9.86,9.86,0,0,1,140.78,49V29.27h-6.19V23.22h6.19V12.42h6.62v10.8H156v6.05H147.4V46.84q0,3.52,1.37,4.78a4.44,4.44,0,0,0,3.1,1.26,6.62,6.62,0,0,0,1.54-.18,8,8,0,0,0,1.41-.46l2.09,5.9A17.92,17.92,0,0,1,150.86,59.08Z" transform="translate(-15.85 -6.37)" fill="#fff"/><path d="M175.05,22.07q7.35,0,11.59,3.92t4.25,10.77V58.5h-6.34V53.6h-.28q-4.11,6.06-11,6a14.21,14.21,0,0,1-9.75-3.45,11,11,0,0,1-3.93-8.64,10.5,10.5,0,0,1,4.14-8.72q4.14-3.24,11.05-3.24a19.54,19.54,0,0,1,9.72,2.16V36.25a7.56,7.56,0,0,0-2.73-5.87A9.43,9.43,0,0,0,175.41,28a10.14,10.14,0,0,0-8.78,4.68L160.79,29Q165.62,22.07,175.05,22.07ZM166.48,47.7a5.27,5.27,0,0,0,2.2,4.32,8.09,8.09,0,0,0,5.15,1.73,10.55,10.55,0,0,0,7.45-3.1,9.7,9.7,0,0,0,3.27-7.27q-3.09-2.45-8.64-2.45a11.19,11.19,0,0,0-6.73,2A5.76,5.76,0,0,0,166.48,47.7Z" transform="translate(-15.85 -6.37)" fill="#fff"/><path d="M205,58.5h-6.62V23.22h6.33V29H205a9.55,9.55,0,0,1,4.14-4.79,11.5,11.5,0,0,1,6.16-2,12.29,12.29,0,0,1,4.89.87l-2,6.4a11.18,11.18,0,0,0-3.89-.5,8.59,8.59,0,0,0-6.52,3A10.12,10.12,0,0,0,205,39.06Z" transform="translate(-15.85 -6.37)" fill="#fff"/><path d="M233.08,11.05a4.51,4.51,0,0,1-1.37,3.31,4.68,4.68,0,0,1-6.62,0,4.51,4.51,0,0,1-1.37-3.31,4.68,4.68,0,1,1,9.36,0Zm-1.37,12.17V58.5h-6.62V23.22Z" transform="translate(-15.85 -6.37)" fill="#fff"/><path d="M54.85,159.28v102.6H41.05v-85.5l-19.95,8.7-5.25-11.7L46,159.28Z" transform="translate(-15.85 -6.37)" fill="#fff"/><path d="M105.55,224.38q-12.3,0-22.35-9.75a32.53,32.53,0,0,1-9.75-23.4q0-13.95,10.5-24,10.5-10.35,24.6-10.35a34.05,34.05,0,0,1,25,10.2,33,33,0,0,1,10.2,24.15q0,12.47-10.05,28.35l-29.85,44.7-11.1-7.65,25.35-35.1-.3-.3Q113.05,224.38,105.55,224.38Zm24.3-33.3a20,20,0,0,0-6.3-14.85,21.37,21.37,0,0,0-30,0,21,21,0,0,0,0,29.7,21.37,21.37,0,0,0,30,0A19.65,19.65,0,0,0,129.85,191.08Z" transform="translate(-15.85 -6.37)" fill="#fff"/><path d="M225.4,233.53a27.74,27.74,0,0,1-10.05,21.9q-10.2,8.85-24.75,8.85t-24.75-8.85a27.74,27.74,0,0,1-10-21.9,26.48,26.48,0,0,1,4.35-14.77,30,30,0,0,1,12.45-10.58v-.6a32.12,32.12,0,0,1-9.68-9.6,21.79,21.79,0,0,1-3.67-12,27.6,27.6,0,0,1,8.85-20.85q8.7-8.24,22.5-8.25t22.5,8.25A27.6,27.6,0,0,1,222,186a21.8,21.8,0,0,1-3.68,12,32.09,32.09,0,0,1-9.67,9.6v.6a30,30,0,0,1,12.45,10.58A26.48,26.48,0,0,1,225.4,233.53Zm-55.5-.75a16.81,16.81,0,0,0,1.57,7.35,18.05,18.05,0,0,0,4.36,5.78,19.58,19.58,0,0,0,6.52,3.82,25.88,25.88,0,0,0,16.5,0,19.83,19.83,0,0,0,6.53-3.82,18.28,18.28,0,0,0,4.34-5.78,16.82,16.82,0,0,0,1.58-7.35,16.21,16.21,0,0,0-6-12.9,21.54,21.54,0,0,0-14.7-5.25,22.1,22.1,0,0,0-14.85,5.25A16.66,16.66,0,0,0,169.9,232.78Zm3.45-47.1a15.08,15.08,0,0,0,4.8,11.63q4.8,4.42,12.45,4.42t12.45-4.42a15.08,15.08,0,0,0,4.8-11.63q0-7.2-4.8-11.4c-3.2-2.79-7.35-4.2-12.45-4.2s-9.25,1.41-12.45,4.2S173.35,180.88,173.35,185.68Z" transform="translate(-15.85 -6.37)" fill="#fff"/><path d="M275.65,196.78q12.45,0,22.2,9.9a31.52,31.52,0,0,1,9.9,23.25q0,13.8-10.5,24.15-10.65,10.2-24.6,10.2a34.05,34.05,0,0,1-25-10.2,33,33,0,0,1-10.2-24.15q0-12.45,10-28.35l29.85-44.7,11.1,7.65-25.35,35.1.3.3Q268,196.78,275.65,196.78Zm-24.3,33.3a20.39,20.39,0,0,0,6.15,15,20.86,20.86,0,0,0,15.15,6,20.75,20.75,0,0,0,21.15-21,20,20,0,0,0-6.3-14.85,20.23,20.23,0,0,0-14.85-6.15,21.07,21.07,0,0,0-15,6.15A20,20,0,0,0,251.35,230.08Z" transform="translate(-15.85 -6.37)" fill="#fff"/><path d="M113,306.62,89,350.25l-5.9-3,22.82-41H81.05l.15-6.34H113Z" transform="translate(-15.85 -6.37)" fill="#fff"/><path d="M150.68,335.49A13.29,13.29,0,0,1,145.85,346a18.73,18.73,0,0,1-23.76,0,13.31,13.31,0,0,1-4.82-10.51,12.66,12.66,0,0,1,2.09-7.09,14.33,14.33,0,0,1,6-5.08V323a15.46,15.46,0,0,1-4.64-4.61,10.45,10.45,0,0,1-1.76-5.76,13.24,13.24,0,0,1,4.24-10,16.71,16.71,0,0,1,21.6,0,13.25,13.25,0,0,1,4.25,10,10.54,10.54,0,0,1-1.76,5.76,15.61,15.61,0,0,1-4.65,4.61v.28a14.3,14.3,0,0,1,6,5.08A12.74,12.74,0,0,1,150.68,335.49ZM124,335.13a8.12,8.12,0,0,0,.75,3.53,8.7,8.7,0,0,0,2.09,2.77,9.49,9.49,0,0,0,3.13,1.84,12.39,12.39,0,0,0,7.92,0,9.38,9.38,0,0,0,3.13-1.84,8.56,8.56,0,0,0,2.09-2.77,8,8,0,0,0,.76-3.53,7.78,7.78,0,0,0-2.88-6.19,10.34,10.34,0,0,0-7.06-2.52,10.58,10.58,0,0,0-7.12,2.52A8,8,0,0,0,124,335.13Zm1.65-22.61A7.21,7.21,0,0,0,128,318.1a9.45,9.45,0,0,0,11.95,0,7.23,7.23,0,0,0,2.3-5.58,6.92,6.92,0,0,0-2.3-5.47,9.89,9.89,0,0,0-11.95,0A6.9,6.9,0,0,0,125.69,312.52Z" transform="translate(-15.85 -6.37)" fill="#fff"/><path d="M156.72,324.48q0-11.24,5.55-18.51a17.17,17.17,0,0,1,14.25-7.27q8.72,0,14.26,7.34t5.55,18.44q0,11.08-5.55,18.5a17.61,17.61,0,0,1-28.51,0Q156.72,335.57,156.72,324.48Zm32.84,0q0-8.5-3.6-14T176.52,305q-5.9,0-9.43,5.47t-3.6,14q0,8.49,3.6,14t9.43,5.4q5.91,0,9.44-5.48T189.56,324.48Z" transform="translate(-15.85 -6.37)" fill="#fff"/><path d="M202.66,324.48q0-11.24,5.54-18.51a17.19,17.19,0,0,1,14.26-7.27q8.72,0,14.26,7.34t5.54,18.44q0,11.08-5.54,18.5a17.62,17.62,0,0,1-28.52,0Q202.67,335.57,202.66,324.48Zm32.83,0q0-8.5-3.6-14T222.46,305q-5.91,0-9.43,5.47t-3.6,14q0,8.49,3.6,14t9.43,5.4q5.91,0,9.43-5.48T235.49,324.48Z" transform="translate(-15.85 -6.37)" fill="#fff"/></g></svg>