<svg xmlns="http://www.w3.org/2000/svg" viewBox="0 0 289.95 428.03"><title>atarijaguar</title><g id="Layer_3" data-name="Layer 3"><circle cx="144.97" cy="85.63" r="8.2" fill="#fff"/><line x1="2.47" y1="122.13" x2="287.47" y2="122.13" fill="none"/><rect x="2.47" y="119.13" width="285" height="6" fill="#fff"/><line x1="2.47" y1="378.63" x2="287.47" y2="378.63" fill="none"/><rect x="2.47" y="375.63" width="285" height="6" fill="#fff"/><circle cx="144.97" cy="419.83" r="8.2" fill="#fff"/></g><g id="TEXT_LAYER" data-name="TEXT LAYER"><path d="M95.49,58.5H88.14L107.58,7h7.49L134.51,58.5h-7.34l-5-14H100.53Zm15.69-43.42-8.42,23.26H119.9l-8.43-23.26Z" transform="translate(-16.83 -6.37)" fill="#fff"/><path d="M150.86,59.08a10.08,10.08,0,0,1-7.17-2.67A9.86,9.86,0,0,1,140.78,49V29.27h-6.19V23.22h6.19V12.42h6.62v10.8H156v6.05H147.4V46.84q0,3.52,1.37,4.78a4.44,4.44,0,0,0,3.1,1.26,6.62,6.62,0,0,0,1.54-.18,8,8,0,0,0,1.41-.46l2.09,5.9A17.92,17.92,0,0,1,150.86,59.08Z" transform="translate(-16.83 -6.37)" fill="#fff"/><path d="M175.05,22.07q7.35,0,11.59,3.92t4.25,10.77V58.5h-6.34V53.6h-.28q-4.11,6.06-11,6a14.21,14.21,0,0,1-9.75-3.45,11,11,0,0,1-3.93-8.64,10.5,10.5,0,0,1,4.14-8.72q4.14-3.24,11.05-3.24a19.54,19.54,0,0,1,9.72,2.16V36.25a7.56,7.56,0,0,0-2.73-5.87A9.43,9.43,0,0,0,175.41,28a10.14,10.14,0,0,0-8.78,4.68L160.79,29Q165.62,22.07,175.05,22.07ZM166.48,47.7a5.27,5.27,0,0,0,2.2,4.32,8.09,8.09,0,0,0,5.15,1.73,10.55,10.55,0,0,0,7.45-3.1,9.7,9.7,0,0,0,3.27-7.27q-3.09-2.45-8.64-2.45a11.19,11.19,0,0,0-6.73,2A5.76,5.76,0,0,0,166.48,47.7Z" transform="translate(-16.83 -6.37)" fill="#fff"/><path d="M205,58.5h-6.62V23.22h6.33V29H205a9.55,9.55,0,0,1,4.14-4.79,11.5,11.5,0,0,1,6.16-2,12.29,12.29,0,0,1,4.89.87l-2,6.4a11.18,11.18,0,0,0-3.89-.5,8.59,8.59,0,0,0-6.52,3A10.12,10.12,0,0,0,205,39.06Z" transform="translate(-16.83 -6.37)" fill="#fff"/><path d="M233.08,11.05a4.51,4.51,0,0,1-1.37,3.31,4.68,4.68,0,0,1-6.62,0,4.51,4.51,0,0,1-1.37-3.31,4.68,4.68,0,1,1,9.36,0Zm-1.37,12.17V58.5h-6.62V23.22Z" transform="translate(-16.83 -6.37)" fill="#fff"/><path d="M55.83,159.28v102.6H42v-85.5l-20,8.7-5.25-11.7L47,159.28Z" transform="translate(-16.83 -6.37)" fill="#fff"/><path d="M106.52,224.38q-12.3,0-22.34-9.75a32.49,32.49,0,0,1-9.75-23.4q0-13.95,10.5-24,10.48-10.35,24.59-10.35a34.08,34.08,0,0,1,25.06,10.2,33.05,33.05,0,0,1,10.19,24.15q0,12.47-10,28.35l-29.85,44.7-11.11-7.65,25.36-35.1-.3-.3Q114,224.38,106.52,224.38Zm24.31-33.3a20,20,0,0,0-6.31-14.85,21.37,21.37,0,0,0-30,0,21,21,0,0,0,0,29.7,21.37,21.37,0,0,0,30,0A19.63,19.63,0,0,0,130.83,191.08Z" transform="translate(-16.83 -6.37)" fill="#fff"/><path d="M188.87,224.38q-12.3,0-22.35-9.75a32.53,32.53,0,0,1-9.75-23.4q0-13.95,10.5-24,10.5-10.35,24.6-10.35a34.05,34.05,0,0,1,25,10.2,33,33,0,0,1,10.2,24.15q0,12.47-10.05,28.35l-29.85,44.7-11.1-7.65,25.35-35.1-.3-.3Q196.37,224.38,188.87,224.38Zm24.3-33.3a20,20,0,0,0-6.3-14.85,21.11,21.11,0,1,0-30,29.7,21.37,21.37,0,0,0,30,0A19.65,19.65,0,0,0,213.17,191.08Z" transform="translate(-16.83 -6.37)" fill="#fff"/><path d="M306.77,232.78a29,29,0,0,1-10,22.5q-9.9,9-24.6,9a34.14,34.14,0,0,1-20.85-6.9,35.07,35.07,0,0,1-12.75-18.75l12.6-5.25q2.4,8.55,7.88,13.13a19.79,19.79,0,0,0,13.12,4.57,21.69,21.69,0,0,0,14.55-5.25,16.93,16.93,0,0,0,6-13.05,16.18,16.18,0,0,0-6.3-12.9,22.1,22.1,0,0,0-14.85-5.25h-8.85v-12.9h7.8q8.25,0,13.5-4.57a15.08,15.08,0,0,0,5.25-11.93,13.68,13.68,0,0,0-5-10.95c-3.3-2.79-7.65-4.2-13-4.2q-13.05,0-17.85,13.35L240.62,178a31.73,31.73,0,0,1,30.6-21.15q13.65,0,22.95,8.1a25.36,25.36,0,0,1,9.15,20.25q0,14.85-13.8,22.05v.6a28.73,28.73,0,0,1,12.68,10.05A25.47,25.47,0,0,1,306.77,232.78Z" transform="translate(-16.83 -6.37)" fill="#fff"/><path d="M71.22,350.25a16.37,16.37,0,0,1-10.08-3.17,16.72,16.72,0,0,1-6-8.78l6.26-2.59q2.45,8.21,9.79,8.21a8.24,8.24,0,0,0,6.52-2.85,10.77,10.77,0,0,0,2.48-7.38V297.55h6.63v35.57q0,8-4.21,12.56T71.22,350.25Z" transform="translate(-16.83 -6.37)" fill="#fff"/><path d="M108.59,312.67q7.35,0,11.59,3.92t4.25,10.77V349.1H118.1v-4.9h-.29q-4.11,6.06-11,6.05a14.23,14.23,0,0,1-9.75-3.45,11,11,0,0,1-3.93-8.64,10.5,10.5,0,0,1,4.14-8.72q4.14-3.24,11.06-3.24a19.59,19.59,0,0,1,9.72,2.16v-1.51a7.57,7.57,0,0,0-2.74-5.87,9.43,9.43,0,0,0-6.41-2.41,10.14,10.14,0,0,0-8.78,4.68l-5.83-3.67Q99.16,312.67,108.59,312.67ZM100,338.3a5.27,5.27,0,0,0,2.2,4.32,8.09,8.09,0,0,0,5.15,1.73,10.55,10.55,0,0,0,7.45-3.1A9.71,9.71,0,0,0,118.1,334q-3.1-2.44-8.64-2.45a11.22,11.22,0,0,0-6.74,2A5.76,5.76,0,0,0,100,338.3Z" transform="translate(-16.83 -6.37)" fill="#fff"/><path d="M147.18,365.8a19.83,19.83,0,0,1-5.54-.75,17.92,17.92,0,0,1-4.72-2.13,15.27,15.27,0,0,1-3.63-3.24,13.62,13.62,0,0,1-2.31-4.17l6.27-2.59a9.91,9.91,0,0,0,3.74,5,10.5,10.5,0,0,0,6.19,1.88q5.4,0,8.43-3.24t3-8.93V344.2h-.29a12.94,12.94,0,0,1-5.07,4.43,15.22,15.22,0,0,1-7,1.62,15.59,15.59,0,0,1-11.88-5.4,19.54,19.54,0,0,1-4.9-13.39,19.29,19.29,0,0,1,4.9-13.32,15.49,15.49,0,0,1,11.88-5.47,15.22,15.22,0,0,1,7,1.62,12.94,12.94,0,0,1,5.07,4.43h.29v-4.9H165v33.77q0,8.49-4.83,13.32T147.18,365.8Zm.22-21.6a10.14,10.14,0,0,0,8-3.52,14.62,14.62,0,0,0,0-18.36,10.18,10.18,0,0,0-8-3.6,10.32,10.32,0,0,0-8,3.6,13.13,13.13,0,0,0-3.24,9.14,13,13,0,0,0,3.24,9.14A10.32,10.32,0,0,0,147.4,344.2Z" transform="translate(-16.83 -6.37)" fill="#fff"/><path d="M203.63,349.1H197.3v-4.9H197a11.77,11.77,0,0,1-4.65,4.32,13.2,13.2,0,0,1-6.51,1.73q-6.48,0-10-3.71T172.38,336V313.82H179v21.74q.21,8.64,8.71,8.64a8.25,8.25,0,0,0,6.62-3.2,11.58,11.58,0,0,0,2.67-7.67V313.82h6.62Z" transform="translate(-16.83 -6.37)" fill="#fff"/><path d="M224.73,312.67q7.34,0,11.59,3.92t4.25,10.77V349.1h-6.34v-4.9h-.29A12.61,12.61,0,0,1,223,350.25a14.26,14.26,0,0,1-9.76-3.45,11.07,11.07,0,0,1-3.92-8.64,10.5,10.5,0,0,1,4.14-8.72q4.14-3.24,11-3.24a19.54,19.54,0,0,1,9.72,2.16v-1.51A7.56,7.56,0,0,0,231.5,321a9.43,9.43,0,0,0-6.41-2.41,10.16,10.16,0,0,0-8.79,4.68l-5.83-3.67Q215.3,312.67,224.73,312.67Zm-8.57,25.63a5.27,5.27,0,0,0,2.2,4.32,8.08,8.08,0,0,0,5.14,1.73,10.55,10.55,0,0,0,7.46-3.1,9.7,9.7,0,0,0,3.27-7.27q-3.09-2.44-8.64-2.45a11.19,11.19,0,0,0-6.73,2A5.76,5.76,0,0,0,216.16,338.3Z" transform="translate(-16.83 -6.37)" fill="#fff"/><path d="M254.68,349.1h-6.62V313.82h6.33v5.76h.29a9.55,9.55,0,0,1,4.14-4.79,11.5,11.5,0,0,1,6.16-2,12.33,12.33,0,0,1,4.89.87l-2,6.4a11.18,11.18,0,0,0-3.89-.5,8.59,8.59,0,0,0-6.52,3,10.12,10.12,0,0,0-2.77,7.06Z" transform="translate(-16.83 -6.37)" fill="#fff"/></g></svg>