<svg xmlns="http://www.w3.org/2000/svg" viewBox="0 0 285 428.03"><title>atari2600</title><g id="Layer_3" data-name="Layer 3"><circle cx="142.5" cy="85.63" r="8.2" fill="#fff"/><line y1="122.13" x2="285" y2="122.13" fill="none"/><rect y="119.13" width="285" height="6" fill="#fff"/><line y1="378.63" x2="285" y2="378.63" fill="none"/><rect y="375.63" width="285" height="6" fill="#fff"/><circle cx="142.5" cy="419.83" r="8.2" fill="#fff"/></g><g id="TEXT_LAYER" data-name="TEXT LAYER"><path d="M95.49,58.5H88.15L107.59,7h7.48L134.51,58.5h-7.34l-5-14H100.53Zm15.7-43.42-8.43,23.26H119.9l-8.43-23.26Z" transform="translate(-19.3 -6.37)" fill="#fff"/><path d="M150.86,59.08a10.08,10.08,0,0,1-7.17-2.67A9.9,9.9,0,0,1,140.78,49V29.27h-6.19V23.22h6.19V12.42h6.62v10.8H156v6.05H147.4V46.84q0,3.52,1.37,4.78a4.44,4.44,0,0,0,3.1,1.26,6.62,6.62,0,0,0,1.54-.18,8,8,0,0,0,1.41-.46l2.09,5.9A17.92,17.92,0,0,1,150.86,59.08Z" transform="translate(-19.3 -6.37)" fill="#fff"/><path d="M175.05,22.07q7.35,0,11.59,3.92t4.25,10.77V58.5h-6.34V53.6h-.28q-4.11,6.06-11,6a14.21,14.21,0,0,1-9.75-3.45,11,11,0,0,1-3.93-8.64,10.5,10.5,0,0,1,4.14-8.72q4.14-3.24,11.05-3.24a19.54,19.54,0,0,1,9.72,2.16V36.25a7.56,7.56,0,0,0-2.73-5.87A9.43,9.43,0,0,0,175.41,28a10.14,10.14,0,0,0-8.78,4.68L160.79,29Q165.62,22.07,175.05,22.07ZM166.48,47.7a5.27,5.27,0,0,0,2.2,4.32,8.09,8.09,0,0,0,5.15,1.73,10.55,10.55,0,0,0,7.45-3.1,9.7,9.7,0,0,0,3.27-7.27q-3.09-2.45-8.64-2.45a11.19,11.19,0,0,0-6.73,2A5.76,5.76,0,0,0,166.48,47.7Z" transform="translate(-19.3 -6.37)" fill="#fff"/><path d="M205,58.5h-6.62V23.22h6.33V29H205a9.55,9.55,0,0,1,4.14-4.79,11.5,11.5,0,0,1,6.16-2,12.29,12.29,0,0,1,4.89.87l-2,6.4a11.18,11.18,0,0,0-3.89-.5,8.59,8.59,0,0,0-6.52,3A10.12,10.12,0,0,0,205,39.06Z" transform="translate(-19.3 -6.37)" fill="#fff"/><path d="M233.08,11.05a4.51,4.51,0,0,1-1.37,3.31,4.68,4.68,0,0,1-6.62,0,4.51,4.51,0,0,1-1.37-3.31,4.68,4.68,0,1,1,9.36,0Zm-1.37,12.17V58.5h-6.62V23.22Z" transform="translate(-19.3 -6.37)" fill="#fff"/><path d="M58.38,159.28v102.6H44.58v-85.5l-19.95,8.7-5.25-11.7,30.15-14.1Z" transform="translate(-19.3 -6.37)" fill="#fff"/><path d="M109.07,224.38q-12.3,0-22.35-9.75A32.53,32.53,0,0,1,77,191.23q0-13.95,10.5-24,10.5-10.35,24.6-10.35a34.09,34.09,0,0,1,25.06,10.2,33.05,33.05,0,0,1,10.19,24.15q0,12.47-10,28.35l-29.85,44.7-11.1-7.65,25.35-35.1-.29-.3Q116.57,224.38,109.07,224.38Zm24.31-33.3a20,20,0,0,0-6.31-14.85,21.37,21.37,0,0,0-30,0,21,21,0,0,0,0,29.7,21.37,21.37,0,0,0,30,0A19.66,19.66,0,0,0,133.38,191.08Z" transform="translate(-19.3 -6.37)" fill="#fff"/><path d="M225.77,173.38,176,264.28l-12.3-6.3,47.55-85.5h-51.9l.3-13.2h66.15Z" transform="translate(-19.3 -6.37)" fill="#fff"/><path d="M304.22,173.38l-49.8,90.9-12.3-6.3,47.55-85.5h-51.9l.3-13.2h66.15Z" transform="translate(-19.3 -6.37)" fill="#fff"/><path d="M111.65,342.76v6.34H80.26v-6.62L93,329.59a111.68,111.68,0,0,0,8.85-9.83,11.31,11.31,0,0,0,2.45-6.88,7.25,7.25,0,0,0-2.52-5.54,9.21,9.21,0,0,0-6.48-2.3,8.88,8.88,0,0,0-5.83,2,9.14,9.14,0,0,0-3.17,4.9l-6-2.45a15.81,15.81,0,0,1,15.19-10.8,15.86,15.86,0,0,1,11.16,4.1,13.16,13.16,0,0,1,4.47,10.08q0,7.14-7.85,15.41l-14.4,14.47Z" transform="translate(-19.3 -6.37)" fill="#fff"/><path d="M136.06,317.85a14.62,14.62,0,0,1,10.66,4.75,15.11,15.11,0,0,1,4.75,11.16,15.8,15.8,0,0,1-5,11.6,16.57,16.57,0,0,1-11.81,4.89,16.34,16.34,0,0,1-12-4.89,15.84,15.84,0,0,1-4.9-11.6q0-6,4.83-13.6l14.32-21.46,5.33,3.67L130,319.22l.15.14A10.38,10.38,0,0,1,136.06,317.85Zm-11.66,16a9.79,9.79,0,0,0,2.95,7.2,10,10,0,0,0,7.27,2.88,10,10,0,0,0,10.15-10.08,9.58,9.58,0,0,0-3-7.13,9.72,9.72,0,0,0-7.13-2.95,10.1,10.1,0,0,0-7.2,2.95A9.61,9.61,0,0,0,124.4,333.84Z" transform="translate(-19.3 -6.37)" fill="#fff"/><path d="M157.52,324.48q0-11.24,5.54-18.51a17.19,17.19,0,0,1,14.26-7.27q8.7,0,14.25,7.34t5.55,18.44q0,11.08-5.55,18.5a17.61,17.61,0,0,1-28.51,0Q157.51,335.57,157.52,324.48Zm32.83,0q0-8.5-3.6-14T177.32,305q-5.91,0-9.44,5.47t-3.6,14q0,8.49,3.6,14t9.44,5.4q5.9,0,9.43-5.48T190.35,324.48Z" transform="translate(-19.3 -6.37)" fill="#fff"/><path d="M203.45,324.48q0-11.24,5.55-18.51a17.16,17.16,0,0,1,14.25-7.27q8.72,0,14.26,7.34t5.54,18.44q0,11.08-5.54,18.5A17.61,17.61,0,0,1,209,343Q203.45,335.57,203.45,324.48Zm32.83,0q0-8.5-3.6-14T223.25,305q-5.9,0-9.43,5.47t-3.6,14q0,8.49,3.6,14t9.43,5.4q5.91,0,9.43-5.48T236.28,324.48Z" transform="translate(-19.3 -6.37)" fill="#fff"/></g></svg>