<svg xmlns="http://www.w3.org/2000/svg" viewBox="0 0 286.95 428.03"><title>atari5200</title><g id="Layer_3" data-name="Layer 3"><circle cx="143.77" cy="85.63" r="8.2" fill="#fff"/><line x1="1.27" y1="122.13" x2="286.27" y2="122.13" fill="none"/><rect x="1.27" y="119.13" width="285" height="6" fill="#fff"/><line x1="1.27" y1="378.63" x2="286.27" y2="378.63" fill="none"/><rect x="1.27" y="375.63" width="285" height="6" fill="#fff"/><circle cx="143.77" cy="419.83" r="8.2" fill="#fff"/></g><g id="TEXT_LAYER" data-name="TEXT LAYER"><path d="M95.49,58.5H88.14L107.58,7h7.49L134.51,58.5h-7.34l-5-14H100.53Zm15.69-43.42-8.42,23.26H119.9l-8.43-23.26Z" transform="translate(-18.03 -6.37)" fill="#fff"/><path d="M150.86,59.08a10.08,10.08,0,0,1-7.17-2.67A9.86,9.86,0,0,1,140.78,49V29.27h-6.19V23.22h6.19V12.42h6.62v10.8H156v6.05H147.4V46.84q0,3.52,1.37,4.78a4.44,4.44,0,0,0,3.1,1.26,6.62,6.62,0,0,0,1.54-.18,8,8,0,0,0,1.41-.46l2.09,5.9A17.92,17.92,0,0,1,150.86,59.08Z" transform="translate(-18.03 -6.37)" fill="#fff"/><path d="M175.05,22.07q7.35,0,11.59,3.92t4.25,10.77V58.5h-6.34V53.6h-.28q-4.11,6.06-11,6a14.21,14.21,0,0,1-9.75-3.45,11,11,0,0,1-3.93-8.64,10.5,10.5,0,0,1,4.14-8.72q4.14-3.24,11.05-3.24a19.54,19.54,0,0,1,9.72,2.16V36.25a7.56,7.56,0,0,0-2.73-5.87A9.43,9.43,0,0,0,175.41,28a10.14,10.14,0,0,0-8.78,4.68L160.79,29Q165.62,22.07,175.05,22.07ZM166.48,47.7a5.27,5.27,0,0,0,2.2,4.32,8.09,8.09,0,0,0,5.15,1.73,10.55,10.55,0,0,0,7.45-3.1,9.7,9.7,0,0,0,3.27-7.27q-3.09-2.45-8.64-2.45a11.19,11.19,0,0,0-6.73,2A5.76,5.76,0,0,0,166.48,47.7Z" transform="translate(-18.03 -6.37)" fill="#fff"/><path d="M205,58.5h-6.62V23.22h6.33V29H205a9.55,9.55,0,0,1,4.14-4.79,11.5,11.5,0,0,1,6.16-2,12.29,12.29,0,0,1,4.89.87l-2,6.4a11.18,11.18,0,0,0-3.89-.5,8.59,8.59,0,0,0-6.52,3A10.12,10.12,0,0,0,205,39.06Z" transform="translate(-18.03 -6.37)" fill="#fff"/><path d="M233.08,11.05a4.51,4.51,0,0,1-1.37,3.31,4.68,4.68,0,0,1-6.62,0,4.51,4.51,0,0,1-1.37-3.31,4.68,4.68,0,1,1,9.36,0Zm-1.37,12.17V58.5h-6.62V23.22Z" transform="translate(-18.03 -6.37)" fill="#fff"/><path d="M57,159.28v102.6H43.23v-85.5l-19.95,8.7L18,173.38l30.15-14.1Z" transform="translate(-18.03 -6.37)" fill="#fff"/><path d="M107.73,224.38q-12.32,0-22.35-9.75a32.49,32.49,0,0,1-9.75-23.4q0-13.95,10.5-24,10.49-10.35,24.6-10.35a34.07,34.07,0,0,1,25,10.2A33.06,33.06,0,0,1,146,191.23q0,12.47-10,28.35l-29.85,44.7L95,256.63l25.35-35.1-.3-.3C116.82,223.33,112.73,224.38,107.73,224.38Zm24.3-33.3a20,20,0,0,0-6.3-14.85,21.37,21.37,0,0,0-30,0,21,21,0,0,0,0,29.7,21.37,21.37,0,0,0,30,0A19.65,19.65,0,0,0,132,191.08Z" transform="translate(-18.03 -6.37)" fill="#fff"/><path d="M227.57,233.53a27.74,27.74,0,0,1-10,21.9q-10.2,8.85-24.75,8.85T168,255.43a27.73,27.73,0,0,1-10-21.9,26.47,26.47,0,0,1,4.34-14.77,30.05,30.05,0,0,1,12.45-10.58v-.6a32.09,32.09,0,0,1-9.67-9.6,21.79,21.79,0,0,1-3.67-12,27.59,27.59,0,0,1,8.84-20.85q8.7-8.24,22.5-8.25t22.5,8.25A27.61,27.61,0,0,1,224.13,186a21.8,21.8,0,0,1-3.68,12,32.12,32.12,0,0,1-9.68,9.6v.6a30,30,0,0,1,12.45,10.58A26.48,26.48,0,0,1,227.57,233.53Zm-55.5-.75a16.82,16.82,0,0,0,1.58,7.35,18.17,18.17,0,0,0,4.35,5.78,19.69,19.69,0,0,0,6.52,3.82,25.88,25.88,0,0,0,16.5,0,19.73,19.73,0,0,0,6.53-3.82,18.17,18.17,0,0,0,4.35-5.78,16.81,16.81,0,0,0,1.57-7.35,16.21,16.21,0,0,0-6-12.9,21.54,21.54,0,0,0-14.7-5.25,22.1,22.1,0,0,0-14.85,5.25A16.66,16.66,0,0,0,172.07,232.78Zm3.45-47.1a15.08,15.08,0,0,0,4.8,11.63q4.8,4.42,12.45,4.42c5.11,0,9.25-1.47,12.45-4.42a15.08,15.08,0,0,0,4.8-11.63q0-7.2-4.8-11.4c-3.2-2.79-7.34-4.2-12.45-4.2s-9.25,1.41-12.45,4.2S175.52,180.88,175.52,185.68Z" transform="translate(-18.03 -6.37)" fill="#fff"/><path d="M305,248.68v13.2h-65.4v-13.8l26.55-26.85q13.35-13.64,18.45-20.47a23.57,23.57,0,0,0,5.1-14.33,15.12,15.12,0,0,0-5.25-11.55q-5.25-4.8-13.5-4.8a18.56,18.56,0,0,0-12.15,4.2,19,19,0,0,0-6.6,10.2l-12.6-5.1a32.93,32.93,0,0,1,31.65-22.5q13.95,0,23.25,8.55a27.42,27.42,0,0,1,9.3,21q0,14.85-16.35,32.1l-30,30.15Z" transform="translate(-18.03 -6.37)" fill="#fff"/><path d="M113.67,333.69a15.77,15.77,0,0,1-4.9,11.81,17.38,17.38,0,0,1-22.53,1.15,17,17,0,0,1-6.19-9.72l5.9-2.37a13.13,13.13,0,0,0,3.92,6.84,9.74,9.74,0,0,0,6.66,2.52,10.34,10.34,0,0,0,7.53-2.85,9.76,9.76,0,0,0,2.91-7.31,10,10,0,0,0-2.91-7.41,10.17,10.17,0,0,0-7.45-2.88,9.59,9.59,0,0,0-8.28,4.25l-6.7-2.88,3.17-25h25.85v6.34H90.34l-1.8,14.11.29.07a13.78,13.78,0,0,1,8.93-2.95A15.3,15.3,0,0,1,109,322.1,15.82,15.82,0,0,1,113.67,333.69Z" transform="translate(-18.03 -6.37)" fill="#fff"/><path d="M151.4,342.76v6.34H120v-6.62l12.75-12.89a111.68,111.68,0,0,0,8.85-9.83,11.25,11.25,0,0,0,2.45-6.88,7.25,7.25,0,0,0-2.52-5.54,9.21,9.21,0,0,0-6.48-2.3,8.9,8.9,0,0,0-5.83,2,9.14,9.14,0,0,0-3.17,4.9l-6-2.45a15.81,15.81,0,0,1,15.2-10.8,15.9,15.9,0,0,1,11.16,4.1,13.19,13.19,0,0,1,4.46,10.08q0,7.14-7.85,15.41l-14.4,14.47Z" transform="translate(-18.03 -6.37)" fill="#fff"/><path d="M157.73,324.48q0-11.24,5.55-18.51a17.16,17.16,0,0,1,14.25-7.27q8.72,0,14.26,7.34t5.54,18.44q0,11.08-5.54,18.5a17.61,17.61,0,0,1-28.51,0Q157.73,335.57,157.73,324.48Zm32.83,0q0-8.5-3.6-14T177.53,305q-5.9,0-9.43,5.47t-3.6,14q0,8.49,3.6,14t9.43,5.4q5.91,0,9.43-5.48T190.56,324.48Z" transform="translate(-18.03 -6.37)" fill="#fff"/><path d="M203.67,324.48q0-11.24,5.54-18.51a17.19,17.19,0,0,1,14.26-7.27q8.7,0,14.25,7.34t5.55,18.44q0,11.08-5.55,18.5a17.61,17.61,0,0,1-28.51,0Q203.66,335.57,203.67,324.48Zm32.83,0q0-8.5-3.6-14T223.47,305q-5.91,0-9.43,5.47c-2.41,3.65-3.6,8.3-3.6,14s1.19,10.34,3.6,14,5.49,5.4,9.43,5.4,7.08-1.83,9.43-5.48S236.5,330.09,236.5,324.48Z" transform="translate(-18.03 -6.37)" fill="#fff"/></g></svg>