<svg xmlns="http://www.w3.org/2000/svg" viewBox="0 0 291.6 428.03"><title>atarist</title><g id="Lines_and_Dots" data-name="Lines and Dots"><circle cx="145.8" cy="85.63" r="8.2" fill="#fff"/><line x1="3.3" y1="122.13" x2="288.3" y2="122.13" fill="none"/><rect x="3.3" y="119.13" width="285" height="6" fill="#fff"/><line x1="3.3" y1="378.63" x2="288.3" y2="378.63" fill="none"/><rect x="3.3" y="375.63" width="285" height="6" fill="#fff"/><circle cx="145.8" cy="419.83" r="8.2" fill="#fff"/></g><g id="NEW_TEXT" data-name="NEW TEXT"><path d="M55,159.28v102.6H41.2v-85.5l-20,8.7L16,173.38l30.15-14.1Z" transform="translate(-16 -6.37)" fill="#fff"/><path d="M105.7,224.38q-12.3,0-22.35-9.75a32.55,32.55,0,0,1-9.75-23.4q0-13.95,10.5-24,10.5-10.35,24.6-10.35a34.05,34.05,0,0,1,25,10.2A33,33,0,0,1,144,191.23q0,12.45-10,28.35l-29.85,44.7L93,256.63l25.35-35.1-.3-.3Q113.2,224.38,105.7,224.38Zm24.3-33.3a20,20,0,0,0-6.3-14.85,21.37,21.37,0,0,0-30,0,21,21,0,0,0,0,29.7,21.37,21.37,0,0,0,30,0A19.67,19.67,0,0,0,130,191.08Z" transform="translate(-16 -6.37)" fill="#fff"/><path d="M225.55,233.53a27.74,27.74,0,0,1-10.05,21.9q-10.2,8.85-24.75,8.85T166,255.43A27.74,27.74,0,0,1,156,233.53a26.48,26.48,0,0,1,4.35-14.77,29.92,29.92,0,0,1,12.45-10.58v-.6a32.24,32.24,0,0,1-9.68-9.6,21.79,21.79,0,0,1-3.67-12,27.58,27.58,0,0,1,8.85-20.85q8.7-8.25,22.5-8.25t22.5,8.25A27.58,27.58,0,0,1,222.1,186a21.8,21.8,0,0,1-3.68,12,32.2,32.2,0,0,1-9.67,9.6v.6a29.92,29.92,0,0,1,12.45,10.58A26.48,26.48,0,0,1,225.55,233.53Zm-55.5-.75a16.81,16.81,0,0,0,1.57,7.35,18.17,18.17,0,0,0,4.35,5.78,19.73,19.73,0,0,0,6.53,3.82,25.88,25.88,0,0,0,16.5,0,19.69,19.69,0,0,0,6.52-3.82,18.17,18.17,0,0,0,4.35-5.78,16.82,16.82,0,0,0,1.58-7.35,16.21,16.21,0,0,0-6-12.9,21.54,21.54,0,0,0-14.7-5.25,22.1,22.1,0,0,0-14.85,5.25A16.66,16.66,0,0,0,170.05,232.78Zm3.45-47.1a15.08,15.08,0,0,0,4.8,11.63q4.8,4.42,12.45,4.42t12.45-4.42a15.08,15.08,0,0,0,4.8-11.63q0-7.2-4.8-11.4t-12.45-4.2q-7.65,0-12.45,4.2T173.5,185.68Z" transform="translate(-16 -6.37)" fill="#fff"/><path d="M307.6,229.78a32.89,32.89,0,0,1-10.2,24.6q-10.2,9.9-25.2,9.9a34.74,34.74,0,0,1-21.75-7.5,35.4,35.4,0,0,1-12.9-20.25l12.3-4.95A27.28,27.28,0,0,0,258,245.83a20.27,20.27,0,0,0,13.88,5.25q9.6,0,15.67-5.92t6.08-15.23q0-9.45-6.08-15.45t-15.52-6a20,20,0,0,0-17.25,8.85l-14-6,6.6-52.05H301.3v13.2H259l-3.75,29.4.6.15q7.65-6.15,18.6-6.15a31.83,31.83,0,0,1,23.47,9.75Q307.6,215.38,307.6,229.78Z" transform="translate(-16 -6.37)" fill="#fff"/><path d="M159.82,339.7a13.41,13.41,0,0,1-5,10.87,19,19,0,0,1-12.24,4,18.11,18.11,0,0,1-11.3-3.74,19.15,19.15,0,0,1-6.77-10.23l6.34-2.59a16,16,0,0,0,1.8,4.17,13.23,13.23,0,0,0,2.7,3.21,12.28,12.28,0,0,0,3.42,2.09,10.49,10.49,0,0,0,4,.75,11.37,11.37,0,0,0,7.41-2.34,7.61,7.61,0,0,0,2.88-6.22,7.47,7.47,0,0,0-2.37-5.55q-2.24-2.23-8.36-4.32c-4.12-1.49-6.69-2.49-7.7-3q-8.2-4.19-8.21-12.31a12.52,12.52,0,0,1,4.54-9.72,16.55,16.55,0,0,1,11.3-4,17.36,17.36,0,0,1,10.23,3,14.17,14.17,0,0,1,5.76,7.41l-6.2,2.6a9.09,9.09,0,0,0-3.42-4.79,11.06,11.06,0,0,0-12.78.25,6.29,6.29,0,0,0-2.66,5.26,6.08,6.08,0,0,0,2.09,4.6q2.29,1.95,10,4.61t11.19,6.52A13.93,13.93,0,0,1,159.82,339.7Z" transform="translate(-16 -6.37)" fill="#fff"/><path d="M184.66,308.23v45.22H178V308.23h-14.4V301.9h35.42v6.33Z" transform="translate(-16 -6.37)" fill="#fff"/><path d="M96.68,58.5H89.33L108.77,7h7.49L135.7,58.5h-7.34l-5-14H101.72Zm15.69-43.42L104,38.34h17.13l-8.42-23.26Z" transform="translate(-16 -6.37)" fill="#fff"/><path d="M152.05,59.08a10.08,10.08,0,0,1-7.17-2.67A9.82,9.82,0,0,1,142,49V29.27h-6.2V23.22H142V12.42h6.62v10.8h8.64v6.05h-8.64V46.84c0,2.35.45,3.95,1.37,4.78a4.44,4.44,0,0,0,3.09,1.26,6.64,6.64,0,0,0,1.55-.18,8.32,8.32,0,0,0,1.41-.46l2.08,5.9A17.86,17.86,0,0,1,152.05,59.08Z" transform="translate(-16 -6.37)" fill="#fff"/><path d="M176.24,22.07q7.33,0,11.59,3.92t4.25,10.77V58.5h-6.34V53.6h-.29a12.61,12.61,0,0,1-10.94,6,14.26,14.26,0,0,1-9.76-3.45,11.07,11.07,0,0,1-3.92-8.64A10.5,10.5,0,0,1,165,38.84Q169.11,35.6,176,35.6a19.54,19.54,0,0,1,9.72,2.16V36.25A7.56,7.56,0,0,0,183,30.38,9.43,9.43,0,0,0,176.6,28a10.16,10.16,0,0,0-8.79,4.68L162,29Q166.81,22.07,176.24,22.07ZM167.67,47.7A5.29,5.29,0,0,0,169.86,52,8.11,8.11,0,0,0,175,53.75a10.55,10.55,0,0,0,7.46-3.1,9.7,9.7,0,0,0,3.27-7.27q-3.09-2.45-8.64-2.45a11.19,11.19,0,0,0-6.73,2A5.76,5.76,0,0,0,167.67,47.7Z" transform="translate(-16 -6.37)" fill="#fff"/><path d="M206.19,58.5h-6.63V23.22h6.34V29h.29a9.55,9.55,0,0,1,4.14-4.79,11.49,11.49,0,0,1,6.15-2,12.34,12.34,0,0,1,4.9.87l-2,6.4a11.08,11.08,0,0,0-3.88-.5A8.59,8.59,0,0,0,209,32a10.12,10.12,0,0,0-2.77,7.06Z" transform="translate(-16 -6.37)" fill="#fff"/><path d="M234.27,11.05a4.51,4.51,0,0,1-1.37,3.31,4.68,4.68,0,0,1-8-3.31,4.68,4.68,0,1,1,9.36,0ZM232.9,23.22V58.5h-6.62V23.22Z" transform="translate(-16 -6.37)" fill="#fff"/></g></svg>