<?xml version="1.0" encoding="utf-8"?>
<!-- Generator: Adobe Illustrator 23.1.0, SVG Export Plug-In . SVG Version: 6.00 Build 0)  -->
<svg version="1.1" xmlns="http://www.w3.org/2000/svg" xmlns:xlink="http://www.w3.org/1999/xlink" x="0px" y="0px"
	 viewBox="0 0 323.6 434.5" enable-background="new 0 0 323.6 434.5" xml:space="preserve">
<g id="Layer_1" display="none">
	<g display="inline">
		<g>
			<g>
				<path fill="#FFFFFF" d="M54.8,159.3v102.6H41v-85.5l-20,8.7l-5.2-11.7l30.1-14.1H54.8z"/>
			</g>
			<g>
				<path fill="#FFFFFF" d="M105.4,224.4c-8.2,0-15.7-3.2-22.3-9.8c-6.5-6.7-9.8-14.5-9.8-23.4c0-9.3,3.5-17.3,10.5-24
					c7-6.9,15.2-10.3,24.6-10.3c9.9,0,18.2,3.4,25.1,10.2c6.8,6.8,10.2,14.8,10.2,24.1c0,8.3-3.4,17.8-10,28.4l-29.8,44.7l-11.1-7.7
					l25.4-35.1l-0.3-0.3C114.5,223.3,110.4,224.4,105.4,224.4z M129.8,191.1c0-5.8-2.1-10.7-6.3-14.9c-4.1-4.1-9.1-6.1-15-6.1
					s-10.9,2.1-15,6.1c-4.1,4.1-6.1,9.1-6.1,14.9c0,5.8,2,10.8,6.1,14.8c4.3,4.1,9.3,6.2,15,6.2s10.7-2,15-6.2
					C127.6,201.9,129.8,197,129.8,191.1z"/>
			</g>
			<g>
				<path fill="#FFFFFF" d="M225.3,233.5c0,8.8-3.4,16.1-10,21.9c-6.8,5.9-15.1,8.9-24.8,8.9s-18-2.9-24.8-8.9
					c-6.7-5.8-10.1-13.1-10.1-21.9c0-5.4,1.4-10.3,4.3-14.8c2.9-4.4,7.1-8,12.5-10.6v-0.6c-4-2.6-7.2-5.8-9.7-9.6s-3.7-7.8-3.7-12
					c0-8.3,2.9-15.2,8.9-20.8c5.8-5.5,13.3-8.3,22.5-8.3s16.7,2.8,22.5,8.3c5.9,5.6,8.9,12.6,8.9,20.8c0,4.2-1.2,8.2-3.7,12
					s-5.7,7-9.7,9.6v0.6c5.4,2.6,9.5,6.1,12.5,10.6C223.8,223.2,225.3,228.1,225.3,233.5z M169.8,232.8c0,2.7,0.5,5.2,1.6,7.3
					c1,2.2,2.5,4.1,4.4,5.8c1.8,1.6,4,2.9,6.5,3.8c2.5,0.9,5.3,1.4,8.3,1.4s5.7-0.5,8.3-1.4c2.5-0.9,4.7-2.2,6.5-3.8
					c1.8-1.7,3.3-3.6,4.3-5.8s1.6-4.7,1.6-7.3c0-5.2-2-9.5-6-12.9c-4-3.5-8.9-5.3-14.7-5.3s-10.8,1.8-14.8,5.3
					C171.8,223.4,169.8,227.7,169.8,232.8z M173.3,185.7c0,4.8,1.6,8.7,4.8,11.6c3.2,3,7.4,4.4,12.5,4.4s9.2-1.5,12.5-4.4
					c3.2-2.9,4.8-6.8,4.8-11.6s-1.6-8.6-4.8-11.4c-3.2-2.8-7.3-4.2-12.5-4.2c-5.1,0-9.3,1.4-12.5,4.2
					C174.8,177.1,173.3,180.9,173.3,185.7z"/>
			</g>
			<g>
				<path fill="#FFFFFF" d="M269.4,224.4c-8.2,0-15.7-3.2-22.3-9.8c-6.5-6.7-9.8-14.5-9.8-23.4c0-9.3,3.5-17.3,10.5-24
					c7-6.9,15.2-10.3,24.6-10.3c9.9,0,18.2,3.4,25.1,10.2c6.8,6.8,10.2,14.8,10.2,24.1c0,8.3-3.4,17.8-10,28.4L268,264.3l-11.1-7.7
					l25.4-35.1l-0.3-0.3C278.5,223.3,274.4,224.4,269.4,224.4z M293.7,191.1c0-5.8-2.1-10.7-6.3-14.9c-4.1-4.1-9.1-6.1-15-6.1
					s-10.9,2.1-15,6.1c-4.1,4.1-6.1,9.1-6.1,14.9c0,5.8,2,10.8,6.1,14.8c4.3,4.1,9.3,6.2,15,6.2s10.7-2,15-6.2
					C291.6,201.9,293.7,197,293.7,191.1z"/>
			</g>
		</g>
	</g>
	<g display="inline">
		<g>
			<g>
				<path fill="#FFFFFF" d="M52.1,324.2c0,7.2-2.1,12.9-6.4,17.2c-4.8,5.1-11.1,7.6-18.9,7.6c-7.5,0-13.8-2.6-19-7.8
					S0,329.7,0,322.1s2.6-14,7.8-19.2s11.5-7.8,19-7.8c3.8,0,7.4,0.7,10.7,2c3.4,1.3,6.1,3.2,8.3,5.7l-4.8,4.8
					c-1.6-1.9-3.6-3.4-6.2-4.5s-5.2-1.6-8.1-1.6c-5.6,0-10.4,1.9-14.3,5.8c-3.8,3.9-5.8,8.9-5.8,14.8s1.9,10.8,5.8,14.8
					c3.9,3.9,8.6,5.8,14.3,5.8c5.1,0,9.4-1.4,12.8-4.3s5.4-6.8,5.9-11.9H26.8v-6.2h25C52,321.7,52.1,323,52.1,324.2z"/>
			</g>
			<g>
				<path fill="#FFFFFF" d="M71.3,311.5c4.9,0,8.8,1.3,11.6,3.9s4.2,6.2,4.2,10.8v21.7h-6.3V343h-0.3c-2.7,4-6.4,6-10.9,6
					c-3.9,0-7.1-1.2-9.8-3.5c-2.6-2.3-3.9-5.2-3.9-8.6c0-3.6,1.4-6.6,4.1-8.7c2.8-2.2,6.4-3.2,11.1-3.2c3.9,0,7.2,0.7,9.7,2.2v-1.5
					c0-2.3-0.9-4.3-2.7-5.9c-1.8-1.6-4-2.4-6.4-2.4c-3.7,0-6.6,1.6-8.8,4.7l-5.8-3.7C60.3,313.8,65,311.5,71.3,311.5z M62.8,337.1
					c0,1.7,0.7,3.2,2.2,4.3c1.5,1.2,3.2,1.7,5.1,1.7c2.8,0,5.3-1,7.5-3.1s3.3-4.5,3.3-7.3c-2.1-1.6-4.9-2.4-8.6-2.4
					c-2.7,0-4.9,0.6-6.7,1.9C63.7,333.6,62.8,335.2,62.8,337.1z"/>
			</g>
			<g>
				<path fill="#FFFFFF" d="M101.3,347.9h-6.6v-35.3h6.3v4.9h0.3c1-1.7,2.6-3.2,4.6-4.3s4.2-1.7,6.2-1.7c2.6,0,4.9,0.6,6.8,1.8
					c2,1.2,3.4,2.9,4.3,5c2.9-4.5,7-6.8,12.2-6.8c4.1,0,7.2,1.2,9.4,3.7s3.3,6,3.3,10.7v22h-6.6v-21c0-3.3-0.6-5.7-1.8-7.2
					s-3.2-2.2-6-2.2c-2.5,0-4.7,1.1-6.4,3.2c-1.7,2.2-2.6,4.7-2.6,7.6v19.5h-6.6v-21c0-3.3-0.6-5.7-1.8-7.2c-1.2-1.5-3.2-2.2-6-2.2
					c-2.5,0-4.7,1.1-6.4,3.2c-1.7,2.2-2.6,4.7-2.6,7.6L101.3,347.9z"/>
			</g>
			<g>
				<path fill="#FFFFFF" d="M171.8,349.1c-5.2,0-9.5-1.8-12.8-5.3c-3.4-3.6-5-8-5-13.5c0-5.4,1.6-9.9,4.9-13.4
					c3.3-3.6,7.4-5.4,12.5-5.4c5.2,0,9.4,1.7,12.5,5.1s4.6,8.1,4.6,14.2l-0.1,0.7h-27.7c0.1,3.5,1.2,6.2,3.5,8.4
					c2.2,2.1,4.8,3.2,7.9,3.2c4.2,0,7.5-2.1,9.9-6.3l5.9,2.9c-1.6,3-3.8,5.3-6.6,7C178.6,348.2,175.4,349.1,171.8,349.1z M161.3,326
					h20.2c-0.2-2.4-1.2-4.5-3-6.1s-4.2-2.4-7.2-2.4c-2.5,0-4.6,0.8-6.4,2.3C163,321.4,161.8,323.4,161.3,326z"/>
			</g>
			<g>
				<path fill="#FFFFFF" d="M211.6,347.9v-51.6h18.6c4.1,0,7.6,1.3,10.5,4c2.9,2.6,4.4,6,4.4,10c0,5.1-2.3,8.7-7,10.7v0.3
					c2.6,0.9,4.8,2.4,6.3,4.5c1.6,2.1,2.4,4.6,2.4,7.3c0,4.2-1.5,7.7-4.6,10.5c-3,2.8-6.6,4.2-11,4.2h-19.6V347.9z M218.2,302.7
					v15.8h12c2.4,0,4.3-0.8,5.9-2.4c1.6-1.6,2.4-3.5,2.4-5.5s-0.8-3.8-2.3-5.5c-1.5-1.6-3.4-2.4-5.7-2.4H218.2z M218.2,324.7v16.9
					h13.3c2.4,0,4.4-0.8,6.1-2.5c1.6-1.7,2.4-3.7,2.4-6s-0.8-4.2-2.5-5.9c-1.7-1.7-3.8-2.5-6.3-2.5H218.2z"/>
			</g>
			<g>
				<path fill="#FFFFFF" d="M251.2,330.3c0-5.4,1.7-9.9,5.1-13.5c3.5-3.6,7.8-5.3,13-5.3s9.6,1.8,13,5.3c3.5,3.6,5.2,8,5.2,13.5
					s-1.7,10-5.2,13.5c-3.4,3.6-7.7,5.3-13,5.3c-5.2,0-9.6-1.8-13-5.3C252.9,340.2,251.2,335.7,251.2,330.3z M257.8,330.3
					c0,3.8,1.1,6.9,3.3,9.2c2.2,2.4,4.9,3.5,8.2,3.5c3.3,0,6-1.2,8.2-3.5c2.2-2.4,3.3-5.4,3.3-9.2c0-3.7-1.1-6.8-3.3-9.1
					c-2.3-2.4-5-3.6-8.2-3.6s-6,1.2-8.2,3.6C258.9,323.5,257.8,326.5,257.8,330.3z"/>
			</g>
			<g>
				<path fill="#FFFFFF" d="M323.6,312.6l-22.1,50.8h-6.8l8.2-17.8l-14.5-33h7.2l10.5,25.3h0.1l10.2-25.3H323.6z"/>
			</g>
		</g>
	</g>
</g>
<g id="Layer_3">
	<g>
		<circle fill="#FFFFFF" cx="161.8" cy="92" r="8.2"/>
	</g>
	<g>
		<g>
			<g>
				<line fill="none" x1="19.3" y1="128.5" x2="304.3" y2="128.5"/>
			</g>
			<g>
				<rect x="19.3" y="125.5" fill="#FFFFFF" width="285" height="6"/>
			</g>
		</g>
	</g>
	<g>
		<g>
			<g>
				<line fill="none" x1="19.3" y1="385" x2="304.3" y2="385"/>
			</g>
			<g>
				<rect x="19.3" y="382" fill="#FFFFFF" width="285" height="6"/>
			</g>
		</g>
	</g>
	<g>
		<circle fill="#FFFFFF" cx="161.8" cy="426.2" r="8.2"/>
	</g>
</g>
<g id="TEXT_LAYER">
	<g>
		<path fill="#FFFFFF" d="M82.7,44.7c0,4.5-1.7,8.1-5,10.9c-3.4,2.7-7.4,4-12.2,4c-4.3,0-8-1.2-11.3-3.7c-3.3-2.5-5.5-5.9-6.8-10.2
			l6.3-2.6c0.4,1.5,1,2.9,1.8,4.2c0.8,1.2,1.7,2.3,2.7,3.2c1,0.9,2.2,1.6,3.4,2.1c1.2,0.5,2.6,0.8,4,0.8c3,0,5.5-0.8,7.4-2.3
			c1.9-1.6,2.9-3.6,2.9-6.2c0-2.2-0.8-4-2.4-5.5c-1.5-1.5-4.3-2.9-8.4-4.3c-4.1-1.5-6.7-2.5-7.7-3c-5.5-2.8-8.2-6.9-8.2-12.3
			c0-3.8,1.5-7,4.5-9.7c3.1-2.7,6.8-4,11.3-4c3.9,0,7.3,1,10.2,3c2.9,2,4.8,4.4,5.8,7.4l-6.2,2.6c-0.6-1.9-1.7-3.5-3.4-4.8
			c-1.7-1.3-3.8-1.9-6.2-1.9c-2.6,0-4.8,0.7-6.6,2.2c-1.8,1.3-2.7,3.1-2.7,5.3c0,1.8,0.7,3.3,2.1,4.6c1.5,1.3,4.9,2.8,10,4.6
			c5.2,1.8,9,3.9,11.2,6.5C81.6,37.8,82.7,41,82.7,44.7z"/>
		<path fill="#FFFFFF" d="M102.9,22.1c4.9,0,8.8,1.3,11.6,3.9c2.8,2.6,4.2,6.2,4.2,10.8v21.7h-6.3v-4.9h-0.3c-2.7,4-6.4,6-10.9,6
			c-3.9,0-7.1-1.2-9.8-3.5c-2.6-2.3-3.9-5.2-3.9-8.6c0-3.6,1.4-6.6,4.1-8.7c2.8-2.2,6.4-3.2,11.1-3.2c3.9,0,7.2,0.7,9.7,2.2v-1.5
			c0-2.3-0.9-4.3-2.7-5.9c-1.8-1.6-4-2.4-6.4-2.4c-3.7,0-6.6,1.6-8.8,4.7L88.7,29C91.9,24.4,96.6,22.1,102.9,22.1z M94.4,47.7
			c0,1.7,0.7,3.2,2.2,4.3c1.5,1.2,3.2,1.7,5.1,1.7c2.8,0,5.3-1,7.5-3.1c2.2-2.1,3.3-4.5,3.3-7.3c-2.1-1.6-4.9-2.4-8.6-2.4
			c-2.7,0-4.9,0.6-6.7,1.9C95.3,44.2,94.4,45.8,94.4,47.7z"/>
		<path fill="#FFFFFF" d="M132.9,58.5h-6.6V23.2h6.3v4.9h0.3c1-1.7,2.6-3.2,4.6-4.3c2.1-1.2,4.2-1.7,6.2-1.7c2.6,0,4.9,0.6,6.8,1.8
			c2,1.2,3.4,2.9,4.3,5c2.9-4.5,7-6.8,12.2-6.8c4.1,0,7.2,1.2,9.4,3.7c2.2,2.5,3.3,6,3.3,10.7v22h-6.6v-21c0-3.3-0.6-5.7-1.8-7.2
			c-1.2-1.5-3.2-2.2-6-2.2c-2.5,0-4.7,1.1-6.4,3.2s-2.6,4.7-2.6,7.6v19.5h-6.6v-21c0-3.3-0.6-5.7-1.8-7.2c-1.2-1.5-3.2-2.2-6-2.2
			c-2.5,0-4.7,1.1-6.4,3.2s-2.6,4.7-2.6,7.6V58.5z"/>
		<path fill="#FFFFFF" d="M194.2,58.5h-6.6V23.2h6.3v4.9h0.3c1-1.7,2.6-3.2,4.6-4.3c2.1-1.2,4.2-1.7,6.2-1.7c2.6,0,4.9,0.6,6.8,1.8
			c2,1.2,3.4,2.9,4.3,5c2.9-4.5,7-6.8,12.2-6.8c4.1,0,7.2,1.2,9.4,3.7c2.2,2.5,3.3,6,3.3,10.7v22h-6.6v-21c0-3.3-0.6-5.7-1.8-7.2
			c-1.2-1.5-3.2-2.2-6-2.2c-2.5,0-4.7,1.1-6.4,3.2c-1.7,2.2-2.6,4.7-2.6,7.6v19.5h-6.6v-21c0-3.3-0.6-5.7-1.8-7.2
			c-1.2-1.5-3.2-2.2-6-2.2c-2.5,0-4.7,1.1-6.4,3.2c-1.7,2.2-2.6,4.7-2.6,7.6V58.5z"/>
		<path fill="#FFFFFF" d="M279.8,23.2l-22.1,50.8h-6.8l8.2-17.8l-14.5-33h7.2l10.5,25.3h0.1l10.2-25.3H279.8z"/>
	</g>
	<g>
		<path fill="#FFFFFF" d="M75.1,248.7v13.2H9.7v-13.8l26.5-26.9c8.9-9.1,15-15.9,18.5-20.5c3.4-4.5,5.1-9.3,5.1-14.3
			c0-4.5-1.8-8.3-5.3-11.5c-3.5-3.2-8-4.8-13.5-4.8c-4.7,0-8.8,1.4-12.1,4.2c-3.4,2.8-5.6,6.2-6.6,10.2l-12.6-5.1
			c2-6.3,5.8-11.6,11.5-16s12.4-6.5,20.1-6.5c9.3,0,17,2.9,23.3,8.5c6.2,5.7,9.3,12.7,9.3,21c0,9.9-5.5,20.6-16.4,32.1l-30,30.2
			H75.1z"/>
		<path fill="#FFFFFF" d="M80.1,210.6c0-15.6,3.8-28.4,11.6-38.6c7.7-10.1,17.6-15.1,29.7-15.1c12.1,0,22,5.1,29.7,15.3
			c7.7,10.1,11.5,22.9,11.5,38.4c0,15.4-3.9,28.3-11.5,38.5c-7.7,10.1-17.6,15.1-29.7,15.1c-12.1,0-22-5-29.7-15.1
			C83.9,238.8,80.1,226,80.1,210.6z M148.5,210.6c0-11.8-2.5-21.5-7.5-29.1c-4.9-7.6-11.5-11.4-19.7-11.4c-8.2,0-14.8,3.8-19.6,11.4
			c-5,7.6-7.5,17.3-7.5,29.1c0,11.8,2.5,21.6,7.5,29.3c4.9,7.5,11.4,11.3,19.6,11.3c8.2,0,14.8-3.8,19.7-11.4
			C146,232,148.5,222.3,148.5,210.6z"/>
		<path fill="#FFFFFF" d="M167.5,210.6c0-15.6,3.8-28.4,11.6-38.6c7.7-10.1,17.6-15.1,29.7-15.1c12.1,0,22,5.1,29.7,15.3
			c7.7,10.1,11.5,22.9,11.5,38.4c0,15.4-3.9,28.3-11.5,38.5c-7.7,10.1-17.6,15.1-29.7,15.1c-12.1,0-22-5-29.7-15.1
			C171.4,238.8,167.5,226,167.5,210.6z M235.9,210.6c0-11.8-2.5-21.5-7.5-29.1c-4.9-7.6-11.5-11.4-19.7-11.4
			c-8.2,0-14.8,3.8-19.6,11.4c-5,7.6-7.5,17.3-7.5,29.1c0,11.8,2.5,21.6,7.5,29.3c4.9,7.5,11.4,11.3,19.6,11.3
			c8.2,0,14.8-3.8,19.7-11.4C233.4,232,235.9,222.3,235.9,210.6z"/>
		<path fill="#FFFFFF" d="M322,232.8c0,9-3.4,16.5-10.1,22.5c-6.6,6-14.8,9-24.6,9c-7.7,0-14.7-2.3-20.8-6.9
			c-6.3-4.8-10.6-11-12.8-18.8l12.6-5.3c1.6,5.7,4.2,10.1,7.9,13.1c3.6,3.1,8,4.6,13.1,4.6c5.6,0,10.4-1.7,14.5-5.3
			c4-3.6,6-8,6-13.1c0-5.1-2.1-9.4-6.3-12.9c-4.1-3.5-9.1-5.3-14.8-5.3h-8.9v-12.9h7.8c5.5,0,10-1.5,13.5-4.6c3.5-3,5.3-7,5.3-11.9
			c0-4.5-1.6-8.1-4.9-11c-3.3-2.8-7.7-4.2-13.1-4.2c-8.7,0-14.7,4.5-17.8,13.3l-12.8-5.4c2.3-6.3,6.2-11.4,11.5-15.3
			c5.4-3.9,11.7-5.9,19-5.9c9.1,0,16.7,2.7,23,8.1c6.1,5.2,9.2,12,9.2,20.3c0,9.9-4.6,17.3-13.8,22v0.6c5.4,2.3,9.6,5.7,12.7,10
			C320.5,222.3,322,227.3,322,232.8z"/>
	</g>
	<g>
		<path fill="#FFFFFF" d="M6.4,349.1h-7.3l19.4-51.6H26l19.4,51.6h-7.3l-5-14H11.4L6.4,349.1z M22.1,305.7l-8.4,23.3h17.1l-8.4-23.3
			H22.1z"/>
		<path fill="#FFFFFF" d="M56,349.7c-2.9,0-5.3-0.9-7.2-2.7c-1.9-1.8-2.9-4.2-2.9-7.4v-19.7h-6.2v-6h6.2V303h6.6v10.8h8.6v6h-8.6
			v17.6c0,2.4,0.5,3.9,1.4,4.8c0.9,0.8,1.9,1.3,3.1,1.3c0.5,0,1-0.1,1.5-0.2c0.5-0.1,1-0.3,1.4-0.5l2.1,5.9
			C60.3,349.4,58.3,349.7,56,349.7z"/>
		<path fill="#FFFFFF" d="M59.4,331.5c0-5.4,1.7-9.9,5.1-13.5c3.5-3.6,7.8-5.3,13-5.3c5.2,0,9.6,1.8,13,5.3c3.5,3.6,5.2,8,5.2,13.5
			c0,5.5-1.7,10-5.2,13.5c-3.4,3.6-7.7,5.3-13,5.3c-5.2,0-9.6-1.8-13-5.3C61.1,341.4,59.4,336.9,59.4,331.5z M66,331.5
			c0,3.8,1.1,6.9,3.3,9.2c2.2,2.4,4.9,3.5,8.2,3.5c3.3,0,6-1.2,8.2-3.5c2.2-2.4,3.3-5.4,3.3-9.2c0-3.7-1.1-6.8-3.3-9.1
			c-2.3-2.4-5-3.6-8.2-3.6c-3.2,0-6,1.2-8.2,3.6C67.1,324.7,66,327.7,66,331.5z"/>
		<path fill="#FFFFFF" d="M101.9,349.1h-6.6v-35.3h6.3v4.9h0.3c1-1.7,2.6-3.2,4.6-4.3c2.1-1.2,4.2-1.7,6.2-1.7
			c2.6,0,4.9,0.6,6.8,1.8c2,1.2,3.4,2.9,4.3,5c2.9-4.5,7-6.8,12.2-6.8c4.1,0,7.2,1.2,9.4,3.7c2.2,2.5,3.3,6,3.3,10.7v22h-6.6v-21
			c0-3.3-0.6-5.7-1.8-7.2c-1.2-1.5-3.2-2.2-6-2.2c-2.5,0-4.7,1.1-6.4,3.2c-1.7,2.2-2.6,4.7-2.6,7.6v19.5h-6.6v-21
			c0-3.3-0.6-5.7-1.8-7.2c-1.2-1.5-3.2-2.2-6-2.2c-2.5,0-4.7,1.1-6.4,3.2c-1.7,2.2-2.6,4.7-2.6,7.6V349.1z"/>
		<path fill="#FFFFFF" d="M159.4,301.7c0,1.3-0.5,2.4-1.4,3.3c-0.9,0.9-2,1.4-3.3,1.4s-2.4-0.5-3.3-1.4c-0.9-0.9-1.4-2-1.4-3.3
			s0.5-2.4,1.4-3.3c0.9-0.9,2-1.4,3.3-1.4s2.4,0.5,3.3,1.4C159,299.3,159.4,300.4,159.4,301.7z M158,313.8v35.3h-6.6v-35.3H158z"/>
		<path fill="#FFFFFF" d="M187.9,339.3c0,3.1-1.3,5.7-4,7.8c-2.7,2.1-6.1,3.2-10.2,3.2c-3.6,0-6.7-0.9-9.4-2.8
			c-2.7-1.8-4.6-4.3-5.8-7.3l5.9-2.5c0.9,2.1,2.1,3.8,3.8,4.9c1.7,1.2,3.5,1.8,5.4,1.8c2.1,0,3.9-0.5,5.3-1.4c1.4-0.9,2.1-2,2.1-3.2
			c0-2.3-1.7-3.9-5.2-5l-6-1.5c-6.9-1.7-10.3-5-10.3-9.9c0-3.2,1.3-5.8,3.9-7.7c2.6-1.9,6-2.9,10-2.9c3.1,0,5.9,0.7,8.5,2.2
			c2.5,1.5,4.3,3.5,5.3,6l-5.9,2.4c-0.7-1.5-1.8-2.7-3.3-3.5c-1.5-0.8-3.2-1.3-5.1-1.3c-1.7,0-3.3,0.4-4.6,1.3
			c-1.4,0.9-2.1,1.9-2.1,3.2c0,2,1.9,3.5,5.7,4.3l5.3,1.4C184.4,330.5,187.9,334,187.9,339.3z"/>
		<path fill="#FFFFFF" d="M237.9,313.8l-11.4,35.3h-6.8L211,322l-8.7,27.1h-6.7l-11.4-35.3h6.9l7.8,26.6h0.1l8.7-26.6h6.8l8.7,26.6
			h0.1l7.8-26.6H237.9z"/>
		<path fill="#FFFFFF" d="M249.1,312.7c4.9,0,8.8,1.3,11.6,3.9c2.8,2.6,4.2,6.2,4.2,10.8v21.7h-6.3v-4.9h-0.3c-2.7,4-6.4,6-10.9,6
			c-3.9,0-7.1-1.2-9.8-3.5c-2.6-2.3-3.9-5.2-3.9-8.6c0-3.6,1.4-6.6,4.1-8.7c2.8-2.2,6.4-3.2,11.1-3.2c3.9,0,7.2,0.7,9.7,2.2v-1.5
			c0-2.3-0.9-4.3-2.7-5.9c-1.8-1.6-4-2.4-6.4-2.4c-3.7,0-6.6,1.6-8.8,4.7l-5.8-3.7C238.1,315,242.8,312.7,249.1,312.7z M240.5,338.3
			c0,1.7,0.7,3.2,2.2,4.3c1.5,1.2,3.2,1.7,5.1,1.7c2.8,0,5.3-1,7.5-3.1c2.2-2.1,3.3-4.5,3.3-7.3c-2.1-1.6-4.9-2.4-8.6-2.4
			c-2.7,0-4.9,0.6-6.7,1.9C241.4,334.8,240.5,336.4,240.5,338.3z"/>
		<path fill="#FFFFFF" d="M283.1,349.1h-6.6l-14.3-35.3h7.2l10.4,27.4h0.1l10.5-27.4h7.1L283.1,349.1z"/>
		<path fill="#FFFFFF" d="M310.8,350.3c-5.2,0-9.5-1.8-12.8-5.3c-3.4-3.6-5-8-5-13.5c0-5.4,1.6-9.9,4.9-13.4
			c3.3-3.6,7.4-5.4,12.5-5.4c5.2,0,9.4,1.7,12.5,5.1c3.1,3.4,4.6,8.1,4.6,14.2l-0.1,0.7h-27.7c0.1,3.5,1.2,6.2,3.5,8.4
			c2.2,2.1,4.8,3.2,7.9,3.2c4.2,0,7.5-2.1,9.9-6.3l5.9,2.9c-1.6,3-3.8,5.3-6.6,7C317.6,349.4,314.4,350.3,310.8,350.3z M300.2,327.2
			h20.2c-0.2-2.4-1.2-4.5-3-6.1c-1.8-1.6-4.2-2.4-7.2-2.4c-2.5,0-4.6,0.8-6.4,2.3C302,322.6,300.8,324.6,300.2,327.2z"/>
	</g>
</g>
</svg>
