<svg xmlns="http://www.w3.org/2000/svg" viewBox="0 0 285 428.03"><title>auto-allgames</title><g id="Layer_3" data-name="Layer 3"><circle cx="142.5" cy="85.63" r="8.2" fill="#fff"/><line y1="122.13" x2="285" y2="122.13" fill="none"/><rect y="119.13" width="285" height="6" fill="#fff"/><line y1="378.63" x2="285" y2="378.63" fill="none"/><rect y="375.63" width="285" height="6" fill="#fff"/><circle cx="142.5" cy="419.83" r="8.2" fill="#fff"/></g><g id="NEW_TEXT" data-name="NEW TEXT"><path d="M98.2,261.88H82.9l40.5-107.4H139l40.5,107.4H164.2l-10.35-29.1H108.7Zm32.7-90.45-17.55,48.45h35.7L131.5,171.43Z" transform="translate(-19.3 -6.37)" fill="#fff"/><path d="M203.5,154.48v107.4H189.7V154.48Z" transform="translate(-19.3 -6.37)" fill="#fff"/><path d="M234.1,154.48v107.4H220.3V154.48Z" transform="translate(-19.3 -6.37)" fill="#fff"/><path d="M103.41,329.76q0,10.8-6.41,17.21-7.2,7.63-18.93,7.63a26.93,26.93,0,1,1,0-53.86,28.66,28.66,0,0,1,10.72,2,21.39,21.39,0,0,1,8.28,5.69l-4.75,4.75a15.92,15.92,0,0,0-6.15-4.5,20.34,20.34,0,0,0-8.1-1.62,19.39,19.39,0,0,0-14.26,5.83,21.79,21.79,0,0,0,0,29.52,19.39,19.39,0,0,0,14.26,5.83,19.17,19.17,0,0,0,12.81-4.32,17.22,17.22,0,0,0,5.91-11.88H78.07v-6.19h25A22.17,22.17,0,0,1,103.41,329.76Z" transform="translate(-19.3 -6.37)" fill="#fff"/><path d="M122.63,317q7.35,0,11.6,3.92t4.24,10.76v21.75h-6.33v-4.9h-.29q-4.11,6-10.94,6.05a14.21,14.21,0,0,1-9.76-3.46,11,11,0,0,1-3.92-8.64,10.47,10.47,0,0,1,4.14-8.71q4.14-3.24,11-3.24a19.59,19.59,0,0,1,9.72,2.16V331.2a7.54,7.54,0,0,0-2.74-5.87,9.37,9.37,0,0,0-6.41-2.41,10.15,10.15,0,0,0-8.78,4.68l-5.83-3.67Q113.2,317,122.63,317Zm-8.56,25.63a5.29,5.29,0,0,0,2.19,4.32,8.11,8.11,0,0,0,5.15,1.73,10.57,10.57,0,0,0,7.45-3.1,9.71,9.71,0,0,0,3.28-7.27q-3.1-2.44-8.64-2.45a11.25,11.25,0,0,0-6.73,1.94A5.79,5.79,0,0,0,114.07,342.65Z" transform="translate(-19.3 -6.37)" fill="#fff"/><path d="M152.58,353.45H146V318.17h6.34v4.89h.28a11.84,11.84,0,0,1,4.65-4.32,13,13,0,0,1,13.07.08,10.69,10.69,0,0,1,4.32,5A13.75,13.75,0,0,1,186.79,317q6.11,0,9.43,3.74t3.31,10.66v22h-6.62v-21c0-3.31-.61-5.7-1.81-7.16s-3.21-2.2-6-2.2a7.91,7.91,0,0,0-6.41,3.24,11.85,11.85,0,0,0-2.59,7.64v19.51h-6.63v-21q0-5-1.8-7.16c-1.2-1.46-3.21-2.2-6-2.2a7.89,7.89,0,0,0-6.4,3.24,11.86,11.86,0,0,0-2.6,7.64Z" transform="translate(-19.3 -6.37)" fill="#fff"/><path d="M223.14,354.6a16.88,16.88,0,0,1-12.81-5.33,18.81,18.81,0,0,1-5-13.46,19.18,19.18,0,0,1,4.89-13.43A16.2,16.2,0,0,1,222.71,317q7.84,0,12.5,5.07t4.64,14.22l-.07.72H212.06a11.44,11.44,0,0,0,3.45,8.35,11,11,0,0,0,7.92,3.17q6.34,0,9.94-6.34l5.9,2.89a17.59,17.59,0,0,1-6.59,7A18.18,18.18,0,0,1,223.14,354.6Zm-10.58-23h20.23a8.75,8.75,0,0,0-3-6.08,10.44,10.44,0,0,0-7.23-2.42,9.55,9.55,0,0,0-6.44,2.31A11,11,0,0,0,212.56,331.56Z" transform="translate(-19.3 -6.37)" fill="#fff"/><path d="M273.26,343.66a9.56,9.56,0,0,1-4,7.77,15.94,15.94,0,0,1-10.15,3.17,16.18,16.18,0,0,1-9.36-2.77,15.29,15.29,0,0,1-5.76-7.31l5.91-2.52a10.88,10.88,0,0,0,3.78,4.93,9.13,9.13,0,0,0,5.43,1.77,9.59,9.59,0,0,0,5.29-1.37,3.88,3.88,0,0,0,2.13-3.24c0-2.26-1.73-3.91-5.19-5l-6-1.51Q245,335,245,327.67a9.2,9.2,0,0,1,3.92-7.74,18,18,0,0,1,18.51-.68,12.16,12.16,0,0,1,5.29,6l-5.9,2.45a7.48,7.48,0,0,0-3.28-3.49,10.29,10.29,0,0,0-5.08-1.26,8.55,8.55,0,0,0-4.64,1.29,3.75,3.75,0,0,0-2.05,3.17c0,2,1.89,3.46,5.69,4.32l5.32,1.37Q273.26,335.67,273.26,343.66Z" transform="translate(-19.3 -6.37)" fill="#fff"/><path d="M71.91,58.5H65L46.85,7H54.2L68.31,48.78h.29L83.28,7h7.35Z" transform="translate(-19.3 -6.37)" fill="#fff"/><path d="M105.32,22.07q7.34,0,11.59,3.92t4.25,10.77V58.5h-6.34V53.6h-.29a12.61,12.61,0,0,1-10.94,6,14.26,14.26,0,0,1-9.76-3.45,11.07,11.07,0,0,1-3.92-8.64,10.5,10.5,0,0,1,4.14-8.72q4.14-3.24,11-3.24a19.54,19.54,0,0,1,9.72,2.16V36.25a7.54,7.54,0,0,0-2.74-5.87,9.39,9.39,0,0,0-6.4-2.41,10.16,10.16,0,0,0-8.79,4.68L91.06,29Q95.89,22.07,105.32,22.07ZM96.75,47.7A5.29,5.29,0,0,0,98.94,52a8.11,8.11,0,0,0,5.15,1.73,10.51,10.51,0,0,0,7.45-3.1,9.68,9.68,0,0,0,3.28-7.27q-3.09-2.45-8.64-2.45a11.19,11.19,0,0,0-6.73,2A5.76,5.76,0,0,0,96.75,47.7Z" transform="translate(-19.3 -6.37)" fill="#fff"/><path d="M135.27,58.5h-6.63V23.22H135V29h.29a9.55,9.55,0,0,1,4.14-4.79,11.49,11.49,0,0,1,6.15-2,12.34,12.34,0,0,1,4.9.87l-2,6.4a11.08,11.08,0,0,0-3.88-.5A8.59,8.59,0,0,0,138,32a10.12,10.12,0,0,0-2.77,7.06Z" transform="translate(-19.3 -6.37)" fill="#fff"/><path d="M163.35,11.05A4.51,4.51,0,0,1,162,14.36a4.68,4.68,0,0,1-8-3.31,4.68,4.68,0,1,1,9.36,0ZM162,23.22V58.5h-6.62V23.22Z" transform="translate(-19.3 -6.37)" fill="#fff"/><path d="M168.24,40.86a18.66,18.66,0,0,1,5.12-13.46,17.39,17.39,0,0,1,13-5.33,17.17,17.17,0,0,1,13,5.33,18.54,18.54,0,0,1,5.18,13.46,18.37,18.37,0,0,1-5.18,13.46,17.17,17.17,0,0,1-13,5.33,17.39,17.39,0,0,1-13-5.33A18.64,18.64,0,0,1,168.24,40.86Zm6.63,0a12.94,12.94,0,0,0,3.31,9.22,11.33,11.33,0,0,0,16.42,0,13,13,0,0,0,3.31-9.22,12.85,12.85,0,0,0-3.31-9.14,11.16,11.16,0,0,0-16.42,0A12.8,12.8,0,0,0,174.87,40.86Z" transform="translate(-19.3 -6.37)" fill="#fff"/><path d="M241.18,58.5h-6.34V53.6h-.28a11.77,11.77,0,0,1-4.65,4.32,13.23,13.23,0,0,1-6.51,1.73q-6.48,0-10-3.71T209.93,45.4V23.22h6.63V45q.21,8.64,8.71,8.64a8.25,8.25,0,0,0,6.62-3.2,11.6,11.6,0,0,0,2.67-7.67V23.22h6.62Z" transform="translate(-19.3 -6.37)" fill="#fff"/><path d="M275.88,48.71a9.55,9.55,0,0,1-4,7.77,15.88,15.88,0,0,1-10.15,3.17,16.11,16.11,0,0,1-9.36-2.77,15.25,15.25,0,0,1-5.76-7.31l5.9-2.52A11,11,0,0,0,256.26,52a9.18,9.18,0,0,0,5.44,1.77A9.59,9.59,0,0,0,267,52.38a3.88,3.88,0,0,0,2.13-3.24c0-2.26-1.73-3.91-5.19-5l-6.05-1.51q-10.29-2.59-10.29-9.94A9.2,9.2,0,0,1,251.51,25,18,18,0,0,1,270,24.3a12.14,12.14,0,0,1,5.29,6l-5.91,2.44a7.45,7.45,0,0,0-3.27-3.49A10.29,10.29,0,0,0,261.05,28a8.45,8.45,0,0,0-4.64,1.3,3.72,3.72,0,0,0-2.05,3.17q0,3,5.68,4.32l5.33,1.36Q275.89,40.72,275.88,48.71Z" transform="translate(-19.3 -6.37)" fill="#fff"/></g></svg>