<svg xmlns="http://www.w3.org/2000/svg" viewBox="0 0 286.95 428.6"><title>colecovision</title><g id="Layer_3" data-name="Layer 3"><circle cx="143.77" cy="86.2" r="8.2" fill="#fff"/><line x1="1.27" y1="122.7" x2="286.27" y2="122.7" fill="none"/><rect x="1.27" y="119.7" width="285" height="6" fill="#fff"/><line x1="1.27" y1="379.2" x2="286.27" y2="379.2" fill="none"/><rect x="1.27" y="376.2" width="285" height="6" fill="#fff"/><circle cx="143.77" cy="420.4" r="8.2" fill="#fff"/></g><g id="NEW_TEXT" data-name="NEW TEXT"><path d="M57,159.28v102.6H43.23v-85.5l-19.95,8.7L18,173.38l30.15-14.1Z" transform="translate(-18.03 -5.8)" fill="#fff"/><path d="M107.73,224.38q-12.3,0-22.35-9.75a32.51,32.51,0,0,1-9.75-23.4q0-13.95,10.5-24,10.49-10.35,24.6-10.35a34.07,34.07,0,0,1,25,10.2A33,33,0,0,1,146,191.23q0,12.45-10,28.35l-29.85,44.7L95,256.63l25.35-35.1-.3-.3C116.82,223.33,112.73,224.38,107.73,224.38Zm24.3-33.3a20,20,0,0,0-6.3-14.85,21.37,21.37,0,0,0-30,0,21,21,0,0,0,0,29.7,21.37,21.37,0,0,0,30,0A19.67,19.67,0,0,0,132,191.08Z" transform="translate(-18.03 -5.8)" fill="#fff"/><path d="M227.58,233.53a27.75,27.75,0,0,1-10.06,21.9q-10.2,8.85-24.75,8.85T168,255.43a27.73,27.73,0,0,1-10-21.9,26.4,26.4,0,0,1,4.35-14.77,29.89,29.89,0,0,1,12.44-10.58v-.6a32.2,32.2,0,0,1-9.67-9.6,21.79,21.79,0,0,1-3.67-12,27.57,27.57,0,0,1,8.84-20.85q8.7-8.25,22.5-8.25t22.5,8.25A27.59,27.59,0,0,1,224.13,186a21.8,21.8,0,0,1-3.68,12,32.24,32.24,0,0,1-9.68,9.6v.6a29.92,29.92,0,0,1,12.45,10.58A26.49,26.49,0,0,1,227.58,233.53Zm-55.5-.75a16.81,16.81,0,0,0,1.57,7.35,18.17,18.17,0,0,0,4.35,5.78,19.69,19.69,0,0,0,6.52,3.82,25.88,25.88,0,0,0,16.5,0,19.73,19.73,0,0,0,6.53-3.82,18.17,18.17,0,0,0,4.35-5.78,16.81,16.81,0,0,0,1.57-7.35,16.21,16.21,0,0,0-6-12.9,21.54,21.54,0,0,0-14.7-5.25,22.1,22.1,0,0,0-14.85,5.25A16.65,16.65,0,0,0,172.08,232.78Zm3.44-47.1a15.05,15.05,0,0,0,4.81,11.63q4.78,4.42,12.44,4.42c5.11,0,9.25-1.47,12.45-4.42a15.08,15.08,0,0,0,4.8-11.63q0-7.2-4.8-11.4c-3.2-2.8-7.34-4.2-12.45-4.2s-9.25,1.4-12.44,4.2S175.52,180.88,175.52,185.68Z" transform="translate(-18.03 -5.8)" fill="#fff"/><path d="M305,248.68v13.2h-65.4v-13.8l26.55-26.85q13.35-13.65,18.45-20.47a23.57,23.57,0,0,0,5.1-14.33,15.1,15.1,0,0,0-5.25-11.55q-5.25-4.8-13.5-4.8a18.51,18.51,0,0,0-12.15,4.2,18.94,18.94,0,0,0-6.6,10.2l-12.6-5.1a32.93,32.93,0,0,1,31.65-22.5q13.95,0,23.25,8.55a27.42,27.42,0,0,1,9.3,21q0,14.85-16.35,32.1l-30,30.15Z" transform="translate(-18.03 -5.8)" fill="#fff"/><path d="M94.52,353.45H87.6L69.46,301.9H76.8l14.12,41.83h.28l14.69-41.83h7.35Z" transform="translate(-18.03 -5.8)" fill="#fff"/><path d="M125.26,306a4.68,4.68,0,1,1-1.37-3.31A4.52,4.52,0,0,1,125.26,306Zm-1.37,12.17v35.28h-6.62V318.17Z" transform="translate(-18.03 -5.8)" fill="#fff"/><path d="M159.53,343.66a9.55,9.55,0,0,1-4,7.77,15.94,15.94,0,0,1-10.15,3.17,16.16,16.16,0,0,1-9.36-2.77,15.29,15.29,0,0,1-5.76-7.31l5.9-2.52a11,11,0,0,0,3.78,4.93,9.18,9.18,0,0,0,5.44,1.77,9.61,9.61,0,0,0,5.29-1.37,3.89,3.89,0,0,0,2.12-3.24c0-2.26-1.72-3.91-5.18-5l-6.05-1.51q-10.29-2.6-10.29-9.94a9.18,9.18,0,0,1,3.92-7.74,18,18,0,0,1,18.5-.68,12.18,12.18,0,0,1,5.3,6l-5.91,2.45a7.41,7.41,0,0,0-3.27-3.49,10.32,10.32,0,0,0-5.08-1.26,8.5,8.5,0,0,0-4.64,1.29,3.76,3.76,0,0,0-2.06,3.17q0,3,5.69,4.32l5.33,1.37Q159.54,335.67,159.53,343.66Z" transform="translate(-18.03 -5.8)" fill="#fff"/><path d="M173.5,306a4.68,4.68,0,1,1-1.37-3.31A4.52,4.52,0,0,1,173.5,306Zm-1.37,12.17v35.28h-6.62V318.17Z" transform="translate(-18.03 -5.8)" fill="#fff"/><path d="M178.4,335.81a18.67,18.67,0,0,1,5.11-13.47,17.41,17.41,0,0,1,13-5.32,17.2,17.2,0,0,1,13,5.32,20.09,20.09,0,0,1,0,26.93,17.21,17.21,0,0,1-13,5.33,17.42,17.42,0,0,1-13-5.33A18.65,18.65,0,0,1,178.4,335.81Zm6.62,0a12.89,12.89,0,0,0,3.31,9.21,11.31,11.31,0,0,0,16.42,0,14.38,14.38,0,0,0,0-18.36,11.16,11.16,0,0,0-16.42,0A12.83,12.83,0,0,0,185,335.81Z" transform="translate(-18.03 -5.8)" fill="#fff"/><path d="M220,318.17h6.34v4.89h.29a11.74,11.74,0,0,1,4.64-4.32A13.33,13.33,0,0,1,237.8,317q6.48,0,10,3.7t3.49,10.55v22.18h-6.62V331.7q-.22-8.64-8.72-8.64a8.27,8.27,0,0,0-6.62,3.21,11.57,11.57,0,0,0-2.66,7.67v19.51H220Z" transform="translate(-18.03 -5.8)" fill="#fff"/><path d="M80.33,59.65A26.2,26.2,0,0,1,53.55,32.72q0-11.52,7.63-19.15A25.73,25.73,0,0,1,80.33,5.8Q92,5.8,99.27,14.22l-4.75,4.61a17.6,17.6,0,0,0-14.19-6.7A19.46,19.46,0,0,0,66,17.89q-5.69,5.68-5.68,14.83T66,47.56a19.46,19.46,0,0,0,14.33,5.76q9,0,15.63-7.56l4.82,4.68a25.15,25.15,0,0,1-9,6.8A27.4,27.4,0,0,1,80.33,59.65Z" transform="translate(-18.03 -5.8)" fill="#fff"/><path d="M104,40.86a18.65,18.65,0,0,1,5.11-13.46,17.4,17.4,0,0,1,13-5.33,17.17,17.17,0,0,1,13,5.33,18.5,18.5,0,0,1,5.19,13.46,18.34,18.34,0,0,1-5.19,13.46,17.17,17.17,0,0,1-13,5.33,17.4,17.4,0,0,1-13-5.33A18.63,18.63,0,0,1,104,40.86Zm6.62,0a13,13,0,0,0,3.31,9.22,11.33,11.33,0,0,0,16.42,0,12.94,12.94,0,0,0,3.31-9.22,12.8,12.8,0,0,0-3.31-9.14,11.16,11.16,0,0,0-16.42,0A12.85,12.85,0,0,0,110.57,40.86Z" transform="translate(-18.03 -5.8)" fill="#fff"/><path d="M152.55,7V58.5h-6.63V7Z" transform="translate(-18.03 -5.8)" fill="#fff"/><path d="M176.09,59.65a16.84,16.84,0,0,1-12.81-5.33,18.79,18.79,0,0,1-5-13.46,19.18,19.18,0,0,1,4.89-13.43,16.23,16.23,0,0,1,12.53-5.36q7.84,0,12.49,5.07t4.65,14.22l-.08.72H165a11.53,11.53,0,0,0,3.46,8.36,11.06,11.06,0,0,0,7.92,3.16q6.33,0,9.94-6.33l5.9,2.88a17.52,17.52,0,0,1-6.59,7A18.2,18.2,0,0,1,176.09,59.65Zm-10.58-23h20.23a8.77,8.77,0,0,0-3-6.08,10.44,10.44,0,0,0-7.23-2.41,9.59,9.59,0,0,0-6.45,2.3A11,11,0,0,0,165.51,36.61Z" transform="translate(-18.03 -5.8)" fill="#fff"/><path d="M215.33,59.65a17.4,17.4,0,0,1-13-5.33,19,19,0,0,1-5.11-13.46A18.65,18.65,0,0,1,202.3,27.4a17.4,17.4,0,0,1,13-5.33,16.16,16.16,0,0,1,15.48,10.15l-6.05,2.52q-2.81-6.63-9.86-6.62a10.24,10.24,0,0,0-7.85,3.67,13.22,13.22,0,0,0-3.24,9.07,13.22,13.22,0,0,0,3.24,9.07,10.24,10.24,0,0,0,7.85,3.67A10.35,10.35,0,0,0,225.12,47L231,49.5A15.82,15.82,0,0,1,224.94,57,17.19,17.19,0,0,1,215.33,59.65Z" transform="translate(-18.03 -5.8)" fill="#fff"/><path d="M234.41,40.86a18.69,18.69,0,0,1,5.11-13.46,17.41,17.41,0,0,1,13-5.33,17.17,17.17,0,0,1,13,5.33,18.54,18.54,0,0,1,5.18,13.46,18.37,18.37,0,0,1-5.18,13.46,17.17,17.17,0,0,1-13,5.33,17.41,17.41,0,0,1-13-5.33A18.67,18.67,0,0,1,234.41,40.86Zm6.63,0a12.94,12.94,0,0,0,3.31,9.22,11.32,11.32,0,0,0,16.41,0,12.94,12.94,0,0,0,3.32-9.22,12.81,12.81,0,0,0-3.32-9.14,11.15,11.15,0,0,0-16.41,0A12.8,12.8,0,0,0,241,40.86Z" transform="translate(-18.03 -5.8)" fill="#fff"/></g></svg>