<svg xmlns="http://www.w3.org/2000/svg" viewBox="0 0 291.15 428.6"><title>cps1</title><g id="Layer_3" data-name="Layer 3"><circle cx="145.57" cy="86.2" r="8.2" fill="#fff"/><line x1="3.07" y1="122.7" x2="288.07" y2="122.7" fill="none"/><rect x="3.07" y="119.7" width="285" height="6" fill="#fff"/><line x1="3.07" y1="379.2" x2="288.07" y2="379.2" fill="none"/><rect x="3.07" y="376.2" width="285" height="6" fill="#fff"/><circle cx="145.57" cy="420.4" r="8.2" fill="#fff"/></g><g id="NEW_TEXT" data-name="NEW TEXT"><path d="M55.23,159.28v102.6H41.43v-85.5l-19.95,8.7-5.25-11.7,30.15-14.1Z" transform="translate(-16.23 -5.8)" fill="#fff"/><path d="M105.93,224.38q-12.3,0-22.35-9.75a32.51,32.51,0,0,1-9.75-23.4q0-13.95,10.5-24,10.49-10.35,24.6-10.35a34.07,34.07,0,0,1,25,10.2,33,33,0,0,1,10.2,24.15q0,12.45-10.05,28.35l-29.85,44.7-11.1-7.65,25.35-35.1-.3-.3Q113.42,224.38,105.93,224.38Zm24.3-33.3a20,20,0,0,0-6.3-14.85,21.37,21.37,0,0,0-30,0,21,21,0,0,0,0,29.7,21.37,21.37,0,0,0,30,0A19.67,19.67,0,0,0,130.23,191.08Z" transform="translate(-16.23 -5.8)" fill="#fff"/><path d="M225.77,233.53a27.74,27.74,0,0,1-10.05,21.9q-10.2,8.85-24.75,8.85t-24.75-8.85a27.74,27.74,0,0,1-10.05-21.9,26.48,26.48,0,0,1,4.35-14.77A29.92,29.92,0,0,1,173,208.18v-.6a32.2,32.2,0,0,1-9.67-9.6,21.79,21.79,0,0,1-3.67-12,27.57,27.57,0,0,1,8.84-20.85q8.7-8.25,22.5-8.25t22.5,8.25A27.58,27.58,0,0,1,222.32,186a21.79,21.79,0,0,1-3.67,12,32.24,32.24,0,0,1-9.68,9.6v.6a29.86,29.86,0,0,1,12.45,10.58A26.48,26.48,0,0,1,225.77,233.53Zm-55.5-.75a16.82,16.82,0,0,0,1.58,7.35,18.17,18.17,0,0,0,4.35,5.78,19.69,19.69,0,0,0,6.52,3.82,25.88,25.88,0,0,0,16.5,0,19.73,19.73,0,0,0,6.53-3.82,18.17,18.17,0,0,0,4.35-5.78,16.81,16.81,0,0,0,1.57-7.35,16.21,16.21,0,0,0-6-12.9,21.54,21.54,0,0,0-14.7-5.25,22.06,22.06,0,0,0-14.84,5.25A16.64,16.64,0,0,0,170.27,232.78Zm3.45-47.1a15.08,15.08,0,0,0,4.8,11.63c3.2,2.95,7.36,4.42,12.45,4.42s9.25-1.47,12.45-4.42a15.08,15.08,0,0,0,4.8-11.63q0-7.2-4.8-11.4T191,170.08c-5.09,0-9.25,1.4-12.45,4.2S173.72,180.88,173.72,185.68Z" transform="translate(-16.23 -5.8)" fill="#fff"/><path d="M307.37,233.53a27.74,27.74,0,0,1-10.05,21.9q-10.2,8.85-24.75,8.85t-24.75-8.85a27.74,27.74,0,0,1-10-21.9,26.48,26.48,0,0,1,4.35-14.77,29.92,29.92,0,0,1,12.45-10.58v-.6a32.2,32.2,0,0,1-9.67-9.6,21.8,21.8,0,0,1-3.68-12,27.58,27.58,0,0,1,8.85-20.85q8.7-8.25,22.5-8.25t22.5,8.25A27.58,27.58,0,0,1,303.92,186a21.79,21.79,0,0,1-3.67,12,32.24,32.24,0,0,1-9.68,9.6v.6A29.92,29.92,0,0,1,303,218.76,26.48,26.48,0,0,1,307.37,233.53Zm-55.5-.75a16.82,16.82,0,0,0,1.58,7.35,18.17,18.17,0,0,0,4.35,5.78,19.69,19.69,0,0,0,6.52,3.82,25.88,25.88,0,0,0,16.5,0,19.73,19.73,0,0,0,6.53-3.82,18.17,18.17,0,0,0,4.35-5.78,16.81,16.81,0,0,0,1.57-7.35,16.21,16.21,0,0,0-6-12.9,21.54,21.54,0,0,0-14.7-5.25,22.1,22.1,0,0,0-14.85,5.25A16.66,16.66,0,0,0,251.87,232.78Zm3.45-47.1a15.08,15.08,0,0,0,4.8,11.63q4.8,4.42,12.45,4.42T285,197.31a15.08,15.08,0,0,0,4.8-11.63q0-7.2-4.8-11.4t-12.45-4.2q-7.65,0-12.45,4.2T255.32,185.68Z" transform="translate(-16.23 -5.8)" fill="#fff"/><path d="M108.38,354.6a27.19,27.19,0,0,1-19.15-46.08,25.69,25.69,0,0,1,19.15-7.78q11.66,0,18.93,8.43l-4.75,4.61a17.58,17.58,0,0,0-14.18-6.7,19.46,19.46,0,0,0-14.33,5.76q-5.68,5.69-5.69,14.83t5.69,14.83a19.46,19.46,0,0,0,14.33,5.76q9,0,15.62-7.56l4.83,4.68a25.06,25.06,0,0,1-9,6.81A27.59,27.59,0,0,1,108.38,354.6Z" transform="translate(-16.23 -5.8)" fill="#fff"/><path d="M143.23,332.57v20.88H136.6V301.9h17.57a15.85,15.85,0,0,1,11.37,4.46,14.87,14.87,0,0,1,0,21.81,15.84,15.84,0,0,1-11.37,4.4Zm0-24.34v18h11.08a8.8,8.8,0,0,0,6.56-2.66,8.69,8.69,0,0,0,2.66-6.34,9.22,9.22,0,0,0-9.22-9Z" transform="translate(-16.23 -5.8)" fill="#fff"/><path d="M209,339.7a13.38,13.38,0,0,1-5,10.87,19,19,0,0,1-12.24,4,18.11,18.11,0,0,1-11.3-3.74,19.2,19.2,0,0,1-6.77-10.23l6.34-2.59a16,16,0,0,0,1.8,4.17,13.69,13.69,0,0,0,2.7,3.21,12.28,12.28,0,0,0,3.42,2.09,10.56,10.56,0,0,0,4,.75,11.37,11.37,0,0,0,7.41-2.34,7.61,7.61,0,0,0,2.88-6.22,7.47,7.47,0,0,0-2.37-5.55q-2.23-2.23-8.35-4.32c-4.13-1.49-6.7-2.49-7.71-3q-8.21-4.19-8.21-12.31a12.55,12.55,0,0,1,4.54-9.72,16.55,16.55,0,0,1,11.3-4,17.36,17.36,0,0,1,10.23,3,14.17,14.17,0,0,1,5.76,7.41l-6.19,2.6a9.2,9.2,0,0,0-3.42-4.79,11.06,11.06,0,0,0-12.78.25,6.28,6.28,0,0,0-2.67,5.26,6.08,6.08,0,0,0,2.09,4.6q2.31,1.95,10,4.61t11.19,6.52A13.89,13.89,0,0,1,209,339.7Z" transform="translate(-16.23 -5.8)" fill="#fff"/><path d="M239.49,353.45h-6.63V301.9h6.63Z" transform="translate(-16.23 -5.8)" fill="#fff"/><path d="M57.69,59.65A26.2,26.2,0,0,1,30.91,32.72q0-11.52,7.63-19.15A25.72,25.72,0,0,1,57.69,5.8q11.67,0,18.94,8.42l-4.76,4.61a17.57,17.57,0,0,0-14.18-6.7,19.46,19.46,0,0,0-14.33,5.76q-5.69,5.68-5.69,14.83t5.69,14.84a19.46,19.46,0,0,0,14.33,5.76q9,0,15.62-7.56l4.83,4.68a25.15,25.15,0,0,1-9,6.8A27.44,27.44,0,0,1,57.69,59.65Z" transform="translate(-16.23 -5.8)" fill="#fff"/><path d="M96.71,22.07q7.35,0,11.6,3.92t4.24,10.77V58.5h-6.33V53.6h-.29q-4.11,6.06-11,6a14.23,14.23,0,0,1-9.75-3.45,11,11,0,0,1-3.92-8.64,10.49,10.49,0,0,1,4.13-8.72Q89.58,35.6,96.5,35.6a19.59,19.59,0,0,1,9.72,2.16V36.25a7.57,7.57,0,0,0-2.74-5.87A9.41,9.41,0,0,0,97.07,28a10.15,10.15,0,0,0-8.78,4.68L82.46,29Q87.28,22.07,96.71,22.07ZM88.15,47.7A5.29,5.29,0,0,0,90.34,52a8.09,8.09,0,0,0,5.15,1.73,10.53,10.53,0,0,0,7.45-3.1,9.71,9.71,0,0,0,3.28-7.27q-3.1-2.45-8.64-2.45a11.19,11.19,0,0,0-6.73,2A5.74,5.74,0,0,0,88.15,47.7Z" transform="translate(-16.23 -5.8)" fill="#fff"/><path d="M138.4,59.65A15.24,15.24,0,0,1,131.31,58a12.38,12.38,0,0,1-4.93-4.4h-.29l.29,4.9V74.05h-6.63V23.22h6.34v4.9h.29a12.38,12.38,0,0,1,4.93-4.4,15.68,15.68,0,0,1,18.9,3.82,19.3,19.3,0,0,1,5,13.32,19.12,19.12,0,0,1-5,13.32A15.15,15.15,0,0,1,138.4,59.65Zm-1.08-6a10.32,10.32,0,0,0,8-3.6,13,13,0,0,0,3.24-9.14,13.13,13.13,0,0,0-3.24-9.14,10.74,10.74,0,0,0-16.05,0,13.28,13.28,0,0,0-3.17,9.14,13.42,13.42,0,0,0,3.17,9.22A10.49,10.49,0,0,0,137.32,53.6Z" transform="translate(-16.23 -5.8)" fill="#fff"/><path d="M177.35,59.65a17.4,17.4,0,0,1-13-5.33,19,19,0,0,1-5.11-13.46,18.65,18.65,0,0,1,5.11-13.46,17.4,17.4,0,0,1,13-5.33,16.16,16.16,0,0,1,15.48,10.15l-6.05,2.52q-2.81-6.63-9.86-6.62a10.24,10.24,0,0,0-7.85,3.67,13.22,13.22,0,0,0-3.24,9.07,13.22,13.22,0,0,0,3.24,9.07,10.24,10.24,0,0,0,7.85,3.67A10.35,10.35,0,0,0,187.14,47l5.91,2.52A15.82,15.82,0,0,1,187,57,17.19,17.19,0,0,1,177.35,59.65Z" transform="translate(-16.23 -5.8)" fill="#fff"/><path d="M196.43,40.86a18.65,18.65,0,0,1,5.11-13.46,17.41,17.41,0,0,1,13-5.33,17.17,17.17,0,0,1,13,5.33,18.54,18.54,0,0,1,5.18,13.46,18.37,18.37,0,0,1-5.18,13.46,17.17,17.17,0,0,1-13,5.33,17.41,17.41,0,0,1-13-5.33A18.63,18.63,0,0,1,196.43,40.86Zm6.63,0a12.94,12.94,0,0,0,3.31,9.22,11.32,11.32,0,0,0,16.41,0,12.94,12.94,0,0,0,3.32-9.22,12.81,12.81,0,0,0-3.32-9.14,11.15,11.15,0,0,0-16.41,0A12.8,12.8,0,0,0,203.06,40.86Z" transform="translate(-16.23 -5.8)" fill="#fff"/><path d="M244.67,58.5h-6.62V23.22h6.33v4.9h.29a11.77,11.77,0,0,1,4.65-4.32,12.68,12.68,0,0,1,6.22-1.73,12.84,12.84,0,0,1,6.84,1.8,10.56,10.56,0,0,1,4.32,5,13.76,13.76,0,0,1,12.17-6.77q6.12,0,9.43,3.74t3.32,10.66v22H285v-21c0-3.32-.6-5.7-1.8-7.17s-3.21-2.19-6.05-2.19a7.89,7.89,0,0,0-6.4,3.24,11.84,11.84,0,0,0-2.6,7.63V58.5h-6.62v-21c0-3.32-.6-5.7-1.8-7.17s-3.22-2.19-6.05-2.19a7.92,7.92,0,0,0-6.41,3.24A11.88,11.88,0,0,0,244.67,39Z" transform="translate(-16.23 -5.8)" fill="#fff"/></g></svg>