<svg xmlns="http://www.w3.org/2000/svg" viewBox="0 0 289.95 428.6"><title>cps2</title><g id="Layer_3" data-name="Layer 3"><circle cx="144.97" cy="86.2" r="8.2" fill="#fff"/><line x1="2.47" y1="122.7" x2="287.47" y2="122.7" fill="none"/><rect x="2.47" y="119.7" width="285" height="6" fill="#fff"/><line x1="2.47" y1="379.2" x2="287.47" y2="379.2" fill="none"/><rect x="2.47" y="376.2" width="285" height="6" fill="#fff"/><circle cx="144.97" cy="420.4" r="8.2" fill="#fff"/></g><g id="NEW_TEXT" data-name="NEW TEXT"><path d="M55.83,159.28v102.6H42v-85.5l-20,8.7-5.25-11.7L47,159.28Z" transform="translate(-16.83 -5.8)" fill="#fff"/><path d="M106.53,224.38q-12.32,0-22.35-9.75a32.51,32.51,0,0,1-9.75-23.4q0-13.95,10.5-24,10.48-10.35,24.6-10.35a34.07,34.07,0,0,1,25.05,10.2,33,33,0,0,1,10.2,24.15q0,12.45-10.05,28.35l-29.85,44.7-11.1-7.65,25.35-35.1-.3-.3Q114,224.38,106.53,224.38Zm24.3-33.3a20,20,0,0,0-6.3-14.85,21.37,21.37,0,0,0-30,0,21,21,0,0,0,0,29.7,21.37,21.37,0,0,0,30,0A19.67,19.67,0,0,0,130.83,191.08Z" transform="translate(-16.83 -5.8)" fill="#fff"/><path d="M188.88,224.38q-12.31,0-22.36-9.75a32.55,32.55,0,0,1-9.75-23.4q0-13.95,10.5-24,10.5-10.35,24.61-10.35a34,34,0,0,1,25,10.2,33,33,0,0,1,10.21,24.15q0,12.45-10.06,28.35l-29.85,44.7-11.09-7.65,25.34-35.1-.3-.3Q196.37,224.38,188.88,224.38Zm24.29-33.3a20,20,0,0,0-6.29-14.85,21.37,21.37,0,0,0-30,0,21,21,0,0,0,0,29.7,21.37,21.37,0,0,0,30,0A19.7,19.7,0,0,0,213.17,191.08Z" transform="translate(-16.83 -5.8)" fill="#fff"/><path d="M306.77,232.78a29,29,0,0,1-10,22.5q-9.9,9-24.6,9a34.14,34.14,0,0,1-20.85-6.9,35.07,35.07,0,0,1-12.75-18.75l12.6-5.25q2.4,8.55,7.88,13.13a19.79,19.79,0,0,0,13.12,4.57,21.69,21.69,0,0,0,14.55-5.25,16.93,16.93,0,0,0,6-13.05,16.18,16.18,0,0,0-6.3-12.9,22.1,22.1,0,0,0-14.85-5.25h-8.85v-12.9h7.8q8.25,0,13.5-4.57a15.08,15.08,0,0,0,5.25-11.93,13.68,13.68,0,0,0-5-10.95q-4.95-4.2-13-4.2-13.05,0-17.85,13.35L240.62,178a31.73,31.73,0,0,1,30.6-21.15q13.65,0,22.95,8.1a25.36,25.36,0,0,1,9.15,20.25q0,14.85-13.8,22.05v.6a28.73,28.73,0,0,1,12.68,10.05A25.47,25.47,0,0,1,306.77,232.78Z" transform="translate(-16.83 -5.8)" fill="#fff"/><path d="M99.88,354.6A26.2,26.2,0,0,1,73.1,327.67q0-11.52,7.63-19.15a25.7,25.7,0,0,1,19.15-7.78q11.67,0,18.94,8.43l-4.75,4.61a17.6,17.6,0,0,0-14.19-6.7,19.46,19.46,0,0,0-14.33,5.76q-5.68,5.69-5.68,14.83t5.68,14.83a19.46,19.46,0,0,0,14.33,5.76q9,0,15.63-7.56l4.82,4.68a25.06,25.06,0,0,1-9,6.81A27.56,27.56,0,0,1,99.88,354.6Z" transform="translate(-16.83 -5.8)" fill="#fff"/><path d="M134.73,332.57v20.88H128.1V301.9h17.57a15.85,15.85,0,0,1,11.38,4.46,14.89,14.89,0,0,1,0,21.81,15.86,15.86,0,0,1-11.38,4.4Zm0-24.34v18h11.09a8.77,8.77,0,0,0,6.55-2.66,8.69,8.69,0,0,0,2.66-6.34,9.22,9.22,0,0,0-9.21-9Z" transform="translate(-16.83 -5.8)" fill="#fff"/><path d="M200.54,339.7a13.41,13.41,0,0,1-5,10.87,19,19,0,0,1-12.24,4A18.16,18.16,0,0,1,172,350.86a19.13,19.13,0,0,1-6.76-10.23l6.33-2.59a16,16,0,0,0,1.8,4.17,13.69,13.69,0,0,0,2.7,3.21,12.28,12.28,0,0,0,3.42,2.09,10.56,10.56,0,0,0,4,.75,11.38,11.38,0,0,0,7.42-2.34,7.61,7.61,0,0,0,2.88-6.22,7.45,7.45,0,0,0-2.38-5.55q-2.23-2.23-8.35-4.32c-4.13-1.49-6.7-2.49-7.7-3q-8.22-4.19-8.21-12.31a12.54,12.54,0,0,1,4.53-9.72,16.58,16.58,0,0,1,11.31-4,17.35,17.35,0,0,1,10.22,3,14.17,14.17,0,0,1,5.76,7.41l-6.19,2.6a9.2,9.2,0,0,0-3.42-4.79,11.06,11.06,0,0,0-12.78.25,6.27,6.27,0,0,0-2.66,5.26,6.07,6.07,0,0,0,2.08,4.6q2.31,1.95,10,4.61t11.2,6.52A13.93,13.93,0,0,1,200.54,339.7Z" transform="translate(-16.83 -5.8)" fill="#fff"/><path d="M231,353.45h-6.62V301.9H231Z" transform="translate(-16.83 -5.8)" fill="#fff"/><path d="M248,353.45h-6.62V301.9H248Z" transform="translate(-16.83 -5.8)" fill="#fff"/><path d="M57.69,59.65A26.22,26.22,0,0,1,30.9,32.72a26,26,0,0,1,7.64-19.15A25.72,25.72,0,0,1,57.69,5.8q11.66,0,18.93,8.42l-4.75,4.61a17.57,17.57,0,0,0-14.18-6.7,19.46,19.46,0,0,0-14.33,5.76q-5.69,5.68-5.69,14.83t5.69,14.84a19.46,19.46,0,0,0,14.33,5.76q9,0,15.62-7.56l4.83,4.68a25.15,25.15,0,0,1-9,6.8A27.44,27.44,0,0,1,57.69,59.65Z" transform="translate(-16.83 -5.8)" fill="#fff"/><path d="M96.71,22.07q7.35,0,11.59,3.92t4.25,10.77V58.5h-6.33V53.6h-.29q-4.11,6.06-11,6a14.23,14.23,0,0,1-9.75-3.45,11,11,0,0,1-3.93-8.64,10.5,10.5,0,0,1,4.14-8.72Q89.58,35.6,96.5,35.6a19.59,19.59,0,0,1,9.72,2.16V36.25a7.57,7.57,0,0,0-2.74-5.87A9.41,9.41,0,0,0,97.07,28a10.15,10.15,0,0,0-8.78,4.68L82.46,29Q87.28,22.07,96.71,22.07ZM88.14,47.7A5.3,5.3,0,0,0,90.34,52a8.09,8.09,0,0,0,5.15,1.73,10.53,10.53,0,0,0,7.45-3.1,9.71,9.71,0,0,0,3.28-7.27q-3.1-2.45-8.64-2.45a11.22,11.22,0,0,0-6.74,2A5.76,5.76,0,0,0,88.14,47.7Z" transform="translate(-16.83 -5.8)" fill="#fff"/><path d="M138.4,59.65A15.24,15.24,0,0,1,131.31,58a12.38,12.38,0,0,1-4.93-4.4h-.29l.29,4.9V74.05h-6.63V23.22h6.34v4.9h.29a12.38,12.38,0,0,1,4.93-4.4,15.68,15.68,0,0,1,18.9,3.82,19.3,19.3,0,0,1,5,13.32,19.12,19.12,0,0,1-5,13.32A15.15,15.15,0,0,1,138.4,59.65Zm-1.08-6a10.32,10.32,0,0,0,8-3.6,13,13,0,0,0,3.24-9.14,13.13,13.13,0,0,0-3.24-9.14,10.74,10.74,0,0,0-16.05,0,13.28,13.28,0,0,0-3.17,9.14,13.42,13.42,0,0,0,3.17,9.22A10.49,10.49,0,0,0,137.32,53.6Z" transform="translate(-16.83 -5.8)" fill="#fff"/><path d="M177.35,59.65a17.4,17.4,0,0,1-13-5.33,19,19,0,0,1-5.11-13.46,18.65,18.65,0,0,1,5.11-13.46,17.4,17.4,0,0,1,13-5.33,16.16,16.16,0,0,1,15.48,10.15l-6.05,2.52q-2.81-6.63-9.86-6.62a10.24,10.24,0,0,0-7.85,3.67,13.22,13.22,0,0,0-3.24,9.07,13.22,13.22,0,0,0,3.24,9.07,10.24,10.24,0,0,0,7.85,3.67A10.35,10.35,0,0,0,187.14,47l5.91,2.52A15.82,15.82,0,0,1,187,57,17.19,17.19,0,0,1,177.35,59.65Z" transform="translate(-16.83 -5.8)" fill="#fff"/><path d="M196.43,40.86a18.65,18.65,0,0,1,5.11-13.46,17.41,17.41,0,0,1,13-5.33,17.17,17.17,0,0,1,13,5.33,18.54,18.54,0,0,1,5.18,13.46,18.37,18.37,0,0,1-5.18,13.46,17.17,17.17,0,0,1-13,5.33,17.41,17.41,0,0,1-13-5.33A18.63,18.63,0,0,1,196.43,40.86Zm6.63,0a12.94,12.94,0,0,0,3.31,9.22,11.32,11.32,0,0,0,16.41,0,12.94,12.94,0,0,0,3.32-9.22,12.81,12.81,0,0,0-3.32-9.14,11.15,11.15,0,0,0-16.41,0A12.8,12.8,0,0,0,203.06,40.86Z" transform="translate(-16.83 -5.8)" fill="#fff"/><path d="M244.67,58.5h-6.62V23.22h6.33v4.9h.29a11.77,11.77,0,0,1,4.65-4.32,12.68,12.68,0,0,1,6.22-1.73,12.84,12.84,0,0,1,6.84,1.8,10.56,10.56,0,0,1,4.32,5,13.76,13.76,0,0,1,12.17-6.77q6.12,0,9.43,3.74t3.32,10.66v22H285v-21c0-3.32-.6-5.7-1.8-7.17s-3.21-2.19-6.05-2.19a7.89,7.89,0,0,0-6.4,3.24,11.84,11.84,0,0,0-2.6,7.63V58.5h-6.62v-21c0-3.32-.6-5.7-1.8-7.17s-3.22-2.19-6.05-2.19a7.92,7.92,0,0,0-6.41,3.24A11.88,11.88,0,0,0,244.67,39Z" transform="translate(-16.83 -5.8)" fill="#fff"/></g></svg>