<svg xmlns="http://www.w3.org/2000/svg" viewBox="0 0 289.2 428.6"><title>daphne</title><g id="Layer_3" data-name="Layer 3"><circle cx="144.6" cy="86.2" r="8.2" fill="#fff"/><line x1="2.1" y1="122.7" x2="287.1" y2="122.7" fill="none"/><rect x="2.1" y="119.7" width="285" height="6" fill="#fff"/><line x1="2.1" y1="379.2" x2="287.1" y2="379.2" fill="none"/><rect x="2.1" y="376.2" width="285" height="6" fill="#fff"/><circle cx="144.6" cy="420.4" r="8.2" fill="#fff"/></g><g id="NEW_TEXT" data-name="NEW TEXT"><path d="M56.2,159.28v102.6H42.4v-85.5l-19.95,8.7-5.25-11.7,30.15-14.1Z" transform="translate(-17.2 -5.8)" fill="#fff"/><path d="M106.9,224.38q-12.3,0-22.35-9.75a32.55,32.55,0,0,1-9.75-23.4q0-13.95,10.5-24,10.5-10.35,24.6-10.35a34.05,34.05,0,0,1,25,10.2,33,33,0,0,1,10.2,24.15q0,12.45-10.05,28.35l-29.85,44.7-11.1-7.65,25.35-35.1-.3-.3Q114.4,224.38,106.9,224.38Zm24.3-33.3a20,20,0,0,0-6.3-14.85,21.37,21.37,0,0,0-30,0,21,21,0,0,0,0,29.7,21.37,21.37,0,0,0,30,0A19.67,19.67,0,0,0,131.2,191.08Z" transform="translate(-17.2 -5.8)" fill="#fff"/><path d="M226.75,233.53a27.74,27.74,0,0,1-10.05,21.9q-10.2,8.85-24.75,8.85t-24.75-8.85a27.74,27.74,0,0,1-10-21.9,26.48,26.48,0,0,1,4.35-14.77A29.92,29.92,0,0,1,174,208.18v-.6a32.24,32.24,0,0,1-9.68-9.6,21.79,21.79,0,0,1-3.67-12,27.58,27.58,0,0,1,8.85-20.85q8.7-8.25,22.5-8.25t22.5,8.25A27.58,27.58,0,0,1,223.3,186a21.87,21.87,0,0,1-3.67,12,32.35,32.35,0,0,1-9.68,9.6v.6a29.92,29.92,0,0,1,12.45,10.58A26.48,26.48,0,0,1,226.75,233.53Zm-55.5-.75a16.81,16.81,0,0,0,1.57,7.35,18.31,18.31,0,0,0,4.35,5.78,19.73,19.73,0,0,0,6.53,3.82,25.88,25.88,0,0,0,16.5,0,19.69,19.69,0,0,0,6.52-3.82,18.17,18.17,0,0,0,4.35-5.78,16.68,16.68,0,0,0,1.58-7.35,16.21,16.21,0,0,0-6-12.9,21.54,21.54,0,0,0-14.7-5.25,22.1,22.1,0,0,0-14.85,5.25A16.66,16.66,0,0,0,171.25,232.78Zm3.45-47.1a15.08,15.08,0,0,0,4.8,11.63q4.8,4.42,12.45,4.42t12.45-4.42a15.08,15.08,0,0,0,4.8-11.63q0-7.2-4.8-11.4T192,170.08q-7.65,0-12.45,4.2T174.7,185.68Z" transform="translate(-17.2 -5.8)" fill="#fff"/><path d="M306.4,232.78a29,29,0,0,1-10,22.5q-9.9,9-24.6,9a34.14,34.14,0,0,1-20.85-6.9,35.07,35.07,0,0,1-12.75-18.75l12.6-5.25q2.4,8.55,7.87,13.13a19.81,19.81,0,0,0,13.13,4.57,21.69,21.69,0,0,0,14.55-5.25,16.93,16.93,0,0,0,6-13.05,16.18,16.18,0,0,0-6.3-12.9,22.1,22.1,0,0,0-14.85-5.25H262.3v-12.9h7.8q8.25,0,13.5-4.57a15.08,15.08,0,0,0,5.25-11.93,13.68,13.68,0,0,0-5-10.95q-4.95-4.2-13-4.2-13.05,0-17.85,13.35L240.25,178a31.73,31.73,0,0,1,30.6-21.15q13.65,0,22.95,8.1A25.36,25.36,0,0,1,303,185.23q0,14.85-13.8,22.05v.6a28.71,28.71,0,0,1,12.67,10.05A25.48,25.48,0,0,1,306.4,232.78Z" transform="translate(-17.2 -5.8)" fill="#fff"/><path d="M45.2,353.45V301.9H61q11.81,0,19,7.12t7.16,18.65q0,11.59-7.16,18.69t-19,7.09Zm6.62-45.22v38.88H61q9,0,14.18-5.15t5.18-14.29q0-9.07-5.18-14.25T61,308.23Z" transform="translate(-17.2 -5.8)" fill="#fff"/><path d="M107.19,317q7.34,0,11.59,3.92T123,331.7v21.75h-6.34v-4.9h-.29q-4.09,6-10.94,6.05a14.21,14.21,0,0,1-9.76-3.46,11,11,0,0,1-3.92-8.64,10.5,10.5,0,0,1,4.14-8.71q4.14-3.24,11-3.24a19.54,19.54,0,0,1,9.72,2.16V331.2a7.56,7.56,0,0,0-2.73-5.87,9.38,9.38,0,0,0-6.41-2.41,10.16,10.16,0,0,0-8.79,4.68l-5.83-3.67Q97.76,317,107.19,317Zm-8.57,25.63a5.27,5.27,0,0,0,2.2,4.32A8.08,8.08,0,0,0,106,348.7a10.6,10.6,0,0,0,7.46-3.1,9.7,9.7,0,0,0,3.27-7.27q-3.09-2.44-8.64-2.45a11.25,11.25,0,0,0-6.73,1.94A5.79,5.79,0,0,0,98.62,342.65Z" transform="translate(-17.2 -5.8)" fill="#fff"/><path d="M148.88,354.6a15.16,15.16,0,0,1-7.1-1.66,12.35,12.35,0,0,1-4.93-4.39h-.29l.29,4.9V369h-6.62V318.17h6.33v4.89h.29a12.5,12.5,0,0,1,4.93-4.39,15.28,15.28,0,0,1,7.1-1.65,15.13,15.13,0,0,1,11.8,5.47,20.33,20.33,0,0,1,0,26.64A15.13,15.13,0,0,1,148.88,354.6Zm-1.08-6.05a10.34,10.34,0,0,0,8-3.6,13,13,0,0,0,3.24-9.14,13.16,13.16,0,0,0-3.24-9.15,10.76,10.76,0,0,0-16.06,0,14.88,14.88,0,0,0,0,18.36A10.48,10.48,0,0,0,147.8,348.55Z" transform="translate(-17.2 -5.8)" fill="#fff"/><path d="M171,301.9h6.62v16.27l-.28,4.89h.28a11.84,11.84,0,0,1,4.65-4.32,13.32,13.32,0,0,1,6.51-1.72q6.48,0,10,3.7t3.49,10.55v22.18H195.6V332.57q0-9.51-8.42-9.51a8.5,8.5,0,0,0-6.8,3.35,11.88,11.88,0,0,0-2.78,7.81v19.23H171Z" transform="translate(-17.2 -5.8)" fill="#fff"/><path d="M210,318.17h6.34v4.89h.29a11.81,11.81,0,0,1,4.64-4.32,13.33,13.33,0,0,1,6.52-1.72q6.48,0,10,3.7t3.49,10.55v22.18h-6.62V331.7q-.23-8.64-8.71-8.64a8.29,8.29,0,0,0-6.63,3.21,11.62,11.62,0,0,0-2.66,7.67v19.51H210Z" transform="translate(-17.2 -5.8)" fill="#fff"/><path d="M264.87,354.6a16.88,16.88,0,0,1-12.82-5.33,18.81,18.81,0,0,1-5-13.46,19.14,19.14,0,0,1,4.9-13.43A16.18,16.18,0,0,1,264.44,317q7.85,0,12.49,5.07t4.64,14.22l-.07.72H253.78a11.49,11.49,0,0,0,3.46,8.35,11,11,0,0,0,7.92,3.17q6.33,0,9.93-6.34L281,345.1a17.66,17.66,0,0,1-6.59,7A18.23,18.23,0,0,1,264.87,354.6Zm-10.59-23h20.24a8.79,8.79,0,0,0-3-6.08,10.45,10.45,0,0,0-7.24-2.42,9.57,9.57,0,0,0-6.44,2.31A11,11,0,0,0,254.28,331.56Z" transform="translate(-17.2 -5.8)" fill="#fff"/><path d="M93.8,58.5H87.17V7H93.8l17.92,31.39H112L129.94,7h6.62V58.5h-6.62V27.9l.29-8.64h-.29l-16.13,28.3h-3.89L93.8,19.26h-.29l.29,8.64Z" transform="translate(-17.2 -5.8)" fill="#fff"/><path d="M170.48,59.65a26.2,26.2,0,0,1-26.79-26.93,26,26,0,0,1,7.63-19.15A25.76,25.76,0,0,1,170.48,5.8q11.66,0,18.93,8.42l-4.75,4.61a17.58,17.58,0,0,0-14.18-6.7,19.44,19.44,0,0,0-14.33,5.76q-5.68,5.68-5.69,14.83t5.69,14.84a19.44,19.44,0,0,0,14.33,5.76q9,0,15.62-7.56l4.82,4.68a25,25,0,0,1-9,6.8A27.36,27.36,0,0,1,170.48,59.65Z" transform="translate(-17.2 -5.8)" fill="#fff"/><path d="M201.72,58.5h-7.34L213.82,7h7.49L240.75,58.5H233.4l-5-14H206.76Zm15.7-43.42L209,38.34h17.13l-8.42-23.26Z" transform="translate(-17.2 -5.8)" fill="#fff"/></g></svg>