<svg xmlns="http://www.w3.org/2000/svg" viewBox="0 0 286.95 427.45"><title>dragon32</title><g id="Layer_3" data-name="Layer 3"><circle cx="143.77" cy="85.05" r="8.2" fill="#fff"/><line x1="1.27" y1="121.55" x2="286.27" y2="121.55" fill="none"/><rect x="1.27" y="118.55" width="285" height="6" fill="#fff"/><line x1="1.27" y1="378.05" x2="286.27" y2="378.05" fill="none"/><rect x="1.27" y="375.05" width="285" height="6" fill="#fff"/><circle cx="143.77" cy="419.25" r="8.2" fill="#fff"/></g><g id="NEW_TEXT" data-name="NEW TEXT"><path d="M57,159.28v102.6H43.23v-85.5l-19.95,8.7L18,173.38l30.15-14.1Z" transform="translate(-18.03 -6.95)" fill="#fff"/><path d="M107.73,224.38q-12.3,0-22.35-9.75a32.51,32.51,0,0,1-9.75-23.4q0-13.95,10.5-24,10.49-10.35,24.6-10.35a34.07,34.07,0,0,1,25,10.2A33,33,0,0,1,146,191.23q0,12.45-10,28.35l-29.85,44.7L95,256.63l25.35-35.1-.3-.3C116.82,223.33,112.73,224.38,107.73,224.38Zm24.3-33.3a20,20,0,0,0-6.3-14.85,21.37,21.37,0,0,0-30,0,21,21,0,0,0,0,29.7,21.37,21.37,0,0,0,30,0A19.67,19.67,0,0,0,132,191.08Z" transform="translate(-18.03 -6.95)" fill="#fff"/><path d="M227.58,233.53a27.75,27.75,0,0,1-10.06,21.9q-10.2,8.85-24.75,8.85T168,255.43a27.73,27.73,0,0,1-10-21.9,26.4,26.4,0,0,1,4.35-14.77,29.89,29.89,0,0,1,12.44-10.58v-.6a32.2,32.2,0,0,1-9.67-9.6,21.79,21.79,0,0,1-3.67-12,27.57,27.57,0,0,1,8.84-20.85q8.7-8.25,22.5-8.25t22.5,8.25A27.59,27.59,0,0,1,224.13,186a21.8,21.8,0,0,1-3.68,12,32.24,32.24,0,0,1-9.68,9.6v.6a29.92,29.92,0,0,1,12.45,10.58A26.49,26.49,0,0,1,227.58,233.53Zm-55.5-.75a16.81,16.81,0,0,0,1.57,7.35,18.17,18.17,0,0,0,4.35,5.78,19.69,19.69,0,0,0,6.52,3.82,25.88,25.88,0,0,0,16.5,0,19.73,19.73,0,0,0,6.53-3.82,18.17,18.17,0,0,0,4.35-5.78,16.81,16.81,0,0,0,1.57-7.35,16.21,16.21,0,0,0-6-12.9,21.54,21.54,0,0,0-14.7-5.25,22.1,22.1,0,0,0-14.85,5.25A16.65,16.65,0,0,0,172.08,232.78Zm3.44-47.1a15.05,15.05,0,0,0,4.81,11.63q4.78,4.42,12.44,4.42c5.11,0,9.25-1.47,12.45-4.42a15.08,15.08,0,0,0,4.8-11.63q0-7.2-4.8-11.4c-3.2-2.8-7.34-4.2-12.45-4.2s-9.25,1.4-12.44,4.2S175.52,180.88,175.52,185.68Z" transform="translate(-18.03 -6.95)" fill="#fff"/><path d="M305,248.68v13.2h-65.4v-13.8l26.55-26.85q13.35-13.65,18.45-20.47a23.57,23.57,0,0,0,5.1-14.33,15.1,15.1,0,0,0-5.25-11.55q-5.25-4.8-13.5-4.8a18.51,18.51,0,0,0-12.15,4.2,18.94,18.94,0,0,0-6.6,10.2l-12.6-5.1a32.93,32.93,0,0,1,31.65-22.5q13.95,0,23.25,8.55a27.42,27.42,0,0,1,9.3,21q0,14.85-16.35,32.1l-30,30.15Z" transform="translate(-18.03 -6.95)" fill="#fff"/><path d="M159.32,339.48a13.89,13.89,0,0,1-4.83,10.8,16.89,16.89,0,0,1-11.8,4.32,16.42,16.42,0,0,1-10-3.31,16.81,16.81,0,0,1-6.12-9l6-2.52a12.33,12.33,0,0,0,3.78,6.3,9.56,9.56,0,0,0,6.31,2.19,10.42,10.42,0,0,0,7-2.52,8.11,8.11,0,0,0,2.88-6.26,7.75,7.75,0,0,0-3-6.19,10.58,10.58,0,0,0-7.12-2.52h-4.25v-6.19h3.74a9.53,9.53,0,0,0,6.48-2.2,7.22,7.22,0,0,0,2.52-5.72,6.57,6.57,0,0,0-2.37-5.26,9.41,9.41,0,0,0-6.27-2q-6.25,0-8.56,6.41l-6.13-2.59a15.37,15.37,0,0,1,5.55-7.34,15.14,15.14,0,0,1,9.14-2.81,16.15,16.15,0,0,1,11,3.89,12.15,12.15,0,0,1,4.39,9.72q0,7.13-6.62,10.58v.29a13.71,13.71,0,0,1,6.08,4.82A12.25,12.25,0,0,1,159.32,339.48Z" transform="translate(-18.03 -6.95)" fill="#fff"/><path d="M196.47,347.11v6.34H165.08v-6.63l12.74-12.88a115.46,115.46,0,0,0,8.86-9.83,11.36,11.36,0,0,0,2.45-6.88,7.24,7.24,0,0,0-2.53-5.54,9.21,9.21,0,0,0-6.47-2.31,8.92,8.92,0,0,0-5.84,2,9,9,0,0,0-3.16,4.89l-6-2.44a15.78,15.78,0,0,1,15.19-10.8,15.9,15.9,0,0,1,11.16,4.1,13.19,13.19,0,0,1,4.46,10.08q0,7.13-7.85,15.41l-14.4,14.47Z" transform="translate(-18.03 -6.95)" fill="#fff"/><path d="M52.43,58.5V7H68.2q11.8,0,19,7.13t7.17,18.64q0,11.6-7.17,18.69t-19,7.09Zm6.63-45.22V52.16H68.2q9,0,14.18-5.14t5.19-14.3q0-9.06-5.19-14.25T68.2,13.28Z" transform="translate(-18.03 -6.95)" fill="#fff"/><path d="M106.22,58.5H99.59V23.22h6.34V29h.29a9.55,9.55,0,0,1,4.14-4.79,11.47,11.47,0,0,1,6.15-2,12.38,12.38,0,0,1,4.9.87l-2,6.4a11.11,11.11,0,0,0-3.89-.5A8.59,8.59,0,0,0,109,32a10.12,10.12,0,0,0-2.77,7.06Z" transform="translate(-18.03 -6.95)" fill="#fff"/><path d="M137.68,22.07q7.35,0,11.59,3.92t4.25,10.77V58.5h-6.34V53.6h-.28q-4.11,6.06-11,6a14.21,14.21,0,0,1-9.75-3.45,11,11,0,0,1-3.93-8.64,10.5,10.5,0,0,1,4.14-8.72q4.14-3.24,11.05-3.24a19.54,19.54,0,0,1,9.72,2.16V36.25a7.56,7.56,0,0,0-2.73-5.87A9.43,9.43,0,0,0,138,28a10.14,10.14,0,0,0-8.78,4.68L123.42,29Q128.25,22.07,137.68,22.07ZM129.11,47.7a5.27,5.27,0,0,0,2.2,4.32,8.09,8.09,0,0,0,5.15,1.73,10.55,10.55,0,0,0,7.45-3.1,9.7,9.7,0,0,0,3.27-7.27q-3.09-2.45-8.64-2.45a11.21,11.21,0,0,0-6.73,2A5.76,5.76,0,0,0,129.11,47.7Z" transform="translate(-18.03 -6.95)" fill="#fff"/><path d="M176.27,75.2a19.83,19.83,0,0,1-5.54-.75A17.92,17.92,0,0,1,166,72.32a15.08,15.08,0,0,1-3.63-3.24,13.74,13.74,0,0,1-2.31-4.17l6.27-2.59a9.85,9.85,0,0,0,3.74,5,10.5,10.5,0,0,0,6.19,1.88q5.4,0,8.43-3.24t3-8.93V53.6h-.29A13,13,0,0,1,182.36,58a15.22,15.22,0,0,1-7,1.62,15.59,15.59,0,0,1-11.88-5.4,19.49,19.49,0,0,1-4.9-13.39,19.25,19.25,0,0,1,4.9-13.32,15.49,15.49,0,0,1,11.88-5.47,15.22,15.22,0,0,1,7,1.62,13,13,0,0,1,5.07,4.43h.29v-4.9h6.34V57q0,8.49-4.83,13.32T176.27,75.2Zm.22-21.6a10.14,10.14,0,0,0,8-3.52,13.12,13.12,0,0,0,3.24-9.22,13.13,13.13,0,0,0-3.24-9.14,10.19,10.19,0,0,0-8-3.6,10.32,10.32,0,0,0-8,3.6,13.13,13.13,0,0,0-3.24,9.14A13,13,0,0,0,168.5,50,10.32,10.32,0,0,0,176.49,53.6Z" transform="translate(-18.03 -6.95)" fill="#fff"/><path d="M199.74,40.86a18.66,18.66,0,0,1,5.12-13.46,17.39,17.39,0,0,1,13-5.33,17.17,17.17,0,0,1,13,5.33A18.54,18.54,0,0,1,236,40.86a18.37,18.37,0,0,1-5.18,13.46,17.17,17.17,0,0,1-13,5.33,17.39,17.39,0,0,1-13-5.33A18.64,18.64,0,0,1,199.74,40.86Zm6.63,0a12.94,12.94,0,0,0,3.31,9.22,11.33,11.33,0,0,0,16.42,0,13,13,0,0,0,3.31-9.22,12.85,12.85,0,0,0-3.31-9.14,11.16,11.16,0,0,0-16.42,0A12.8,12.8,0,0,0,206.37,40.86Z" transform="translate(-18.03 -6.95)" fill="#fff"/><path d="M241.36,23.22h6.34v4.9H248a11.77,11.77,0,0,1,4.65-4.32,13.23,13.23,0,0,1,6.51-1.73q6.48,0,10,3.71t3.49,10.54V58.5H266V36.76q-.21-8.64-8.71-8.64a8.25,8.25,0,0,0-6.62,3.2A11.6,11.6,0,0,0,248,39V58.5h-6.62Z" transform="translate(-18.03 -6.95)" fill="#fff"/></g></svg>