<svg xmlns="http://www.w3.org/2000/svg" viewBox="0 0 334.15 428.6"><title>dreamcast</title><g id="Layer_3" data-name="Layer 3"><circle cx="165.2" cy="86.2" r="8.2" fill="#fff"/><line x1="22.7" y1="122.7" x2="307.7" y2="122.7" fill="none"/><rect x="22.7" y="119.7" width="285" height="6" fill="#fff"/><line x1="22.7" y1="379.2" x2="307.7" y2="379.2" fill="none"/><rect x="22.7" y="376.2" width="285" height="6" fill="#fff"/><circle cx="165.2" cy="420.4" r="8.2" fill="#fff"/></g><g id="NEW_TEXT" data-name="NEW TEXT"><path d="M54.85,159.28v102.6H41.05v-85.5l-19.95,8.7-5.25-11.7L46,159.28Z" transform="translate(3.4 -5.8)" fill="#fff"/><path d="M105.55,224.38q-12.3,0-22.35-9.75a32.55,32.55,0,0,1-9.75-23.4q0-13.95,10.5-24,10.5-10.35,24.6-10.35a34.05,34.05,0,0,1,25,10.2,33,33,0,0,1,10.2,24.15q0,12.45-10.05,28.35l-29.85,44.7-11.1-7.65,25.35-35.1-.3-.3Q113.05,224.38,105.55,224.38Zm24.3-33.3a20,20,0,0,0-6.3-14.85,21.37,21.37,0,0,0-30,0,21,21,0,0,0,0,29.7,21.37,21.37,0,0,0,30,0A19.67,19.67,0,0,0,129.85,191.08Z" transform="translate(3.4 -5.8)" fill="#fff"/><path d="M187.9,224.38q-12.3,0-22.35-9.75a32.55,32.55,0,0,1-9.75-23.4q0-13.95,10.5-24,10.5-10.35,24.6-10.35a34.05,34.05,0,0,1,25,10.2,33,33,0,0,1,10.2,24.15q0,12.45-10.05,28.35l-29.85,44.7-11.1-7.65,25.35-35.1-.3-.3Q195.4,224.38,187.9,224.38Zm24.3-33.3a20,20,0,0,0-6.3-14.85,21.11,21.11,0,1,0-30,29.7,21.37,21.37,0,0,0,30,0A19.67,19.67,0,0,0,212.2,191.08Z" transform="translate(3.4 -5.8)" fill="#fff"/><path d="M307.75,233.53a27.74,27.74,0,0,1-10.05,21.9q-10.2,8.85-24.75,8.85t-24.75-8.85a27.74,27.74,0,0,1-10-21.9,26.48,26.48,0,0,1,4.35-14.77A29.92,29.92,0,0,1,255,208.18v-.6a32.24,32.24,0,0,1-9.68-9.6,21.79,21.79,0,0,1-3.67-12,27.58,27.58,0,0,1,8.85-20.85q8.7-8.25,22.5-8.25t22.5,8.25A27.58,27.58,0,0,1,304.3,186a21.8,21.8,0,0,1-3.68,12,32.2,32.2,0,0,1-9.67,9.6v.6a29.92,29.92,0,0,1,12.45,10.58A26.48,26.48,0,0,1,307.75,233.53Zm-55.5-.75a16.81,16.81,0,0,0,1.57,7.35,18.17,18.17,0,0,0,4.35,5.78,19.73,19.73,0,0,0,6.53,3.82,25.88,25.88,0,0,0,16.5,0,19.69,19.69,0,0,0,6.52-3.82,18.17,18.17,0,0,0,4.35-5.78,16.82,16.82,0,0,0,1.58-7.35,16.21,16.21,0,0,0-6-12.9,21.54,21.54,0,0,0-14.7-5.25,22.1,22.1,0,0,0-14.85,5.25A16.66,16.66,0,0,0,252.25,232.78Zm3.45-47.1a15.08,15.08,0,0,0,4.8,11.63q4.8,4.42,12.45,4.42t12.45-4.42a15.08,15.08,0,0,0,4.8-11.63q0-7.2-4.8-11.4T273,170.08q-7.65,0-12.45,4.2T255.7,185.68Z" transform="translate(3.4 -5.8)" fill="#fff"/><path d="M-3.4,353.45V301.9H12.37q11.8,0,19,7.12t7.16,18.65q0,11.59-7.16,18.69t-19,7.09Zm6.62-45.22v38.88h9.15q9,0,14.18-5.15t5.18-14.29q0-9.07-5.18-14.25t-14.18-5.19Z" transform="translate(3.4 -5.8)" fill="#fff"/><path d="M50.38,353.45H43.76V318.17h6.33v5.76h.29a9.55,9.55,0,0,1,4.14-4.79,11.5,11.5,0,0,1,6.16-2,12.48,12.48,0,0,1,4.89.86l-2,6.41a11.15,11.15,0,0,0-3.89-.5,8.59,8.59,0,0,0-6.52,3A10.16,10.16,0,0,0,50.38,334Z" transform="translate(3.4 -5.8)" fill="#fff"/><path d="M83.57,354.6a16.88,16.88,0,0,1-12.81-5.33,18.81,18.81,0,0,1-5-13.46,19.18,19.18,0,0,1,4.89-13.43A16.2,16.2,0,0,1,83.14,317q7.85,0,12.49,5.07t4.65,14.22l-.07.72H72.49a11.44,11.44,0,0,0,3.45,8.35,11,11,0,0,0,7.92,3.17q6.33,0,9.94-6.34l5.9,2.89a17.59,17.59,0,0,1-6.59,7A18.18,18.18,0,0,1,83.57,354.6ZM73,331.56H93.22a8.75,8.75,0,0,0-3-6.08A10.44,10.44,0,0,0,83,323.06a9.6,9.6,0,0,0-6.45,2.31A11,11,0,0,0,73,331.56Z" transform="translate(3.4 -5.8)" fill="#fff"/><path d="M120.08,317q7.33,0,11.59,3.92t4.25,10.76v21.75h-6.34v-4.9h-.29q-4.09,6-10.94,6.05a14.21,14.21,0,0,1-9.76-3.46,11,11,0,0,1-3.92-8.64,10.5,10.5,0,0,1,4.14-8.71q4.14-3.24,11-3.24a19.54,19.54,0,0,1,9.72,2.16V331.2a7.54,7.54,0,0,0-2.74-5.87,9.36,9.36,0,0,0-6.4-2.41,10.16,10.16,0,0,0-8.79,4.68l-5.83-3.67Q110.65,317,120.08,317Zm-8.57,25.63A5.29,5.29,0,0,0,113.7,347a8.11,8.11,0,0,0,5.15,1.73,10.56,10.56,0,0,0,7.45-3.1,9.68,9.68,0,0,0,3.28-7.27q-3.09-2.44-8.64-2.45a11.25,11.25,0,0,0-6.73,1.94A5.79,5.79,0,0,0,111.51,342.65Z" transform="translate(3.4 -5.8)" fill="#fff"/><path d="M150,353.45H143.4V318.17h6.34v4.89H150a11.81,11.81,0,0,1,4.64-4.32,13,13,0,0,1,13.07.08,10.59,10.59,0,0,1,4.32,5A13.76,13.76,0,0,1,184.23,317q6.12,0,9.43,3.74T197,331.42v22h-6.62v-21q0-5-1.8-7.16c-1.2-1.46-3.22-2.2-6.05-2.2a7.92,7.92,0,0,0-6.41,3.24,11.85,11.85,0,0,0-2.59,7.64v19.51h-6.62v-21q0-5-1.8-7.16c-1.2-1.46-3.22-2.2-6.05-2.2a7.91,7.91,0,0,0-6.41,3.24,11.85,11.85,0,0,0-2.59,7.64Z" transform="translate(3.4 -5.8)" fill="#fff"/><path d="M220.88,354.6a17.44,17.44,0,0,1-13-5.33,19,19,0,0,1-5.11-13.46,18.67,18.67,0,0,1,5.11-13.47,17.44,17.44,0,0,1,13-5.32,16.12,16.12,0,0,1,15.48,10.15l-6.05,2.52q-2.81-6.63-9.87-6.63a10.25,10.25,0,0,0-7.85,3.68,14.35,14.35,0,0,0,0,18.14,10.24,10.24,0,0,0,7.85,3.67,10.38,10.38,0,0,0,10.23-6.62l5.9,2.52a15.75,15.75,0,0,1-6.08,7.45A17.21,17.21,0,0,1,220.88,354.6Z" transform="translate(3.4 -5.8)" fill="#fff"/><path d="M255.36,317q7.35,0,11.6,3.92t4.24,10.76v21.75h-6.33v-4.9h-.29q-4.11,6-10.95,6.05a14.19,14.19,0,0,1-9.75-3.46A11,11,0,0,1,240,342.5a10.49,10.49,0,0,1,4.13-8.71q4.14-3.24,11.06-3.24a19.59,19.59,0,0,1,9.72,2.16V331.2a7.57,7.57,0,0,0-2.74-5.87,9.37,9.37,0,0,0-6.41-2.41,10.15,10.15,0,0,0-8.78,4.68l-5.83-3.67Q245.93,317,255.36,317Zm-8.57,25.63A5.3,5.3,0,0,0,249,347a8.09,8.09,0,0,0,5.15,1.73,10.57,10.57,0,0,0,7.45-3.1,9.71,9.71,0,0,0,3.28-7.27q-3.11-2.44-8.64-2.45a11.23,11.23,0,0,0-6.73,1.94A5.78,5.78,0,0,0,246.79,342.65Z" transform="translate(3.4 -5.8)" fill="#fff"/><path d="M305.33,343.66a9.55,9.55,0,0,1-4,7.77,15.94,15.94,0,0,1-10.15,3.17,16.14,16.14,0,0,1-9.36-2.77,15.29,15.29,0,0,1-5.76-7.31l5.9-2.52a10.88,10.88,0,0,0,3.78,4.93,9.18,9.18,0,0,0,5.44,1.77,9.61,9.61,0,0,0,5.29-1.37,3.89,3.89,0,0,0,2.12-3.24c0-2.26-1.73-3.91-5.18-5l-6.05-1.51Q277,335,277,327.67a9.18,9.18,0,0,1,3.92-7.74,18,18,0,0,1,18.5-.68,12.11,12.11,0,0,1,5.29,6l-5.9,2.45a7.41,7.41,0,0,0-3.27-3.49,10.32,10.32,0,0,0-5.08-1.26,8.5,8.5,0,0,0-4.64,1.29,3.76,3.76,0,0,0-2.06,3.17q0,3,5.69,4.32l5.33,1.37Q305.33,335.67,305.33,343.66Z" transform="translate(3.4 -5.8)" fill="#fff"/><path d="M324.7,354a10,10,0,0,1-7.16-2.66,9.89,9.89,0,0,1-2.92-7.42V324.21h-6.19v-6h6.19v-10.8h6.62v10.8h8.64v6h-8.64v17.57c0,2.36.46,4,1.37,4.79a4.46,4.46,0,0,0,3.1,1.26,6.62,6.62,0,0,0,1.54-.18,7.29,7.29,0,0,0,1.41-.47l2.09,5.91A17.93,17.93,0,0,1,324.7,354Z" transform="translate(3.4 -5.8)" fill="#fff"/><path d="M120.51,44.75a13.41,13.41,0,0,1-5,10.87,19,19,0,0,1-12.24,4A18.11,18.11,0,0,1,92,55.91a19.15,19.15,0,0,1-6.77-10.23l6.33-2.59a17,17,0,0,0,1.8,4.18,13.64,13.64,0,0,0,2.7,3.2,12.33,12.33,0,0,0,3.42,2.09,10.57,10.57,0,0,0,4,.76A11.38,11.38,0,0,0,110.86,51a7.63,7.63,0,0,0,2.88-6.23,7.45,7.45,0,0,0-2.38-5.55Q109.14,37,103,34.88a81.78,81.78,0,0,1-7.7-3q-8.2-4.17-8.21-12.31a12.55,12.55,0,0,1,4.54-9.72,16.54,16.54,0,0,1,11.3-4,17.35,17.35,0,0,1,10.23,3,14.19,14.19,0,0,1,5.75,7.42l-6.19,2.59A9.09,9.09,0,0,0,109.31,14a11.06,11.06,0,0,0-12.78.25,6.32,6.32,0,0,0-2.66,5.26A6.09,6.09,0,0,0,96,24.16q2.3,1.93,10,4.6,7.86,2.67,11.2,6.52A13.93,13.93,0,0,1,120.51,44.75Z" transform="translate(3.4 -5.8)" fill="#fff"/><path d="M143.19,59.65a16.85,16.85,0,0,1-12.82-5.33,18.79,18.79,0,0,1-5-13.46,19.14,19.14,0,0,1,4.9-13.43,16.22,16.22,0,0,1,12.53-5.36q7.85,0,12.49,5.07t4.64,14.22l-.07.72H132.1a11.53,11.53,0,0,0,3.46,8.36,11,11,0,0,0,7.92,3.16q6.33,0,9.93-6.33l5.91,2.88a17.59,17.59,0,0,1-6.59,7A18.23,18.23,0,0,1,143.19,59.65Zm-10.59-23h20.24a8.81,8.81,0,0,0-3-6.08,10.45,10.45,0,0,0-7.24-2.41,9.58,9.58,0,0,0-6.44,2.3A11,11,0,0,0,132.6,36.61Z" transform="translate(3.4 -5.8)" fill="#fff"/><path d="M181.92,75.2a19.83,19.83,0,0,1-5.54-.75,17.92,17.92,0,0,1-4.72-2.13A15.27,15.27,0,0,1,168,69.08a13.74,13.74,0,0,1-2.31-4.17L172,62.32a9.91,9.91,0,0,0,3.74,5,10.5,10.5,0,0,0,6.19,1.88q5.4,0,8.43-3.24t3-8.93V53.6h-.29A13,13,0,0,1,188,58a15.22,15.22,0,0,1-6.95,1.62,15.59,15.59,0,0,1-11.88-5.4,19.54,19.54,0,0,1-4.9-13.39,19.29,19.29,0,0,1,4.9-13.32,15.49,15.49,0,0,1,11.88-5.47A15.22,15.22,0,0,1,188,23.69a13,13,0,0,1,5.07,4.43h.29v-4.9h6.34V57q0,8.49-4.83,13.32T181.92,75.2Zm.22-21.6a10.14,10.14,0,0,0,8-3.52,13.12,13.12,0,0,0,3.24-9.22,13.13,13.13,0,0,0-3.24-9.14,10.19,10.19,0,0,0-8-3.6,10.32,10.32,0,0,0-8,3.6,13.13,13.13,0,0,0-3.24,9.14A13,13,0,0,0,174.15,50,10.32,10.32,0,0,0,182.14,53.6Z" transform="translate(3.4 -5.8)" fill="#fff"/><path d="M220.8,22.07q7.35,0,11.6,3.92t4.24,10.77V58.5h-6.33V53.6H230q-4.11,6.06-10.94,6a14.24,14.24,0,0,1-9.76-3.45,11,11,0,0,1-3.92-8.64,10.47,10.47,0,0,1,4.14-8.72q4.13-3.24,11.05-3.24a19.59,19.59,0,0,1,9.72,2.16V36.25a7.57,7.57,0,0,0-2.74-5.87A9.41,9.41,0,0,0,221.16,28a10.15,10.15,0,0,0-8.78,4.68L206.55,29Q211.36,22.07,220.8,22.07ZM212.24,47.7A5.29,5.29,0,0,0,214.43,52a8.09,8.09,0,0,0,5.15,1.73,10.53,10.53,0,0,0,7.45-3.1,9.71,9.71,0,0,0,3.28-7.27q-3.1-2.45-8.64-2.45a11.19,11.19,0,0,0-6.73,2A5.74,5.74,0,0,0,212.24,47.7Z" transform="translate(3.4 -5.8)" fill="#fff"/></g></svg>