<svg xmlns="http://www.w3.org/2000/svg" viewBox="0 0 352.49 428.03"><title>fba</title><g id="Layer_3" data-name="Layer 3"><circle cx="176.55" cy="85.63" r="8.2" fill="#fff"/><line x1="34.05" y1="122.13" x2="319.05" y2="122.13" fill="none"/><rect x="34.05" y="119.13" width="285" height="6" fill="#fff"/><line x1="34.05" y1="378.63" x2="319.05" y2="378.63" fill="none"/><rect x="34.05" y="375.63" width="285" height="6" fill="#fff"/><circle cx="176.55" cy="419.83" r="8.2" fill="#fff"/></g><g id="TEXT_LAYER" data-name="TEXT LAYER"><path d="M20.83,36.4V58.5H14.2V7H44.3v6.33H20.83V30.2H42v6.2Z" transform="translate(14.75 -6.37)" fill="#fff"/><path d="M58.48,11.05a4.47,4.47,0,0,1-1.37,3.31,4.68,4.68,0,0,1-6.62,0,4.51,4.51,0,0,1-1.37-3.31,4.68,4.68,0,1,1,9.36,0ZM57.11,23.22V58.5H50.49V23.22Z" transform="translate(14.75 -6.37)" fill="#fff"/><path d="M65.75,23.22h6.34v4.9h.29A11.74,11.74,0,0,1,77,23.8a13.24,13.24,0,0,1,6.52-1.73q6.48,0,10,3.71T97,36.32V58.5H90.38V36.76q-.22-8.64-8.71-8.64A8.28,8.28,0,0,0,75,31.32,11.64,11.64,0,0,0,72.38,39V58.5H65.75Z" transform="translate(14.75 -6.37)" fill="#fff"/><path d="M117.81,22.07q7.35,0,11.59,3.92t4.25,10.77V58.5h-6.34V53.6H127q-4.11,6.06-11,6a14.21,14.21,0,0,1-9.75-3.45,11,11,0,0,1-3.93-8.64,10.5,10.5,0,0,1,4.14-8.72q4.14-3.24,11-3.24a19.54,19.54,0,0,1,9.72,2.16V36.25a7.56,7.56,0,0,0-2.73-5.87A9.43,9.43,0,0,0,118.17,28a10.14,10.14,0,0,0-8.78,4.68L103.55,29Q108.38,22.07,117.81,22.07ZM109.24,47.7a5.27,5.27,0,0,0,2.2,4.32,8.09,8.09,0,0,0,5.15,1.73,10.55,10.55,0,0,0,7.45-3.1,9.7,9.7,0,0,0,3.27-7.27q-3.09-2.45-8.64-2.45a11.19,11.19,0,0,0-6.73,2A5.76,5.76,0,0,0,109.24,47.7Z" transform="translate(14.75 -6.37)" fill="#fff"/><path d="M147.76,7V58.5h-6.62V7Z" transform="translate(14.75 -6.37)" fill="#fff"/><path d="M172.82,58.5V7h18.64A15,15,0,0,1,202,11a12.93,12.93,0,0,1,4.39,10,10.89,10.89,0,0,1-7,10.73V32a12.58,12.58,0,0,1,6.34,4.5,12,12,0,0,1,2.38,7.31,13.57,13.57,0,0,1-4.61,10.51,15.51,15.51,0,0,1-11,4.18Zm6.62-45.22V29.05h12a8.05,8.05,0,0,0,5.91-2.37,7.67,7.67,0,0,0,.07-11,7.63,7.63,0,0,0-5.69-2.38Zm0,22V52.16h13.32a8.48,8.48,0,0,0,8.57-8.49,8.09,8.09,0,0,0-2.52-5.91,8.59,8.59,0,0,0-6.34-2.52Z" transform="translate(14.75 -6.37)" fill="#fff"/><path d="M245.39,58.5h-6.34V53.6h-.28a11.77,11.77,0,0,1-4.65,4.32,13.2,13.2,0,0,1-6.51,1.73q-6.48,0-10-3.71T214.14,45.4V23.22h6.63V45q.21,8.64,8.71,8.64a8.25,8.25,0,0,0,6.62-3.2,11.6,11.6,0,0,0,2.67-7.67V23.22h6.62Z" transform="translate(14.75 -6.37)" fill="#fff"/><path d="M260.08,58.5h-6.62V23.22h6.33V29h.29a9.55,9.55,0,0,1,4.14-4.79,11.5,11.5,0,0,1,6.16-2,12.33,12.33,0,0,1,4.89.87l-2,6.4a11.08,11.08,0,0,0-3.88-.5,8.59,8.59,0,0,0-6.52,3,10.12,10.12,0,0,0-2.77,7.06Z" transform="translate(14.75 -6.37)" fill="#fff"/><path d="M279.59,23.22h6.34v4.9h.28a11.77,11.77,0,0,1,4.65-4.32,13.23,13.23,0,0,1,6.51-1.73q6.48,0,10,3.71t3.49,10.54V58.5h-6.63V36.76q-.21-8.64-8.71-8.64a8.25,8.25,0,0,0-6.62,3.2A11.6,11.6,0,0,0,286.21,39V58.5h-6.62Z" transform="translate(14.75 -6.37)" fill="#fff"/><path d="M50.65,248.68v13.2h-65.4v-13.8L11.8,221.23q13.35-13.64,18.45-20.47a23.57,23.57,0,0,0,5.1-14.33,15.12,15.12,0,0,0-5.25-11.55q-5.25-4.8-13.5-4.8a18.56,18.56,0,0,0-12.15,4.2,19,19,0,0,0-6.6,10.2l-12.6-5.1a32,32,0,0,1,11.55-16,32.19,32.19,0,0,1,20.1-6.53q14,0,23.25,8.55a27.42,27.42,0,0,1,9.3,21q0,14.85-16.35,32.1l-30,30.15Z" transform="translate(14.75 -6.37)" fill="#fff"/><path d="M63.85,210.58q0-23.4,11.55-38.55t29.7-15.15q18.15,0,29.7,15.3t11.55,38.4q0,23.1-11.55,38.55-11.55,15.17-29.7,15.15T75.4,249.13Q63.85,233.68,63.85,210.58Zm68.4,0q0-17.69-7.5-29.1t-19.65-11.4q-12.3,0-19.65,11.4T78,210.58q0,17.7,7.5,29.25,7.35,11.25,19.65,11.25t19.65-11.4Q132.25,228.13,132.25,210.58Z" transform="translate(14.75 -6.37)" fill="#fff"/><path d="M159.55,210.58q0-23.4,11.55-38.55t29.7-15.15q18.15,0,29.7,15.3t11.55,38.4q0,23.1-11.55,38.55Q219,264.3,200.8,264.28t-29.7-15.15Q159.55,233.68,159.55,210.58Zm68.4,0q0-17.69-7.5-29.1-7.35-11.39-19.65-11.4t-19.65,11.4q-7.5,11.4-7.5,29.1t7.5,29.25q7.35,11.25,19.65,11.25t19.65-11.4Q228,228.13,228,210.58Z" transform="translate(14.75 -6.37)" fill="#fff"/><path d="M255.25,210.58q0-23.4,11.55-38.55t29.7-15.15q18.15,0,29.7,15.3t11.55,38.4q0,23.1-11.55,38.55-11.55,15.17-29.7,15.15t-29.7-15.15Q255.25,233.68,255.25,210.58Zm68.4,0q0-17.69-7.5-29.1-7.35-11.39-19.65-11.4t-19.65,11.4q-7.5,11.4-7.5,29.1t7.5,29.25q7.35,11.25,19.65,11.25t19.65-11.4Q323.65,228.13,323.65,210.58Z" transform="translate(14.75 -6.37)" fill="#fff"/><path d="M37.28,327v22.1H30.65V297.55h30.1v6.33H37.28V320.8H58.45V327Z" transform="translate(14.75 -6.37)" fill="#fff"/><path d="M68.24,349.1V297.55H86.88a15,15,0,0,1,10.52,4,12.93,12.93,0,0,1,4.39,10,10.89,10.89,0,0,1-7,10.73v.28a12.58,12.58,0,0,1,6.34,4.5,12,12,0,0,1,2.38,7.31,13.57,13.57,0,0,1-4.61,10.51,15.51,15.51,0,0,1-11,4.18Zm6.62-45.22v15.77h12a8,8,0,0,0,5.91-2.37,7.67,7.67,0,0,0,.07-11,7.63,7.63,0,0,0-5.69-2.38Zm0,22v16.92H88.18a8.48,8.48,0,0,0,8.57-8.49,8.09,8.09,0,0,0-2.52-5.91,8.59,8.59,0,0,0-6.34-2.52Z" transform="translate(14.75 -6.37)" fill="#fff"/><path d="M127.71,349.1h-7.35l19.44-51.55h7.49l19.44,51.55h-7.34l-5-14H132.75Zm15.69-43.42L135,328.94h17.14l-8.43-23.26Z" transform="translate(14.75 -6.37)" fill="#fff"/><path d="M178.25,297.55V349.1h-6.62V297.55Z" transform="translate(14.75 -6.37)" fill="#fff"/><path d="M204.67,350.25a15.27,15.27,0,0,1-7.09-1.65,12.45,12.45,0,0,1-4.93-4.4h-.29l.29,4.9v15.55H186V313.82h6.33v4.9h.29a12.45,12.45,0,0,1,4.93-4.4,15.68,15.68,0,0,1,18.9,3.82,20.33,20.33,0,0,1,0,26.64A15.13,15.13,0,0,1,204.67,350.25Zm-1.08-6.05a10.34,10.34,0,0,0,8-3.6,13,13,0,0,0,3.24-9.14,13.13,13.13,0,0,0-3.24-9.14,10.76,10.76,0,0,0-16.06,0,13.33,13.33,0,0,0-3.17,9.14,13.47,13.47,0,0,0,3.17,9.22A10.5,10.5,0,0,0,203.59,344.2Z" transform="translate(14.75 -6.37)" fill="#fff"/><path d="M226.78,297.55h6.62v16.27l-.28,4.9h.28a11.77,11.77,0,0,1,4.65-4.32,13.2,13.2,0,0,1,6.51-1.73q6.48,0,10,3.71T258,326.92V349.1H251.4V328.22q0-9.51-8.42-9.5a8.53,8.53,0,0,0-6.81,3.34,12,12,0,0,0-2.77,7.82V349.1h-6.62Z" transform="translate(14.75 -6.37)" fill="#fff"/><path d="M278.83,312.67q7.35,0,11.6,3.92t4.24,10.77V349.1h-6.33v-4.9h-.29q-4.11,6.06-10.94,6.05a14.26,14.26,0,0,1-9.76-3.45,11,11,0,0,1-3.92-8.64,10.5,10.5,0,0,1,4.14-8.72q4.14-3.24,11.05-3.24a19.59,19.59,0,0,1,9.72,2.16v-1.51A7.54,7.54,0,0,0,285.6,321a9.41,9.41,0,0,0-6.4-2.41,10.16,10.16,0,0,0-8.79,4.68l-5.83-3.67Q269.4,312.67,278.83,312.67Zm-8.56,25.63a5.29,5.29,0,0,0,2.19,4.32,8.11,8.11,0,0,0,5.15,1.73,10.53,10.53,0,0,0,7.45-3.1,9.68,9.68,0,0,0,3.28-7.27q-3.1-2.44-8.64-2.45a11.19,11.19,0,0,0-6.73,2A5.76,5.76,0,0,0,270.27,338.3Z" transform="translate(14.75 -6.37)" fill="#fff"/></g></svg>