<svg xmlns="http://www.w3.org/2000/svg" viewBox="0 0 289.2 428.03"><title>fds</title><g id="Layer_3" data-name="Layer 3"><circle cx="144.6" cy="85.63" r="8.2" fill="#fff"/><line x1="2.1" y1="122.13" x2="287.1" y2="122.13" fill="none"/><rect x="2.1" y="119.13" width="285" height="6" fill="#fff"/><line x1="2.1" y1="378.63" x2="287.1" y2="378.63" fill="none"/><rect x="2.1" y="375.63" width="285" height="6" fill="#fff"/><circle cx="144.6" cy="419.83" r="8.2" fill="#fff"/></g><g id="NEW_TEXT" data-name="NEW TEXT"><path d="M56.2,159.28v102.6H42.4v-85.5l-19.95,8.7-5.25-11.7,30.15-14.1Z" transform="translate(-17.2 -6.37)" fill="#fff"/><path d="M106.9,224.38q-12.3,0-22.35-9.75a32.55,32.55,0,0,1-9.75-23.4q0-13.95,10.5-24,10.5-10.35,24.6-10.35a34.05,34.05,0,0,1,25,10.2,33,33,0,0,1,10.2,24.15q0,12.45-10.05,28.35l-29.85,44.7-11.1-7.65,25.35-35.1-.3-.3Q114.4,224.38,106.9,224.38Zm24.3-33.3a20,20,0,0,0-6.3-14.85,21.37,21.37,0,0,0-30,0,21,21,0,0,0,0,29.7,21.37,21.37,0,0,0,30,0A19.67,19.67,0,0,0,131.2,191.08Z" transform="translate(-17.2 -6.37)" fill="#fff"/><path d="M226.75,233.53a27.74,27.74,0,0,1-10.05,21.9q-10.2,8.85-24.75,8.85t-24.75-8.85a27.74,27.74,0,0,1-10-21.9,26.48,26.48,0,0,1,4.35-14.77A29.92,29.92,0,0,1,174,208.18v-.6a32.24,32.24,0,0,1-9.68-9.6,21.79,21.79,0,0,1-3.67-12,27.58,27.58,0,0,1,8.85-20.85q8.7-8.25,22.5-8.25t22.5,8.25A27.58,27.58,0,0,1,223.3,186a21.87,21.87,0,0,1-3.67,12,32.35,32.35,0,0,1-9.68,9.6v.6a29.92,29.92,0,0,1,12.45,10.58A26.48,26.48,0,0,1,226.75,233.53Zm-55.5-.75a16.81,16.81,0,0,0,1.57,7.35,18.31,18.31,0,0,0,4.35,5.78,19.73,19.73,0,0,0,6.53,3.82,25.88,25.88,0,0,0,16.5,0,19.69,19.69,0,0,0,6.52-3.82,18.17,18.17,0,0,0,4.35-5.78,16.68,16.68,0,0,0,1.58-7.35,16.21,16.21,0,0,0-6-12.9,21.54,21.54,0,0,0-14.7-5.25,22.1,22.1,0,0,0-14.85,5.25A16.66,16.66,0,0,0,171.25,232.78Zm3.45-47.1a15.08,15.08,0,0,0,4.8,11.63q4.8,4.42,12.45,4.42t12.45-4.42a15.08,15.08,0,0,0,4.8-11.63q0-7.2-4.8-11.4T192,170.08q-7.65,0-12.45,4.2T174.7,185.68Z" transform="translate(-17.2 -6.37)" fill="#fff"/><path d="M306.4,232.78a29,29,0,0,1-10,22.5q-9.9,9-24.6,9a34.14,34.14,0,0,1-20.85-6.9,35.07,35.07,0,0,1-12.75-18.75l12.6-5.25q2.4,8.55,7.87,13.13a19.81,19.81,0,0,0,13.13,4.57,21.69,21.69,0,0,0,14.55-5.25,16.93,16.93,0,0,0,6-13.05,16.18,16.18,0,0,0-6.3-12.9,22.1,22.1,0,0,0-14.85-5.25H262.3v-12.9h7.8q8.25,0,13.5-4.57a15.08,15.08,0,0,0,5.25-11.93,13.68,13.68,0,0,0-5-10.95q-4.95-4.2-13-4.2-13.05,0-17.85,13.35L240.25,178a31.73,31.73,0,0,1,30.6-21.15q13.65,0,22.95,8.1A25.36,25.36,0,0,1,303,185.23q0,14.85-13.8,22.05v.6a28.71,28.71,0,0,1,12.67,10.05A25.48,25.48,0,0,1,306.4,232.78Z" transform="translate(-17.2 -6.37)" fill="#fff"/><path d="M80.11,296.55v12.9H76.25V279.38H93.8v3.69H80.11v9.87H92.46v3.61Z" transform="translate(-17.2 -6.37)" fill="#fff"/><path d="M104.47,288.2a9.59,9.59,0,0,1,6.76,2.28,8.14,8.14,0,0,1,2.48,6.28v12.69H110v-2.86h-.16a7.39,7.39,0,0,1-6.39,3.53,8.27,8.27,0,0,1-5.69-2,6.45,6.45,0,0,1-2.29-5A6.13,6.13,0,0,1,97.9,298a10.17,10.17,0,0,1,6.44-1.89,11.39,11.39,0,0,1,5.67,1.26v-.88a4.39,4.39,0,0,0-1.59-3.42,5.48,5.48,0,0,0-3.74-1.41,5.91,5.91,0,0,0-5.12,2.73l-3.41-2.14A9.49,9.49,0,0,1,104.47,288.2Zm-5,14.95a3.09,3.09,0,0,0,1.28,2.52,4.75,4.75,0,0,0,3,1,6.15,6.15,0,0,0,4.34-1.8,5.63,5.63,0,0,0,1.91-4.24,7.93,7.93,0,0,0-5-1.43,6.58,6.58,0,0,0-3.92,1.13A3.39,3.39,0,0,0,99.47,303.15Z" transform="translate(-17.2 -6.37)" fill="#fff"/><path d="M121.94,309.45h-3.86V288.87h3.69v2.85h.17a6.92,6.92,0,0,1,2.71-2.52,7.59,7.59,0,0,1,7.62.05,6.16,6.16,0,0,1,2.52,2.89,8,8,0,0,1,7.1-3.94,6.93,6.93,0,0,1,5.5,2.18,9.09,9.09,0,0,1,1.94,6.22v12.85h-3.87V297.18a6.62,6.62,0,0,0-1.05-4.18,4.33,4.33,0,0,0-3.53-1.28,4.6,4.6,0,0,0-3.73,1.89,6.93,6.93,0,0,0-1.52,4.46v11.38h-3.86V297.18a6.62,6.62,0,0,0-1.05-4.18,4.34,4.34,0,0,0-3.53-1.28,4.63,4.63,0,0,0-3.74,1.89,7,7,0,0,0-1.51,4.46Z" transform="translate(-17.2 -6.37)" fill="#fff"/><path d="M158.86,281.77a2.73,2.73,0,1,1-.8-1.93A2.63,2.63,0,0,1,158.86,281.77Zm-.8,7.1v20.58H154.2V288.87Z" transform="translate(-17.2 -6.37)" fill="#fff"/><path d="M172.3,310.12a10.16,10.16,0,0,1-7.6-3.11,11.05,11.05,0,0,1-3-7.85,10.9,10.9,0,0,1,3-7.86,10.15,10.15,0,0,1,7.6-3.1,9.41,9.41,0,0,1,9,5.92l-3.53,1.47a5.8,5.8,0,0,0-5.75-3.87,6,6,0,0,0-4.58,2.15,8.35,8.35,0,0,0,0,10.58,6,6,0,0,0,4.58,2.14,6,6,0,0,0,6-3.86l3.45,1.47a9.26,9.26,0,0,1-3.55,4.34A10,10,0,0,1,172.3,310.12Z" transform="translate(-17.2 -6.37)" fill="#fff"/><path d="M183.43,299.16a10.9,10.9,0,0,1,3-7.86,10.17,10.17,0,0,1,7.6-3.1,10,10,0,0,1,7.56,3.1,10.81,10.81,0,0,1,3,7.86,10.69,10.69,0,0,1-3,7.85,10,10,0,0,1-7.56,3.11,10.18,10.18,0,0,1-7.6-3.11A10.87,10.87,0,0,1,183.43,299.16Zm3.86,0a7.52,7.52,0,0,0,1.94,5.37,6.59,6.59,0,0,0,9.57,0,8.39,8.39,0,0,0,0-10.71,6.5,6.5,0,0,0-9.57,0A7.49,7.49,0,0,0,187.29,299.16Z" transform="translate(-17.2 -6.37)" fill="#fff"/><path d="M211.57,309.45h-3.86V288.87h3.69v2.85h.17a6.92,6.92,0,0,1,2.71-2.52,7.59,7.59,0,0,1,7.62.05,6.16,6.16,0,0,1,2.52,2.89,8,8,0,0,1,7.1-3.94,6.94,6.94,0,0,1,5.5,2.18A9.09,9.09,0,0,1,239,296.6v12.85h-3.86V297.18A6.62,6.62,0,0,0,234,293a4.34,4.34,0,0,0-3.53-1.28,4.63,4.63,0,0,0-3.74,1.89,7,7,0,0,0-1.51,4.46v11.38H221.4V297.18a6.62,6.62,0,0,0-1.05-4.18,4.34,4.34,0,0,0-3.53-1.28,4.63,4.63,0,0,0-3.74,1.89,6.92,6.92,0,0,0-1.51,4.46Z" transform="translate(-17.2 -6.37)" fill="#fff"/><path d="M54.64,359.85V329.78h9.2q6.89,0,11.06,4.15a16.28,16.28,0,0,1,0,21.78q-4.17,4.14-11.06,4.14Zm3.86-26.38v22.68h5.34a11.23,11.23,0,0,0,8.27-3c2-2,3-4.78,3-8.34s-1-6.3-3-8.31a11.16,11.16,0,0,0-8.27-3Z" transform="translate(-17.2 -6.37)" fill="#fff"/><path d="M88,332.17a2.73,2.73,0,0,1-2.73,2.73,2.67,2.67,0,0,1-1.94-.8,2.75,2.75,0,0,1,0-3.86,2.74,2.74,0,0,1,3.87,0A2.63,2.63,0,0,1,88,332.17Zm-.8,7.1v20.58H83.32V339.27Z" transform="translate(-17.2 -6.37)" fill="#fff"/><path d="M108,354.14a5.59,5.59,0,0,1-2.35,4.53,10.23,10.23,0,0,1-11.39.23,9,9,0,0,1-3.36-4.26l3.45-1.47a6.44,6.44,0,0,0,2.2,2.88,5.43,5.43,0,0,0,3.17,1,5.61,5.61,0,0,0,3.09-.8,2.25,2.25,0,0,0,1.24-1.89c0-1.32-1-2.28-3-2.9l-3.53-.88q-6-1.51-6-5.8a5.34,5.34,0,0,1,2.29-4.51,10.52,10.52,0,0,1,10.8-.4,7.14,7.14,0,0,1,3.08,3.48l-3.44,1.43a4.33,4.33,0,0,0-1.91-2,6.12,6.12,0,0,0-3-.73,4.92,4.92,0,0,0-2.71.76,2.17,2.17,0,0,0-1.2,1.84c0,1.18,1.11,2,3.32,2.52l3.11.8Q108,349.48,108,354.14Z" transform="translate(-17.2 -6.37)" fill="#fff"/><path d="M129.44,359.85h-4.66l-6.43-9.7-3.15,3.1v6.6h-3.86V329.78h3.86V348.3l8.91-9h5v.17l-8,8,8.4,12.26Z" transform="translate(-17.2 -6.37)" fill="#fff"/><path d="M158.84,351.83a7.83,7.83,0,0,1-2.9,6.34,11.06,11.06,0,0,1-7.14,2.35,10.57,10.57,0,0,1-6.59-2.18,11.17,11.17,0,0,1-4-6l3.69-1.51A10.15,10.15,0,0,0,143,353.3a8.24,8.24,0,0,0,1.58,1.87,7.27,7.27,0,0,0,2,1.21,6,6,0,0,0,2.31.44,6.64,6.64,0,0,0,4.33-1.36,4.44,4.44,0,0,0,1.68-3.63,4.34,4.34,0,0,0-1.39-3.24,13,13,0,0,0-4.87-2.52c-2.41-.87-3.9-1.45-4.49-1.76q-4.78-2.44-4.79-7.18a7.29,7.29,0,0,1,2.65-5.67,9.65,9.65,0,0,1,6.59-2.36,10.09,10.09,0,0,1,6,1.77,8.28,8.28,0,0,1,3.36,4.32l-3.61,1.52a5.37,5.37,0,0,0-2-2.8,5.94,5.94,0,0,0-3.64-1.11,5.88,5.88,0,0,0-3.82,1.26,3.68,3.68,0,0,0-1.55,3.07,3.51,3.51,0,0,0,1.22,2.68,20.58,20.58,0,0,0,5.83,2.69c3.06,1,5.23,2.3,6.54,3.8A8.14,8.14,0,0,1,158.84,351.83Z" transform="translate(-17.2 -6.37)" fill="#fff"/><path d="M180.38,339.27l-12.89,29.65h-4l4.79-10.37-8.49-19.28H164l6.14,14.78h.08l6-14.78Z" transform="translate(-17.2 -6.37)" fill="#fff"/><path d="M198.23,354.14a5.56,5.56,0,0,1-2.35,4.53,9.3,9.3,0,0,1-5.92,1.85,9.4,9.4,0,0,1-5.46-1.62,8.87,8.87,0,0,1-3.36-4.26l3.44-1.47a6.46,6.46,0,0,0,2.21,2.88,5.4,5.4,0,0,0,3.17,1,5.63,5.63,0,0,0,3.09-.8,2.27,2.27,0,0,0,1.24-1.89c0-1.32-1-2.28-3-2.9l-3.53-.88q-6-1.51-6-5.8A5.34,5.34,0,0,1,184,340.3a10.5,10.5,0,0,1,10.79-.4,7.11,7.11,0,0,1,3.09,3.48l-3.45,1.43a4.28,4.28,0,0,0-1.91-2,6.09,6.09,0,0,0-3-.73,4.92,4.92,0,0,0-2.71.76,2.18,2.18,0,0,0-1.19,1.84c0,1.18,1.1,2,3.31,2.52l3.11.8Q198.24,349.48,198.23,354.14Z" transform="translate(-17.2 -6.37)" fill="#fff"/><path d="M209.53,360.18a5.58,5.58,0,0,1-5.88-5.88V342.8H200v-3.53h3.61V333h3.87v6.3h5v3.53h-5V353a3.78,3.78,0,0,0,.79,2.8,2.62,2.62,0,0,0,1.81.73,3.82,3.82,0,0,0,.9-.1,4,4,0,0,0,.82-.28l1.22,3.45A10.48,10.48,0,0,1,209.53,360.18Z" transform="translate(-17.2 -6.37)" fill="#fff"/><path d="M225.28,360.52a9.85,9.85,0,0,1-7.47-3.11,11,11,0,0,1-2.94-7.85,11.21,11.21,0,0,1,2.85-7.84,10.29,10.29,0,0,1,14.6-.16c1.8,2,2.71,4.74,2.71,8.29l-.05.42H218.81a6.7,6.7,0,0,0,2,4.87,6.43,6.43,0,0,0,4.62,1.85c2.46,0,4.4-1.23,5.8-3.69l3.44,1.68a10.31,10.31,0,0,1-3.84,4.07A10.66,10.66,0,0,1,225.28,360.52Zm-6.17-13.44h11.8a5.12,5.12,0,0,0-1.74-3.55,6.1,6.1,0,0,0-4.22-1.41,5.58,5.58,0,0,0-3.76,1.35A6.37,6.37,0,0,0,219.11,347.08Z" transform="translate(-17.2 -6.37)" fill="#fff"/><path d="M242.42,359.85h-3.87V339.27h3.7v2.85h.17a7,7,0,0,1,2.71-2.52,7.59,7.59,0,0,1,7.62,0,6.16,6.16,0,0,1,2.52,2.89,8,8,0,0,1,7.1-3.94,6.94,6.94,0,0,1,5.5,2.18A9.09,9.09,0,0,1,269.8,347v12.85h-3.86V347.58a6.62,6.62,0,0,0-1.05-4.18,4.34,4.34,0,0,0-3.53-1.28,4.63,4.63,0,0,0-3.74,1.89,6.92,6.92,0,0,0-1.51,4.46v11.38h-3.86V347.58a6.69,6.69,0,0,0-1.05-4.18,4.34,4.34,0,0,0-3.53-1.28,4.61,4.61,0,0,0-3.74,1.89,6.92,6.92,0,0,0-1.51,4.46Z" transform="translate(-17.2 -6.37)" fill="#fff"/><path d="M29.93,58.5H23.31V7h8.06l25.06,40.1h.29l-.29-9.93V7h6.62V58.5H56.14l-26.21-42h-.28l.28,9.94Z" transform="translate(-17.2 -6.37)" fill="#fff"/><path d="M80.84,11.05a4.51,4.51,0,0,1-1.37,3.31,4.68,4.68,0,0,1-8-3.31,4.68,4.68,0,1,1,9.36,0ZM79.47,23.22V58.5H72.85V23.22Z" transform="translate(-17.2 -6.37)" fill="#fff"/><path d="M88.11,23.22h6.33v4.9h.29a11.77,11.77,0,0,1,4.65-4.32,13.2,13.2,0,0,1,6.51-1.73q6.48,0,10,3.71t3.5,10.54V58.5h-6.63V36.76q-.21-8.64-8.71-8.64a8.25,8.25,0,0,0-6.62,3.2A11.6,11.6,0,0,0,94.73,39V58.5H88.11Z" transform="translate(-17.2 -6.37)" fill="#fff"/><path d="M139.3,59.08a10,10,0,0,1-7.16-2.67A9.87,9.87,0,0,1,129.22,49V29.27H123V23.22h6.19V12.42h6.62v10.8h8.64v6.05h-8.64V46.84q0,3.52,1.37,4.78a4.46,4.46,0,0,0,3.1,1.26,6.7,6.7,0,0,0,1.55-.18,8.21,8.21,0,0,0,1.4-.46l2.09,5.9A17.92,17.92,0,0,1,139.3,59.08Z" transform="translate(-17.2 -6.37)" fill="#fff"/><path d="M166.3,59.65a16.86,16.86,0,0,1-12.82-5.33,18.81,18.81,0,0,1-5-13.46,19.19,19.19,0,0,1,4.9-13.43,16.22,16.22,0,0,1,12.53-5.36q7.84,0,12.49,5.07T183,41.36l-.07.72H155.21a11.53,11.53,0,0,0,3.46,8.36,11.06,11.06,0,0,0,7.92,3.16q6.33,0,9.93-6.33l5.91,2.88a17.66,17.66,0,0,1-6.59,7A18.23,18.23,0,0,1,166.3,59.65Zm-10.58-23H176a8.77,8.77,0,0,0-3-6.08,10.45,10.45,0,0,0-7.24-2.41,9.58,9.58,0,0,0-6.44,2.3A11,11,0,0,0,155.72,36.61Z" transform="translate(-17.2 -6.37)" fill="#fff"/><path d="M189.05,23.22h6.34v4.9h.29a11.67,11.67,0,0,1,4.64-4.32,13.24,13.24,0,0,1,6.52-1.73q6.48,0,10,3.71t3.49,10.54V58.5h-6.62V36.76q-.23-8.64-8.72-8.64a8.26,8.26,0,0,0-6.62,3.2A11.59,11.59,0,0,0,195.68,39V58.5h-6.63Z" transform="translate(-17.2 -6.37)" fill="#fff"/><path d="M242.83,59.65A15.49,15.49,0,0,1,231,54.18a19.42,19.42,0,0,1-4.9-13.32A19.42,19.42,0,0,1,231,27.54a15.49,15.49,0,0,1,11.87-5.47,15.28,15.28,0,0,1,7.1,1.65,12.45,12.45,0,0,1,4.93,4.4h.29l-.29-4.9V7h6.62V58.5h-6.33V53.6h-.29a12.45,12.45,0,0,1-4.93,4.4A15.28,15.28,0,0,1,242.83,59.65Zm1.09-6a10.15,10.15,0,0,0,8-3.52,13.12,13.12,0,0,0,3.24-9.22,13.13,13.13,0,0,0-3.24-9.14,10.21,10.21,0,0,0-8-3.6,10.34,10.34,0,0,0-8,3.6,13.13,13.13,0,0,0-3.24,9.14A13,13,0,0,0,235.92,50,10.34,10.34,0,0,0,243.92,53.6Z" transform="translate(-17.2 -6.37)" fill="#fff"/><path d="M267.17,40.86a18.65,18.65,0,0,1,5.11-13.46,17.41,17.41,0,0,1,13-5.33,17.17,17.17,0,0,1,13,5.33,18.54,18.54,0,0,1,5.18,13.46,18.37,18.37,0,0,1-5.18,13.46,17.17,17.17,0,0,1-13,5.33,17.41,17.41,0,0,1-13-5.33A18.65,18.65,0,0,1,267.17,40.86Zm6.62,0a12.94,12.94,0,0,0,3.32,9.22,11.32,11.32,0,0,0,16.41,0,12.94,12.94,0,0,0,3.31-9.22,12.8,12.8,0,0,0-3.31-9.14,11.15,11.15,0,0,0-16.41,0A12.81,12.81,0,0,0,273.79,40.86Z" transform="translate(-17.2 -6.37)" fill="#fff"/></g></svg>