<svg xmlns="http://www.w3.org/2000/svg" viewBox="0 0 323.64 428.03"><title>gb</title><g id="Layer_3" data-name="Layer 3"><circle cx="160.63" cy="85.63" r="8.2" fill="#fff"/><line x1="18.13" y1="122.13" x2="303.13" y2="122.13" fill="none"/><rect x="18.13" y="119.13" width="285" height="6" fill="#fff"/><line x1="18.13" y1="378.63" x2="303.13" y2="378.63" fill="none"/><rect x="18.13" y="375.63" width="285" height="6" fill="#fff"/><circle cx="160.63" cy="419.83" r="8.2" fill="#fff"/></g><g id="NEW_TEXT" data-name="NEW TEXT"><path d="M54.85,159.28v102.6H41.05v-85.5l-19.95,8.7-5.25-11.7L46,159.28Z" transform="translate(-1.17 -6.37)" fill="#fff"/><path d="M105.55,224.38q-12.3,0-22.35-9.75a32.55,32.55,0,0,1-9.75-23.4q0-13.95,10.5-24,10.5-10.35,24.6-10.35a34.05,34.05,0,0,1,25,10.2,33,33,0,0,1,10.2,24.15q0,12.45-10.05,28.35l-29.85,44.7-11.1-7.65,25.35-35.1-.3-.3Q113.05,224.38,105.55,224.38Zm24.3-33.3a20,20,0,0,0-6.3-14.85,21.37,21.37,0,0,0-30,0,21,21,0,0,0,0,29.7,21.37,21.37,0,0,0,30,0A19.67,19.67,0,0,0,129.85,191.08Z" transform="translate(-1.17 -6.37)" fill="#fff"/><path d="M225.4,233.53a27.74,27.74,0,0,1-10.05,21.9q-10.2,8.85-24.75,8.85t-24.75-8.85a27.74,27.74,0,0,1-10-21.9,26.48,26.48,0,0,1,4.35-14.77,29.92,29.92,0,0,1,12.45-10.58v-.6a32.24,32.24,0,0,1-9.68-9.6,21.79,21.79,0,0,1-3.67-12,27.58,27.58,0,0,1,8.85-20.85q8.7-8.25,22.5-8.25t22.5,8.25A27.58,27.58,0,0,1,222,186a21.8,21.8,0,0,1-3.68,12,32.2,32.2,0,0,1-9.67,9.6v.6a29.92,29.92,0,0,1,12.45,10.58A26.48,26.48,0,0,1,225.4,233.53Zm-55.5-.75a16.81,16.81,0,0,0,1.57,7.35,18.17,18.17,0,0,0,4.35,5.78,19.73,19.73,0,0,0,6.53,3.82,25.88,25.88,0,0,0,16.5,0,19.83,19.83,0,0,0,6.53-3.82,18.28,18.28,0,0,0,4.34-5.78,16.82,16.82,0,0,0,1.58-7.35,16.21,16.21,0,0,0-6-12.9,21.54,21.54,0,0,0-14.7-5.25,22.1,22.1,0,0,0-14.85,5.25A16.66,16.66,0,0,0,169.9,232.78Zm3.45-47.1a15.08,15.08,0,0,0,4.8,11.63q4.8,4.42,12.45,4.42t12.45-4.42a15.08,15.08,0,0,0,4.8-11.63q0-7.2-4.8-11.4t-12.45-4.2q-7.65,0-12.45,4.2T173.35,185.68Z" transform="translate(-1.17 -6.37)" fill="#fff"/><path d="M269.5,224.38q-12.3,0-22.35-9.75a32.55,32.55,0,0,1-9.75-23.4q0-13.95,10.5-24,10.5-10.35,24.6-10.35a34.05,34.05,0,0,1,25.05,10.2,33,33,0,0,1,10.2,24.15q0,12.45-10.05,28.35l-29.85,44.7-11.1-7.65,25.35-35.1-.3-.3Q277,224.38,269.5,224.38Zm24.3-33.3a20,20,0,0,0-6.3-14.85,21.11,21.11,0,1,0-30,29.7,21.37,21.37,0,0,0,30,0A19.67,19.67,0,0,0,293.8,191.08Z" transform="translate(-1.17 -6.37)" fill="#fff"/><path d="M53.3,329.76q0,10.8-6.41,17.21-7.2,7.63-18.94,7.63a25.82,25.82,0,0,1-19-7.78,27.46,27.46,0,0,1,0-38.3,25.82,25.82,0,0,1,19-7.78,28.68,28.68,0,0,1,10.73,2A21.39,21.39,0,0,1,47,308.45l-4.75,4.75a16,16,0,0,0-6.16-4.5,20.34,20.34,0,0,0-8.1-1.62,19.38,19.38,0,0,0-14.25,5.83,21.79,21.79,0,0,0,0,29.52A19.38,19.38,0,0,0,28,348.26a19.18,19.18,0,0,0,12.82-4.32,17.17,17.17,0,0,0,5.9-11.88H28v-6.19h25A22.17,22.17,0,0,1,53.3,329.76Z" transform="translate(-1.17 -6.37)" fill="#fff"/><path d="M72.52,317q7.35,0,11.59,3.92t4.25,10.76v21.75H82v-4.9h-.29q-4.11,6-10.95,6.05A14.19,14.19,0,0,1,61,351.14a11,11,0,0,1-3.93-8.64,10.5,10.5,0,0,1,4.14-8.71q4.14-3.24,11.06-3.24A19.59,19.59,0,0,1,82,332.71V331.2a7.57,7.57,0,0,0-2.74-5.87,9.38,9.38,0,0,0-6.41-2.41,10.15,10.15,0,0,0-8.78,4.68l-5.83-3.67Q63.08,317,72.52,317ZM64,342.65a5.3,5.3,0,0,0,2.2,4.32,8.09,8.09,0,0,0,5.15,1.73,10.59,10.59,0,0,0,7.45-3.1A9.71,9.71,0,0,0,82,338.33q-3.11-2.44-8.64-2.45a11.28,11.28,0,0,0-6.74,1.94A5.79,5.79,0,0,0,64,342.65Z" transform="translate(-1.17 -6.37)" fill="#fff"/><path d="M102.47,353.45H95.85V318.17h6.34v4.89h.28a11.84,11.84,0,0,1,4.65-4.32,13,13,0,0,1,13.07.08,10.62,10.62,0,0,1,4.31,5A13.77,13.77,0,0,1,136.67,317q6.12,0,9.43,3.74t3.32,10.66v22h-6.63v-21q0-5-1.8-7.16c-1.2-1.46-3.21-2.2-6.05-2.2a7.91,7.91,0,0,0-6.4,3.24,11.86,11.86,0,0,0-2.6,7.64v19.51h-6.62v-21q0-5-1.8-7.16c-1.2-1.46-3.22-2.2-6-2.2a7.92,7.92,0,0,0-6.41,3.24,11.91,11.91,0,0,0-2.59,7.64Z" transform="translate(-1.17 -6.37)" fill="#fff"/><path d="M173,354.6a16.88,16.88,0,0,1-12.81-5.33,18.81,18.81,0,0,1-5-13.46,19.18,19.18,0,0,1,4.89-13.43A16.2,16.2,0,0,1,172.6,317q7.85,0,12.49,5.07t4.65,14.22l-.08.72H161.94a11.49,11.49,0,0,0,3.46,8.35,11,11,0,0,0,7.92,3.17q6.33,0,9.94-6.34l5.9,2.89a17.59,17.59,0,0,1-6.59,7A18.23,18.23,0,0,1,173,354.6Zm-10.58-23h20.23a8.75,8.75,0,0,0-3-6.08,10.44,10.44,0,0,0-7.23-2.42,9.6,9.6,0,0,0-6.45,2.31A11,11,0,0,0,162.45,331.56Z" transform="translate(-1.17 -6.37)" fill="#fff"/><path d="M212.78,353.45V301.9h18.64a15,15,0,0,1,10.52,4,12.91,12.91,0,0,1,4.39,10,10.87,10.87,0,0,1-7,10.72V327a12.63,12.63,0,0,1,6.34,4.5,12,12,0,0,1,2.37,7.31,13.58,13.58,0,0,1-4.6,10.51,15.51,15.51,0,0,1-11,4.18Zm6.62-45.22V324h12a8,8,0,0,0,5.91-2.38,7.66,7.66,0,0,0,.07-11,7.59,7.59,0,0,0-5.69-2.38Zm0,22v16.92h13.32a8.48,8.48,0,0,0,8.57-8.49,8.09,8.09,0,0,0-2.52-5.91,8.61,8.61,0,0,0-6.34-2.52Z" transform="translate(-1.17 -6.37)" fill="#fff"/><path d="M252.38,335.81a18.67,18.67,0,0,1,5.11-13.47,17.41,17.41,0,0,1,13-5.32,17.2,17.2,0,0,1,13,5.32,20.09,20.09,0,0,1,0,26.93,17.21,17.21,0,0,1-13,5.33,17.42,17.42,0,0,1-13-5.33A18.65,18.65,0,0,1,252.38,335.81Zm6.62,0a12.89,12.89,0,0,0,3.31,9.21,11.31,11.31,0,0,0,16.42,0,14.38,14.38,0,0,0,0-18.36,11.16,11.16,0,0,0-16.42,0A12.83,12.83,0,0,0,259,335.81Z" transform="translate(-1.17 -6.37)" fill="#fff"/><path d="M324.81,318.17,302.7,369h-6.84l8.21-17.79-14.54-33h7.2l10.51,25.34h.14l10.23-25.34Z" transform="translate(-1.17 -6.37)" fill="#fff"/><path d="M29.93,58.5H23.31V7h8.06l25.06,40.1h.29l-.29-9.93V7h6.62V58.5H56.14l-26.21-42h-.28l.28,9.94Z" transform="translate(-1.17 -6.37)" fill="#fff"/><path d="M80.84,11.05a4.51,4.51,0,0,1-1.37,3.31,4.68,4.68,0,0,1-8-3.31,4.68,4.68,0,1,1,9.36,0ZM79.47,23.22V58.5H72.85V23.22Z" transform="translate(-1.17 -6.37)" fill="#fff"/><path d="M88.11,23.22h6.33v4.9h.29a11.77,11.77,0,0,1,4.65-4.32,13.2,13.2,0,0,1,6.51-1.73q6.48,0,10,3.71t3.5,10.54V58.5h-6.63V36.76q-.21-8.64-8.71-8.64a8.25,8.25,0,0,0-6.62,3.2A11.6,11.6,0,0,0,94.73,39V58.5H88.11Z" transform="translate(-1.17 -6.37)" fill="#fff"/><path d="M139.3,59.08a10,10,0,0,1-7.16-2.67A9.87,9.87,0,0,1,129.22,49V29.27H123V23.22h6.19V12.42h6.62v10.8h8.64v6.05h-8.64V46.84q0,3.52,1.37,4.78a4.46,4.46,0,0,0,3.1,1.26,6.7,6.7,0,0,0,1.55-.18,8.21,8.21,0,0,0,1.4-.46l2.09,5.9A17.92,17.92,0,0,1,139.3,59.08Z" transform="translate(-1.17 -6.37)" fill="#fff"/><path d="M166.3,59.65a16.86,16.86,0,0,1-12.82-5.33,18.81,18.81,0,0,1-5-13.46,19.19,19.19,0,0,1,4.9-13.43,16.22,16.22,0,0,1,12.53-5.36q7.84,0,12.49,5.07T183,41.36l-.07.72H155.21a11.53,11.53,0,0,0,3.46,8.36,11.06,11.06,0,0,0,7.92,3.16q6.33,0,9.93-6.33l5.91,2.88a17.66,17.66,0,0,1-6.59,7A18.23,18.23,0,0,1,166.3,59.65Zm-10.58-23H176a8.77,8.77,0,0,0-3-6.08,10.45,10.45,0,0,0-7.24-2.41,9.58,9.58,0,0,0-6.44,2.3A11,11,0,0,0,155.72,36.61Z" transform="translate(-1.17 -6.37)" fill="#fff"/><path d="M189.05,23.22h6.34v4.9h.29a11.67,11.67,0,0,1,4.64-4.32,13.24,13.24,0,0,1,6.52-1.73q6.48,0,10,3.71t3.49,10.54V58.5h-6.62V36.76q-.23-8.64-8.72-8.64a8.26,8.26,0,0,0-6.62,3.2A11.59,11.59,0,0,0,195.68,39V58.5h-6.63Z" transform="translate(-1.17 -6.37)" fill="#fff"/><path d="M242.83,59.65A15.49,15.49,0,0,1,231,54.18a19.42,19.42,0,0,1-4.9-13.32A19.42,19.42,0,0,1,231,27.54a15.49,15.49,0,0,1,11.87-5.47,15.28,15.28,0,0,1,7.1,1.65,12.45,12.45,0,0,1,4.93,4.4h.29l-.29-4.9V7h6.62V58.5h-6.33V53.6h-.29a12.45,12.45,0,0,1-4.93,4.4A15.28,15.28,0,0,1,242.83,59.65Zm1.09-6a10.15,10.15,0,0,0,8-3.52,13.12,13.12,0,0,0,3.24-9.22,13.13,13.13,0,0,0-3.24-9.14,10.21,10.21,0,0,0-8-3.6,10.34,10.34,0,0,0-8,3.6,13.13,13.13,0,0,0-3.24,9.14A13,13,0,0,0,235.92,50,10.34,10.34,0,0,0,243.92,53.6Z" transform="translate(-1.17 -6.37)" fill="#fff"/><path d="M267.17,40.86a18.65,18.65,0,0,1,5.11-13.46,17.41,17.41,0,0,1,13-5.33,17.17,17.17,0,0,1,13,5.33,18.54,18.54,0,0,1,5.18,13.46,18.37,18.37,0,0,1-5.18,13.46,17.17,17.17,0,0,1-13,5.33,17.41,17.41,0,0,1-13-5.33A18.65,18.65,0,0,1,267.17,40.86Zm6.62,0a12.94,12.94,0,0,0,3.32,9.22,11.32,11.32,0,0,0,16.41,0,12.94,12.94,0,0,0,3.31-9.22,12.8,12.8,0,0,0-3.31-9.14,11.15,11.15,0,0,0-16.41,0A12.81,12.81,0,0,0,273.79,40.86Z" transform="translate(-1.17 -6.37)" fill="#fff"/></g></svg>