<svg xmlns="http://www.w3.org/2000/svg" viewBox="0 0 306.89 428.03"><title>gba</title><g id="Layer_3" data-name="Layer 3"><circle cx="156.75" cy="85.63" r="8.2" fill="#fff"/><line x1="14.25" y1="122.13" x2="299.25" y2="122.13" fill="none"/><rect x="14.25" y="119.13" width="285" height="6" fill="#fff"/><line x1="14.25" y1="378.63" x2="299.25" y2="378.63" fill="none"/><rect x="14.25" y="375.63" width="285" height="6" fill="#fff"/><circle cx="156.75" cy="419.83" r="8.2" fill="#fff"/></g><g id="NEW_TEXT" data-name="NEW TEXT"><path d="M70.45,248.68v13.2H5.05v-13.8L31.6,221.23Q45,207.58,50.05,200.76a23.57,23.57,0,0,0,5.1-14.33,15.1,15.1,0,0,0-5.25-11.55q-5.25-4.8-13.5-4.8a18.51,18.51,0,0,0-12.15,4.2,18.94,18.94,0,0,0-6.6,10.2l-12.6-5.1a32,32,0,0,1,11.55-16,32.19,32.19,0,0,1,20.1-6.53q13.95,0,23.25,8.55a27.42,27.42,0,0,1,9.3,21q0,14.85-16.35,32.1l-30,30.15Z" transform="translate(-5.05 -6.37)" fill="#fff"/><path d="M83.65,210.58q0-23.4,11.55-38.55t29.7-15.15q18.15,0,29.7,15.3,11.55,15.15,11.55,38.4,0,23.1-11.55,38.55-11.55,15.17-29.7,15.15T95.2,249.13Q83.65,233.68,83.65,210.58Zm68.4,0q0-17.7-7.5-29.1t-19.65-11.4q-12.3,0-19.65,11.4-7.5,11.4-7.5,29.1t7.5,29.25q7.35,11.25,19.65,11.25t19.65-11.4Q152.05,228.13,152.05,210.58Z" transform="translate(-5.05 -6.37)" fill="#fff"/><path d="M179.35,210.58q0-23.4,11.55-38.55t29.7-15.15q18.15,0,29.7,15.3,11.55,15.15,11.55,38.4,0,23.1-11.55,38.55-11.55,15.17-29.7,15.15t-29.7-15.15Q179.35,233.68,179.35,210.58Zm68.4,0q0-17.7-7.5-29.1t-19.65-11.4q-12.3,0-19.65,11.4t-7.5,29.1q0,17.7,7.5,29.25,7.35,11.25,19.65,11.25t19.65-11.4Q247.75,228.13,247.75,210.58Z" transform="translate(-5.05 -6.37)" fill="#fff"/><path d="M312,159.28v102.6h-13.8v-85.5l-19.95,8.7L273,173.38l30.15-14.1Z" transform="translate(-5.05 -6.37)" fill="#fff"/><path d="M98.51,305.35q0,6.3-3.74,10a14.47,14.47,0,0,1-11,4.45,15.71,15.71,0,1,1,0-31.41A16.75,16.75,0,0,1,90,289.6a12.56,12.56,0,0,1,4.83,3.32L92,295.69a9.27,9.27,0,0,0-3.59-2.62,11.89,11.89,0,0,0-4.73-.95,11.31,11.31,0,0,0-8.31,3.41,12.71,12.71,0,0,0,0,17.22,11.34,11.34,0,0,0,8.31,3.4,11.19,11.19,0,0,0,7.48-2.52,10,10,0,0,0,3.44-6.93H83.72v-3.61H98.3A12.85,12.85,0,0,1,98.51,305.35Z" transform="translate(-5.05 -6.37)" fill="#fff"/><path d="M109.72,297.92a9.55,9.55,0,0,1,6.76,2.29,8.14,8.14,0,0,1,2.48,6.28v12.68h-3.69v-2.85h-.17a7.38,7.38,0,0,1-6.39,3.52,8.33,8.33,0,0,1-5.69-2,6.48,6.48,0,0,1-2.29-5,6.12,6.12,0,0,1,2.42-5.08,10.18,10.18,0,0,1,6.45-1.89,11.44,11.44,0,0,1,5.67,1.26v-.89a4.42,4.42,0,0,0-1.6-3.42,5.48,5.48,0,0,0-3.74-1.41,5.91,5.91,0,0,0-5.12,2.73l-3.4-2.14A9.46,9.46,0,0,1,109.72,297.92Zm-5,14.95a3.09,3.09,0,0,0,1.28,2.52,4.75,4.75,0,0,0,3,1,6.12,6.12,0,0,0,4.34-1.81,5.62,5.62,0,0,0,1.92-4.24,8,8,0,0,0-5-1.43,6.53,6.53,0,0,0-3.93,1.14A3.36,3.36,0,0,0,104.72,312.87Z" transform="translate(-5.05 -6.37)" fill="#fff"/><path d="M127.19,319.17h-3.86V298.59H127v2.86h.17a6.85,6.85,0,0,1,2.71-2.52,7.55,7.55,0,0,1,7.62,0,6.19,6.19,0,0,1,2.52,2.9,8,8,0,0,1,7.1-3.95,7,7,0,0,1,5.51,2.18,9.14,9.14,0,0,1,1.93,6.22v12.85h-3.87V306.91a6.6,6.6,0,0,0-1.05-4.18,4.32,4.32,0,0,0-3.52-1.28,4.61,4.61,0,0,0-3.74,1.89,6.89,6.89,0,0,0-1.51,4.45v11.38H137V306.91a6.6,6.6,0,0,0-1.05-4.18,4.34,4.34,0,0,0-3.53-1.28,4.6,4.6,0,0,0-3.73,1.89,6.9,6.9,0,0,0-1.52,4.45Z" transform="translate(-5.05 -6.37)" fill="#fff"/><path d="M168.35,319.84a9.84,9.84,0,0,1-7.47-3.1,11,11,0,0,1-2.94-7.86,11.18,11.18,0,0,1,2.85-7.83,10.27,10.27,0,0,1,14.6-.17c1.8,2,2.71,4.74,2.71,8.3l0,.42H161.88a6.72,6.72,0,0,0,2,4.87,6.47,6.47,0,0,0,4.62,1.85c2.46,0,4.4-1.24,5.8-3.7l3.44,1.68a10.18,10.18,0,0,1-3.84,4.07A10.66,10.66,0,0,1,168.35,319.84Zm-6.17-13.44H174a5.13,5.13,0,0,0-1.74-3.55,6.14,6.14,0,0,0-4.22-1.4,5.62,5.62,0,0,0-3.76,1.34A6.4,6.4,0,0,0,162.18,306.4Z" transform="translate(-5.05 -6.37)" fill="#fff"/><path d="M191.54,319.17V289.1h10.87a8.77,8.77,0,0,1,6.14,2.35,7.55,7.55,0,0,1,2.56,5.84,6.35,6.35,0,0,1-4.08,6.26v.17a7.3,7.3,0,0,1,3.7,2.62,7,7,0,0,1,1.39,4.26,8,8,0,0,1-2.69,6.14,9.08,9.08,0,0,1-6.43,2.43Zm3.86-26.37V302h7a4.7,4.7,0,0,0,3.45-1.38,4.48,4.48,0,0,0,0-6.43,4.45,4.45,0,0,0-3.32-1.38Zm0,12.81v9.87h7.77a5,5,0,0,0,5-5,4.7,4.7,0,0,0-1.47-3.44,5,5,0,0,0-3.7-1.47Z" transform="translate(-5.05 -6.37)" fill="#fff"/><path d="M214.63,308.88a10.88,10.88,0,0,1,3-7.85,10.16,10.16,0,0,1,7.6-3.11,10,10,0,0,1,7.56,3.11,11.73,11.73,0,0,1,0,15.71,10,10,0,0,1-7.56,3.1,10.15,10.15,0,0,1-7.6-3.1A10.9,10.9,0,0,1,214.63,308.88Zm3.87,0a7.54,7.54,0,0,0,1.93,5.38,6.6,6.6,0,0,0,9.58,0,8.39,8.39,0,0,0,0-10.71,6.51,6.51,0,0,0-9.58,0A7.46,7.46,0,0,0,218.5,308.88Z" transform="translate(-5.05 -6.37)" fill="#fff"/><path d="M256.89,298.59,244,328.24h-4l4.79-10.37-8.48-19.28h4.2l6.13,14.79h.08l6-14.79Z" transform="translate(-5.05 -6.37)" fill="#fff"/><path d="M86.33,369.57H82L93.38,339.5h4.37l11.34,30.07h-4.28l-2.9-8.15H89.27Zm9.15-25.32-4.91,13.56h10l-4.91-13.56Z" transform="translate(-5.05 -6.37)" fill="#fff"/><path d="M119.93,370.24a9,9,0,0,1-6.93-3.19,12,12,0,0,1,0-15.54,9,9,0,0,1,6.93-3.19,8.76,8.76,0,0,1,4.13,1,7.13,7.13,0,0,1,2.88,2.56h.17l-.17-2.86V339.5h3.86v30.07h-3.69v-2.85h-.17a7.28,7.28,0,0,1-2.88,2.56A8.88,8.88,0,0,1,119.93,370.24Zm.63-3.52a5.93,5.93,0,0,0,4.66-2.06,8.53,8.53,0,0,0,0-10.71,6.22,6.22,0,0,0-9.32,0,7.63,7.63,0,0,0-1.9,5.33,7.54,7.54,0,0,0,1.9,5.34A6,6,0,0,0,120.56,366.72Z" transform="translate(-5.05 -6.37)" fill="#fff"/><path d="M145.5,369.57h-3.86L133.32,349h4.2l6,16h.09l6.13-16h4.11Z" transform="translate(-5.05 -6.37)" fill="#fff"/><path d="M163.82,348.32a9.56,9.56,0,0,1,6.76,2.29,8.14,8.14,0,0,1,2.48,6.28v12.68h-3.7v-2.85h-.17a7.35,7.35,0,0,1-6.38,3.52,8.3,8.3,0,0,1-5.69-2,6.44,6.44,0,0,1-2.29-5,6.11,6.11,0,0,1,2.41-5.08,10.18,10.18,0,0,1,6.45-1.89,11.39,11.39,0,0,1,5.67,1.26v-.89a4.39,4.39,0,0,0-1.6-3.42,5.45,5.45,0,0,0-3.73-1.41,5.93,5.93,0,0,0-5.13,2.73l-3.4-2.14A9.49,9.49,0,0,1,163.82,348.32Zm-5,14.95a3.09,3.09,0,0,0,1.28,2.52,4.71,4.71,0,0,0,3,1,6.14,6.14,0,0,0,4.35-1.81,5.65,5.65,0,0,0,1.91-4.24,7.93,7.93,0,0,0-5-1.43,6.53,6.53,0,0,0-3.93,1.14A3.35,3.35,0,0,0,158.82,363.27Z" transform="translate(-5.05 -6.37)" fill="#fff"/><path d="M177.42,349h3.7v2.86h.17a6.85,6.85,0,0,1,2.71-2.52,7.75,7.75,0,0,1,3.8-1,7.58,7.58,0,0,1,5.81,2.16,8.66,8.66,0,0,1,2,6.16v12.93h-3.86V356.89q-.14-5-5.08-5a4.84,4.84,0,0,0-3.87,1.87,6.77,6.77,0,0,0-1.55,4.47v11.38h-3.87Z" transform="translate(-5.05 -6.37)" fill="#fff"/><path d="M209.59,370.24a10.17,10.17,0,0,1-7.6-3.1,11.08,11.08,0,0,1-3-7.86,10.87,10.87,0,0,1,3-7.85,10.18,10.18,0,0,1,7.6-3.11,9.45,9.45,0,0,1,9,5.92l-3.53,1.47a5.82,5.82,0,0,0-5.76-3.86,5.94,5.94,0,0,0-4.57,2.14,8.35,8.35,0,0,0,0,10.58,6,6,0,0,0,4.57,2.15,6.06,6.06,0,0,0,6-3.87l3.44,1.47a9.18,9.18,0,0,1-3.55,4.35A10,10,0,0,1,209.59,370.24Z" transform="translate(-5.05 -6.37)" fill="#fff"/><path d="M231.14,370.24a9.84,9.84,0,0,1-7.47-3.1,11,11,0,0,1-2.94-7.86,11.2,11.2,0,0,1,2.85-7.83,10.27,10.27,0,0,1,14.6-.17c1.8,2,2.71,4.74,2.71,8.3l0,.42H224.67a6.72,6.72,0,0,0,2,4.87,6.47,6.47,0,0,0,4.62,1.85c2.46,0,4.4-1.24,5.8-3.7l3.44,1.68a10.25,10.25,0,0,1-3.84,4.07A10.66,10.66,0,0,1,231.14,370.24ZM225,356.8h11.8a5.13,5.13,0,0,0-1.74-3.55,6.14,6.14,0,0,0-4.22-1.4,5.62,5.62,0,0,0-3.76,1.34A6.4,6.4,0,0,0,225,356.8Z" transform="translate(-5.05 -6.37)" fill="#fff"/><path d="M29.93,58.5H23.31V7h8.06l25.06,40.1h.29l-.29-9.93V7h6.62V58.5H56.14l-26.21-42h-.28l.28,9.94Z" transform="translate(-5.05 -6.37)" fill="#fff"/><path d="M80.84,11.05a4.51,4.51,0,0,1-1.37,3.31,4.68,4.68,0,0,1-8-3.31,4.68,4.68,0,1,1,9.36,0ZM79.47,23.22V58.5H72.85V23.22Z" transform="translate(-5.05 -6.37)" fill="#fff"/><path d="M88.11,23.22h6.33v4.9h.29a11.77,11.77,0,0,1,4.65-4.32,13.2,13.2,0,0,1,6.51-1.73q6.48,0,10,3.71t3.5,10.54V58.5h-6.63V36.76q-.21-8.64-8.71-8.64a8.25,8.25,0,0,0-6.62,3.2A11.6,11.6,0,0,0,94.73,39V58.5H88.11Z" transform="translate(-5.05 -6.37)" fill="#fff"/><path d="M139.3,59.08a10,10,0,0,1-7.16-2.67A9.87,9.87,0,0,1,129.22,49V29.27H123V23.22h6.19V12.42h6.62v10.8h8.64v6.05h-8.64V46.84q0,3.52,1.37,4.78a4.46,4.46,0,0,0,3.1,1.26,6.7,6.7,0,0,0,1.55-.18,8.21,8.21,0,0,0,1.4-.46l2.09,5.9A17.92,17.92,0,0,1,139.3,59.08Z" transform="translate(-5.05 -6.37)" fill="#fff"/><path d="M166.3,59.65a16.86,16.86,0,0,1-12.82-5.33,18.81,18.81,0,0,1-5-13.46,19.19,19.19,0,0,1,4.9-13.43,16.22,16.22,0,0,1,12.53-5.36q7.84,0,12.49,5.07T183,41.36l-.07.72H155.21a11.53,11.53,0,0,0,3.46,8.36,11.06,11.06,0,0,0,7.92,3.16q6.33,0,9.93-6.33l5.91,2.88a17.66,17.66,0,0,1-6.59,7A18.23,18.23,0,0,1,166.3,59.65Zm-10.58-23H176a8.77,8.77,0,0,0-3-6.08,10.45,10.45,0,0,0-7.24-2.41,9.58,9.58,0,0,0-6.44,2.3A11,11,0,0,0,155.72,36.61Z" transform="translate(-5.05 -6.37)" fill="#fff"/><path d="M189.05,23.22h6.34v4.9h.29a11.67,11.67,0,0,1,4.64-4.32,13.24,13.24,0,0,1,6.52-1.73q6.48,0,10,3.71t3.49,10.54V58.5h-6.62V36.76q-.23-8.64-8.72-8.64a8.26,8.26,0,0,0-6.62,3.2A11.59,11.59,0,0,0,195.68,39V58.5h-6.63Z" transform="translate(-5.05 -6.37)" fill="#fff"/><path d="M242.83,59.65A15.49,15.49,0,0,1,231,54.18a19.42,19.42,0,0,1-4.9-13.32A19.42,19.42,0,0,1,231,27.54a15.49,15.49,0,0,1,11.87-5.47,15.28,15.28,0,0,1,7.1,1.65,12.45,12.45,0,0,1,4.93,4.4h.29l-.29-4.9V7h6.62V58.5h-6.33V53.6h-.29a12.45,12.45,0,0,1-4.93,4.4A15.28,15.28,0,0,1,242.83,59.65Zm1.09-6a10.15,10.15,0,0,0,8-3.52,13.12,13.12,0,0,0,3.24-9.22,13.13,13.13,0,0,0-3.24-9.14,10.21,10.21,0,0,0-8-3.6,10.34,10.34,0,0,0-8,3.6,13.13,13.13,0,0,0-3.24,9.14A13,13,0,0,0,235.92,50,10.34,10.34,0,0,0,243.92,53.6Z" transform="translate(-5.05 -6.37)" fill="#fff"/><path d="M267.17,40.86a18.65,18.65,0,0,1,5.11-13.46,17.41,17.41,0,0,1,13-5.33,17.17,17.17,0,0,1,13,5.33,18.54,18.54,0,0,1,5.18,13.46,18.37,18.37,0,0,1-5.18,13.46,17.17,17.17,0,0,1-13,5.33,17.41,17.41,0,0,1-13-5.33A18.65,18.65,0,0,1,267.17,40.86Zm6.62,0a12.94,12.94,0,0,0,3.32,9.22,11.32,11.32,0,0,0,16.41,0,12.94,12.94,0,0,0,3.31-9.22,12.8,12.8,0,0,0-3.31-9.14,11.15,11.15,0,0,0-16.41,0A12.81,12.81,0,0,0,273.79,40.86Z" transform="translate(-5.05 -6.37)" fill="#fff"/></g></svg>