<svg xmlns="http://www.w3.org/2000/svg" viewBox="0 0 291.9 428.03"><title>gbc</title><g id="Layer_3" data-name="Layer 3"><circle cx="145.95" cy="85.63" r="8.2" fill="#fff"/><line x1="3.45" y1="122.13" x2="288.45" y2="122.13" fill="none"/><rect x="3.45" y="119.13" width="285" height="6" fill="#fff"/><line x1="3.45" y1="378.63" x2="288.45" y2="378.63" fill="none"/><rect x="3.45" y="375.63" width="285" height="6" fill="#fff"/><circle cx="145.95" cy="419.83" r="8.2" fill="#fff"/></g><g id="NEW_TEXT" data-name="NEW TEXT"><path d="M54.85,159.28v102.6H41.05v-85.5l-19.95,8.7-5.25-11.7L46,159.28Z" transform="translate(-15.85 -6.37)" fill="#fff"/><path d="M105.55,224.38q-12.3,0-22.35-9.75a32.55,32.55,0,0,1-9.75-23.4q0-13.95,10.5-24,10.5-10.35,24.6-10.35a34.05,34.05,0,0,1,25,10.2,33,33,0,0,1,10.2,24.15q0,12.45-10.05,28.35l-29.85,44.7-11.1-7.65,25.35-35.1-.3-.3Q113.05,224.38,105.55,224.38Zm24.3-33.3a20,20,0,0,0-6.3-14.85,21.37,21.37,0,0,0-30,0,21,21,0,0,0,0,29.7,21.37,21.37,0,0,0,30,0A19.67,19.67,0,0,0,129.85,191.08Z" transform="translate(-15.85 -6.37)" fill="#fff"/><path d="M187.9,224.38q-12.3,0-22.35-9.75a32.55,32.55,0,0,1-9.75-23.4q0-13.95,10.5-24,10.5-10.35,24.6-10.35a34.05,34.05,0,0,1,25,10.2,33,33,0,0,1,10.2,24.15q0,12.45-10.05,28.35l-29.85,44.7-11.1-7.65,25.35-35.1-.3-.3Q195.4,224.38,187.9,224.38Zm24.3-33.3a20,20,0,0,0-6.3-14.85,21.11,21.11,0,1,0-30,29.7,21.37,21.37,0,0,0,30,0A19.67,19.67,0,0,0,212.2,191.08Z" transform="translate(-15.85 -6.37)" fill="#fff"/><path d="M307.75,233.53a27.74,27.74,0,0,1-10.05,21.9q-10.2,8.85-24.75,8.85t-24.75-8.85a27.74,27.74,0,0,1-10-21.9,26.48,26.48,0,0,1,4.35-14.77A29.92,29.92,0,0,1,255,208.18v-.6a32.24,32.24,0,0,1-9.68-9.6,21.79,21.79,0,0,1-3.67-12,27.58,27.58,0,0,1,8.85-20.85q8.7-8.25,22.5-8.25t22.5,8.25A27.58,27.58,0,0,1,304.3,186a21.8,21.8,0,0,1-3.68,12,32.2,32.2,0,0,1-9.67,9.6v.6a29.92,29.92,0,0,1,12.45,10.58A26.48,26.48,0,0,1,307.75,233.53Zm-55.5-.75a16.81,16.81,0,0,0,1.57,7.35,18.17,18.17,0,0,0,4.35,5.78,19.73,19.73,0,0,0,6.53,3.82,25.88,25.88,0,0,0,16.5,0,19.69,19.69,0,0,0,6.52-3.82,18.17,18.17,0,0,0,4.35-5.78,16.82,16.82,0,0,0,1.58-7.35,16.21,16.21,0,0,0-6-12.9,21.54,21.54,0,0,0-14.7-5.25,22.1,22.1,0,0,0-14.85,5.25A16.66,16.66,0,0,0,252.25,232.78Zm3.45-47.1a15.08,15.08,0,0,0,4.8,11.63q4.8,4.42,12.45,4.42t12.45-4.42a15.08,15.08,0,0,0,4.8-11.63q0-7.2-4.8-11.4T273,170.08q-7.65,0-12.45,4.2T255.7,185.68Z" transform="translate(-15.85 -6.37)" fill="#fff"/><path d="M98.51,305.35q0,6.3-3.74,10a14.47,14.47,0,0,1-11,4.45,15.71,15.71,0,1,1,0-31.41A16.75,16.75,0,0,1,90,289.6a12.56,12.56,0,0,1,4.83,3.32L92,295.69a9.27,9.27,0,0,0-3.59-2.62,11.89,11.89,0,0,0-4.73-.95,11.31,11.31,0,0,0-8.31,3.41,12.71,12.71,0,0,0,0,17.22,11.34,11.34,0,0,0,8.31,3.4,11.19,11.19,0,0,0,7.48-2.52,10,10,0,0,0,3.44-6.93H83.72v-3.61H98.3A12.85,12.85,0,0,1,98.51,305.35Z" transform="translate(-15.85 -6.37)" fill="#fff"/><path d="M109.72,297.92a9.55,9.55,0,0,1,6.76,2.29,8.14,8.14,0,0,1,2.48,6.28v12.68h-3.69v-2.85h-.17a7.38,7.38,0,0,1-6.39,3.52,8.33,8.33,0,0,1-5.69-2,6.48,6.48,0,0,1-2.29-5,6.12,6.12,0,0,1,2.42-5.08,10.18,10.18,0,0,1,6.45-1.89,11.44,11.44,0,0,1,5.67,1.26v-.89a4.42,4.42,0,0,0-1.6-3.42,5.48,5.48,0,0,0-3.74-1.41,5.91,5.91,0,0,0-5.12,2.73l-3.4-2.14A9.46,9.46,0,0,1,109.72,297.92Zm-5,14.95a3.09,3.09,0,0,0,1.28,2.52,4.75,4.75,0,0,0,3,1,6.12,6.12,0,0,0,4.34-1.81,5.62,5.62,0,0,0,1.92-4.24,8,8,0,0,0-5-1.43,6.53,6.53,0,0,0-3.93,1.14A3.36,3.36,0,0,0,104.72,312.87Z" transform="translate(-15.85 -6.37)" fill="#fff"/><path d="M127.19,319.17h-3.86V298.59H127v2.86h.17a6.85,6.85,0,0,1,2.71-2.52,7.55,7.55,0,0,1,7.62,0,6.19,6.19,0,0,1,2.52,2.9,8,8,0,0,1,7.1-3.95,7,7,0,0,1,5.51,2.18,9.14,9.14,0,0,1,1.93,6.22v12.85h-3.87V306.91a6.6,6.6,0,0,0-1.05-4.18,4.32,4.32,0,0,0-3.52-1.28,4.61,4.61,0,0,0-3.74,1.89,6.89,6.89,0,0,0-1.51,4.45v11.38H137V306.91a6.6,6.6,0,0,0-1.05-4.18,4.34,4.34,0,0,0-3.53-1.28,4.6,4.6,0,0,0-3.73,1.89,6.9,6.9,0,0,0-1.52,4.45Z" transform="translate(-15.85 -6.37)" fill="#fff"/><path d="M168.35,319.84a9.84,9.84,0,0,1-7.47-3.1,11,11,0,0,1-2.94-7.86,11.18,11.18,0,0,1,2.85-7.83,10.27,10.27,0,0,1,14.6-.17c1.8,2,2.71,4.74,2.71,8.3l0,.42H161.88a6.72,6.72,0,0,0,2,4.87,6.47,6.47,0,0,0,4.62,1.85c2.46,0,4.4-1.24,5.8-3.7l3.44,1.68a10.18,10.18,0,0,1-3.84,4.07A10.66,10.66,0,0,1,168.35,319.84Zm-6.17-13.44H174a5.13,5.13,0,0,0-1.74-3.55,6.14,6.14,0,0,0-4.22-1.4,5.62,5.62,0,0,0-3.76,1.34A6.4,6.4,0,0,0,162.18,306.4Z" transform="translate(-15.85 -6.37)" fill="#fff"/><path d="M191.54,319.17V289.1h10.87a8.77,8.77,0,0,1,6.14,2.35,7.55,7.55,0,0,1,2.56,5.84,6.35,6.35,0,0,1-4.08,6.26v.17a7.3,7.3,0,0,1,3.7,2.62,7,7,0,0,1,1.39,4.26,8,8,0,0,1-2.69,6.14,9.08,9.08,0,0,1-6.43,2.43Zm3.86-26.37V302h7a4.7,4.7,0,0,0,3.45-1.38,4.48,4.48,0,0,0,0-6.43,4.45,4.45,0,0,0-3.32-1.38Zm0,12.81v9.87h7.77a5,5,0,0,0,5-5,4.7,4.7,0,0,0-1.47-3.44,5,5,0,0,0-3.7-1.47Z" transform="translate(-15.85 -6.37)" fill="#fff"/><path d="M214.63,308.88a10.88,10.88,0,0,1,3-7.85,10.16,10.16,0,0,1,7.6-3.11,10,10,0,0,1,7.56,3.11,11.73,11.73,0,0,1,0,15.71,10,10,0,0,1-7.56,3.1,10.15,10.15,0,0,1-7.6-3.1A10.9,10.9,0,0,1,214.63,308.88Zm3.87,0a7.54,7.54,0,0,0,1.93,5.38,6.6,6.6,0,0,0,9.58,0,8.39,8.39,0,0,0,0-10.71,6.51,6.51,0,0,0-9.58,0A7.46,7.46,0,0,0,218.5,308.88Z" transform="translate(-15.85 -6.37)" fill="#fff"/><path d="M256.89,298.59,244,328.24h-4l4.79-10.37-8.48-19.28h4.2l6.13,14.79h.08l6-14.79Z" transform="translate(-15.85 -6.37)" fill="#fff"/><path d="M129.08,370.24a15.71,15.71,0,1,1,0-31.41,13.92,13.92,0,0,1,11,4.91l-2.77,2.69a10.3,10.3,0,0,0-8.28-3.91,11.35,11.35,0,0,0-8.36,3.36,13,13,0,0,0,0,17.31,11.35,11.35,0,0,0,8.36,3.36,11.79,11.79,0,0,0,9.12-4.41l2.81,2.73a14.63,14.63,0,0,1-5.25,4A16,16,0,0,1,129.08,370.24Z" transform="translate(-15.85 -6.37)" fill="#fff"/><path d="M142.86,359.28a10.87,10.87,0,0,1,3-7.85,10.18,10.18,0,0,1,7.6-3.11,10,10,0,0,1,7.56,3.11,11.7,11.7,0,0,1,0,15.71,10,10,0,0,1-7.56,3.1,10.17,10.17,0,0,1-7.6-3.1A10.9,10.9,0,0,1,142.86,359.28Zm3.86,0a7.58,7.58,0,0,0,1.93,5.38,6.6,6.6,0,0,0,9.58,0,8.39,8.39,0,0,0,0-10.71,6.51,6.51,0,0,0-9.58,0A7.51,7.51,0,0,0,146.72,359.28Z" transform="translate(-15.85 -6.37)" fill="#fff"/><path d="M171.21,339.5v30.07h-3.87V339.5Z" transform="translate(-15.85 -6.37)" fill="#fff"/><path d="M174.53,359.28a10.87,10.87,0,0,1,3-7.85,10.16,10.16,0,0,1,7.6-3.11,10,10,0,0,1,7.56,3.11,11.73,11.73,0,0,1,0,15.71,10,10,0,0,1-7.56,3.1,10.15,10.15,0,0,1-7.6-3.1A10.9,10.9,0,0,1,174.53,359.28Zm3.86,0a7.54,7.54,0,0,0,1.93,5.38,6.6,6.6,0,0,0,9.58,0,8.39,8.39,0,0,0,0-10.71,6.51,6.51,0,0,0-9.58,0A7.46,7.46,0,0,0,178.39,359.28Z" transform="translate(-15.85 -6.37)" fill="#fff"/><path d="M202.67,369.57H198.8V349h3.7v3.36h.17a5.55,5.55,0,0,1,2.41-2.79,6.73,6.73,0,0,1,3.59-1.16,7.17,7.17,0,0,1,2.86.51l-1.18,3.74a6.26,6.26,0,0,0-2.27-.3,5,5,0,0,0-3.8,1.77,5.9,5.9,0,0,0-1.61,4.11Z" transform="translate(-15.85 -6.37)" fill="#fff"/><path d="M29.93,58.5H23.31V7h8.06l25.06,40.1h.29l-.29-9.93V7h6.62V58.5H56.14l-26.21-42h-.28l.28,9.94Z" transform="translate(-15.85 -6.37)" fill="#fff"/><path d="M80.84,11.05a4.51,4.51,0,0,1-1.37,3.31,4.68,4.68,0,0,1-8-3.31,4.68,4.68,0,1,1,9.36,0ZM79.47,23.22V58.5H72.85V23.22Z" transform="translate(-15.85 -6.37)" fill="#fff"/><path d="M88.11,23.22h6.33v4.9h.29a11.77,11.77,0,0,1,4.65-4.32,13.2,13.2,0,0,1,6.51-1.73q6.48,0,10,3.71t3.5,10.54V58.5h-6.63V36.76q-.21-8.64-8.71-8.64a8.25,8.25,0,0,0-6.62,3.2A11.6,11.6,0,0,0,94.73,39V58.5H88.11Z" transform="translate(-15.85 -6.37)" fill="#fff"/><path d="M139.3,59.08a10,10,0,0,1-7.16-2.67A9.87,9.87,0,0,1,129.22,49V29.27H123V23.22h6.19V12.42h6.62v10.8h8.64v6.05h-8.64V46.84q0,3.52,1.37,4.78a4.46,4.46,0,0,0,3.1,1.26,6.7,6.7,0,0,0,1.55-.18,8.21,8.21,0,0,0,1.4-.46l2.09,5.9A17.92,17.92,0,0,1,139.3,59.08Z" transform="translate(-15.85 -6.37)" fill="#fff"/><path d="M166.3,59.65a16.86,16.86,0,0,1-12.82-5.33,18.81,18.81,0,0,1-5-13.46,19.19,19.19,0,0,1,4.9-13.43,16.22,16.22,0,0,1,12.53-5.36q7.84,0,12.49,5.07T183,41.36l-.07.72H155.21a11.53,11.53,0,0,0,3.46,8.36,11.06,11.06,0,0,0,7.92,3.16q6.33,0,9.93-6.33l5.91,2.88a17.66,17.66,0,0,1-6.59,7A18.23,18.23,0,0,1,166.3,59.65Zm-10.58-23H176a8.77,8.77,0,0,0-3-6.08,10.45,10.45,0,0,0-7.24-2.41,9.58,9.58,0,0,0-6.44,2.3A11,11,0,0,0,155.72,36.61Z" transform="translate(-15.85 -6.37)" fill="#fff"/><path d="M189.05,23.22h6.34v4.9h.29a11.67,11.67,0,0,1,4.64-4.32,13.24,13.24,0,0,1,6.52-1.73q6.48,0,10,3.71t3.49,10.54V58.5h-6.62V36.76q-.23-8.64-8.72-8.64a8.26,8.26,0,0,0-6.62,3.2A11.59,11.59,0,0,0,195.68,39V58.5h-6.63Z" transform="translate(-15.85 -6.37)" fill="#fff"/><path d="M242.83,59.65A15.49,15.49,0,0,1,231,54.18a19.42,19.42,0,0,1-4.9-13.32A19.42,19.42,0,0,1,231,27.54a15.49,15.49,0,0,1,11.87-5.47,15.28,15.28,0,0,1,7.1,1.65,12.45,12.45,0,0,1,4.93,4.4h.29l-.29-4.9V7h6.62V58.5h-6.33V53.6h-.29a12.45,12.45,0,0,1-4.93,4.4A15.28,15.28,0,0,1,242.83,59.65Zm1.09-6a10.15,10.15,0,0,0,8-3.52,13.12,13.12,0,0,0,3.24-9.22,13.13,13.13,0,0,0-3.24-9.14,10.21,10.21,0,0,0-8-3.6,10.34,10.34,0,0,0-8,3.6,13.13,13.13,0,0,0-3.24,9.14A13,13,0,0,0,235.92,50,10.34,10.34,0,0,0,243.92,53.6Z" transform="translate(-15.85 -6.37)" fill="#fff"/><path d="M267.17,40.86a18.65,18.65,0,0,1,5.11-13.46,17.41,17.41,0,0,1,13-5.33,17.17,17.17,0,0,1,13,5.33,18.54,18.54,0,0,1,5.18,13.46,18.37,18.37,0,0,1-5.18,13.46,17.17,17.17,0,0,1-13,5.33,17.41,17.41,0,0,1-13-5.33A18.65,18.65,0,0,1,267.17,40.86Zm6.62,0a12.94,12.94,0,0,0,3.32,9.22,11.32,11.32,0,0,0,16.41,0,12.94,12.94,0,0,0,3.31-9.22,12.8,12.8,0,0,0-3.31-9.14,11.15,11.15,0,0,0-16.41,0A12.81,12.81,0,0,0,273.79,40.86Z" transform="translate(-15.85 -6.37)" fill="#fff"/></g></svg>