<svg xmlns="http://www.w3.org/2000/svg" viewBox="0 0 359.06 428.03"><title>gc</title><g id="Layer_3" data-name="Layer 3"><circle cx="179.21" cy="85.63" r="8.2" fill="#fff"/><line x1="36.71" y1="122.13" x2="321.71" y2="122.13" fill="none"/><rect x="36.71" y="119.13" width="285" height="6" fill="#fff"/><line x1="36.71" y1="378.63" x2="321.71" y2="378.63" fill="none"/><rect x="36.71" y="375.63" width="285" height="6" fill="#fff"/><circle cx="179.21" cy="419.83" r="8.2" fill="#fff"/></g><g id="NEW_TEXT" data-name="NEW TEXT"><path d="M70.45,248.68v13.2H5.05v-13.8L31.6,221.23Q45,207.58,50.05,200.76a23.57,23.57,0,0,0,5.1-14.33,15.1,15.1,0,0,0-5.25-11.55q-5.25-4.8-13.5-4.8a18.51,18.51,0,0,0-12.15,4.2,18.94,18.94,0,0,0-6.6,10.2l-12.6-5.1a32,32,0,0,1,11.55-16,32.19,32.19,0,0,1,20.1-6.53q13.95,0,23.25,8.55a27.42,27.42,0,0,1,9.3,21q0,14.85-16.35,32.1l-30,30.15Z" transform="translate(17.41 -6.37)" fill="#fff"/><path d="M83.65,210.58q0-23.4,11.55-38.55t29.7-15.15q18.15,0,29.7,15.3,11.55,15.15,11.55,38.4,0,23.1-11.55,38.55-11.55,15.17-29.7,15.15T95.2,249.13Q83.65,233.68,83.65,210.58Zm68.4,0q0-17.7-7.5-29.1t-19.65-11.4q-12.3,0-19.65,11.4-7.5,11.4-7.5,29.1t7.5,29.25q7.35,11.25,19.65,11.25t19.65-11.4Q152.05,228.13,152.05,210.58Z" transform="translate(17.41 -6.37)" fill="#fff"/><path d="M179.35,210.58q0-23.4,11.55-38.55t29.7-15.15q18.15,0,29.7,15.3,11.55,15.15,11.55,38.4,0,23.1-11.55,38.55-11.55,15.17-29.7,15.15t-29.7-15.15Q179.35,233.68,179.35,210.58Zm68.4,0q0-17.7-7.5-29.1t-19.65-11.4q-12.3,0-19.65,11.4t-7.5,29.1q0,17.7,7.5,29.25,7.35,11.25,19.65,11.25t19.65-11.4Q247.75,228.13,247.75,210.58Z" transform="translate(17.41 -6.37)" fill="#fff"/><path d="M312,159.28v102.6h-13.8v-85.5l-19.95,8.7L273,173.38l30.15-14.1Z" transform="translate(17.41 -6.37)" fill="#fff"/><path d="M34.72,329.76q0,10.8-6.41,17.21-7.2,7.62-18.93,7.63a25.83,25.83,0,0,1-19-7.78,27.46,27.46,0,0,1,0-38.3,25.83,25.83,0,0,1,19-7.78,28.71,28.71,0,0,1,10.73,2,21.39,21.39,0,0,1,8.28,5.69l-4.76,4.75a15.92,15.92,0,0,0-6.15-4.5,20.34,20.34,0,0,0-8.1-1.62,19.39,19.39,0,0,0-14.26,5.83,21.79,21.79,0,0,0,0,29.52,19.39,19.39,0,0,0,14.26,5.83,19.15,19.15,0,0,0,12.81-4.32,17.22,17.22,0,0,0,5.91-11.88H9.38v-6.19h25A22.09,22.09,0,0,1,34.72,329.76Z" transform="translate(17.41 -6.37)" fill="#fff"/><path d="M54,317q7.34,0,11.59,3.93t4.25,10.76v21.75H63.45v-4.9h-.29q-4.09,6-10.94,6.05a14.21,14.21,0,0,1-9.76-3.46,11,11,0,0,1-3.92-8.64,10.5,10.5,0,0,1,4.14-8.71q4.14-3.24,11-3.24a19.54,19.54,0,0,1,9.72,2.16V331.2a7.52,7.52,0,0,0-2.74-5.87,9.36,9.36,0,0,0-6.4-2.41,10.16,10.16,0,0,0-8.79,4.68l-5.83-3.67Q44.52,317,54,317Zm-8.57,25.64A5.32,5.32,0,0,0,47.57,347a8.1,8.1,0,0,0,5.15,1.72,10.55,10.55,0,0,0,7.45-3.09,9.68,9.68,0,0,0,3.28-7.27q-3.09-2.44-8.64-2.45a11.25,11.25,0,0,0-6.73,1.94A5.79,5.79,0,0,0,45.38,342.65Z" transform="translate(17.41 -6.37)" fill="#fff"/><path d="M83.9,353.45H77.27V318.17h6.34v4.89h.29a11.74,11.74,0,0,1,4.64-4.32,13,13,0,0,1,13.07.07,10.61,10.61,0,0,1,4.32,5A13.77,13.77,0,0,1,118.1,317q6.12,0,9.43,3.75c2.21,2.49,3.31,6.05,3.31,10.65v22h-6.62v-21q0-5-1.8-7.16t-6-2.2A7.91,7.91,0,0,0,110,326.3a11.85,11.85,0,0,0-2.59,7.63v19.52h-6.62v-21q0-5-1.8-7.16t-6-2.2a7.91,7.91,0,0,0-6.41,3.24,11.85,11.85,0,0,0-2.59,7.63Z" transform="translate(17.41 -6.37)" fill="#fff"/><path d="M154.46,354.6a16.88,16.88,0,0,1-12.82-5.33,18.81,18.81,0,0,1-5-13.46,19.14,19.14,0,0,1,4.9-13.43A16.18,16.18,0,0,1,154,317q7.86,0,12.5,5.08t4.64,14.22l-.07.72H143.37a11.48,11.48,0,0,0,3.45,8.35,11,11,0,0,0,7.92,3.17q6.34,0,9.94-6.34l5.9,2.88a17.6,17.6,0,0,1-6.58,7A18.23,18.23,0,0,1,154.46,354.6Zm-10.59-23H164.1a8.78,8.78,0,0,0-3-6.09,10.51,10.51,0,0,0-7.24-2.41,9.57,9.57,0,0,0-6.44,2.31A11,11,0,0,0,143.87,331.56Z" transform="translate(17.41 -6.37)" fill="#fff"/><path d="M202.63,354.6a26.21,26.21,0,0,1-26.79-26.93q0-11.52,7.63-19.15a25.71,25.71,0,0,1,19.16-7.78q11.66,0,18.93,8.43l-4.75,4.6a17.61,17.61,0,0,0-14.18-6.69,19.44,19.44,0,0,0-14.33,5.76q-5.7,5.69-5.69,14.83t5.69,14.83a19.44,19.44,0,0,0,14.33,5.76q9,0,15.62-7.56l4.82,4.68a25,25,0,0,1-9,6.81A27.55,27.55,0,0,1,202.63,354.6Z" transform="translate(17.41 -6.37)" fill="#fff"/><path d="M259.58,353.45h-6.34v-4.9H253a11.74,11.74,0,0,1-4.64,4.32,13.34,13.34,0,0,1-6.52,1.73q-6.48,0-10-3.71t-3.49-10.55V318.17H235v21.74q.23,8.64,8.71,8.64a8.31,8.31,0,0,0,6.63-3.2,11.64,11.64,0,0,0,2.66-7.67V318.17h6.63Z" transform="translate(17.41 -6.37)" fill="#fff"/><path d="M286.29,354.6a15.12,15.12,0,0,1-7.09-1.66,12.38,12.38,0,0,1-4.94-4.39H274v4.9h-6.34V301.89h6.62v16.28l-.28,4.89h.28a12.53,12.53,0,0,1,4.94-4.39,15.62,15.62,0,0,1,18.89,3.82,20.33,20.33,0,0,1,0,26.64A15.16,15.16,0,0,1,286.29,354.6Zm-1.08-6.05a10.32,10.32,0,0,0,8-3.6,13,13,0,0,0,3.24-9.14,13.16,13.16,0,0,0-3.24-9.15,10.76,10.76,0,0,0-16.06,0,14.91,14.91,0,0,0,0,18.36A10.48,10.48,0,0,0,285.21,348.55Z" transform="translate(17.41 -6.37)" fill="#fff"/><path d="M325,354.6a16.9,16.9,0,0,1-12.82-5.33,18.81,18.81,0,0,1-5-13.46,19.19,19.19,0,0,1,4.9-13.43A16.19,16.19,0,0,1,324.52,317q7.85,0,12.49,5.08t4.64,14.22l-.07.72H313.86a11.49,11.49,0,0,0,3.46,8.35,11,11,0,0,0,7.92,3.17q6.33,0,9.93-6.34l5.91,2.88a17.62,17.62,0,0,1-6.59,7A18.23,18.23,0,0,1,325,354.6Zm-10.58-23H334.6a8.79,8.79,0,0,0-3-6.09,10.5,10.5,0,0,0-7.24-2.41,9.59,9.59,0,0,0-6.44,2.31A11,11,0,0,0,314.37,331.56Z" transform="translate(17.41 -6.37)" fill="#fff"/><path d="M29.93,58.5H23.31V7h8.06l25.06,40.1h.29l-.29-9.93V7h6.62V58.5H56.14l-26.21-42h-.28l.28,9.94Z" transform="translate(17.41 -6.37)" fill="#fff"/><path d="M80.84,11.05a4.51,4.51,0,0,1-1.37,3.31,4.68,4.68,0,0,1-8-3.31,4.68,4.68,0,1,1,9.36,0ZM79.47,23.22V58.5H72.85V23.22Z" transform="translate(17.41 -6.37)" fill="#fff"/><path d="M88.11,23.22h6.33v4.9h.29a11.77,11.77,0,0,1,4.65-4.32,13.2,13.2,0,0,1,6.51-1.73q6.48,0,10,3.71t3.5,10.54V58.5h-6.63V36.76q-.21-8.64-8.71-8.64a8.25,8.25,0,0,0-6.62,3.2A11.6,11.6,0,0,0,94.73,39V58.5H88.11Z" transform="translate(17.41 -6.37)" fill="#fff"/><path d="M139.3,59.08a10,10,0,0,1-7.16-2.67A9.87,9.87,0,0,1,129.22,49V29.27H123V23.22h6.19V12.42h6.62v10.8h8.64v6.05h-8.64V46.84q0,3.52,1.37,4.78a4.46,4.46,0,0,0,3.1,1.26,6.7,6.7,0,0,0,1.55-.18,8.21,8.21,0,0,0,1.4-.46l2.09,5.9A17.92,17.92,0,0,1,139.3,59.08Z" transform="translate(17.41 -6.37)" fill="#fff"/><path d="M166.3,59.65a16.86,16.86,0,0,1-12.82-5.33,18.81,18.81,0,0,1-5-13.46,19.19,19.19,0,0,1,4.9-13.43,16.22,16.22,0,0,1,12.53-5.36q7.84,0,12.49,5.07T183,41.36l-.07.72H155.21a11.53,11.53,0,0,0,3.46,8.36,11.06,11.06,0,0,0,7.92,3.16q6.33,0,9.93-6.33l5.91,2.88a17.66,17.66,0,0,1-6.59,7A18.23,18.23,0,0,1,166.3,59.65Zm-10.58-23H176a8.77,8.77,0,0,0-3-6.08,10.45,10.45,0,0,0-7.24-2.41,9.58,9.58,0,0,0-6.44,2.3A11,11,0,0,0,155.72,36.61Z" transform="translate(17.41 -6.37)" fill="#fff"/><path d="M189.05,23.22h6.34v4.9h.29a11.67,11.67,0,0,1,4.64-4.32,13.24,13.24,0,0,1,6.52-1.73q6.48,0,10,3.71t3.49,10.54V58.5h-6.62V36.76q-.23-8.64-8.72-8.64a8.26,8.26,0,0,0-6.62,3.2A11.59,11.59,0,0,0,195.68,39V58.5h-6.63Z" transform="translate(17.41 -6.37)" fill="#fff"/><path d="M242.83,59.65A15.49,15.49,0,0,1,231,54.18a19.42,19.42,0,0,1-4.9-13.32A19.42,19.42,0,0,1,231,27.54a15.49,15.49,0,0,1,11.87-5.47,15.28,15.28,0,0,1,7.1,1.65,12.45,12.45,0,0,1,4.93,4.4h.29l-.29-4.9V7h6.62V58.5h-6.33V53.6h-.29a12.45,12.45,0,0,1-4.93,4.4A15.28,15.28,0,0,1,242.83,59.65Zm1.09-6a10.15,10.15,0,0,0,8-3.52,13.12,13.12,0,0,0,3.24-9.22,13.13,13.13,0,0,0-3.24-9.14,10.21,10.21,0,0,0-8-3.6,10.34,10.34,0,0,0-8,3.6,13.13,13.13,0,0,0-3.24,9.14A13,13,0,0,0,235.92,50,10.34,10.34,0,0,0,243.92,53.6Z" transform="translate(17.41 -6.37)" fill="#fff"/><path d="M267.17,40.86a18.65,18.65,0,0,1,5.11-13.46,17.41,17.41,0,0,1,13-5.33,17.17,17.17,0,0,1,13,5.33,18.54,18.54,0,0,1,5.18,13.46,18.37,18.37,0,0,1-5.18,13.46,17.17,17.17,0,0,1-13,5.33,17.41,17.41,0,0,1-13-5.33A18.65,18.65,0,0,1,267.17,40.86Zm6.62,0a12.94,12.94,0,0,0,3.32,9.22,11.32,11.32,0,0,0,16.41,0,12.94,12.94,0,0,0,3.31-9.22,12.8,12.8,0,0,0-3.31-9.14,11.15,11.15,0,0,0-16.41,0A12.81,12.81,0,0,0,273.79,40.86Z" transform="translate(17.41 -6.37)" fill="#fff"/></g></svg>