<svg xmlns="http://www.w3.org/2000/svg" viewBox="0 0 291.15 428.6"><title>genesis</title><g id="Layer_3" data-name="Layer 3"><circle cx="145.57" cy="86.2" r="8.2" fill="#fff"/><line x1="3.07" y1="122.7" x2="288.07" y2="122.7" fill="none"/><rect x="3.07" y="119.7" width="285" height="6" fill="#fff"/><line x1="3.07" y1="379.2" x2="288.07" y2="379.2" fill="none"/><rect x="3.07" y="376.2" width="285" height="6" fill="#fff"/><circle cx="145.57" cy="420.4" r="8.2" fill="#fff"/></g><g id="NEW_TEXT" data-name="NEW TEXT"><path d="M55.23,159.28v102.6H41.43v-85.5l-19.95,8.7-5.25-11.7,30.15-14.1Z" transform="translate(-16.23 -5.8)" fill="#fff"/><path d="M105.93,224.38q-12.3,0-22.35-9.75a32.51,32.51,0,0,1-9.75-23.4q0-13.95,10.5-24,10.49-10.35,24.6-10.35a34.07,34.07,0,0,1,25,10.2,33,33,0,0,1,10.2,24.15q0,12.45-10.05,28.35l-29.85,44.7-11.1-7.65,25.35-35.1-.3-.3Q113.42,224.38,105.93,224.38Zm24.3-33.3a20,20,0,0,0-6.3-14.85,21.37,21.37,0,0,0-30,0,21,21,0,0,0,0,29.7,21.37,21.37,0,0,0,30,0A19.67,19.67,0,0,0,130.23,191.08Z" transform="translate(-16.23 -5.8)" fill="#fff"/><path d="M225.78,233.53a27.75,27.75,0,0,1-10.06,21.9q-10.2,8.85-24.75,8.85t-24.75-8.85a27.74,27.74,0,0,1-10.05-21.9,26.48,26.48,0,0,1,4.35-14.77A30,30,0,0,1,173,208.18v-.6a32.2,32.2,0,0,1-9.67-9.6,21.79,21.79,0,0,1-3.67-12,27.57,27.57,0,0,1,8.84-20.85q8.7-8.25,22.5-8.25t22.5,8.25A27.59,27.59,0,0,1,222.33,186a21.8,21.8,0,0,1-3.68,12,32.24,32.24,0,0,1-9.68,9.6v.6a29.86,29.86,0,0,1,12.45,10.58A26.49,26.49,0,0,1,225.78,233.53Zm-55.5-.75a16.81,16.81,0,0,0,1.57,7.35,18.17,18.17,0,0,0,4.35,5.78,19.69,19.69,0,0,0,6.52,3.82,25.88,25.88,0,0,0,16.5,0,19.73,19.73,0,0,0,6.53-3.82,18.17,18.17,0,0,0,4.35-5.78,16.81,16.81,0,0,0,1.57-7.35,16.21,16.21,0,0,0-6-12.9,21.54,21.54,0,0,0-14.7-5.25,22.06,22.06,0,0,0-14.84,5.25A16.63,16.63,0,0,0,170.28,232.78Zm3.44-47.1a15.05,15.05,0,0,0,4.81,11.63c3.19,2.95,7.35,4.42,12.44,4.42s9.25-1.47,12.45-4.42a15.08,15.08,0,0,0,4.8-11.63q0-7.2-4.8-11.4c-3.2-2.8-7.34-4.2-12.45-4.2s-9.25,1.4-12.44,4.2S173.72,180.88,173.72,185.68Z" transform="translate(-16.23 -5.8)" fill="#fff"/><path d="M307.37,233.53a27.74,27.74,0,0,1-10.05,21.9q-10.2,8.85-24.75,8.85t-24.75-8.85a27.74,27.74,0,0,1-10-21.9,26.48,26.48,0,0,1,4.35-14.77,29.92,29.92,0,0,1,12.45-10.58v-.6a32.2,32.2,0,0,1-9.67-9.6,21.8,21.8,0,0,1-3.68-12,27.58,27.58,0,0,1,8.85-20.85q8.7-8.25,22.5-8.25t22.5,8.25A27.58,27.58,0,0,1,303.92,186a21.79,21.79,0,0,1-3.67,12,32.24,32.24,0,0,1-9.68,9.6v.6A29.92,29.92,0,0,1,303,218.76,26.48,26.48,0,0,1,307.37,233.53Zm-55.5-.75a16.82,16.82,0,0,0,1.58,7.35,18.17,18.17,0,0,0,4.35,5.78,19.69,19.69,0,0,0,6.52,3.82,25.88,25.88,0,0,0,16.5,0,19.73,19.73,0,0,0,6.53-3.82,18.17,18.17,0,0,0,4.35-5.78,16.81,16.81,0,0,0,1.57-7.35,16.21,16.21,0,0,0-6-12.9,21.54,21.54,0,0,0-14.7-5.25,22.1,22.1,0,0,0-14.85,5.25A16.66,16.66,0,0,0,251.87,232.78Zm3.45-47.1a15.08,15.08,0,0,0,4.8,11.63q4.8,4.42,12.45,4.42T285,197.31a15.08,15.08,0,0,0,4.8-11.63q0-7.2-4.8-11.4t-12.45-4.2q-7.65,0-12.45,4.2T255.32,185.68Z" transform="translate(-16.23 -5.8)" fill="#fff"/><path d="M89.15,329.76q0,10.8-6.4,17.21-7.2,7.62-18.94,7.63a26.93,26.93,0,1,1,0-53.86,28.71,28.71,0,0,1,10.73,2,21.39,21.39,0,0,1,8.28,5.69l-4.75,4.75a16,16,0,0,0-6.16-4.5,20.34,20.34,0,0,0-8.1-1.62,19.39,19.39,0,0,0-14.26,5.83,21.79,21.79,0,0,0,0,29.52,19.39,19.39,0,0,0,14.26,5.83,19.18,19.18,0,0,0,12.82-4.32,17.25,17.25,0,0,0,5.9-11.88H63.81v-6.19h25A22.09,22.09,0,0,1,89.15,329.76Z" transform="translate(-16.23 -5.8)" fill="#fff"/><path d="M111.55,354.6a16.88,16.88,0,0,1-12.82-5.33,18.81,18.81,0,0,1-5-13.46,19.14,19.14,0,0,1,4.9-13.43A16.18,16.18,0,0,1,111.11,317q7.86,0,12.5,5.08t4.64,14.22l-.07.72H100.46a11.48,11.48,0,0,0,3.45,8.35,11,11,0,0,0,7.92,3.17q6.35,0,9.94-6.34l5.9,2.88a17.6,17.6,0,0,1-6.58,7A18.23,18.23,0,0,1,111.55,354.6Zm-10.59-23h20.23a8.78,8.78,0,0,0-3-6.09,10.51,10.51,0,0,0-7.24-2.41,9.57,9.57,0,0,0-6.44,2.31A11,11,0,0,0,101,331.56Z" transform="translate(-16.23 -5.8)" fill="#fff"/><path d="M134.3,318.17h6.33v4.89h.29a11.77,11.77,0,0,1,4.65-4.32,13.31,13.31,0,0,1,6.51-1.73q6.48,0,10,3.71t3.5,10.55v22.18h-6.63V331.7q-.21-8.64-8.71-8.64a8.26,8.26,0,0,0-6.62,3.21,11.57,11.57,0,0,0-2.67,7.66v19.52H134.3Z" transform="translate(-16.23 -5.8)" fill="#fff"/><path d="M189.16,354.6a16.88,16.88,0,0,1-12.81-5.33,18.81,18.81,0,0,1-5-13.46,19.18,19.18,0,0,1,4.89-13.43A16.21,16.21,0,0,1,188.73,317q7.85,0,12.49,5.08t4.65,14.22l-.08.72H178.07a11.49,11.49,0,0,0,3.46,8.35,11,11,0,0,0,7.92,3.17q6.33,0,9.94-6.34l5.9,2.88a17.55,17.55,0,0,1-6.59,7A18.23,18.23,0,0,1,189.16,354.6Zm-10.58-23h20.23a8.79,8.79,0,0,0-3-6.09,10.49,10.49,0,0,0-7.23-2.41,9.6,9.6,0,0,0-6.45,2.31A11,11,0,0,0,178.58,331.56Z" transform="translate(-16.23 -5.8)" fill="#fff"/><path d="M239.27,343.65a9.55,9.55,0,0,1-4,7.78,15.94,15.94,0,0,1-10.15,3.17,16.18,16.18,0,0,1-9.36-2.77,15.29,15.29,0,0,1-5.76-7.31l5.9-2.52a11.07,11.07,0,0,0,3.78,4.93,9.17,9.17,0,0,0,5.44,1.76,9.61,9.61,0,0,0,5.29-1.36,3.88,3.88,0,0,0,2.12-3.24c0-2.26-1.72-3.92-5.18-5l-6-1.51Q211,335,211,327.67a9.16,9.16,0,0,1,3.92-7.74,17.95,17.95,0,0,1,18.5-.68,12.14,12.14,0,0,1,5.3,6l-5.91,2.45a7.41,7.41,0,0,0-3.27-3.49,10.32,10.32,0,0,0-5.08-1.26,8.5,8.5,0,0,0-4.64,1.29,3.75,3.75,0,0,0-2.06,3.17q0,3,5.69,4.32l5.33,1.37Q239.28,335.67,239.27,343.65Z" transform="translate(-16.23 -5.8)" fill="#fff"/><path d="M253.24,306a4.68,4.68,0,1,1-1.37-3.31A4.52,4.52,0,0,1,253.24,306Zm-1.37,12.17v35.28h-6.62V318.17Z" transform="translate(-16.23 -5.8)" fill="#fff"/><path d="M287.51,343.65a9.55,9.55,0,0,1-4,7.78,15.94,15.94,0,0,1-10.15,3.17,16.16,16.16,0,0,1-9.36-2.77,15.29,15.29,0,0,1-5.76-7.31l5.9-2.52a11.07,11.07,0,0,0,3.78,4.93,9.17,9.17,0,0,0,5.44,1.76,9.61,9.61,0,0,0,5.29-1.36,3.9,3.9,0,0,0,2.12-3.24c0-2.26-1.72-3.92-5.18-5l-6.05-1.51q-10.29-2.6-10.3-9.94a9.17,9.17,0,0,1,3.93-7.74,17.95,17.95,0,0,1,18.5-.68,12.14,12.14,0,0,1,5.3,6L281,327.67a7.38,7.38,0,0,0-3.28-3.49,10.25,10.25,0,0,0-5.07-1.26,8.5,8.5,0,0,0-4.64,1.29,3.75,3.75,0,0,0-2.06,3.17q0,3,5.69,4.32l5.33,1.37Q287.52,335.67,287.51,343.65Z" transform="translate(-16.23 -5.8)" fill="#fff"/><path d="M120.51,44.75a13.41,13.41,0,0,1-5,10.87,19,19,0,0,1-12.24,4A18.11,18.11,0,0,1,92,55.91a19.15,19.15,0,0,1-6.77-10.23l6.33-2.59a17,17,0,0,0,1.8,4.18,13.64,13.64,0,0,0,2.7,3.2,12.33,12.33,0,0,0,3.42,2.09,10.57,10.57,0,0,0,4,.76A11.38,11.38,0,0,0,110.86,51a7.63,7.63,0,0,0,2.88-6.23,7.45,7.45,0,0,0-2.38-5.55Q109.14,37,103,34.88a81.78,81.78,0,0,1-7.7-3q-8.2-4.17-8.21-12.31a12.55,12.55,0,0,1,4.54-9.72,16.54,16.54,0,0,1,11.3-4,17.35,17.35,0,0,1,10.23,3,14.19,14.19,0,0,1,5.75,7.42l-6.19,2.59A9.09,9.09,0,0,0,109.31,14a11.06,11.06,0,0,0-12.78.25,6.32,6.32,0,0,0-2.66,5.26A6.09,6.09,0,0,0,96,24.16q2.3,1.93,10,4.6,7.86,2.67,11.2,6.52A13.93,13.93,0,0,1,120.51,44.75Z" transform="translate(-16.23 -5.8)" fill="#fff"/><path d="M143.19,59.65a16.85,16.85,0,0,1-12.82-5.33,18.81,18.81,0,0,1-5-13.46,19.14,19.14,0,0,1,4.9-13.43,16.22,16.22,0,0,1,12.53-5.36q7.85,0,12.49,5.07t4.64,14.22l-.07.72H132.1a11.53,11.53,0,0,0,3.46,8.36,11,11,0,0,0,7.92,3.16q6.33,0,9.93-6.33l5.91,2.88a17.66,17.66,0,0,1-6.59,7A18.23,18.23,0,0,1,143.19,59.65Zm-10.59-23h20.24a8.81,8.81,0,0,0-3-6.08,10.45,10.45,0,0,0-7.24-2.41,9.58,9.58,0,0,0-6.44,2.3A11,11,0,0,0,132.6,36.61Z" transform="translate(-16.23 -5.8)" fill="#fff"/><path d="M181.92,75.2a19.83,19.83,0,0,1-5.54-.75,18.25,18.25,0,0,1-4.72-2.13A15.27,15.27,0,0,1,168,69.08a13.74,13.74,0,0,1-2.31-4.17L172,62.32a10,10,0,0,0,3.74,5,10.5,10.5,0,0,0,6.19,1.88q5.4,0,8.43-3.24t3-8.93V53.6h-.29A13,13,0,0,1,188,58a15.22,15.22,0,0,1-6.95,1.62,15.59,15.59,0,0,1-11.88-5.4,19.54,19.54,0,0,1-4.9-13.39,19.29,19.29,0,0,1,4.9-13.32,15.49,15.49,0,0,1,11.88-5.47A15.22,15.22,0,0,1,188,23.69a13,13,0,0,1,5.07,4.43h.29v-4.9h6.34V57q0,8.49-4.83,13.32T181.92,75.2Zm.22-21.6a10.14,10.14,0,0,0,8-3.52,13.12,13.12,0,0,0,3.24-9.22,13.13,13.13,0,0,0-3.24-9.14,10.19,10.19,0,0,0-8-3.6,10.32,10.32,0,0,0-8,3.6,13.13,13.13,0,0,0-3.24,9.14A13,13,0,0,0,174.15,50,10.32,10.32,0,0,0,182.14,53.6Z" transform="translate(-16.23 -5.8)" fill="#fff"/><path d="M220.8,22.07q7.35,0,11.6,3.92t4.24,10.77V58.5h-6.33V53.6H230q-4.11,6.06-10.94,6a14.24,14.24,0,0,1-9.76-3.45,11,11,0,0,1-3.92-8.64,10.47,10.47,0,0,1,4.14-8.72q4.13-3.24,11.05-3.24a19.59,19.59,0,0,1,9.72,2.16V36.25a7.57,7.57,0,0,0-2.74-5.87A9.41,9.41,0,0,0,221.16,28a10.15,10.15,0,0,0-8.78,4.68L206.55,29Q211.36,22.07,220.8,22.07ZM212.24,47.7A5.29,5.29,0,0,0,214.43,52a8.09,8.09,0,0,0,5.15,1.73,10.53,10.53,0,0,0,7.45-3.1,9.71,9.71,0,0,0,3.28-7.27q-3.1-2.45-8.64-2.45a11.19,11.19,0,0,0-6.73,2A5.74,5.74,0,0,0,212.24,47.7Z" transform="translate(-16.23 -5.8)" fill="#fff"/></g></svg>