<svg xmlns="http://www.w3.org/2000/svg" viewBox="0 0 332.42 427.45"><title>intellivision</title><g id="Layer_3" data-name="Layer 3"><circle cx="165.49" cy="85.05" r="8.2" fill="#fff"/><line x1="22.99" y1="121.55" x2="307.99" y2="121.55" fill="none"/><rect x="22.99" y="118.55" width="285" height="6" fill="#fff"/><line x1="22.99" y1="378.05" x2="307.99" y2="378.05" fill="none"/><rect x="22.99" y="375.05" width="285" height="6" fill="#fff"/><circle cx="165.49" cy="419.25" r="8.2" fill="#fff"/></g><g id="NEW_TEXT" data-name="NEW TEXT"><path d="M56.43,159.28v102.6H42.63v-85.5l-20,8.7-5.25-11.7,30.15-14.1Z" transform="translate(3.69 -6.95)" fill="#fff"/><path d="M107.13,224.38q-12.31,0-22.35-9.75A32.51,32.51,0,0,1,75,191.23q0-13.95,10.5-24,10.48-10.35,24.6-10.35a34,34,0,0,1,25,10.2,33,33,0,0,1,10.21,24.15q0,12.45-10,28.35l-29.85,44.7-11.1-7.65,25.35-35.1-.31-.3Q114.62,224.38,107.13,224.38Zm24.29-33.3a20,20,0,0,0-6.29-14.85,21.37,21.37,0,0,0-30,0,21,21,0,0,0,0,29.7,21.37,21.37,0,0,0,30,0A19.66,19.66,0,0,0,131.42,191.08Z" transform="translate(3.69 -6.95)" fill="#fff"/><path d="M223.82,173.38,174,264.28l-12.3-6.3,47.55-85.5h-51.9l.3-13.2h66.15Z" transform="translate(3.69 -6.95)" fill="#fff"/><path d="M267.92,224.38q-12.3,0-22.35-9.75a32.55,32.55,0,0,1-9.75-23.4q0-13.95,10.5-24,10.5-10.35,24.6-10.35A34.05,34.05,0,0,1,296,167.08a33,33,0,0,1,10.2,24.15q0,12.45-10.05,28.35l-29.85,44.7-11.1-7.65,25.35-35.1-.3-.3Q275.42,224.38,267.92,224.38Zm24.3-33.3a20,20,0,0,0-6.3-14.85,21.11,21.11,0,1,0-30,29.7,21.37,21.37,0,0,0,30,0A19.67,19.67,0,0,0,292.22,191.08Z" transform="translate(3.69 -6.95)" fill="#fff"/><path d="M2.94,353.45H-3.69V301.9H2.94Z" transform="translate(3.69 -6.95)" fill="#fff"/><path d="M12.15,318.17h6.34v4.89h.28a11.84,11.84,0,0,1,4.65-4.32A13.32,13.32,0,0,1,29.93,317q6.48,0,10,3.7t3.49,10.55v22.18H36.77V331.7q-.21-8.64-8.71-8.64a8.26,8.26,0,0,0-6.62,3.21,11.58,11.58,0,0,0-2.67,7.67v19.51H12.15Z" transform="translate(3.69 -6.95)" fill="#fff"/><path d="M63.34,354a10,10,0,0,1-7.16-2.66,9.89,9.89,0,0,1-2.92-7.42V324.21H47.07v-6h6.19v-10.8h6.63v10.8h8.64v6H59.89v17.57c0,2.36.45,4,1.36,4.79a4.48,4.48,0,0,0,3.1,1.26,6.7,6.7,0,0,0,1.55-.18,7.42,7.42,0,0,0,1.4-.47l2.09,5.91A17.89,17.89,0,0,1,63.34,354Z" transform="translate(3.69 -6.95)" fill="#fff"/><path d="M90.34,354.6a16.88,16.88,0,0,1-12.81-5.33,18.81,18.81,0,0,1-5-13.46,19.18,19.18,0,0,1,4.89-13.43A16.2,16.2,0,0,1,89.91,317q7.84,0,12.49,5.07t4.65,14.22L107,337H79.25a11.49,11.49,0,0,0,3.46,8.35,11,11,0,0,0,7.92,3.17q6.33,0,9.94-6.34l5.9,2.89a17.59,17.59,0,0,1-6.59,7A18.23,18.23,0,0,1,90.34,354.6Zm-10.58-23H100a8.75,8.75,0,0,0-3-6.08,10.44,10.44,0,0,0-7.23-2.42,9.6,9.6,0,0,0-6.45,2.31A11,11,0,0,0,79.76,331.56Z" transform="translate(3.69 -6.95)" fill="#fff"/><path d="M119.72,301.9v51.55h-6.63V301.9Z" transform="translate(3.69 -6.95)" fill="#fff"/><path d="M134.41,301.9v51.55h-6.63V301.9Z" transform="translate(3.69 -6.95)" fill="#fff"/><path d="M151,306a4.68,4.68,0,1,1-1.37-3.31A4.52,4.52,0,0,1,151,306Zm-1.37,12.17v35.28H143V318.17Z" transform="translate(3.69 -6.95)" fill="#fff"/><path d="M175.44,353.45h-6.62l-14.26-35.28h7.2l10.37,27.36h.15l10.51-27.36h7.05Z" transform="translate(3.69 -6.95)" fill="#fff"/><path d="M202.73,306a4.68,4.68,0,1,1-1.37-3.31A4.52,4.52,0,0,1,202.73,306Zm-1.37,12.17v35.28h-6.62V318.17Z" transform="translate(3.69 -6.95)" fill="#fff"/><path d="M237,343.66a9.55,9.55,0,0,1-4,7.77,15.94,15.94,0,0,1-10.15,3.17,16.18,16.18,0,0,1-9.36-2.77,15.29,15.29,0,0,1-5.76-7.31l5.9-2.52a11,11,0,0,0,3.78,4.93,9.18,9.18,0,0,0,5.44,1.77,9.61,9.61,0,0,0,5.29-1.37,3.86,3.86,0,0,0,2.12-3.24c0-2.26-1.72-3.91-5.18-5L219,337.61q-10.29-2.6-10.29-9.94a9.18,9.18,0,0,1,3.92-7.74,18,18,0,0,1,18.5-.68,12.18,12.18,0,0,1,5.3,6l-5.91,2.45a7.41,7.41,0,0,0-3.27-3.49,10.32,10.32,0,0,0-5.08-1.26,8.5,8.5,0,0,0-4.64,1.29,3.76,3.76,0,0,0-2.06,3.17q0,3,5.69,4.32l5.33,1.37Q237,335.67,237,343.66Z" transform="translate(3.69 -6.95)" fill="#fff"/><path d="M251,306a4.68,4.68,0,1,1-1.37-3.31A4.52,4.52,0,0,1,251,306Zm-1.37,12.17v35.28H243V318.17Z" transform="translate(3.69 -6.95)" fill="#fff"/><path d="M255.87,335.81A18.67,18.67,0,0,1,261,322.34,17.41,17.41,0,0,1,274,317a17.2,17.2,0,0,1,13,5.32,20.09,20.09,0,0,1,0,26.93,17.21,17.21,0,0,1-13,5.33,17.42,17.42,0,0,1-13-5.33A18.65,18.65,0,0,1,255.87,335.81Zm6.62,0A12.89,12.89,0,0,0,265.8,345a11.31,11.31,0,0,0,16.42,0,14.38,14.38,0,0,0,0-18.36,11.16,11.16,0,0,0-16.42,0A12.83,12.83,0,0,0,262.49,335.81Z" transform="translate(3.69 -6.95)" fill="#fff"/><path d="M297.48,318.17h6.34v4.89h.29a11.74,11.74,0,0,1,4.64-4.32,13.33,13.33,0,0,1,6.52-1.72q6.48,0,10,3.7t3.49,10.55v22.18h-6.62V331.7q-.23-8.64-8.72-8.64a8.26,8.26,0,0,0-6.62,3.21,11.57,11.57,0,0,0-2.66,7.67v19.51h-6.63Z" transform="translate(3.69 -6.95)" fill="#fff"/><path d="M75.54,58.5H68.92V7h6.62L93.47,38.34h.29L111.69,7h6.62V58.5h-6.62V27.9l.29-8.64h-.29L95.56,47.56H91.67L75.54,19.26h-.28l.28,8.64Z" transform="translate(3.69 -6.95)" fill="#fff"/><path d="M139.84,22.07q7.35,0,11.59,3.92t4.25,10.77V58.5h-6.34V53.6h-.28q-4.11,6.06-10.95,6a14.21,14.21,0,0,1-9.75-3.45,11,11,0,0,1-3.93-8.64,10.5,10.5,0,0,1,4.14-8.72q4.14-3.24,11.05-3.24a19.54,19.54,0,0,1,9.72,2.16V36.25a7.56,7.56,0,0,0-2.73-5.87A9.43,9.43,0,0,0,140.2,28a10.14,10.14,0,0,0-8.78,4.68L125.58,29Q130.41,22.07,139.84,22.07ZM131.27,47.7a5.27,5.27,0,0,0,2.2,4.32,8.09,8.09,0,0,0,5.15,1.73,10.55,10.55,0,0,0,7.45-3.1,9.7,9.7,0,0,0,3.27-7.27q-3.09-2.45-8.64-2.45a11.19,11.19,0,0,0-6.73,2A5.76,5.76,0,0,0,131.27,47.7Z" transform="translate(3.69 -6.95)" fill="#fff"/><path d="M199.46,59.08a10.08,10.08,0,0,1-7.17-2.67A9.86,9.86,0,0,1,189.38,49V29.27H173V47.05c0,2.07.42,3.55,1.26,4.47a3.94,3.94,0,0,0,3,1.36,8,8,0,0,0,3.17-.64l2.08,5.9a17.82,17.82,0,0,1-6,.94,10.08,10.08,0,0,1-7.17-2.67A9.86,9.86,0,0,1,166.34,49V29.27h-6.2V23.22h6.2V12.42H173v10.8h16.42V12.42H196v10.8h8.64v6.05H196V46.84q0,3.52,1.37,4.78a4.44,4.44,0,0,0,3.09,1.26A6.64,6.64,0,0,0,202,52.7a8.32,8.32,0,0,0,1.41-.46l2.08,5.9A17.82,17.82,0,0,1,199.46,59.08Z" transform="translate(3.69 -6.95)" fill="#fff"/><path d="M226.46,59.65a16.85,16.85,0,0,1-12.82-5.33,18.81,18.81,0,0,1-5-13.46,19.14,19.14,0,0,1,4.9-13.43A16.21,16.21,0,0,1,226,22.07q7.86,0,12.5,5.07t4.64,14.22l-.07.72H215.37a11.52,11.52,0,0,0,3.45,8.36,11.06,11.06,0,0,0,7.92,3.16q6.34,0,9.94-6.33l5.9,2.88a17.63,17.63,0,0,1-6.58,7A18.23,18.23,0,0,1,226.46,59.65Zm-10.59-23H236.1a8.76,8.76,0,0,0-3-6.08,10.47,10.47,0,0,0-7.24-2.41,9.56,9.56,0,0,0-6.44,2.3A11,11,0,0,0,215.87,36.61Z" transform="translate(3.69 -6.95)" fill="#fff"/><path d="M255.83,7V58.5h-6.62V7Z" transform="translate(3.69 -6.95)" fill="#fff"/></g></svg>