<svg xmlns="http://www.w3.org/2000/svg" viewBox="0 0 333.29 428.6"><title>kodi</title><g id="Layer_3" data-name="Layer 3"><circle cx="166.95" cy="86.2" r="8.2" fill="#fff"/><line x1="24.45" y1="122.7" x2="309.45" y2="122.7" fill="none"/><rect x="24.45" y="119.7" width="285" height="6" fill="#fff"/><line x1="24.45" y1="379.2" x2="309.45" y2="379.2" fill="none"/><rect x="24.45" y="376.2" width="285" height="6" fill="#fff"/><circle cx="166.95" cy="420.4" r="8.2" fill="#fff"/></g><g id="NEW_TEXT" data-name="NEW TEXT"><path d="M60.25,248.68v13.2H-5.15v-13.8L21.4,221.23q13.35-13.65,18.45-20.47A23.57,23.57,0,0,0,45,186.43a15.1,15.1,0,0,0-5.25-11.55q-5.25-4.8-13.5-4.8a18.51,18.51,0,0,0-12.15,4.2,18.94,18.94,0,0,0-6.6,10.2l-12.6-5.1a32,32,0,0,1,11.55-16,32.19,32.19,0,0,1,20.1-6.53q13.95,0,23.25,8.55a27.42,27.42,0,0,1,9.3,21q0,14.85-16.35,32.1l-30,30.15Z" transform="translate(5.15 -5.8)" fill="#fff"/><path d="M73.45,210.58q0-23.4,11.55-38.55t29.7-15.15q18.15,0,29.7,15.3Q156,187.33,156,210.58q0,23.1-11.55,38.55-11.55,15.17-29.7,15.15T85,249.13Q73.45,233.68,73.45,210.58Zm68.4,0q0-17.7-7.5-29.1t-19.65-11.4q-12.3,0-19.65,11.4t-7.5,29.1q0,17.7,7.5,29.25,7.35,11.25,19.65,11.25t19.65-11.4Q141.85,228.13,141.85,210.58Z" transform="translate(5.15 -5.8)" fill="#fff"/><path d="M169.15,210.58q0-23.4,11.55-38.55t29.7-15.15q18.15,0,29.7,15.3,11.55,15.15,11.55,38.4,0,23.1-11.55,38.55-11.55,15.17-29.7,15.15t-29.7-15.15Q169.15,233.68,169.15,210.58Zm68.4,0q0-17.7-7.5-29.1t-19.65-11.4q-12.3,0-19.65,11.4-7.5,11.4-7.5,29.1t7.5,29.25q7.35,11.25,19.65,11.25t19.65-11.4Q237.55,228.13,237.55,210.58Z" transform="translate(5.15 -5.8)" fill="#fff"/><path d="M328.15,248.68v13.2h-65.4v-13.8l26.55-26.85q13.35-13.65,18.45-20.47a23.57,23.57,0,0,0,5.1-14.33,15.1,15.1,0,0,0-5.25-11.55q-5.25-4.8-13.5-4.8a18.51,18.51,0,0,0-12.15,4.2,18.94,18.94,0,0,0-6.6,10.2l-12.6-5.1a32.93,32.93,0,0,1,31.65-22.5q14,0,23.25,8.55a27.42,27.42,0,0,1,9.3,21q0,14.85-16.35,32.1l-30,30.15Z" transform="translate(5.15 -5.8)" fill="#fff"/><path d="M126.09,301.9h8.57v.28L115.5,324.29,136,353.16v.29h-8.13L111,329.4l-7.92,9.14v14.91H96.5V301.9h6.62v26.56h.29Z" transform="translate(5.15 -5.8)" fill="#fff"/><path d="M136.67,335.81a18.68,18.68,0,0,1,5.12-13.47,17.4,17.4,0,0,1,13-5.32,17.2,17.2,0,0,1,13,5.32,20.09,20.09,0,0,1,0,26.93,17.21,17.21,0,0,1-13,5.33,17.41,17.41,0,0,1-13-5.33A18.66,18.66,0,0,1,136.67,335.81Zm6.63,0a12.89,12.89,0,0,0,3.31,9.21A11.31,11.31,0,0,0,163,345a14.38,14.38,0,0,0,0-18.36,11.16,11.16,0,0,0-16.42,0A12.83,12.83,0,0,0,143.3,335.81Z" transform="translate(5.15 -5.8)" fill="#fff"/><path d="M193.77,354.6a15.49,15.49,0,0,1-11.88-5.47,20.55,20.55,0,0,1,0-26.64A15.49,15.49,0,0,1,193.77,317a15.27,15.27,0,0,1,7.09,1.65,12.43,12.43,0,0,1,4.93,4.39h.29l-.29-4.89V301.9h6.63v51.55h-6.34v-4.9h-.29a12.28,12.28,0,0,1-4.93,4.39A15.15,15.15,0,0,1,193.77,354.6Zm1.08-6.05a10.12,10.12,0,0,0,8-3.53,14.62,14.62,0,0,0,0-18.36,10.19,10.19,0,0,0-8-3.6,10.32,10.32,0,0,0-8,3.6,13.16,13.16,0,0,0-3.24,9.15,13,13,0,0,0,3.24,9.14A10.32,10.32,0,0,0,194.85,348.55Z" transform="translate(5.15 -5.8)" fill="#fff"/><path d="M229.05,306a4.68,4.68,0,1,1-9.36,0,4.68,4.68,0,0,1,4.68-4.68,4.68,4.68,0,0,1,4.68,4.68Zm-1.37,12.17v35.28h-6.62V318.17Z" transform="translate(5.15 -5.8)" fill="#fff"/><path d="M70.83,58.5H63.05L80.33,31.86,64.06,7H72L84.51,26.68h.29L97.33,7h7.92L89,31.86,106.25,58.5H98.48L84.8,37.4h-.29Z" transform="translate(5.15 -5.8)" fill="#fff"/><path d="M112.59,58.5V7h18.65a15,15,0,0,1,10.51,4,12.89,12.89,0,0,1,4.39,10,10.89,10.89,0,0,1-7,10.73V32a12.56,12.56,0,0,1,6.33,4.5,11.94,11.94,0,0,1,2.38,7.31,13.57,13.57,0,0,1-4.61,10.51,15.51,15.51,0,0,1-11,4.18Zm6.62-45.22V29.05h12a8,8,0,0,0,5.9-2.37,7.65,7.65,0,0,0,.07-11,7.62,7.62,0,0,0-5.69-2.38Zm0,22V52.16h13.32a8.48,8.48,0,0,0,8.57-8.49,8.09,8.09,0,0,0-2.52-5.91,8.59,8.59,0,0,0-6.34-2.52Z" transform="translate(5.15 -5.8)" fill="#fff"/><path d="M162,58.5h-6.62V7H162l17.93,31.39h.29L198.12,7h6.63V58.5h-6.63V27.9l.29-8.64h-.29L182,47.56h-3.89L162,19.26h-.29L162,27.9Z" transform="translate(5.15 -5.8)" fill="#fff"/><path d="M238.66,59.65a26.2,26.2,0,0,1-26.78-26.93q0-11.52,7.63-19.15A25.72,25.72,0,0,1,238.66,5.8q11.67,0,18.93,8.42l-4.75,4.61a17.57,17.57,0,0,0-14.18-6.7,19.46,19.46,0,0,0-14.33,5.76q-5.69,5.68-5.69,14.83t5.69,14.84a19.46,19.46,0,0,0,14.33,5.76q9,0,15.62-7.56l4.83,4.68a25.15,25.15,0,0,1-9,6.8A27.44,27.44,0,0,1,238.66,59.65Z" transform="translate(5.15 -5.8)" fill="#fff"/></g></svg>