<svg xmlns="http://www.w3.org/2000/svg" viewBox="0 0 313.63 427.45"><title>machintosh</title><g id="Layer_3" data-name="Layer 3"><circle cx="156.81" cy="85.05" r="8.2" fill="#fff"/><line x1="14.31" y1="121.55" x2="299.31" y2="121.55" fill="none"/><rect x="14.31" y="118.55" width="285" height="6" fill="#fff"/><line x1="14.31" y1="378.05" x2="299.31" y2="378.05" fill="none"/><rect x="14.31" y="375.05" width="285" height="6" fill="#fff"/><circle cx="156.81" cy="419.25" r="8.2" fill="#fff"/></g><g id="NEW_TEXT" data-name="NEW TEXT"><path d="M52.15,159.28v102.6H38.35v-85.5l-20,8.7-5.25-11.7,30.15-14.1Z" transform="translate(-4.99 -6.95)" fill="#fff"/><path d="M102.85,224.38q-12.3,0-22.35-9.75a32.55,32.55,0,0,1-9.75-23.4q0-13.95,10.5-24,10.5-10.35,24.6-10.35a34.05,34.05,0,0,1,25.05,10.2,33,33,0,0,1,10.2,24.15q0,12.45-10,28.35l-29.85,44.7-11.1-7.65,25.35-35.1-.3-.3Q110.35,224.38,102.85,224.38Zm24.3-33.3a20,20,0,0,0-6.3-14.85,21.37,21.37,0,0,0-30,0,21,21,0,0,0,0,29.7,21.37,21.37,0,0,0,30,0A19.67,19.67,0,0,0,127.15,191.08Z" transform="translate(-4.99 -6.95)" fill="#fff"/><path d="M222.7,233.53a27.74,27.74,0,0,1-10,21.9q-10.2,8.85-24.75,8.85t-24.75-8.85a27.74,27.74,0,0,1-10.05-21.9,26.48,26.48,0,0,1,4.35-14.77,29.92,29.92,0,0,1,12.45-10.58v-.6a32.24,32.24,0,0,1-9.68-9.6,21.79,21.79,0,0,1-3.67-12,27.58,27.58,0,0,1,8.85-20.85q8.7-8.25,22.5-8.25t22.5,8.25A27.58,27.58,0,0,1,219.25,186a21.8,21.8,0,0,1-3.68,12,32.2,32.2,0,0,1-9.67,9.6v.6a29.92,29.92,0,0,1,12.45,10.58A26.48,26.48,0,0,1,222.7,233.53Zm-55.5-.75a16.81,16.81,0,0,0,1.57,7.35,18.17,18.17,0,0,0,4.35,5.78,19.73,19.73,0,0,0,6.53,3.82,25.88,25.88,0,0,0,16.5,0,19.69,19.69,0,0,0,6.52-3.82,18.17,18.17,0,0,0,4.35-5.78,16.82,16.82,0,0,0,1.58-7.35,16.21,16.21,0,0,0-6-12.9,21.54,21.54,0,0,0-14.7-5.25,22.1,22.1,0,0,0-14.85,5.25A16.66,16.66,0,0,0,167.2,232.78Zm3.45-47.1a15.08,15.08,0,0,0,4.8,11.63q4.8,4.42,12.45,4.42t12.45-4.42a15.08,15.08,0,0,0,4.8-11.63q0-7.2-4.8-11.4t-12.45-4.2q-7.65,0-12.45,4.2T170.65,185.68Z" transform="translate(-4.99 -6.95)" fill="#fff"/><path d="M297.25,240.28v21.6h-13.8v-21.6H234.7v-10.5l47.55-70.5h15v68.1h13.2v12.9Zm-46.95-12.9h33.15V179.53h-.6Z" transform="translate(-4.99 -6.95)" fill="#fff"/><path d="M11.61,357.15H5V305.6h6.62L29.54,337h.29L47.75,305.6h6.63v51.55H47.75V326.56l.29-8.65h-.29l-16.12,28.3H27.74l-16.13-28.3h-.29l.29,8.65Z" transform="translate(-4.99 -6.95)" fill="#fff"/><path d="M75.9,320.72q7.35,0,11.6,3.93t4.24,10.76v21.74H85.41v-4.89h-.29q-4.11,6-10.94,6.05a14.26,14.26,0,0,1-9.76-3.46,11,11,0,0,1-3.92-8.64,10.48,10.48,0,0,1,4.14-8.71q4.14-3.24,11-3.24a19.59,19.59,0,0,1,9.72,2.16v-1.51A7.52,7.52,0,0,0,82.67,329a9.36,9.36,0,0,0-6.4-2.41,10.16,10.16,0,0,0-8.79,4.68l-5.83-3.67Q66.47,320.72,75.9,320.72Zm-8.56,25.63a5.29,5.29,0,0,0,2.19,4.32,8.05,8.05,0,0,0,5.15,1.73,10.56,10.56,0,0,0,7.45-3.09A9.7,9.7,0,0,0,85.41,342q-3.1-2.44-8.64-2.44A11.18,11.18,0,0,0,70,341.53,5.78,5.78,0,0,0,67.34,346.35Z" transform="translate(-4.99 -6.95)" fill="#fff"/><path d="M115,358.31A17.44,17.44,0,0,1,102,353a19,19,0,0,1-5.11-13.46A18.66,18.66,0,0,1,102,326.05a17.44,17.44,0,0,1,13-5.33,16.16,16.16,0,0,1,15.48,10.15l-6,2.53q-2.81-6.63-9.86-6.63a10.24,10.24,0,0,0-7.85,3.67,14.33,14.33,0,0,0,0,18.15,10.8,10.8,0,0,0,18.07-2.95l5.91,2.51a15.85,15.85,0,0,1-6.09,7.46A17.19,17.19,0,0,1,115,358.31Z" transform="translate(-4.99 -6.95)" fill="#fff"/><path d="M145,309.71a4.66,4.66,0,1,1-1.36-3.31A4.51,4.51,0,0,1,145,309.71Zm-1.36,12.16v35.28H137V321.87Z" transform="translate(-4.99 -6.95)" fill="#fff"/><path d="M152.3,321.87h6.33v4.9h.29a11.81,11.81,0,0,1,4.64-4.32,13.34,13.34,0,0,1,6.52-1.73q6.48,0,10,3.71T183.54,335v22.17h-6.62V335.41q-.21-8.64-8.71-8.64a8.29,8.29,0,0,0-6.63,3.21,11.61,11.61,0,0,0-2.66,7.66v19.51H152.3Z" transform="translate(-4.99 -6.95)" fill="#fff"/><path d="M203.49,357.73a10.11,10.11,0,0,1-7.17-2.66,9.88,9.88,0,0,1-2.91-7.42V327.92h-6.19v-6.05h6.19v-10.8H200v10.8h8.64v6.05H200v17.57q0,3.52,1.37,4.79a4.44,4.44,0,0,0,3.09,1.26,6.64,6.64,0,0,0,1.55-.18,8,8,0,0,0,1.41-.47l2.08,5.9A17.58,17.58,0,0,1,203.49,357.73Z" transform="translate(-4.99 -6.95)" fill="#fff"/><path d="M212.63,339.52a18.66,18.66,0,0,1,5.11-13.47,17.44,17.44,0,0,1,13-5.33,17.21,17.21,0,0,1,13,5.33,20.09,20.09,0,0,1,0,26.93,17.21,17.21,0,0,1-13,5.33,17.44,17.44,0,0,1-13-5.33A18.65,18.65,0,0,1,212.63,339.52Zm6.63,0a12.89,12.89,0,0,0,3.31,9.21,11.3,11.3,0,0,0,16.41,0,14.35,14.35,0,0,0,0-18.36,11.15,11.15,0,0,0-16.41,0A12.81,12.81,0,0,0,219.26,339.52Z" transform="translate(-4.99 -6.95)" fill="#fff"/><path d="M281.61,347.36a9.58,9.58,0,0,1-4,7.78,17.52,17.52,0,0,1-19.52.39,15.28,15.28,0,0,1-5.76-7.3l5.91-2.52a10.93,10.93,0,0,0,3.78,4.93,9.12,9.12,0,0,0,5.43,1.76,9.56,9.56,0,0,0,5.3-1.37,3.89,3.89,0,0,0,2.12-3.24c0-2.25-1.73-3.91-5.18-5l-6.05-1.52q-10.31-2.58-10.3-9.93a9.16,9.16,0,0,1,3.93-7.74,18,18,0,0,1,18.5-.69,12.18,12.18,0,0,1,5.29,6l-5.9,2.45a7.48,7.48,0,0,0-3.28-3.49,10.25,10.25,0,0,0-5.07-1.26,8.56,8.56,0,0,0-4.65,1.29,3.73,3.73,0,0,0-2.05,3.17q0,3,5.69,4.32l5.33,1.37Q281.6,339.38,281.61,347.36Z" transform="translate(-4.99 -6.95)" fill="#fff"/><path d="M287.37,305.6H294v16.27l-.29,4.9H294a11.81,11.81,0,0,1,4.64-4.32,13.34,13.34,0,0,1,6.52-1.73q6.48,0,10,3.71T318.61,335v22.17H312V336.27q0-9.5-8.42-9.5a8.54,8.54,0,0,0-6.81,3.35,11.87,11.87,0,0,0-2.77,7.81v19.22h-6.62Z" transform="translate(-4.99 -6.95)" fill="#fff"/><path d="M79.43,58.5H72.09L91.53,7H99L118.46,58.5h-7.35l-5-14H84.47Zm15.7-43.42L86.7,38.34h17.14L95.42,15.08Z" transform="translate(-4.99 -6.95)" fill="#fff"/><path d="M142.07,59.65A15.24,15.24,0,0,1,135,58a12.38,12.38,0,0,1-4.93-4.4h-.29l.29,4.9V74.05h-6.63V23.22h6.34v4.9h.29a12.38,12.38,0,0,1,4.93-4.4,15.68,15.68,0,0,1,18.9,3.82,19.3,19.3,0,0,1,5,13.32,19.12,19.12,0,0,1-5,13.32A15.15,15.15,0,0,1,142.07,59.65Zm-1.08-6a10.32,10.32,0,0,0,8-3.6,13,13,0,0,0,3.24-9.14A13.13,13.13,0,0,0,149,31.72a10.74,10.74,0,0,0-16,0,13.28,13.28,0,0,0-3.17,9.14,13.42,13.42,0,0,0,3.17,9.22A10.5,10.5,0,0,0,141,53.6Z" transform="translate(-4.99 -6.95)" fill="#fff"/><path d="M182.54,59.65a15.28,15.28,0,0,1-7.1-1.65,12.45,12.45,0,0,1-4.93-4.4h-.29l.29,4.9V74.05h-6.62V23.22h6.33v4.9h.29a12.45,12.45,0,0,1,4.93-4.4,15.28,15.28,0,0,1,7.1-1.65,15.13,15.13,0,0,1,11.8,5.47,19.25,19.25,0,0,1,5,13.32,19.08,19.08,0,0,1-5,13.32A15.13,15.13,0,0,1,182.54,59.65Zm-1.08-6a10.34,10.34,0,0,0,8-3.6,13,13,0,0,0,3.24-9.14,13.13,13.13,0,0,0-3.24-9.14,10.76,10.76,0,0,0-16.06,0,13.33,13.33,0,0,0-3.17,9.14,13.47,13.47,0,0,0,3.17,9.22A10.51,10.51,0,0,0,181.46,53.6Z" transform="translate(-4.99 -6.95)" fill="#fff"/><path d="M211.26,7V58.5h-6.62V7Z" transform="translate(-4.99 -6.95)" fill="#fff"/><path d="M234.81,59.65A16.85,16.85,0,0,1,222,54.32a18.81,18.81,0,0,1-5-13.46,19.14,19.14,0,0,1,4.9-13.43,16.22,16.22,0,0,1,12.53-5.36q7.85,0,12.49,5.07t4.64,14.22l-.07.72H223.72a11.53,11.53,0,0,0,3.46,8.36,11,11,0,0,0,7.92,3.16q6.33,0,9.93-6.33l5.91,2.88a17.66,17.66,0,0,1-6.59,7A18.23,18.23,0,0,1,234.81,59.65Zm-10.59-23h20.24a8.81,8.81,0,0,0-3-6.08,10.45,10.45,0,0,0-7.24-2.41,9.58,9.58,0,0,0-6.44,2.3A11,11,0,0,0,224.22,36.61Z" transform="translate(-4.99 -6.95)" fill="#fff"/></g></svg>