<svg xmlns="http://www.w3.org/2000/svg" viewBox="0 0 288.75 428.03"><title>mame</title><g id="Layer_3" data-name="Layer 3"><circle cx="144.37" cy="85.63" r="8.2" fill="#fff"/><line x1="1.87" y1="122.13" x2="286.87" y2="122.13" fill="none"/><rect x="1.87" y="119.13" width="285" height="6" fill="#fff"/><line x1="1.87" y1="378.63" x2="286.87" y2="378.63" fill="none"/><rect x="1.87" y="375.63" width="285" height="6" fill="#fff"/><circle cx="144.37" cy="419.83" r="8.2" fill="#fff"/></g><g id="NEW_TEXT" data-name="NEW TEXT"><path d="M56.43,159.28v102.6H42.63v-85.5l-20,8.7-5.25-11.7,30.15-14.1Z" transform="translate(-17.43 -6.37)" fill="#fff"/><path d="M107.13,224.38q-12.31,0-22.35-9.75A32.51,32.51,0,0,1,75,191.23q0-13.95,10.5-24,10.48-10.35,24.6-10.35a34,34,0,0,1,25,10.2,33,33,0,0,1,10.21,24.15q0,12.45-10,28.35l-29.85,44.7-11.1-7.65,25.35-35.1-.31-.3Q114.62,224.38,107.13,224.38Zm24.29-33.3a20,20,0,0,0-6.29-14.85,21.37,21.37,0,0,0-30,0,21,21,0,0,0,0,29.7,21.37,21.37,0,0,0,30,0A19.66,19.66,0,0,0,131.42,191.08Z" transform="translate(-17.43 -6.37)" fill="#fff"/><path d="M189.47,224.38q-12.3,0-22.35-9.75a32.55,32.55,0,0,1-9.75-23.4q0-13.95,10.5-24,10.5-10.35,24.6-10.35a34.05,34.05,0,0,1,25.05,10.2,33,33,0,0,1,10.2,24.15q0,12.45-10.05,28.35l-29.85,44.7-11.1-7.65,25.35-35.1-.3-.3Q197,224.38,189.47,224.38Zm24.3-33.3a20,20,0,0,0-6.3-14.85,21.11,21.11,0,1,0-30,29.7,21.37,21.37,0,0,0,30,0A19.67,19.67,0,0,0,213.77,191.08Z" transform="translate(-17.43 -6.37)" fill="#fff"/><path d="M306.17,173.38l-49.8,90.9-12.3-6.3,47.55-85.5h-51.9l.3-13.2h66.15Z" transform="translate(-17.43 -6.37)" fill="#fff"/><path d="M70.29,353.45H63.67V301.9h6.62l17.93,31.39h.29l17.92-31.39h6.63v51.55h-6.63v-30.6l.29-8.64h-.29L90.31,342.5H86.42L70.29,314.21H70l.29,8.64Z" transform="translate(-17.43 -6.37)" fill="#fff"/><path d="M126.45,353.45H119.1l19.44-51.55H146l19.44,51.55h-7.34l-5-14H131.49ZM142.14,310l-8.42,23.26h17.14L142.43,310Z" transform="translate(-17.43 -6.37)" fill="#fff"/><path d="M178.14,353.45h-6.62V301.9h6.62l17.93,31.39h.29l17.93-31.39h6.62v51.55h-6.62v-30.6l.29-8.64h-.29L198.16,342.5h-3.89l-16.13-28.29h-.28l.28,8.64Z" transform="translate(-17.43 -6.37)" fill="#fff"/><path d="M261.38,301.9v6.33H237.9v16.35h21.17v6.19H237.9v16.34h23.48v6.34h-30.1V301.9Z" transform="translate(-17.43 -6.37)" fill="#fff"/><path d="M71.91,58.5H65L46.85,7H54.2L68.31,48.78h.29L83.28,7h7.35Z" transform="translate(-17.43 -6.37)" fill="#fff"/><path d="M105.32,22.07q7.34,0,11.59,3.92t4.25,10.77V58.5h-6.34V53.6h-.29a12.61,12.61,0,0,1-10.94,6,14.26,14.26,0,0,1-9.76-3.45,11.07,11.07,0,0,1-3.92-8.64,10.5,10.5,0,0,1,4.14-8.72q4.14-3.24,11-3.24a19.54,19.54,0,0,1,9.72,2.16V36.25a7.54,7.54,0,0,0-2.74-5.87,9.39,9.39,0,0,0-6.4-2.41,10.16,10.16,0,0,0-8.79,4.68L91.06,29Q95.89,22.07,105.32,22.07ZM96.75,47.7A5.29,5.29,0,0,0,98.94,52a8.11,8.11,0,0,0,5.15,1.73,10.51,10.51,0,0,0,7.45-3.1,9.68,9.68,0,0,0,3.28-7.27q-3.09-2.45-8.64-2.45a11.19,11.19,0,0,0-6.73,2A5.76,5.76,0,0,0,96.75,47.7Z" transform="translate(-17.43 -6.37)" fill="#fff"/><path d="M135.27,58.5h-6.63V23.22H135V29h.29a9.55,9.55,0,0,1,4.14-4.79,11.49,11.49,0,0,1,6.15-2,12.34,12.34,0,0,1,4.9.87l-2,6.4a11.08,11.08,0,0,0-3.88-.5A8.59,8.59,0,0,0,138,32a10.12,10.12,0,0,0-2.77,7.06Z" transform="translate(-17.43 -6.37)" fill="#fff"/><path d="M163.35,11.05A4.51,4.51,0,0,1,162,14.36a4.68,4.68,0,0,1-8-3.31,4.68,4.68,0,1,1,9.36,0ZM162,23.22V58.5h-6.62V23.22Z" transform="translate(-17.43 -6.37)" fill="#fff"/><path d="M168.24,40.86a18.66,18.66,0,0,1,5.12-13.46,17.39,17.39,0,0,1,13-5.33,17.17,17.17,0,0,1,13,5.33,18.54,18.54,0,0,1,5.18,13.46,18.37,18.37,0,0,1-5.18,13.46,17.17,17.17,0,0,1-13,5.33,17.39,17.39,0,0,1-13-5.33A18.66,18.66,0,0,1,168.24,40.86Zm6.63,0a12.94,12.94,0,0,0,3.31,9.22,11.33,11.33,0,0,0,16.42,0,13,13,0,0,0,3.31-9.22,12.85,12.85,0,0,0-3.31-9.14,11.16,11.16,0,0,0-16.42,0A12.8,12.8,0,0,0,174.87,40.86Z" transform="translate(-17.43 -6.37)" fill="#fff"/><path d="M241.18,58.5h-6.34V53.6h-.28a11.77,11.77,0,0,1-4.65,4.32,13.23,13.23,0,0,1-6.51,1.73q-6.48,0-10-3.71T209.93,45.4V23.22h6.63V45q.21,8.64,8.71,8.64a8.25,8.25,0,0,0,6.62-3.2,11.6,11.6,0,0,0,2.67-7.67V23.22h6.62Z" transform="translate(-17.43 -6.37)" fill="#fff"/><path d="M275.88,48.71a9.55,9.55,0,0,1-4,7.77,15.88,15.88,0,0,1-10.15,3.17,16.11,16.11,0,0,1-9.36-2.77,15.25,15.25,0,0,1-5.76-7.31l5.9-2.52A11,11,0,0,0,256.26,52a9.18,9.18,0,0,0,5.44,1.77A9.59,9.59,0,0,0,267,52.38a3.88,3.88,0,0,0,2.13-3.24c0-2.26-1.73-3.91-5.19-5l-6.05-1.51q-10.29-2.59-10.29-9.94A9.2,9.2,0,0,1,251.51,25,18,18,0,0,1,270,24.3a12.14,12.14,0,0,1,5.29,6l-5.91,2.44a7.45,7.45,0,0,0-3.27-3.49A10.29,10.29,0,0,0,261.05,28a8.45,8.45,0,0,0-4.64,1.3,3.72,3.72,0,0,0-2.05,3.17q0,3,5.68,4.32l5.33,1.36Q275.89,40.72,275.88,48.71Z" transform="translate(-17.43 -6.37)" fill="#fff"/></g></svg>