<svg xmlns="http://www.w3.org/2000/svg" viewBox="0 0 291.9 428.6"><title>mastersystem</title><g id="Layer_3" data-name="Layer 3"><circle cx="145.95" cy="86.2" r="8.2" fill="#fff"/><line x1="3.45" y1="122.7" x2="288.45" y2="122.7" fill="none"/><rect x="3.45" y="119.7" width="285" height="6" fill="#fff"/><line x1="3.45" y1="379.2" x2="288.45" y2="379.2" fill="none"/><rect x="3.45" y="376.2" width="285" height="6" fill="#fff"/><circle cx="145.95" cy="420.4" r="8.2" fill="#fff"/></g><g id="NEW_TEXT" data-name="NEW TEXT"><path d="M54.85,159.28v102.6H41.05v-85.5l-19.95,8.7-5.25-11.7L46,159.28Z" transform="translate(-15.85 -5.8)" fill="#fff"/><path d="M105.55,224.38q-12.3,0-22.35-9.75a32.55,32.55,0,0,1-9.75-23.4q0-13.95,10.5-24,10.5-10.35,24.6-10.35a34.05,34.05,0,0,1,25,10.2,33,33,0,0,1,10.2,24.15q0,12.45-10.05,28.35l-29.85,44.7-11.1-7.65,25.35-35.1-.3-.3Q113.05,224.38,105.55,224.38Zm24.3-33.3a20,20,0,0,0-6.3-14.85,21.37,21.37,0,0,0-30,0,21,21,0,0,0,0,29.7,21.37,21.37,0,0,0,30,0A19.67,19.67,0,0,0,129.85,191.08Z" transform="translate(-15.85 -5.8)" fill="#fff"/><path d="M225.4,233.53a27.74,27.74,0,0,1-10.05,21.9q-10.2,8.85-24.75,8.85t-24.75-8.85a27.74,27.74,0,0,1-10-21.9,26.48,26.48,0,0,1,4.35-14.77,29.92,29.92,0,0,1,12.45-10.58v-.6a32.24,32.24,0,0,1-9.68-9.6,21.79,21.79,0,0,1-3.67-12,27.58,27.58,0,0,1,8.85-20.85q8.7-8.25,22.5-8.25t22.5,8.25A27.58,27.58,0,0,1,222,186a21.8,21.8,0,0,1-3.68,12,32.2,32.2,0,0,1-9.67,9.6v.6a29.92,29.92,0,0,1,12.45,10.58A26.48,26.48,0,0,1,225.4,233.53Zm-55.5-.75a16.81,16.81,0,0,0,1.57,7.35,18.17,18.17,0,0,0,4.35,5.78,19.73,19.73,0,0,0,6.53,3.82,25.88,25.88,0,0,0,16.5,0,19.69,19.69,0,0,0,6.52-3.82,18.17,18.17,0,0,0,4.35-5.78,16.82,16.82,0,0,0,1.58-7.35,16.21,16.21,0,0,0-6-12.9,21.54,21.54,0,0,0-14.7-5.25,22.1,22.1,0,0,0-14.85,5.25A16.66,16.66,0,0,0,169.9,232.78Zm3.45-47.1a15.08,15.08,0,0,0,4.8,11.63q4.8,4.42,12.45,4.42t12.45-4.42a15.08,15.08,0,0,0,4.8-11.63q0-7.2-4.8-11.4t-12.45-4.2q-7.65,0-12.45,4.2T173.35,185.68Z" transform="translate(-15.85 -5.8)" fill="#fff"/><path d="M275.65,196.78q12.45,0,22.2,9.9a31.52,31.52,0,0,1,9.9,23.25q0,13.8-10.5,24.15-10.65,10.2-24.6,10.2a34.05,34.05,0,0,1-25-10.2,33,33,0,0,1-10.2-24.15q0-12.45,10-28.35l29.85-44.7,11.1,7.65-25.35,35.1.3.3Q268,196.78,275.65,196.78Zm-24.3,33.3a20.39,20.39,0,0,0,6.15,15,20.86,20.86,0,0,0,15.15,6,20.75,20.75,0,0,0,21.15-21,20,20,0,0,0-6.3-14.85,20.23,20.23,0,0,0-14.85-6.15,21.07,21.07,0,0,0-15,6.15A20,20,0,0,0,251.35,230.08Z" transform="translate(-15.85 -5.8)" fill="#fff"/><path d="M103.24,311.58h-4V280.07h4l11,19.19h.18l10.95-19.19h4.05v31.51h-4.05v-18.7l.18-5.28h-.18l-9.85,17.29h-2.38l-9.85-17.29h-.18l.18,5.28Z" transform="translate(-15.85 -5.8)" fill="#fff"/><path d="M142.53,289.31a10,10,0,0,1,7.08,2.4,8.52,8.52,0,0,1,2.6,6.58v13.29h-3.87v-3h-.18a7.71,7.71,0,0,1-6.69,3.7,8.69,8.69,0,0,1-6-2.11,6.75,6.75,0,0,1-2.4-5.28,6.38,6.38,0,0,1,2.53-5.32,10.68,10.68,0,0,1,6.76-2,12,12,0,0,1,5.94,1.33V298a4.58,4.58,0,0,0-1.68-3.58,5.69,5.69,0,0,0-3.91-1.48,6.22,6.22,0,0,0-5.37,2.86l-3.56-2.24Q136.76,289.31,142.53,289.31ZM137.29,305a3.26,3.26,0,0,0,1.34,2.64,5,5,0,0,0,3.15,1.05,6.44,6.44,0,0,0,4.55-1.89,5.91,5.91,0,0,0,2-4.44,8.33,8.33,0,0,0-5.28-1.5,6.88,6.88,0,0,0-4.12,1.19A3.52,3.52,0,0,0,137.29,305Z" transform="translate(-15.85 -5.8)" fill="#fff"/><path d="M173.06,305.59a5.84,5.84,0,0,1-2.46,4.75,9.67,9.67,0,0,1-6.2,1.94,9.81,9.81,0,0,1-5.72-1.69,9.28,9.28,0,0,1-3.52-4.47l3.6-1.54a6.67,6.67,0,0,0,2.31,3,5.63,5.63,0,0,0,3.33,1.08,5.92,5.92,0,0,0,3.23-.83,2.39,2.39,0,0,0,1.3-2q0-2.07-3.17-3l-3.7-.92q-6.28-1.59-6.29-6.07a5.62,5.62,0,0,1,2.4-4.74,11,11,0,0,1,11.31-.41,7.35,7.35,0,0,1,3.23,3.65l-3.61,1.5a4.55,4.55,0,0,0-2-2.14,6.31,6.31,0,0,0-3.1-.77,5.28,5.28,0,0,0-2.84.79,2.3,2.3,0,0,0-1.25,1.94q0,1.85,3.47,2.64l3.26.84Q173.06,300.71,173.06,305.59Z" transform="translate(-15.85 -5.8)" fill="#fff"/><path d="M184.9,311.93a6.14,6.14,0,0,1-4.38-1.63,6,6,0,0,1-1.78-4.53V293.71H175V290h3.78v-6.6h4V290h5.28v3.69h-5.28v10.74a4,4,0,0,0,.83,2.93,2.75,2.75,0,0,0,1.9.77,4.24,4.24,0,0,0,.94-.11,5.1,5.1,0,0,0,.86-.29l1.28,3.61A10.94,10.94,0,0,1,184.9,311.93Z" transform="translate(-15.85 -5.8)" fill="#fff"/><path d="M201.4,312.28a10.3,10.3,0,0,1-7.83-3.25,11.5,11.5,0,0,1-3.08-8.23,11.7,11.7,0,0,1,3-8.21,10.75,10.75,0,0,1,15.29-.17q2.83,3.09,2.84,8.69l-.05.43H194.62a7,7,0,0,0,2.12,5.11,6.73,6.73,0,0,0,4.83,1.93c2.59,0,4.61-1.29,6.08-3.87l3.61,1.76a10.77,10.77,0,0,1-4,4.27A11.11,11.11,0,0,1,201.4,312.28Zm-6.47-14.08H207.3a5.41,5.41,0,0,0-1.83-3.72,6.39,6.39,0,0,0-4.42-1.47,5.86,5.86,0,0,0-3.94,1.41A6.72,6.72,0,0,0,194.93,298.2Z" transform="translate(-15.85 -5.8)" fill="#fff"/><path d="M219.35,311.58h-4V290h3.88v3.52h.17a5.87,5.87,0,0,1,2.53-2.93,7,7,0,0,1,3.76-1.21,7.67,7.67,0,0,1,3,.53l-1.24,3.91a6.86,6.86,0,0,0-2.37-.3,5.21,5.21,0,0,0-4,1.84,6.2,6.2,0,0,0-1.7,4.32Z" transform="translate(-15.85 -5.8)" fill="#fff"/><path d="M114.46,356a8.21,8.21,0,0,1-3,6.65,11.61,11.61,0,0,1-7.48,2.46A11.05,11.05,0,0,1,97,362.79a11.68,11.68,0,0,1-4.13-6.25L96.77,355a9.78,9.78,0,0,0,1.1,2.55,8.14,8.14,0,0,0,1.65,2,7.49,7.49,0,0,0,2.09,1.28,6.55,6.55,0,0,0,2.42.46,7,7,0,0,0,4.53-1.43,4.66,4.66,0,0,0,1.76-3.81,4.55,4.55,0,0,0-1.45-3.39,13.94,13.94,0,0,0-5.11-2.63q-3.78-1.36-4.7-1.85-5-2.55-5-7.53a7.69,7.69,0,0,1,2.77-5.94,10.14,10.14,0,0,1,6.91-2.46A10.65,10.65,0,0,1,110,334a8.65,8.65,0,0,1,3.52,4.53l-3.79,1.58a5.56,5.56,0,0,0-2.09-2.92,6.75,6.75,0,0,0-7.81.15,3.85,3.85,0,0,0-1.62,3.21,3.72,3.72,0,0,0,1.27,2.82q1.41,1.19,6.12,2.82c3.19,1.08,5.48,2.41,6.84,4A8.51,8.51,0,0,1,114.46,356Z" transform="translate(-15.85 -5.8)" fill="#fff"/><path d="M137,342.82l-13.51,31.06h-4.18l5-10.87-8.89-20.19h4.4l6.42,15.48h.09l6.25-15.48Z" transform="translate(-15.85 -5.8)" fill="#fff"/><path d="M155.73,358.39a5.82,5.82,0,0,1-2.47,4.75,9.67,9.67,0,0,1-6.2,1.94,9.84,9.84,0,0,1-5.72-1.69,9.34,9.34,0,0,1-3.52-4.47l3.61-1.54a6.67,6.67,0,0,0,2.31,3,5.6,5.6,0,0,0,3.32,1.08,5.89,5.89,0,0,0,3.23-.83,2.37,2.37,0,0,0,1.3-2c0-1.38-1.05-2.39-3.17-3l-3.69-.92q-6.3-1.59-6.29-6.07a5.61,5.61,0,0,1,2.39-4.74,10.09,10.09,0,0,1,6.14-1.78,10,10,0,0,1,5.17,1.37,7.42,7.42,0,0,1,3.24,3.65l-3.61,1.5a4.55,4.55,0,0,0-2-2.14,6.34,6.34,0,0,0-3.11-.77,5.24,5.24,0,0,0-2.83.79,2.29,2.29,0,0,0-1.26,1.94q0,1.85,3.48,2.64l3.25.83Q155.74,353.51,155.73,358.39Z" transform="translate(-15.85 -5.8)" fill="#fff"/><path d="M167.56,364.73a6.1,6.1,0,0,1-4.37-1.63,6,6,0,0,1-1.79-4.53V346.51h-3.78v-3.69h3.78v-6.6h4v6.6h5.28v3.69h-5.28v10.74a3.9,3.9,0,0,0,.84,2.92,2.69,2.69,0,0,0,1.89.78,3.81,3.81,0,0,0,.95-.12,4.46,4.46,0,0,0,.85-.28l1.28,3.61A10.94,10.94,0,0,1,167.56,364.73Z" transform="translate(-15.85 -5.8)" fill="#fff"/><path d="M184.06,365.08a10.31,10.31,0,0,1-7.83-3.25,11.54,11.54,0,0,1-3.08-8.23,11.74,11.74,0,0,1,3-8.21,10.76,10.76,0,0,1,15.29-.18q2.83,3.1,2.84,8.7l0,.43H177.29a7,7,0,0,0,2.11,5.11,6.75,6.75,0,0,0,4.84,1.93q3.87,0,6.07-3.87l3.61,1.76a10.77,10.77,0,0,1-4,4.27A11.09,11.09,0,0,1,184.06,365.08ZM177.6,351H190a5.39,5.39,0,0,0-1.83-3.72,6.39,6.39,0,0,0-4.42-1.47,5.88,5.88,0,0,0-3.94,1.41A6.71,6.71,0,0,0,177.6,351Z" transform="translate(-15.85 -5.8)" fill="#fff"/><path d="M202,364.38H198V342.82h3.87v3H202a7.12,7.12,0,0,1,2.83-2.64,7.8,7.8,0,0,1,3.81-1.06,7.9,7.9,0,0,1,4.18,1.1,6.56,6.56,0,0,1,2.64,3,8.42,8.42,0,0,1,7.44-4.14,7.31,7.31,0,0,1,5.76,2.29,9.52,9.52,0,0,1,2,6.51v13.47h-4V351.53a7,7,0,0,0-1.09-4.38,4.56,4.56,0,0,0-3.7-1.34,4.84,4.84,0,0,0-3.92,2,7.26,7.26,0,0,0-1.58,4.66v11.93h-4.05V351.53a7,7,0,0,0-1.1-4.38,4.52,4.52,0,0,0-3.69-1.34,4.83,4.83,0,0,0-3.92,2,7.2,7.2,0,0,0-1.58,4.66Z" transform="translate(-15.85 -5.8)" fill="#fff"/><path d="M121.37,44.75a13.38,13.38,0,0,1-5,10.87,19,19,0,0,1-12.24,4,18.11,18.11,0,0,1-11.3-3.74,19.2,19.2,0,0,1-6.77-10.23l6.34-2.59a16.24,16.24,0,0,0,1.8,4.18,13.64,13.64,0,0,0,2.7,3.2,12,12,0,0,0,3.42,2.09,10.57,10.57,0,0,0,4,.76A11.37,11.37,0,0,0,111.72,51a7.63,7.63,0,0,0,2.89-6.23,7.48,7.48,0,0,0-2.38-5.55Q110,37,103.88,34.88a82.44,82.44,0,0,1-7.71-3Q88,27.69,88,19.55A12.58,12.58,0,0,1,92.5,9.83a16.54,16.54,0,0,1,11.3-4,17.35,17.35,0,0,1,10.23,3,14.16,14.16,0,0,1,5.76,7.42l-6.19,2.59A9.2,9.2,0,0,0,110.18,14a11.06,11.06,0,0,0-12.78.25,6.3,6.3,0,0,0-2.67,5.26,6.12,6.12,0,0,0,2.09,4.61q2.31,1.93,10,4.6T118,35.28A13.93,13.93,0,0,1,121.37,44.75Z" transform="translate(-15.85 -5.8)" fill="#fff"/><path d="M144.05,59.65a16.84,16.84,0,0,1-12.81-5.33,18.81,18.81,0,0,1-5-13.46,19.18,19.18,0,0,1,4.89-13.43,16.23,16.23,0,0,1,12.53-5.36q7.84,0,12.49,5.07t4.65,14.22l-.08.72H133a11.53,11.53,0,0,0,3.46,8.36,11.06,11.06,0,0,0,7.92,3.16q6.33,0,9.94-6.33l5.9,2.88a17.59,17.59,0,0,1-6.59,7A18.23,18.23,0,0,1,144.05,59.65Zm-10.58-23H153.7a8.77,8.77,0,0,0-3-6.08,10.44,10.44,0,0,0-7.23-2.41,9.59,9.59,0,0,0-6.45,2.3A11,11,0,0,0,133.47,36.61Z" transform="translate(-15.85 -5.8)" fill="#fff"/><path d="M182.79,75.2a19.9,19.9,0,0,1-5.55-.75,18.18,18.18,0,0,1-4.71-2.13,15.13,15.13,0,0,1-3.64-3.24,13.5,13.5,0,0,1-2.3-4.17l6.26-2.59a9.91,9.91,0,0,0,3.75,5,10.47,10.47,0,0,0,6.19,1.88q5.4,0,8.42-3.24t3-8.93V53.6H194A13,13,0,0,1,188.87,58a15.16,15.16,0,0,1-7,1.62A15.62,15.62,0,0,1,170,54.25a19.53,19.53,0,0,1-4.89-13.39A19.29,19.29,0,0,1,170,27.54a15.52,15.52,0,0,1,11.88-5.47,15.16,15.16,0,0,1,7,1.62A13,13,0,0,1,194,28.12h.29v-4.9h6.33V57q0,8.49-4.82,13.32T182.79,75.2ZM183,53.6a10.12,10.12,0,0,0,8-3.52,13.12,13.12,0,0,0,3.25-9.22A13.14,13.14,0,0,0,191,31.72a10.18,10.18,0,0,0-8-3.6,10.34,10.34,0,0,0-8,3.6,13.13,13.13,0,0,0-3.24,9.14A13,13,0,0,0,175,50,10.34,10.34,0,0,0,183,53.6Z" transform="translate(-15.85 -5.8)" fill="#fff"/><path d="M221.67,22.07q7.34,0,11.59,3.92t4.25,10.77V58.5h-6.34V53.6h-.29a12.61,12.61,0,0,1-10.94,6,14.26,14.26,0,0,1-9.76-3.45,11.07,11.07,0,0,1-3.92-8.64,10.5,10.5,0,0,1,4.14-8.72q4.14-3.24,11-3.24a19.54,19.54,0,0,1,9.72,2.16V36.25a7.56,7.56,0,0,0-2.73-5.87A9.43,9.43,0,0,0,222,28a10.16,10.16,0,0,0-8.79,4.68L207.41,29Q212.24,22.07,221.67,22.07ZM213.1,47.7A5.29,5.29,0,0,0,215.29,52a8.11,8.11,0,0,0,5.15,1.73,10.55,10.55,0,0,0,7.46-3.1,9.7,9.7,0,0,0,3.27-7.27q-3.09-2.45-8.64-2.45a11.19,11.19,0,0,0-6.73,2A5.76,5.76,0,0,0,213.1,47.7Z" transform="translate(-15.85 -5.8)" fill="#fff"/></g></svg>