<svg xmlns="http://www.w3.org/2000/svg" viewBox="0 0 348.83 428.6"><title>megadrive</title><g id="Layer_3" data-name="Layer 3"><circle cx="172.83" cy="86.2" r="8.2" fill="#fff"/><line x1="30.33" y1="122.7" x2="315.33" y2="122.7" fill="none"/><rect x="30.33" y="119.7" width="285" height="6" fill="#fff"/><line x1="30.33" y1="379.2" x2="315.33" y2="379.2" fill="none"/><rect x="30.33" y="376.2" width="285" height="6" fill="#fff"/><circle cx="172.83" cy="420.4" r="8.2" fill="#fff"/></g><g id="NEW_TEXT" data-name="NEW TEXT"><path d="M47.8,159.28v102.6H34v-85.5l-19.95,8.7L8.8,173.38,39,159.28Z" transform="translate(11.03 -5.8)" fill="#fff"/><path d="M98.5,224.38q-12.3,0-22.35-9.75a32.55,32.55,0,0,1-9.75-23.4q0-13.95,10.5-24,10.5-10.35,24.6-10.35a34.05,34.05,0,0,1,25,10.2,33,33,0,0,1,10.2,24.15q0,12.45-10,28.35l-29.85,44.7-11.1-7.65,25.35-35.1-.3-.3Q106,224.38,98.5,224.38Zm24.3-33.3a20,20,0,0,0-6.3-14.85,21.37,21.37,0,0,0-30,0,21,21,0,0,0,0,29.7,21.37,21.37,0,0,0,30,0A19.67,19.67,0,0,0,122.8,191.08Z" transform="translate(11.03 -5.8)" fill="#fff"/><path d="M180.85,224.38q-12.3,0-22.35-9.75a32.55,32.55,0,0,1-9.75-23.4q0-13.95,10.5-24,10.5-10.35,24.6-10.35a34.05,34.05,0,0,1,25.05,10.2,33,33,0,0,1,10.2,24.15q0,12.45-10,28.35l-29.85,44.7-11.1-7.65,25.35-35.1-.3-.3Q188.35,224.38,180.85,224.38Zm24.3-33.3a20,20,0,0,0-6.3-14.85,21.11,21.11,0,1,0-30,29.7,21.37,21.37,0,0,0,30,0A19.67,19.67,0,0,0,205.15,191.08Z" transform="translate(11.03 -5.8)" fill="#fff"/><path d="M231.7,210.58q0-23.4,11.55-38.55T273,156.88q18.15,0,29.7,15.3,11.55,15.15,11.55,38.4,0,23.1-11.55,38.55Q291.1,264.3,273,264.28t-29.7-15.15Q231.7,233.68,231.7,210.58Zm68.4,0q0-17.7-7.5-29.1T273,170.08q-12.3,0-19.65,11.4-7.5,11.4-7.5,29.1t7.5,29.25q7.35,11.25,19.65,11.25t19.65-11.4Q300.1,228.13,300.1,210.58Z" transform="translate(11.03 -5.8)" fill="#fff"/><path d="M-4.41,353.45H-11V301.9h6.62l17.93,31.39h.29L31.74,301.9h6.62v51.55H31.74v-30.6l.28-8.64h-.28L15.61,342.5H11.72L-4.41,314.21H-4.7l.29,8.64Z" transform="translate(11.03 -5.8)" fill="#fff"/><path d="M63.41,354.6a16.88,16.88,0,0,1-12.81-5.33,18.81,18.81,0,0,1-5-13.46,19.18,19.18,0,0,1,4.89-13.43A16.2,16.2,0,0,1,63,317q7.84,0,12.49,5.07t4.65,14.22l-.07.72H52.33a11.44,11.44,0,0,0,3.45,8.35,11,11,0,0,0,7.92,3.17q6.35,0,9.94-6.34l5.9,2.89a17.59,17.59,0,0,1-6.59,7A18.18,18.18,0,0,1,63.41,354.6Zm-10.58-23H73.06a8.75,8.75,0,0,0-3-6.08,10.44,10.44,0,0,0-7.23-2.42,9.6,9.6,0,0,0-6.45,2.31A11,11,0,0,0,52.83,331.56Z" transform="translate(11.03 -5.8)" fill="#fff"/><path d="M102.15,370.15a19.9,19.9,0,0,1-5.55-.75,18.18,18.18,0,0,1-4.71-2.13A15.13,15.13,0,0,1,88.25,364a13.93,13.93,0,0,1-2.3-4.17l6.26-2.6a9.89,9.89,0,0,0,3.75,5,10.47,10.47,0,0,0,6.19,1.87q5.4,0,8.42-3.24t3-8.92v-3.39h-.29a13,13,0,0,1-5.08,4.43,15.15,15.15,0,0,1-6.94,1.62,15.59,15.59,0,0,1-11.88-5.4,19.51,19.51,0,0,1-4.9-13.39,19.25,19.25,0,0,1,4.9-13.32A15.49,15.49,0,0,1,101.29,317a15.15,15.15,0,0,1,6.94,1.62,12.94,12.94,0,0,1,5.08,4.42h.29v-4.89h6.33v33.77q0,8.49-4.82,13.31T102.15,370.15Zm.22-21.6a10.13,10.13,0,0,0,8-3.53,14.62,14.62,0,0,0,0-18.36,10.21,10.21,0,0,0-8-3.6,10.34,10.34,0,0,0-8,3.6,13.16,13.16,0,0,0-3.24,9.15A13,13,0,0,0,94.37,345,10.34,10.34,0,0,0,102.37,348.55Z" transform="translate(11.03 -5.8)" fill="#fff"/><path d="M141,317q7.33,0,11.59,3.92t4.25,10.76v21.75h-6.34v-4.9h-.28q-4.11,6-10.95,6.05a14.21,14.21,0,0,1-9.76-3.46,11,11,0,0,1-3.92-8.64,10.5,10.5,0,0,1,4.14-8.71q4.14-3.24,11.05-3.24a19.54,19.54,0,0,1,9.72,2.16V331.2a7.56,7.56,0,0,0-2.73-5.87,9.38,9.38,0,0,0-6.41-2.41,10.17,10.17,0,0,0-8.79,4.68l-5.83-3.67Q131.6,317,141,317Zm-8.57,25.63a5.27,5.27,0,0,0,2.2,4.32,8.09,8.09,0,0,0,5.15,1.73,10.59,10.59,0,0,0,7.45-3.1,9.7,9.7,0,0,0,3.27-7.27q-3.09-2.44-8.64-2.45a11.25,11.25,0,0,0-6.73,1.94A5.79,5.79,0,0,0,132.46,342.65Z" transform="translate(11.03 -5.8)" fill="#fff"/><path d="M181.35,353.45V301.9h15.77q11.81,0,19,7.12t7.16,18.65q0,11.59-7.16,18.69t-19,7.09ZM188,308.23v38.88h9.15q9,0,14.18-5.15t5.18-14.29q0-9.07-5.18-14.25t-14.18-5.19Z" transform="translate(11.03 -5.8)" fill="#fff"/><path d="M235.13,353.45h-6.62V318.17h6.33v5.76h.29a9.55,9.55,0,0,1,4.14-4.79,11.5,11.5,0,0,1,6.16-2,12.48,12.48,0,0,1,4.89.86l-2,6.41a11.15,11.15,0,0,0-3.89-.5,8.59,8.59,0,0,0-6.52,3,10.16,10.16,0,0,0-2.77,7.06Z" transform="translate(11.03 -5.8)" fill="#fff"/><path d="M263.21,306a4.68,4.68,0,1,1-1.37-3.31A4.52,4.52,0,0,1,263.21,306Zm-1.37,12.17v35.28h-6.62V318.17Z" transform="translate(11.03 -5.8)" fill="#fff"/><path d="M287.62,353.45H281l-14.25-35.28h7.2l10.37,27.36h.14L295,318.17H302Z" transform="translate(11.03 -5.8)" fill="#fff"/><path d="M321.1,354.6a16.88,16.88,0,0,1-12.82-5.33,18.81,18.81,0,0,1-5-13.46,19.14,19.14,0,0,1,4.9-13.43A16.18,16.18,0,0,1,320.67,317q7.84,0,12.49,5.07t4.64,14.22l-.07.72H310a11.45,11.45,0,0,0,3.46,8.35,11,11,0,0,0,7.92,3.17q6.33,0,9.93-6.34l5.91,2.89a17.66,17.66,0,0,1-6.59,7A18.23,18.23,0,0,1,321.1,354.6Zm-10.59-23h20.24a8.79,8.79,0,0,0-3-6.08,10.47,10.47,0,0,0-7.24-2.42,9.59,9.59,0,0,0-6.44,2.31A11,11,0,0,0,310.51,331.56Z" transform="translate(11.03 -5.8)" fill="#fff"/><path d="M120.51,44.75a13.41,13.41,0,0,1-5,10.87,19,19,0,0,1-12.24,4A18.11,18.11,0,0,1,92,55.91a19.15,19.15,0,0,1-6.77-10.23l6.33-2.59a17,17,0,0,0,1.8,4.18,13.64,13.64,0,0,0,2.7,3.2,12.33,12.33,0,0,0,3.42,2.09,10.57,10.57,0,0,0,4,.76A11.38,11.38,0,0,0,110.86,51a7.63,7.63,0,0,0,2.88-6.23,7.45,7.45,0,0,0-2.38-5.55Q109.14,37,103,34.88a81.78,81.78,0,0,1-7.7-3q-8.2-4.17-8.21-12.31a12.55,12.55,0,0,1,4.54-9.72,16.54,16.54,0,0,1,11.3-4,17.35,17.35,0,0,1,10.23,3,14.19,14.19,0,0,1,5.75,7.42l-6.19,2.59A9.09,9.09,0,0,0,109.31,14a11.06,11.06,0,0,0-12.78.25,6.32,6.32,0,0,0-2.66,5.26A6.09,6.09,0,0,0,96,24.16q2.3,1.93,10,4.6,7.86,2.67,11.2,6.52A13.93,13.93,0,0,1,120.51,44.75Z" transform="translate(11.03 -5.8)" fill="#fff"/><path d="M143.19,59.65a16.85,16.85,0,0,1-12.82-5.33,18.81,18.81,0,0,1-5-13.46,19.14,19.14,0,0,1,4.9-13.43,16.22,16.22,0,0,1,12.53-5.36q7.85,0,12.49,5.07t4.64,14.22l-.07.72H132.1a11.53,11.53,0,0,0,3.46,8.36,11,11,0,0,0,7.92,3.16q6.33,0,9.93-6.33l5.91,2.88a17.66,17.66,0,0,1-6.59,7A18.23,18.23,0,0,1,143.19,59.65Zm-10.59-23h20.24a8.81,8.81,0,0,0-3-6.08,10.45,10.45,0,0,0-7.24-2.41,9.58,9.58,0,0,0-6.44,2.3A11,11,0,0,0,132.6,36.61Z" transform="translate(11.03 -5.8)" fill="#fff"/><path d="M181.92,75.2a19.83,19.83,0,0,1-5.54-.75,18.25,18.25,0,0,1-4.72-2.13A15.27,15.27,0,0,1,168,69.08a13.74,13.74,0,0,1-2.31-4.17L172,62.32a10,10,0,0,0,3.74,5,10.5,10.5,0,0,0,6.19,1.88q5.4,0,8.43-3.24t3-8.93V53.6h-.29A13,13,0,0,1,188,58a15.22,15.22,0,0,1-6.95,1.62,15.59,15.59,0,0,1-11.88-5.4,19.54,19.54,0,0,1-4.9-13.39,19.29,19.29,0,0,1,4.9-13.32,15.49,15.49,0,0,1,11.88-5.47A15.22,15.22,0,0,1,188,23.69a13,13,0,0,1,5.07,4.43h.29v-4.9h6.34V57q0,8.49-4.83,13.32T181.92,75.2Zm.22-21.6a10.14,10.14,0,0,0,8-3.52,13.12,13.12,0,0,0,3.24-9.22,13.13,13.13,0,0,0-3.24-9.14,10.19,10.19,0,0,0-8-3.6,10.32,10.32,0,0,0-8,3.6,13.13,13.13,0,0,0-3.24,9.14A13,13,0,0,0,174.15,50,10.32,10.32,0,0,0,182.14,53.6Z" transform="translate(11.03 -5.8)" fill="#fff"/><path d="M220.8,22.07q7.35,0,11.6,3.92t4.24,10.77V58.5h-6.33V53.6H230q-4.11,6.06-10.94,6a14.24,14.24,0,0,1-9.76-3.45,11,11,0,0,1-3.92-8.64,10.47,10.47,0,0,1,4.14-8.72q4.13-3.24,11.05-3.24a19.59,19.59,0,0,1,9.72,2.16V36.25a7.57,7.57,0,0,0-2.74-5.87A9.41,9.41,0,0,0,221.16,28a10.15,10.15,0,0,0-8.78,4.68L206.55,29Q211.36,22.07,220.8,22.07ZM212.24,47.7A5.29,5.29,0,0,0,214.43,52a8.09,8.09,0,0,0,5.15,1.73,10.53,10.53,0,0,0,7.45-3.1,9.71,9.71,0,0,0,3.28-7.27q-3.1-2.45-8.64-2.45a11.19,11.19,0,0,0-6.73,2A5.74,5.74,0,0,0,212.24,47.7Z" transform="translate(11.03 -5.8)" fill="#fff"/></g></svg>