<svg xmlns="http://www.w3.org/2000/svg" viewBox="0 0 292.35 428.03"><title>n64</title><g id="Layer_3" data-name="Layer 3"><circle cx="146.77" cy="85.63" r="8.2" fill="#fff"/><line x1="4.27" y1="122.13" x2="289.27" y2="122.13" fill="none"/><rect x="4.27" y="119.13" width="285" height="6" fill="#fff"/><line x1="4.27" y1="378.63" x2="289.27" y2="378.63" fill="none"/><rect x="4.27" y="375.63" width="285" height="6" fill="#fff"/><circle cx="146.77" cy="419.83" r="8.2" fill="#fff"/></g><g id="NEW_TEXT" data-name="NEW TEXT"><path d="M54,159.28v102.6H40.23v-85.5l-19.95,8.7L15,173.38l30.15-14.1Z" transform="translate(-15.03 -6.37)" fill="#fff"/><path d="M104.73,224.38q-12.32,0-22.35-9.75a32.51,32.51,0,0,1-9.75-23.4q0-13.95,10.5-24,10.49-10.35,24.6-10.35a34.07,34.07,0,0,1,25,10.2A33,33,0,0,1,143,191.23q0,12.45-10,28.35l-29.85,44.7L92,256.63l25.35-35.1-.3-.3Q112.21,224.38,104.73,224.38Zm24.3-33.3a20,20,0,0,0-6.3-14.85,21.37,21.37,0,0,0-30,0,21,21,0,0,0,0,29.7,21.37,21.37,0,0,0,30,0A19.67,19.67,0,0,0,129,191.08Z" transform="translate(-15.03 -6.37)" fill="#fff"/><path d="M187.07,224.38q-12.3,0-22.35-9.75a32.55,32.55,0,0,1-9.75-23.4q0-13.95,10.5-24,10.5-10.35,24.6-10.35a34.05,34.05,0,0,1,25.05,10.2,33,33,0,0,1,10.2,24.15q0,12.45-10,28.35l-29.85,44.7-11.1-7.65,25.35-35.1-.3-.3Q194.57,224.38,187.07,224.38Zm24.3-33.3a20,20,0,0,0-6.3-14.85,21.11,21.11,0,1,0-30,29.7,21.37,21.37,0,0,0,30,0A19.67,19.67,0,0,0,211.37,191.08Z" transform="translate(-15.03 -6.37)" fill="#fff"/><path d="M307.37,229.78a32.89,32.89,0,0,1-10.2,24.6q-10.2,9.9-25.2,9.9a34.74,34.74,0,0,1-21.75-7.5,35.4,35.4,0,0,1-12.9-20.25l12.3-4.95a27.29,27.29,0,0,0,8.18,14.25,20.25,20.25,0,0,0,13.87,5.25q9.6,0,15.68-5.92t6.07-15.23q0-9.45-6.07-15.45t-15.53-6a20,20,0,0,0-17.25,8.85l-13.95-6,6.6-52.05h53.85v13.2h-42.3L255,201.88l.6.15q7.65-6.15,18.6-6.15a31.85,31.85,0,0,1,23.48,9.75Q307.38,215.38,307.37,229.78Z" transform="translate(-15.03 -6.37)" fill="#fff"/><path d="M142.07,322.2A14.57,14.57,0,0,1,152.73,327a15.11,15.11,0,0,1,4.75,11.16,15.76,15.76,0,0,1-5,11.59,16.54,16.54,0,0,1-11.81,4.9,16.31,16.31,0,0,1-12-4.9,15.8,15.8,0,0,1-4.9-11.59q0-6,4.83-13.61l14.32-21.45,5.33,3.67L136,323.57l.15.14A10.32,10.32,0,0,1,142.07,322.2Zm-11.66,16a9.76,9.76,0,0,0,3,7.2,10,10,0,0,0,7.27,2.88,10,10,0,0,0,10.15-10.08,9.56,9.56,0,0,0-3-7.12,9.71,9.71,0,0,0-7.13-3,10.13,10.13,0,0,0-7.2,3A9.59,9.59,0,0,0,130.41,338.18Z" transform="translate(-15.03 -6.37)" fill="#fff"/><path d="M193.26,343.08v10.37h-6.62V343.08h-23.4v-5l22.82-33.84h7.2v32.69h6.34v6.19Zm-22.53-6.19h15.91v-23h-.29Z" transform="translate(-15.03 -6.37)" fill="#fff"/><path d="M29.93,58.5H23.31V7h8.06l25.06,40.1h.29l-.29-9.93V7h6.62V58.5H56.14l-26.21-42h-.28l.28,9.94Z" transform="translate(-15.03 -6.37)" fill="#fff"/><path d="M80.84,11.05a4.51,4.51,0,0,1-1.37,3.31,4.68,4.68,0,0,1-8-3.31,4.68,4.68,0,1,1,9.36,0ZM79.47,23.22V58.5H72.85V23.22Z" transform="translate(-15.03 -6.37)" fill="#fff"/><path d="M88.11,23.22h6.33v4.9h.29a11.77,11.77,0,0,1,4.65-4.32,13.2,13.2,0,0,1,6.51-1.73q6.48,0,10,3.71t3.5,10.54V58.5h-6.63V36.76q-.21-8.64-8.71-8.64a8.25,8.25,0,0,0-6.62,3.2A11.6,11.6,0,0,0,94.73,39V58.5H88.11Z" transform="translate(-15.03 -6.37)" fill="#fff"/><path d="M139.3,59.08a10,10,0,0,1-7.16-2.67A9.87,9.87,0,0,1,129.22,49V29.27H123V23.22h6.19V12.42h6.62v10.8h8.64v6.05h-8.64V46.84q0,3.52,1.37,4.78a4.46,4.46,0,0,0,3.1,1.26,6.7,6.7,0,0,0,1.55-.18,8.21,8.21,0,0,0,1.4-.46l2.09,5.9A17.92,17.92,0,0,1,139.3,59.08Z" transform="translate(-15.03 -6.37)" fill="#fff"/><path d="M166.3,59.65a16.86,16.86,0,0,1-12.82-5.33,18.81,18.81,0,0,1-5-13.46,19.19,19.19,0,0,1,4.9-13.43,16.22,16.22,0,0,1,12.53-5.36q7.84,0,12.49,5.07T183,41.36l-.07.72H155.21a11.53,11.53,0,0,0,3.46,8.36,11.06,11.06,0,0,0,7.92,3.16q6.33,0,9.93-6.33l5.91,2.88a17.66,17.66,0,0,1-6.59,7A18.23,18.23,0,0,1,166.3,59.65Zm-10.58-23H176a8.77,8.77,0,0,0-3-6.08,10.45,10.45,0,0,0-7.24-2.41,9.58,9.58,0,0,0-6.44,2.3A11,11,0,0,0,155.72,36.61Z" transform="translate(-15.03 -6.37)" fill="#fff"/><path d="M189.05,23.22h6.34v4.9h.29a11.67,11.67,0,0,1,4.64-4.32,13.24,13.24,0,0,1,6.52-1.73q6.48,0,10,3.71t3.49,10.54V58.5h-6.62V36.76q-.23-8.64-8.72-8.64a8.26,8.26,0,0,0-6.62,3.2A11.59,11.59,0,0,0,195.68,39V58.5h-6.63Z" transform="translate(-15.03 -6.37)" fill="#fff"/><path d="M242.83,59.65A15.49,15.49,0,0,1,231,54.18a19.42,19.42,0,0,1-4.9-13.32A19.42,19.42,0,0,1,231,27.54a15.49,15.49,0,0,1,11.87-5.47,15.28,15.28,0,0,1,7.1,1.65,12.45,12.45,0,0,1,4.93,4.4h.29l-.29-4.9V7h6.62V58.5h-6.33V53.6h-.29a12.45,12.45,0,0,1-4.93,4.4A15.28,15.28,0,0,1,242.83,59.65Zm1.09-6a10.15,10.15,0,0,0,8-3.52,13.12,13.12,0,0,0,3.24-9.22,13.13,13.13,0,0,0-3.24-9.14,10.21,10.21,0,0,0-8-3.6,10.34,10.34,0,0,0-8,3.6,13.13,13.13,0,0,0-3.24,9.14A13,13,0,0,0,235.92,50,10.34,10.34,0,0,0,243.92,53.6Z" transform="translate(-15.03 -6.37)" fill="#fff"/><path d="M267.17,40.86a18.65,18.65,0,0,1,5.11-13.46,17.41,17.41,0,0,1,13-5.33,17.17,17.17,0,0,1,13,5.33,18.54,18.54,0,0,1,5.18,13.46,18.37,18.37,0,0,1-5.18,13.46,17.17,17.17,0,0,1-13,5.33,17.41,17.41,0,0,1-13-5.33A18.65,18.65,0,0,1,267.17,40.86Zm6.62,0a12.94,12.94,0,0,0,3.32,9.22,11.32,11.32,0,0,0,16.41,0,12.94,12.94,0,0,0,3.31-9.22,12.8,12.8,0,0,0-3.31-9.14,11.15,11.15,0,0,0-16.41,0A12.81,12.81,0,0,0,273.79,40.86Z" transform="translate(-15.03 -6.37)" fill="#fff"/></g></svg>