<?xml version="1.0" encoding="utf-8"?>
<!-- Generator: Adobe Illustrator 21.1.0, SVG Export Plug-In . SVG Version: 6.00 Build 0)  -->
<svg version="1.1" xmlns="http://www.w3.org/2000/svg" xmlns:xlink="http://www.w3.org/1999/xlink" x="0px" y="0px"
	 viewBox="0 0 323.6 434.5" enable-background="new 0 0 323.6 434.5" xml:space="preserve">
<g id="Layer_3">
	<g>
		<circle fill="#FFFFFF" cx="155.4" cy="92" r="8.2"/>
	</g>
	<g>
		<g>
			<g>
				<line fill="none" x1="12.9" y1="128.5" x2="297.9" y2="128.5"/>
			</g>
			<g>
				<rect x="12.9" y="125.5" fill="#FFFFFF" width="285" height="6"/>
			</g>
		</g>
	</g>
	<g>
		<g>
			<g>
				<line fill="none" x1="12.9" y1="385" x2="297.9" y2="385"/>
			</g>
			<g>
				<rect x="12.9" y="382" fill="#FFFFFF" width="285" height="6"/>
			</g>
		</g>
	</g>
	<g>
		<circle fill="#FFFFFF" cx="155.4" cy="426.2" r="8.2"/>
	</g>
</g>
<g id="TEXT_LAYER">
	<g>
		<path fill="#FFFFFF" d="M21.9,58.5h-6.6V6.9h8.1l25.1,40.1h0.3l-0.3-9.9V6.9H55v51.6h-6.9l-26.2-42h-0.3l0.3,9.9V58.5z"/>
		<path fill="#FFFFFF" d="M72.8,11.1c0,1.3-0.5,2.4-1.4,3.3c-0.9,0.9-2,1.4-3.3,1.4s-2.4-0.5-3.3-1.4c-0.9-0.9-1.4-2-1.4-3.3
			c0-1.3,0.5-2.4,1.4-3.3c0.9-0.9,2-1.4,3.3-1.4s2.4,0.5,3.3,1.4C72.4,8.7,72.8,9.8,72.8,11.1z M71.4,23.2v35.3h-6.6V23.2H71.4z"/>
		<path fill="#FFFFFF" d="M80.1,23.2h6.3v4.9h0.3c1-1.7,2.6-3.2,4.6-4.3c2.1-1.2,4.3-1.7,6.5-1.7c4.3,0,7.6,1.2,10,3.7
			c2.3,2.5,3.5,6,3.5,10.5v22.2h-6.6V36.8c-0.1-5.8-3-8.6-8.7-8.6c-2.6,0-4.8,1.1-6.6,3.2c-1.8,2.1-2.7,4.7-2.7,7.7v19.5h-6.6V23.2z
			"/>
		<path fill="#FFFFFF" d="M131.3,59.1c-2.9,0-5.3-0.9-7.2-2.7c-1.9-1.8-2.9-4.2-2.9-7.4V29.3H115v-6h6.2V12.4h6.6v10.8h8.6v6h-8.6
			v17.6c0,2.4,0.5,3.9,1.4,4.8c0.9,0.8,1.9,1.3,3.1,1.3c0.5,0,1-0.1,1.5-0.2c0.5-0.1,1-0.3,1.4-0.5l2.1,5.9
			C135.6,58.8,133.6,59.1,131.3,59.1z"/>
		<path fill="#FFFFFF" d="M158.3,59.7c-5.2,0-9.5-1.8-12.8-5.3c-3.4-3.6-5-8-5-13.5c0-5.4,1.6-9.9,4.9-13.4
			c3.3-3.6,7.4-5.4,12.5-5.4c5.2,0,9.4,1.7,12.5,5.1c3.1,3.4,4.6,8.1,4.6,14.2l-0.1,0.7h-27.7c0.1,3.5,1.2,6.2,3.5,8.4
			c2.2,2.1,4.8,3.2,7.9,3.2c4.2,0,7.5-2.1,9.9-6.3l5.9,2.9c-1.6,3-3.8,5.3-6.6,7C165,58.8,161.8,59.7,158.3,59.7z M147.7,36.6h20.2
			c-0.2-2.4-1.2-4.5-3-6.1c-1.8-1.6-4.2-2.4-7.2-2.4c-2.5,0-4.6,0.8-6.4,2.3C149.5,32,148.3,34,147.7,36.6z"/>
		<path fill="#FFFFFF" d="M181,23.2h6.3v4.9h0.3c1-1.7,2.6-3.2,4.6-4.3c2.1-1.2,4.3-1.7,6.5-1.7c4.3,0,7.6,1.2,10,3.7
			c2.3,2.5,3.5,6,3.5,10.5v22.2h-6.6V36.8c-0.1-5.8-3-8.6-8.7-8.6c-2.6,0-4.8,1.1-6.6,3.2c-1.8,2.1-2.7,4.7-2.7,7.7v19.5H181V23.2z"
			/>
		<path fill="#FFFFFF" d="M234.8,59.7c-4.6,0-8.6-1.8-11.9-5.5c-3.3-3.7-4.9-8.1-4.9-13.3s1.6-9.6,4.9-13.3
			c3.3-3.6,7.3-5.5,11.9-5.5c2.6,0,5,0.6,7.1,1.7c2.1,1.1,3.8,2.6,4.9,4.4h0.3l-0.3-4.9V6.9h6.6v51.6h-6.3v-4.9h-0.3
			c-1.2,1.8-2.8,3.3-4.9,4.4C239.8,59.1,237.4,59.7,234.8,59.7z M235.9,53.6c3.3,0,5.9-1.2,8-3.5c2.2-2.4,3.2-5.4,3.2-9.2
			c0-3.7-1.1-6.7-3.2-9.1c-2.1-2.4-4.8-3.6-8-3.6c-3.2,0-5.8,1.2-8,3.6c-2.2,2.4-3.2,5.4-3.2,9.1c0,3.7,1.1,6.8,3.2,9.1
			C230.1,52.4,232.7,53.6,235.9,53.6z"/>
		<path fill="#FFFFFF" d="M259.1,40.9c0-5.4,1.7-9.9,5.1-13.5c3.5-3.6,7.8-5.3,13-5.3s9.6,1.8,13,5.3c3.5,3.6,5.2,8,5.2,13.5
			c0,5.5-1.7,10-5.2,13.5c-3.4,3.6-7.7,5.3-13,5.3s-9.6-1.8-13-5.3C260.9,50.8,259.1,46.3,259.1,40.9z M265.8,40.9
			c0,3.8,1.1,6.9,3.3,9.2c2.2,2.4,4.9,3.5,8.2,3.5c3.3,0,6-1.2,8.2-3.5c2.2-2.4,3.3-5.4,3.3-9.2c0-3.7-1.1-6.8-3.3-9.1
			c-2.3-2.4-5-3.6-8.2-3.6c-3.2,0-6,1.2-8.2,3.6C266.9,34.1,265.8,37.1,265.8,40.9z"/>
	</g>
	<g>
		<path fill="#FFFFFF" d="M49.5,159.3v102.6H35.7v-85.5l-20,8.7l-5.3-11.7l30.2-14.1H49.5z"/>
		<path fill="#FFFFFF" d="M100.2,224.4c-8.2,0-15.7-3.2-22.3-9.8c-6.5-6.7-9.8-14.5-9.8-23.4c0-9.3,3.5-17.3,10.5-24
			c7-6.9,15.2-10.4,24.6-10.4c9.9,0,18.2,3.4,25.1,10.2c6.8,6.8,10.2,14.8,10.2,24.1c0,8.3-3.4,17.8-10,28.4l-29.8,44.7l-11.1-7.6
			l25.4-35.1l-0.3-0.3C109.3,223.3,105.2,224.4,100.2,224.4z M124.5,191.1c0-5.8-2.1-10.7-6.3-14.9c-4.1-4.1-9.1-6.1-15-6.1
			c-5.9,0-10.9,2.1-15,6.1c-4.1,4.1-6.1,9.1-6.1,14.9c0,5.8,2,10.8,6.1,14.8c4.3,4.1,9.3,6.2,15,6.2c5.7,0,10.7-2,15-6.2
			C122.4,201.9,124.5,197,124.5,191.1z"/>
		<path fill="#FFFFFF" d="M182.6,224.4c-8.2,0-15.7-3.2-22.4-9.8c-6.5-6.7-9.8-14.5-9.8-23.4c0-9.3,3.5-17.3,10.5-24
			c7-6.9,15.2-10.4,24.6-10.4c9.9,0,18.2,3.4,25.1,10.2c6.8,6.8,10.2,14.8,10.2,24.1c0,8.3-3.4,17.8-10,28.4l-29.8,44.7l-11.1-7.6
			l25.4-35.1l-0.3-0.3C191.7,223.3,187.6,224.4,182.6,224.4z M206.9,191.1c0-5.8-2.1-10.7-6.3-14.9c-4.1-4.1-9.1-6.1-15-6.1
			c-5.9,0-10.9,2.1-15,6.1c-4.1,4.1-6.1,9.1-6.1,14.9c0,5.8,2,10.8,6.1,14.8c4.3,4.1,9.3,6.2,15,6.2c5.7,0,10.7-2,15-6.2
			C204.8,201.9,206.9,197,206.9,191.1z"/>
		<path fill="#FFFFFF" d="M268.1,196.8c8.3,0,15.7,3.3,22.2,9.9c6.6,6.5,9.9,14.3,9.9,23.3c0,9.2-3.5,17.3-10.5,24.2
			c-7.1,6.8-15.3,10.2-24.6,10.2c-9.9,0-18.3-3.4-25-10.2c-6.8-6.8-10.2-14.9-10.2-24.2c0-8.3,3.3-17.7,10-28.3l29.9-44.7l11.1,7.6
			l-25.3,35.1l0.3,0.3C258.9,197.8,263,196.8,268.1,196.8z M243.8,230.1c0,5.9,2,10.9,6.1,15c4.1,4,9.2,6,15.2,6s11-2,15-6
			c4.1-4.1,6.2-9.1,6.2-15c0-5.8-2.1-10.7-6.3-14.9c-4.1-4.1-9.1-6.1-14.8-6.1c-5.7,0-10.7,2.1-15,6.1
			C245.9,219.3,243.8,224.3,243.8,230.1z"/>
	</g>
	<g>
		<path fill="#FFFFFF" d="M135.8,317.9c4,0,7.5,1.6,10.7,4.8c3.2,3.1,4.8,6.8,4.8,11.2c0,4.4-1.7,8.3-5,11.6
			c-3.4,3.3-7.3,4.9-11.8,4.9c-4.8,0-8.8-1.6-12-4.9c-3.3-3.3-4.9-7.1-4.9-11.6c0-4,1.6-8.5,4.8-13.6l14.3-21.5l5.3,3.7l-12.2,16.8
			l0.1,0.1C131.4,318.4,133.3,317.9,135.8,317.9z M124.1,333.8c0,2.8,1,5.2,3,7.2c2,1.9,4.4,2.9,7.3,2.9c2.9,0,5.3-1,7.2-2.9
			c2-2,3-4.4,3-7.2c0-2.8-1-5.2-3-7.1c-2-2-4.3-3-7.1-3c-2.7,0-5.1,1-7.2,3C125.1,328.7,124.1,331.1,124.1,333.8z"/>
		<path fill="#FFFFFF" d="M187,338.7v10.4h-6.6v-10.4h-23.4v-5l22.8-33.8h7.2v32.7h6.3v6.2H187z M164.4,332.5h15.9v-23h-0.3
			L164.4,332.5z"/>
	</g>
</g>
</svg>
