<svg xmlns="http://www.w3.org/2000/svg" viewBox="0 0 345.14 428.03"><title>nds</title><g id="Layer_3" data-name="Layer 3"><circle cx="172.87" cy="85.63" r="8.2" fill="#fff"/><line x1="30.37" y1="122.13" x2="315.37" y2="122.13" fill="none"/><rect x="30.37" y="119.13" width="285" height="6" fill="#fff"/><line x1="30.37" y1="378.63" x2="315.37" y2="378.63" fill="none"/><rect x="30.37" y="375.63" width="285" height="6" fill="#fff"/><circle cx="172.87" cy="419.83" r="8.2" fill="#fff"/></g><g id="NEW_TEXT" data-name="NEW TEXT"><path d="M54.33,248.68v13.2h-65.4v-13.8l26.55-26.85q13.35-13.65,18.45-20.47A23.57,23.57,0,0,0,39,186.43a15.1,15.1,0,0,0-5.25-11.55q-5.25-4.8-13.5-4.8a18.51,18.51,0,0,0-12.15,4.2,18.94,18.94,0,0,0-6.6,10.2l-12.6-5.1a32,32,0,0,1,11.55-16,32.19,32.19,0,0,1,20.1-6.53q14,0,23.25,8.55a27.42,27.42,0,0,1,9.3,21q0,14.85-16.35,32.1l-30,30.15Z" transform="translate(11.07 -6.37)" fill="#fff"/><path d="M67.53,210.58q0-23.4,11.55-38.55t29.7-15.15q18.15,0,29.7,15.3Q150,187.33,150,210.58q0,23.1-11.55,38.55-11.55,15.17-29.7,15.15t-29.7-15.15Q67.53,233.68,67.53,210.58Zm68.4,0q0-17.7-7.5-29.1t-19.65-11.4q-12.3,0-19.65,11.4-7.5,11.4-7.5,29.1t7.5,29.25q7.35,11.25,19.65,11.25t19.65-11.4Q135.93,228.13,135.93,210.58Z" transform="translate(11.07 -6.37)" fill="#fff"/><path d="M163.23,210.58q0-23.4,11.55-38.55t29.7-15.15q18.14,0,29.69,15.3,11.55,15.15,11.56,38.4,0,23.1-11.56,38.55-11.55,15.17-29.69,15.15t-29.7-15.15Q163.21,233.68,163.23,210.58Zm68.4,0q0-17.7-7.5-29.1t-19.65-11.4q-12.31,0-19.65,11.4-7.52,11.4-7.5,29.1t7.5,29.25q7.33,11.25,19.65,11.25t19.65-11.4Q231.62,228.13,231.63,210.58Z" transform="translate(11.07 -6.37)" fill="#fff"/><path d="M320.87,240.28v21.6h-13.8v-21.6H258.32v-10.5l47.55-70.5h15v68.1h13.2v12.9Zm-46.95-12.9h33.15V179.53h-.6Z" transform="translate(11.07 -6.37)" fill="#fff"/><path d="M122.2,353.45V301.9H138q11.81,0,19,7.12t7.16,18.65q0,11.59-7.16,18.69t-19,7.09Zm6.62-45.22v38.88H138q9,0,14.18-5.15t5.19-14.29q0-9.07-5.19-14.25T138,308.23Z" transform="translate(11.07 -6.37)" fill="#fff"/><path d="M203.78,339.7a13.41,13.41,0,0,1-5,10.87,19,19,0,0,1-12.24,4,18.14,18.14,0,0,1-11.31-3.74,19.13,19.13,0,0,1-6.76-10.23l6.33-2.59a16,16,0,0,0,1.8,4.17,13.69,13.69,0,0,0,2.7,3.21,12.28,12.28,0,0,0,3.42,2.09,10.56,10.56,0,0,0,4,.75,11.38,11.38,0,0,0,7.42-2.34A7.61,7.61,0,0,0,197,339.7a7.45,7.45,0,0,0-2.38-5.55q-2.24-2.23-8.35-4.32c-4.13-1.49-6.7-2.49-7.7-3q-8.22-4.19-8.21-12.31a12.54,12.54,0,0,1,4.53-9.72,16.56,16.56,0,0,1,11.31-4,17.35,17.35,0,0,1,10.22,3,14.17,14.17,0,0,1,5.76,7.41l-6.19,2.6a9.2,9.2,0,0,0-3.42-4.79,11.06,11.06,0,0,0-12.78.25,6.27,6.27,0,0,0-2.66,5.26,6.07,6.07,0,0,0,2.08,4.6q2.31,1.95,10,4.61t11.2,6.52A13.93,13.93,0,0,1,203.78,339.7Z" transform="translate(11.07 -6.37)" fill="#fff"/><path d="M29.93,58.5H23.31V7h8.06l25.06,40.1h.29l-.29-9.93V7h6.62V58.5H56.14l-26.21-42h-.28l.28,9.94Z" transform="translate(11.07 -6.37)" fill="#fff"/><path d="M80.84,11.05a4.51,4.51,0,0,1-1.37,3.31,4.68,4.68,0,0,1-8-3.31,4.68,4.68,0,1,1,9.36,0ZM79.47,23.22V58.5H72.84V23.22Z" transform="translate(11.07 -6.37)" fill="#fff"/><path d="M88.11,23.22h6.33v4.9h.29a11.77,11.77,0,0,1,4.65-4.32,13.2,13.2,0,0,1,6.51-1.73q6.48,0,10,3.71t3.5,10.54V58.5h-6.63V36.76q-.21-8.64-8.71-8.64a8.25,8.25,0,0,0-6.62,3.2A11.6,11.6,0,0,0,94.73,39V58.5H88.11Z" transform="translate(11.07 -6.37)" fill="#fff"/><path d="M139.3,59.08a10,10,0,0,1-7.16-2.67A9.87,9.87,0,0,1,129.22,49V29.27H123V23.22h6.19V12.42h6.62v10.8h8.64v6.05h-8.64V46.84q0,3.52,1.37,4.78a4.46,4.46,0,0,0,3.1,1.26,6.7,6.7,0,0,0,1.55-.18,8.21,8.21,0,0,0,1.4-.46l2.09,5.9A17.92,17.92,0,0,1,139.3,59.08Z" transform="translate(11.07 -6.37)" fill="#fff"/><path d="M166.3,59.65a16.86,16.86,0,0,1-12.82-5.33,18.81,18.81,0,0,1-5-13.46,19.19,19.19,0,0,1,4.9-13.43,16.22,16.22,0,0,1,12.53-5.36q7.84,0,12.49,5.07T183,41.36l-.07.72H155.21a11.53,11.53,0,0,0,3.46,8.36,11.06,11.06,0,0,0,7.92,3.16q6.33,0,9.93-6.33l5.91,2.88a17.66,17.66,0,0,1-6.59,7A18.23,18.23,0,0,1,166.3,59.65Zm-10.58-23H176a8.77,8.77,0,0,0-3-6.08,10.45,10.45,0,0,0-7.24-2.41,9.58,9.58,0,0,0-6.44,2.3A11,11,0,0,0,155.72,36.61Z" transform="translate(11.07 -6.37)" fill="#fff"/><path d="M189.05,23.22h6.34v4.9h.29a11.67,11.67,0,0,1,4.64-4.32,13.24,13.24,0,0,1,6.52-1.73q6.48,0,10,3.71t3.49,10.54V58.5h-6.62V36.76q-.23-8.64-8.72-8.64a8.26,8.26,0,0,0-6.62,3.2A11.59,11.59,0,0,0,195.68,39V58.5h-6.63Z" transform="translate(11.07 -6.37)" fill="#fff"/><path d="M242.83,59.65A15.49,15.49,0,0,1,231,54.18a19.42,19.42,0,0,1-4.9-13.32A19.42,19.42,0,0,1,231,27.54a15.49,15.49,0,0,1,11.87-5.47,15.28,15.28,0,0,1,7.1,1.65,12.45,12.45,0,0,1,4.93,4.4h.29l-.29-4.9V7h6.62V58.5h-6.33V53.6h-.29a12.45,12.45,0,0,1-4.93,4.4A15.28,15.28,0,0,1,242.83,59.65Zm1.09-6a10.15,10.15,0,0,0,8-3.52,13.12,13.12,0,0,0,3.24-9.22,13.13,13.13,0,0,0-3.24-9.14,10.21,10.21,0,0,0-8-3.6,10.34,10.34,0,0,0-8,3.6,13.13,13.13,0,0,0-3.24,9.14A13,13,0,0,0,235.92,50,10.34,10.34,0,0,0,243.92,53.6Z" transform="translate(11.07 -6.37)" fill="#fff"/><path d="M267.17,40.86a18.65,18.65,0,0,1,5.11-13.46,17.41,17.41,0,0,1,13-5.33,17.17,17.17,0,0,1,13,5.33,18.54,18.54,0,0,1,5.18,13.46,18.37,18.37,0,0,1-5.18,13.46,17.17,17.17,0,0,1-13,5.33,17.41,17.41,0,0,1-13-5.33A18.65,18.65,0,0,1,267.17,40.86Zm6.62,0a12.94,12.94,0,0,0,3.32,9.22,11.32,11.32,0,0,0,16.41,0,12.94,12.94,0,0,0,3.31-9.22,12.8,12.8,0,0,0-3.31-9.14,11.15,11.15,0,0,0-16.41,0A12.81,12.81,0,0,0,273.79,40.86Z" transform="translate(11.07 -6.37)" fill="#fff"/></g></svg>