<svg xmlns="http://www.w3.org/2000/svg" viewBox="0 0 389.16 428.6"><title>neogeocd</title><g id="Layer_3" data-name="Layer 3"><circle cx="193.32" cy="86.2" r="8.2" fill="#fff"/><line x1="50.82" y1="122.7" x2="335.82" y2="122.7" fill="none"/><rect x="50.82" y="119.7" width="285" height="6" fill="#fff"/><line x1="50.82" y1="379.2" x2="335.82" y2="379.2" fill="none"/><rect x="50.82" y="376.2" width="285" height="6" fill="#fff"/><circle cx="193.32" cy="420.4" r="8.2" fill="#fff"/></g><g id="NEW_TEXT" data-name="NEW TEXT"><path d="M53.73,159.28v102.6H39.93v-85.5L20,185.08l-5.25-11.7,30.15-14.1Z" transform="translate(31.52 -5.8)" fill="#fff"/><path d="M104.43,224.38q-12.32,0-22.35-9.75a32.51,32.51,0,0,1-9.75-23.4q0-13.95,10.5-24,10.49-10.35,24.6-10.35a34.07,34.07,0,0,1,25,10.2,33,33,0,0,1,10.2,24.15q0,12.45-10.05,28.35l-29.85,44.7-11.1-7.65L117,221.53l-.3-.3Q111.92,224.38,104.43,224.38Zm24.3-33.3a20,20,0,0,0-6.3-14.85,21.37,21.37,0,0,0-30,0,21,21,0,0,0,0,29.7,21.37,21.37,0,0,0,30,0A19.67,19.67,0,0,0,128.73,191.08Z" transform="translate(31.52 -5.8)" fill="#fff"/><path d="M186.77,224.38q-12.3,0-22.35-9.75a32.55,32.55,0,0,1-9.75-23.4q0-13.95,10.5-24,10.5-10.35,24.6-10.35a34.05,34.05,0,0,1,25,10.2A33,33,0,0,1,225,191.23q0,12.45-10.05,28.35l-29.84,44.7L174,256.63l25.36-35.1-.31-.3Q194.27,224.38,186.77,224.38Zm24.3-33.3a20,20,0,0,0-6.3-14.85,21.11,21.11,0,1,0-30,29.7,21.37,21.37,0,0,0,30,0A19.67,19.67,0,0,0,211.07,191.08Z" transform="translate(31.52 -5.8)" fill="#fff"/><path d="M295.07,240.28v21.6h-13.8v-21.6H232.52v-10.5l47.55-70.5h15v68.1h13.2v12.9Zm-46.95-12.9h33.15V179.53h-.6Z" transform="translate(31.52 -5.8)" fill="#fff"/><path d="M-24.89,353.45h-6.63V301.9h8.07L1.6,342h.29l-.29-9.94V301.9H8.23v51.55H1.31l-26.2-42.05h-.29l.29,9.93Z" transform="translate(31.52 -5.8)" fill="#fff"/><path d="M33.28,354.6a16.86,16.86,0,0,1-12.81-5.33,18.81,18.81,0,0,1-5-13.46,19.18,19.18,0,0,1,4.89-13.43A16.2,16.2,0,0,1,32.85,317q7.84,0,12.49,5.07T50,336.31l-.08.72H22.19a11.49,11.49,0,0,0,3.46,8.35,11,11,0,0,0,7.92,3.17q6.33,0,9.94-6.34l5.9,2.89a17.59,17.59,0,0,1-6.59,7A18.23,18.23,0,0,1,33.28,354.6Zm-10.58-23H42.93a8.75,8.75,0,0,0-3-6.08,10.44,10.44,0,0,0-7.23-2.42,9.6,9.6,0,0,0-6.45,2.31A11,11,0,0,0,22.7,331.56Z" transform="translate(31.52 -5.8)" fill="#fff"/><path d="M54.38,335.81a18.67,18.67,0,0,1,5.11-13.47,17.41,17.41,0,0,1,13-5.32,17.2,17.2,0,0,1,13,5.32,20.06,20.06,0,0,1,0,26.93,17.21,17.21,0,0,1-13,5.33,17.42,17.42,0,0,1-13-5.33A18.65,18.65,0,0,1,54.38,335.81Zm6.62,0A12.89,12.89,0,0,0,64.31,345a11.31,11.31,0,0,0,16.42,0,14.38,14.38,0,0,0,0-18.36,11.16,11.16,0,0,0-16.42,0A12.83,12.83,0,0,0,61,335.81Z" transform="translate(31.52 -5.8)" fill="#fff"/><path d="M161.87,329.76q0,10.8-6.41,17.21-7.2,7.63-18.93,7.63a26.93,26.93,0,1,1,0-53.86,28.71,28.71,0,0,1,10.73,2,21.39,21.39,0,0,1,8.28,5.69l-4.76,4.75a15.92,15.92,0,0,0-6.15-4.5,20.34,20.34,0,0,0-8.1-1.62,19.39,19.39,0,0,0-14.26,5.83,21.79,21.79,0,0,0,0,29.52,19.39,19.39,0,0,0,14.26,5.83,19.15,19.15,0,0,0,12.81-4.32,17.22,17.22,0,0,0,5.91-11.88H136.53v-6.19h25A22.17,22.17,0,0,1,161.87,329.76Z" transform="translate(31.52 -5.8)" fill="#fff"/><path d="M184.26,354.6a16.88,16.88,0,0,1-12.81-5.33,18.81,18.81,0,0,1-5-13.46,19.18,19.18,0,0,1,4.89-13.43A16.2,16.2,0,0,1,183.83,317q7.84,0,12.49,5.07T201,336.31l-.07.72H173.18a11.44,11.44,0,0,0,3.45,8.35,11,11,0,0,0,7.92,3.17q6.34,0,9.94-6.34l5.9,2.89a17.59,17.59,0,0,1-6.59,7A18.18,18.18,0,0,1,184.26,354.6Zm-10.58-23h20.23a8.75,8.75,0,0,0-3-6.08,10.43,10.43,0,0,0-7.23-2.42,9.6,9.6,0,0,0-6.45,2.31A11,11,0,0,0,173.68,331.56Z" transform="translate(31.52 -5.8)" fill="#fff"/><path d="M205.36,335.81a18.67,18.67,0,0,1,5.11-13.47,17.43,17.43,0,0,1,13-5.32,17.2,17.2,0,0,1,13,5.32,20.06,20.06,0,0,1,0,26.93,17.21,17.21,0,0,1-13,5.33,17.44,17.44,0,0,1-13-5.33A18.65,18.65,0,0,1,205.36,335.81Zm6.62,0A12.9,12.9,0,0,0,215.3,345a11.3,11.3,0,0,0,16.41,0,14.38,14.38,0,0,0,0-18.36,11.15,11.15,0,0,0-16.41,0A12.83,12.83,0,0,0,212,335.81Z" transform="translate(31.52 -5.8)" fill="#fff"/><path d="M287.51,354.6a26.2,26.2,0,0,1-26.78-26.93q0-11.52,7.63-19.15a25.7,25.7,0,0,1,19.15-7.78q11.67,0,18.94,8.43l-4.75,4.61a17.6,17.6,0,0,0-14.19-6.7,19.46,19.46,0,0,0-14.33,5.76q-5.69,5.69-5.68,14.83t5.68,14.83a19.46,19.46,0,0,0,14.33,5.76q9,0,15.62-7.56l4.83,4.68a25.06,25.06,0,0,1-9,6.81A27.56,27.56,0,0,1,287.51,354.6Z" transform="translate(31.52 -5.8)" fill="#fff"/><path d="M315.73,353.45V301.9H331.5q11.81,0,19,7.12t7.17,18.65q0,11.59-7.17,18.69t-19,7.09Zm6.63-45.22v38.88h9.14q9,0,14.19-5.15t5.18-14.29q0-9.07-5.18-14.25t-14.19-5.19Z" transform="translate(31.52 -5.8)" fill="#fff"/><path d="M131.45,44.75a13.38,13.38,0,0,1-5,10.87,19,19,0,0,1-12.24,4,18.11,18.11,0,0,1-11.3-3.74,19.2,19.2,0,0,1-6.77-10.23l6.34-2.59a16.24,16.24,0,0,0,1.8,4.18,13.64,13.64,0,0,0,2.7,3.2,12,12,0,0,0,3.42,2.09,10.57,10.57,0,0,0,4,.76A11.37,11.37,0,0,0,121.8,51a7.63,7.63,0,0,0,2.89-6.23,7.48,7.48,0,0,0-2.38-5.55Q120.07,37,114,34.88a82.44,82.44,0,0,1-7.71-3Q98,27.69,98,19.55a12.58,12.58,0,0,1,4.54-9.72,16.54,16.54,0,0,1,11.3-4,17.35,17.35,0,0,1,10.23,3,14.16,14.16,0,0,1,5.76,7.42l-6.19,2.59A9.2,9.2,0,0,0,120.26,14a11.06,11.06,0,0,0-12.78.25,6.3,6.3,0,0,0-2.67,5.26,6.12,6.12,0,0,0,2.09,4.61q2.31,1.93,10,4.6t11.19,6.52A13.89,13.89,0,0,1,131.45,44.75Z" transform="translate(31.52 -5.8)" fill="#fff"/><path d="M146.07,58.5h-6.63V7h8.07l25.05,40.1h.29l-.29-9.93V7h6.63V58.5h-6.91l-26.21-42h-.29l.29,9.94Z" transform="translate(31.52 -5.8)" fill="#fff"/><path d="M219.15,7h8.57v.29l-19.16,22.1L229,58.21v.29h-8.13l-16.78-24-7.92,9.15V58.5h-6.62V7h6.62V33.52h.29Z" transform="translate(31.52 -5.8)" fill="#fff"/></g></svg>