<svg xmlns="http://www.w3.org/2000/svg" viewBox="0 0 291.6 428.03"><title>nes</title><g id="Layer_3" data-name="Layer 3"><circle cx="146.4" cy="85.63" r="8.2" fill="#fff"/><line x1="3.9" y1="122.13" x2="288.9" y2="122.13" fill="none"/><rect x="3.9" y="119.13" width="285" height="6" fill="#fff"/><line x1="3.9" y1="378.63" x2="288.9" y2="378.63" fill="none"/><rect x="3.9" y="375.63" width="285" height="6" fill="#fff"/><circle cx="146.4" cy="419.83" r="8.2" fill="#fff"/></g><g id="NEW_TEXT" data-name="NEW TEXT"><path d="M54.4,159.28v102.6H40.6v-85.5l-20,8.7-5.25-11.7,30.15-14.1Z" transform="translate(-15.4 -6.37)" fill="#fff"/><path d="M105.1,224.38q-12.3,0-22.35-9.75A32.55,32.55,0,0,1,73,191.23q0-13.95,10.5-24,10.5-10.35,24.6-10.35a34.05,34.05,0,0,1,25.05,10.2,33,33,0,0,1,10.2,24.15q0,12.45-10,28.35l-29.85,44.7-11.1-7.65,25.35-35.1-.3-.3Q112.6,224.38,105.1,224.38Zm24.3-33.3a20,20,0,0,0-6.3-14.85,21.37,21.37,0,0,0-30,0,21,21,0,0,0,0,29.7,21.37,21.37,0,0,0,30,0A19.67,19.67,0,0,0,129.4,191.08Z" transform="translate(-15.4 -6.37)" fill="#fff"/><path d="M225,233.53a27.74,27.74,0,0,1-10,21.9q-10.2,8.85-24.75,8.85t-24.75-8.85a27.74,27.74,0,0,1-10.05-21.9,26.48,26.48,0,0,1,4.35-14.77,29.92,29.92,0,0,1,12.45-10.58v-.6a32.09,32.09,0,0,1-9.67-9.6,21.72,21.72,0,0,1-3.68-12,27.58,27.58,0,0,1,8.85-20.85q8.7-8.25,22.5-8.25t22.5,8.25A27.58,27.58,0,0,1,221.5,186a21.87,21.87,0,0,1-3.67,12,32.35,32.35,0,0,1-9.68,9.6v.6a29.92,29.92,0,0,1,12.45,10.58A26.48,26.48,0,0,1,225,233.53Zm-55.5-.75a16.81,16.81,0,0,0,1.57,7.35,18.2,18.2,0,0,0,4.36,5.78,19.58,19.58,0,0,0,6.52,3.82,25.88,25.88,0,0,0,16.5,0,19.69,19.69,0,0,0,6.52-3.82,18.17,18.17,0,0,0,4.35-5.78,16.68,16.68,0,0,0,1.58-7.35,16.21,16.21,0,0,0-6-12.9,21.54,21.54,0,0,0-14.7-5.25,22.1,22.1,0,0,0-14.85,5.25A16.66,16.66,0,0,0,169.45,232.78Zm3.45-47.1a15.08,15.08,0,0,0,4.8,11.63q4.8,4.42,12.45,4.42t12.45-4.42a15.08,15.08,0,0,0,4.8-11.63q0-7.2-4.8-11.4t-12.45-4.2q-7.65,0-12.45,4.2T172.9,185.68Z" transform="translate(-15.4 -6.37)" fill="#fff"/><path d="M307,229.78a32.89,32.89,0,0,1-10.2,24.6q-10.2,9.9-25.2,9.9a34.74,34.74,0,0,1-21.75-7.5A35.4,35.4,0,0,1,237,236.53l12.3-4.95a27.28,27.28,0,0,0,8.17,14.25,20.27,20.27,0,0,0,13.88,5.25q9.6,0,15.67-5.92t6.08-15.23q0-9.45-6.08-15.45t-15.52-6a20,20,0,0,0-17.25,8.85l-13.95-6,6.6-52.05H300.7v13.2H258.4l-3.75,29.4.6.15q7.65-6.15,18.6-6.15a31.83,31.83,0,0,1,23.47,9.75Q307,215.38,307,229.78Z" transform="translate(-15.4 -6.37)" fill="#fff"/><path d="M52.41,289.1v3.7H38.72v9.53H51.07v3.61H38.72v9.54H52.41v3.69H34.86V289.1Z" transform="translate(-15.4 -6.37)" fill="#fff"/><path d="M56.53,298.59h3.69v2.86h.17a6.85,6.85,0,0,1,2.71-2.52,7.81,7.81,0,0,1,3.8-1,7.62,7.62,0,0,1,5.82,2.16,8.66,8.66,0,0,1,2,6.16v12.93H70.89V306.49c-.08-3.36-1.78-5-5.08-5A4.8,4.8,0,0,0,62,303.32a6.73,6.73,0,0,0-1.56,4.47v11.38H56.53Z" transform="translate(-15.4 -6.37)" fill="#fff"/><path d="M86.39,319.51A5.87,5.87,0,0,1,82.21,318a5.73,5.73,0,0,1-1.7-4.32V302.12H76.9v-3.53h3.61v-6.3h3.86v6.3h5v3.53h-5v10.25a3.76,3.76,0,0,0,.8,2.79,2.61,2.61,0,0,0,1.81.74,3.82,3.82,0,0,0,.9-.11,4.64,4.64,0,0,0,.82-.27L89.92,319A10.26,10.26,0,0,1,86.39,319.51Z" transform="translate(-15.4 -6.37)" fill="#fff"/><path d="M102.14,319.84a9.86,9.86,0,0,1-7.48-3.1,11,11,0,0,1-2.94-7.86,11.19,11.19,0,0,1,2.86-7.83,10.27,10.27,0,0,1,14.6-.17q2.7,3,2.7,8.3l0,.42H95.67a6.72,6.72,0,0,0,2,4.87,6.47,6.47,0,0,0,4.62,1.85c2.46,0,4.39-1.24,5.79-3.7l3.45,1.68a10.32,10.32,0,0,1-3.84,4.07A10.66,10.66,0,0,1,102.14,319.84ZM96,306.4h11.8a5.13,5.13,0,0,0-1.74-3.55,6.15,6.15,0,0,0-4.23-1.4,5.62,5.62,0,0,0-3.75,1.34A6.4,6.4,0,0,0,96,306.4Z" transform="translate(-15.4 -6.37)" fill="#fff"/><path d="M115.41,298.59h3.7V302h.17c1.14-2.63,3.51-3.95,7.09-3.95l.8.09v4l-1.72-.17a6.15,6.15,0,0,0-4.43,1.66,5.58,5.58,0,0,0-1.74,4.22v11.34h-3.87Zm24.11,20.92a5.87,5.87,0,0,1-4.18-1.56,5.73,5.73,0,0,1-1.7-4.32V302.12H130v-3.53h3.61v-6.3h3.86v6.3h5v3.53h-5v10.25a3.76,3.76,0,0,0,.8,2.79,2.61,2.61,0,0,0,1.81.74,3.82,3.82,0,0,0,.9-.11,4.64,4.64,0,0,0,.82-.27l1.22,3.44A10.26,10.26,0,0,1,139.52,319.51Z" transform="translate(-15.4 -6.37)" fill="#fff"/><path d="M153.63,297.92a9.55,9.55,0,0,1,6.76,2.29,8.11,8.11,0,0,1,2.48,6.28v12.68h-3.69v-2.85H159a7.38,7.38,0,0,1-6.39,3.52,8.33,8.33,0,0,1-5.69-2,6.48,6.48,0,0,1-2.29-5,6.12,6.12,0,0,1,2.42-5.08,10.18,10.18,0,0,1,6.45-1.89,11.44,11.44,0,0,1,5.67,1.26v-.89a4.42,4.42,0,0,0-1.6-3.42,5.46,5.46,0,0,0-3.74-1.41,5.92,5.92,0,0,0-5.12,2.73l-3.4-2.14A9.46,9.46,0,0,1,153.63,297.92Zm-5,14.95a3.07,3.07,0,0,0,1.29,2.52,4.71,4.71,0,0,0,3,1,6.16,6.16,0,0,0,4.35-1.81,5.65,5.65,0,0,0,1.91-4.24,8,8,0,0,0-5-1.43,6.53,6.53,0,0,0-3.93,1.14A3.36,3.36,0,0,0,148.63,312.87Z" transform="translate(-15.4 -6.37)" fill="#fff"/><path d="M172.24,291.49a2.67,2.67,0,0,1-.8,1.94,2.73,2.73,0,0,1-4.66-1.94,2.73,2.73,0,0,1,2.73-2.73,2.73,2.73,0,0,1,2.73,2.73Zm-.8,7.1v20.58h-3.86V298.59Z" transform="translate(-15.4 -6.37)" fill="#fff"/><path d="M176.48,298.59h3.69v2.86h.17a6.85,6.85,0,0,1,2.71-2.52,7.81,7.81,0,0,1,3.8-1,7.62,7.62,0,0,1,5.82,2.16,8.66,8.66,0,0,1,2,6.16v12.93h-3.87V306.49c-.08-3.36-1.78-5-5.08-5a4.8,4.8,0,0,0-3.86,1.87,6.73,6.73,0,0,0-1.56,4.47v11.38h-3.86Z" transform="translate(-15.4 -6.37)" fill="#fff"/><path d="M203.11,319.17h-3.87V298.59h3.7v2.86h.17a6.85,6.85,0,0,1,2.71-2.52,7.55,7.55,0,0,1,7.62,0,6.19,6.19,0,0,1,2.52,2.9,8,8,0,0,1,7.1-3.95,7,7,0,0,1,5.5,2.18,9.09,9.09,0,0,1,1.93,6.22v12.85h-3.86V306.91a6.6,6.6,0,0,0-1-4.18,4.34,4.34,0,0,0-3.53-1.28,4.61,4.61,0,0,0-3.74,1.89,6.89,6.89,0,0,0-1.51,4.45v11.38h-3.87V306.91a6.6,6.6,0,0,0-1.05-4.18,4.32,4.32,0,0,0-3.52-1.28,4.61,4.61,0,0,0-3.74,1.89,6.89,6.89,0,0,0-1.51,4.45Z" transform="translate(-15.4 -6.37)" fill="#fff"/><path d="M244.27,319.84a9.84,9.84,0,0,1-7.48-3.1,11,11,0,0,1-2.94-7.86,11.15,11.15,0,0,1,2.86-7.83,10.26,10.26,0,0,1,14.59-.17q2.72,3,2.71,8.3l0,.42H237.8a6.71,6.71,0,0,0,2,4.87,6.47,6.47,0,0,0,4.62,1.85c2.47,0,4.4-1.24,5.8-3.7l3.44,1.68a10.18,10.18,0,0,1-3.84,4.07A10.62,10.62,0,0,1,244.27,319.84Zm-6.18-13.44h11.8a5.13,5.13,0,0,0-1.74-3.55,6.14,6.14,0,0,0-4.22-1.4,5.62,5.62,0,0,0-3.76,1.34A6.46,6.46,0,0,0,238.09,306.4Z" transform="translate(-15.4 -6.37)" fill="#fff"/><path d="M257.54,298.59h3.69v2.86h.17a6.85,6.85,0,0,1,2.71-2.52,7.81,7.81,0,0,1,3.8-1,7.62,7.62,0,0,1,5.82,2.16,8.66,8.66,0,0,1,2,6.16v12.93H271.9V306.49c-.08-3.36-1.78-5-5.08-5a4.8,4.8,0,0,0-3.86,1.87,6.73,6.73,0,0,0-1.56,4.47v11.38h-3.86Z" transform="translate(-15.4 -6.37)" fill="#fff"/><path d="M287.4,319.51a5.87,5.87,0,0,1-4.18-1.56,5.73,5.73,0,0,1-1.7-4.32V302.12h-3.61v-3.53h3.61v-6.3h3.86v6.3h5v3.53h-5v10.25a3.76,3.76,0,0,0,.8,2.79,2.61,2.61,0,0,0,1.81.74,3.82,3.82,0,0,0,.9-.11,4.64,4.64,0,0,0,.82-.27l1.22,3.44A10.26,10.26,0,0,1,287.4,319.51Z" transform="translate(-15.4 -6.37)" fill="#fff"/><path d="M116,361.55a7.81,7.81,0,0,1-2.9,6.34,11.06,11.06,0,0,1-7.14,2.35,10.51,10.51,0,0,1-6.59-2.18,11.15,11.15,0,0,1-4-6l3.7-1.52a9.42,9.42,0,0,0,1,2.44,7.76,7.76,0,0,0,1.57,1.87,7.21,7.21,0,0,0,2,1.22,6.13,6.13,0,0,0,2.31.44,6.63,6.63,0,0,0,4.32-1.37,4.44,4.44,0,0,0,1.68-3.63,4.33,4.33,0,0,0-1.38-3.23,13.19,13.19,0,0,0-4.88-2.52q-3.6-1.31-4.49-1.77c-3.19-1.62-4.79-4-4.79-7.18a7.31,7.31,0,0,1,2.65-5.67,9.64,9.64,0,0,1,6.59-2.35,10.19,10.19,0,0,1,6,1.76,8.26,8.26,0,0,1,3.36,4.33l-3.62,1.51a5.31,5.31,0,0,0-2-2.79,6.45,6.45,0,0,0-7.46.14,3.7,3.7,0,0,0-1.55,3.07,3.57,3.57,0,0,0,1.22,2.69,21.12,21.12,0,0,0,5.84,2.69q4.58,1.54,6.53,3.8A8.13,8.13,0,0,1,116,361.55Z" transform="translate(-15.4 -6.37)" fill="#fff"/><path d="M137.57,349l-12.9,29.65h-4l4.79-10.37L117,349h4.2l6.13,14.79h.08l6-14.79Z" transform="translate(-15.4 -6.37)" fill="#fff"/><path d="M155.42,363.86a5.6,5.6,0,0,1-2.36,4.54,9.28,9.28,0,0,1-5.92,1.84,9.39,9.39,0,0,1-5.46-1.61,8.89,8.89,0,0,1-3.36-4.27l3.45-1.47a6.33,6.33,0,0,0,2.2,2.88,5.34,5.34,0,0,0,3.17,1,5.63,5.63,0,0,0,3.09-.8,2.25,2.25,0,0,0,1.24-1.89c0-1.31-1-2.28-3-2.9l-3.52-.88q-6-1.51-6-5.79A5.35,5.35,0,0,1,141.2,350a9.6,9.6,0,0,1,5.86-1.7,9.48,9.48,0,0,1,4.93,1.3,7.09,7.09,0,0,1,3.09,3.49l-3.44,1.43a4.38,4.38,0,0,0-1.91-2,6,6,0,0,0-3-.74,5,5,0,0,0-2.7.76,2.17,2.17,0,0,0-1.2,1.85c0,1.17,1.1,2,3.32,2.52l3.1.8Q155.42,359.19,155.42,363.86Z" transform="translate(-15.4 -6.37)" fill="#fff"/><path d="M166.71,369.91a5.83,5.83,0,0,1-4.17-1.56,5.74,5.74,0,0,1-1.71-4.32V352.52h-3.61V349h3.61v-6.3h3.87V349h5v3.53h-5v10.25a3.72,3.72,0,0,0,.8,2.79,2.59,2.59,0,0,0,1.8.74,4,4,0,0,0,.91-.11,4.81,4.81,0,0,0,.81-.27l1.22,3.44A10.22,10.22,0,0,1,166.71,369.91Z" transform="translate(-15.4 -6.37)" fill="#fff"/><path d="M182.46,370.24a9.84,9.84,0,0,1-7.47-3.1,11,11,0,0,1-2.94-7.86,11.2,11.2,0,0,1,2.85-7.83,10.27,10.27,0,0,1,14.6-.17c1.8,2,2.71,4.74,2.71,8.3l0,.42H176a6.67,6.67,0,0,0,2,4.87,6.47,6.47,0,0,0,4.62,1.85c2.47,0,4.4-1.24,5.8-3.7l3.44,1.68a10.18,10.18,0,0,1-3.84,4.07A10.63,10.63,0,0,1,182.46,370.24Zm-6.17-13.44h11.8a5.13,5.13,0,0,0-1.74-3.55,6.14,6.14,0,0,0-4.22-1.4,5.62,5.62,0,0,0-3.76,1.34A6.46,6.46,0,0,0,176.29,356.8Z" transform="translate(-15.4 -6.37)" fill="#fff"/><path d="M199.6,369.57h-3.86V349h3.69v2.86h.17a6.85,6.85,0,0,1,2.71-2.52,7.55,7.55,0,0,1,7.62,0,6.19,6.19,0,0,1,2.52,2.9,8,8,0,0,1,7.1-3.95,7,7,0,0,1,5.5,2.18,9.09,9.09,0,0,1,1.93,6.22v12.85h-3.86V357.31a6.6,6.6,0,0,0-1.05-4.18,4.34,4.34,0,0,0-3.53-1.28,4.63,4.63,0,0,0-3.74,1.89,7,7,0,0,0-1.51,4.45v11.38h-3.86V357.31a6.6,6.6,0,0,0-1.05-4.18,4.34,4.34,0,0,0-3.53-1.28,4.63,4.63,0,0,0-3.74,1.89,6.89,6.89,0,0,0-1.51,4.45Z" transform="translate(-15.4 -6.37)" fill="#fff"/><path d="M29.93,58.5H23.31V7h8.06l25.06,40.1h.29l-.29-9.93V7h6.62V58.5H56.14l-26.21-42h-.28l.28,9.94Z" transform="translate(-15.4 -6.37)" fill="#fff"/><path d="M80.84,11.05a4.51,4.51,0,0,1-1.37,3.31,4.68,4.68,0,0,1-8-3.31,4.68,4.68,0,1,1,9.36,0ZM79.47,23.22V58.5H72.84V23.22Z" transform="translate(-15.4 -6.37)" fill="#fff"/><path d="M88.11,23.22h6.33v4.9h.29a11.77,11.77,0,0,1,4.65-4.32,13.2,13.2,0,0,1,6.51-1.73q6.48,0,10,3.71t3.5,10.54V58.5h-6.63V36.76q-.21-8.64-8.71-8.64a8.25,8.25,0,0,0-6.62,3.2A11.6,11.6,0,0,0,94.73,39V58.5H88.11Z" transform="translate(-15.4 -6.37)" fill="#fff"/><path d="M139.3,59.08a10,10,0,0,1-7.16-2.67A9.87,9.87,0,0,1,129.22,49V29.27H123V23.22h6.19V12.42h6.62v10.8h8.64v6.05h-8.64V46.84q0,3.52,1.37,4.78a4.46,4.46,0,0,0,3.1,1.26,6.7,6.7,0,0,0,1.55-.18,8.21,8.21,0,0,0,1.4-.46l2.09,5.9A17.92,17.92,0,0,1,139.3,59.08Z" transform="translate(-15.4 -6.37)" fill="#fff"/><path d="M166.3,59.65a16.86,16.86,0,0,1-12.82-5.33,18.81,18.81,0,0,1-5-13.46,19.19,19.19,0,0,1,4.9-13.43,16.22,16.22,0,0,1,12.53-5.36q7.84,0,12.49,5.07T183,41.36l-.07.72H155.21a11.53,11.53,0,0,0,3.46,8.36,11.06,11.06,0,0,0,7.92,3.16q6.33,0,9.93-6.33l5.91,2.88a17.66,17.66,0,0,1-6.59,7A18.23,18.23,0,0,1,166.3,59.65Zm-10.58-23H176a8.77,8.77,0,0,0-3-6.08,10.45,10.45,0,0,0-7.24-2.41,9.58,9.58,0,0,0-6.44,2.3A11,11,0,0,0,155.72,36.61Z" transform="translate(-15.4 -6.37)" fill="#fff"/><path d="M189.05,23.22h6.34v4.9h.29a11.67,11.67,0,0,1,4.64-4.32,13.24,13.24,0,0,1,6.52-1.73q6.48,0,10,3.71t3.49,10.54V58.5h-6.62V36.76q-.23-8.64-8.72-8.64a8.26,8.26,0,0,0-6.62,3.2A11.59,11.59,0,0,0,195.68,39V58.5h-6.63Z" transform="translate(-15.4 -6.37)" fill="#fff"/><path d="M242.83,59.65A15.49,15.49,0,0,1,231,54.18a19.42,19.42,0,0,1-4.9-13.32A19.42,19.42,0,0,1,231,27.54a15.49,15.49,0,0,1,11.87-5.47,15.28,15.28,0,0,1,7.1,1.65,12.45,12.45,0,0,1,4.93,4.4h.29l-.29-4.9V7h6.62V58.5h-6.33V53.6h-.29a12.45,12.45,0,0,1-4.93,4.4A15.28,15.28,0,0,1,242.83,59.65Zm1.09-6a10.15,10.15,0,0,0,8-3.52,13.12,13.12,0,0,0,3.24-9.22,13.13,13.13,0,0,0-3.24-9.14,10.21,10.21,0,0,0-8-3.6,10.34,10.34,0,0,0-8,3.6,13.13,13.13,0,0,0-3.24,9.14A13,13,0,0,0,235.92,50,10.34,10.34,0,0,0,243.92,53.6Z" transform="translate(-15.4 -6.37)" fill="#fff"/><path d="M267.17,40.86a18.65,18.65,0,0,1,5.11-13.46,17.41,17.41,0,0,1,13-5.33,17.17,17.17,0,0,1,13,5.33,18.54,18.54,0,0,1,5.18,13.46,18.37,18.37,0,0,1-5.18,13.46,17.17,17.17,0,0,1-13,5.33,17.41,17.41,0,0,1-13-5.33A18.65,18.65,0,0,1,267.17,40.86Zm6.62,0a12.94,12.94,0,0,0,3.32,9.22,11.32,11.32,0,0,0,16.41,0,12.94,12.94,0,0,0,3.31-9.22,12.8,12.8,0,0,0-3.31-9.14,11.15,11.15,0,0,0-16.41,0A12.81,12.81,0,0,0,273.79,40.86Z" transform="translate(-15.4 -6.37)" fill="#fff"/></g></svg>