<svg xmlns="http://www.w3.org/2000/svg" viewBox="0 0 291.9 428.6"><title>ngp</title><g id="Layer_3" data-name="Layer 3"><circle cx="145.95" cy="86.2" r="8.2" fill="#fff"/><line x1="3.45" y1="122.7" x2="288.45" y2="122.7" fill="none"/><rect x="3.45" y="119.7" width="285" height="6" fill="#fff"/><line x1="3.45" y1="379.2" x2="288.45" y2="379.2" fill="none"/><rect x="3.45" y="376.2" width="285" height="6" fill="#fff"/><circle cx="145.95" cy="420.4" r="8.2" fill="#fff"/></g><g id="NEW_TEXT" data-name="NEW TEXT"><path d="M54.85,159.28v102.6H41.05v-85.5l-19.95,8.7-5.25-11.7L46,159.28Z" transform="translate(-15.85 -5.8)" fill="#fff"/><path d="M105.55,224.38q-12.3,0-22.35-9.75a32.55,32.55,0,0,1-9.75-23.4q0-13.95,10.5-24,10.5-10.35,24.6-10.35a34.05,34.05,0,0,1,25,10.2,33,33,0,0,1,10.2,24.15q0,12.45-10.05,28.35l-29.85,44.7-11.1-7.65,25.35-35.1-.3-.3Q113.05,224.38,105.55,224.38Zm24.3-33.3a20,20,0,0,0-6.3-14.85,21.37,21.37,0,0,0-30,0,21,21,0,0,0,0,29.7,21.37,21.37,0,0,0,30,0A19.67,19.67,0,0,0,129.85,191.08Z" transform="translate(-15.85 -5.8)" fill="#fff"/><path d="M187.9,224.38q-12.3,0-22.35-9.75a32.55,32.55,0,0,1-9.75-23.4q0-13.95,10.5-24,10.5-10.35,24.6-10.35a34.05,34.05,0,0,1,25,10.2,33,33,0,0,1,10.2,24.15q0,12.45-10.05,28.35l-29.85,44.7-11.1-7.65,25.35-35.1-.3-.3Q195.4,224.38,187.9,224.38Zm24.3-33.3a20,20,0,0,0-6.3-14.85,21.11,21.11,0,1,0-30,29.7,21.37,21.37,0,0,0,30,0A19.67,19.67,0,0,0,212.2,191.08Z" transform="translate(-15.85 -5.8)" fill="#fff"/><path d="M307.75,233.53a27.74,27.74,0,0,1-10.05,21.9q-10.2,8.85-24.75,8.85t-24.75-8.85a27.74,27.74,0,0,1-10-21.9,26.48,26.48,0,0,1,4.35-14.77A29.92,29.92,0,0,1,255,208.18v-.6a32.24,32.24,0,0,1-9.68-9.6,21.79,21.79,0,0,1-3.67-12,27.58,27.58,0,0,1,8.85-20.85q8.7-8.25,22.5-8.25t22.5,8.25A27.58,27.58,0,0,1,304.3,186a21.8,21.8,0,0,1-3.68,12,32.2,32.2,0,0,1-9.67,9.6v.6a29.92,29.92,0,0,1,12.45,10.58A26.48,26.48,0,0,1,307.75,233.53Zm-55.5-.75a16.81,16.81,0,0,0,1.57,7.35,18.17,18.17,0,0,0,4.35,5.78,19.73,19.73,0,0,0,6.53,3.82,25.88,25.88,0,0,0,16.5,0,19.69,19.69,0,0,0,6.52-3.82,18.17,18.17,0,0,0,4.35-5.78,16.82,16.82,0,0,0,1.58-7.35,16.21,16.21,0,0,0-6-12.9,21.54,21.54,0,0,0-14.7-5.25,22.1,22.1,0,0,0-14.85,5.25A16.66,16.66,0,0,0,252.25,232.78Zm3.45-47.1a15.08,15.08,0,0,0,4.8,11.63q4.8,4.42,12.45,4.42t12.45-4.42a15.08,15.08,0,0,0,4.8-11.63q0-7.2-4.8-11.4T273,170.08q-7.65,0-12.45,4.2T255.7,185.68Z" transform="translate(-15.85 -5.8)" fill="#fff"/><path d="M86.92,319.17H83.05V289.1h4.7l14.62,23.39h.17l-.17-5.79V289.1h3.86v30.07h-4L86.92,294.64h-.17l.17,5.8Z" transform="translate(-15.85 -5.8)" fill="#fff"/><path d="M120.85,319.84a9.82,9.82,0,0,1-7.47-3.1,11,11,0,0,1-2.95-7.86,11.19,11.19,0,0,1,2.86-7.83,10.27,10.27,0,0,1,14.6-.17q2.7,3,2.7,8.3l0,.42H114.38a6.72,6.72,0,0,0,2,4.87,6.47,6.47,0,0,0,4.62,1.85c2.46,0,4.39-1.24,5.79-3.7l3.45,1.68a10.32,10.32,0,0,1-3.84,4.07A10.66,10.66,0,0,1,120.85,319.84Zm-6.17-13.44h11.8a5.13,5.13,0,0,0-1.74-3.55,6.15,6.15,0,0,0-4.23-1.4,5.62,5.62,0,0,0-3.75,1.34A6.4,6.4,0,0,0,114.68,306.4Z" transform="translate(-15.85 -5.8)" fill="#fff"/><path d="M133.16,308.88a10.87,10.87,0,0,1,3-7.85,10.16,10.16,0,0,1,7.6-3.11A10,10,0,0,1,151.3,301a11.73,11.73,0,0,1,0,15.71,10,10,0,0,1-7.56,3.1,10.15,10.15,0,0,1-7.6-3.1A10.9,10.9,0,0,1,133.16,308.88Zm3.86,0a7.54,7.54,0,0,0,1.93,5.38,6.6,6.6,0,0,0,9.58,0,8.39,8.39,0,0,0,0-10.71,6.51,6.51,0,0,0-9.58,0A7.46,7.46,0,0,0,137,308.88Z" transform="translate(-15.85 -5.8)" fill="#fff"/><path d="M195.86,305.35q0,6.3-3.74,10a14.47,14.47,0,0,1-11,4.45,15.71,15.71,0,1,1,0-31.41,16.79,16.79,0,0,1,6.26,1.17,12.56,12.56,0,0,1,4.83,3.32l-2.78,2.77a9.27,9.27,0,0,0-3.59-2.62,11.85,11.85,0,0,0-4.72-.95,11.32,11.32,0,0,0-8.32,3.41,12.71,12.71,0,0,0,0,17.22,11.35,11.35,0,0,0,8.32,3.4,11.16,11.16,0,0,0,7.47-2.52A10,10,0,0,0,192,306.7H181.08v-3.61h14.57A12.85,12.85,0,0,1,195.86,305.35Z" transform="translate(-15.85 -5.8)" fill="#fff"/><path d="M208.92,319.84a9.84,9.84,0,0,1-7.47-3.1,11,11,0,0,1-2.94-7.86,11.18,11.18,0,0,1,2.85-7.83,10.27,10.27,0,0,1,14.6-.17q2.72,3,2.71,8.3l0,.42H202.46a6.67,6.67,0,0,0,2,4.87,6.47,6.47,0,0,0,4.62,1.85c2.47,0,4.4-1.24,5.8-3.7l3.44,1.68a10.18,10.18,0,0,1-3.84,4.07A10.63,10.63,0,0,1,208.92,319.84Zm-6.17-13.44h11.8a5.13,5.13,0,0,0-1.74-3.55,6.14,6.14,0,0,0-4.22-1.4,5.62,5.62,0,0,0-3.76,1.34A6.46,6.46,0,0,0,202.75,306.4Z" transform="translate(-15.85 -5.8)" fill="#fff"/><path d="M221.23,308.88a10.87,10.87,0,0,1,3-7.85,10.18,10.18,0,0,1,7.6-3.11,10,10,0,0,1,7.56,3.11,11.7,11.7,0,0,1,0,15.71,10,10,0,0,1-7.56,3.1,10.17,10.17,0,0,1-7.6-3.1A10.9,10.9,0,0,1,221.23,308.88Zm3.86,0a7.54,7.54,0,0,0,1.94,5.38,6.59,6.59,0,0,0,9.57,0,8.39,8.39,0,0,0,0-10.71,6.5,6.5,0,0,0-9.57,0A7.47,7.47,0,0,0,225.09,308.88Z" transform="translate(-15.85 -5.8)" fill="#fff"/><path d="M106.66,357.39v12.18h-3.87V339.5H113a9.31,9.31,0,0,1,6.64,2.6,8.7,8.7,0,0,1,0,12.73,9.27,9.27,0,0,1-6.64,2.56Zm0-14.19v10.5h6.46a5.12,5.12,0,0,0,3.83-1.56,5.27,5.27,0,0,0-3.83-8.94Z" transform="translate(-15.85 -5.8)" fill="#fff"/><path d="M123.16,359.28a10.87,10.87,0,0,1,3-7.85,10.18,10.18,0,0,1,7.61-3.11,10,10,0,0,1,7.56,3.11,11.73,11.73,0,0,1,0,15.71,10,10,0,0,1-7.56,3.1,10.18,10.18,0,0,1-7.61-3.1A10.9,10.9,0,0,1,123.16,359.28Zm3.87,0a7.54,7.54,0,0,0,1.93,5.38,6.59,6.59,0,0,0,9.57,0,8.36,8.36,0,0,0,0-10.71,6.5,6.5,0,0,0-9.57,0A7.46,7.46,0,0,0,127,359.28Z" transform="translate(-15.85 -5.8)" fill="#fff"/><path d="M157.27,370.24a10.18,10.18,0,0,1-7.61-3.1,11.08,11.08,0,0,1-3-7.86,10.87,10.87,0,0,1,3-7.85,10.18,10.18,0,0,1,7.61-3.11,9.45,9.45,0,0,1,9,5.92l-3.53,1.47a5.81,5.81,0,0,0-5.76-3.86,5.94,5.94,0,0,0-4.57,2.14,8.35,8.35,0,0,0,0,10.58,6,6,0,0,0,4.57,2.15,6.06,6.06,0,0,0,6-3.87l3.44,1.47a9.18,9.18,0,0,1-3.55,4.35A10,10,0,0,1,157.27,370.24Z" transform="translate(-15.85 -5.8)" fill="#fff"/><path d="M187.88,369.57h-4.66l-6.43-9.7L173.64,363v6.59h-3.86V339.5h3.86V358l8.91-9h4.95v.17l-8,8,8.4,12.26Z" transform="translate(-15.85 -5.8)" fill="#fff"/><path d="M198.68,370.24a9.84,9.84,0,0,1-7.48-3.1,11,11,0,0,1-2.94-7.86,11.16,11.16,0,0,1,2.86-7.83,10.26,10.26,0,0,1,14.59-.17q2.72,3,2.71,8.3l0,.42H192.21a6.71,6.71,0,0,0,2,4.87,6.47,6.47,0,0,0,4.62,1.85c2.47,0,4.4-1.24,5.8-3.7l3.44,1.68a10.18,10.18,0,0,1-3.84,4.07A10.62,10.62,0,0,1,198.68,370.24ZM192.5,356.8h11.8a5.13,5.13,0,0,0-1.74-3.55,6.14,6.14,0,0,0-4.22-1.4,5.62,5.62,0,0,0-3.76,1.34A6.46,6.46,0,0,0,192.5,356.8Z" transform="translate(-15.85 -5.8)" fill="#fff"/><path d="M219.47,369.91a5.85,5.85,0,0,1-4.18-1.56,5.69,5.69,0,0,1-1.7-4.32V352.52H210V349h3.62v-6.3h3.86V349h5v3.53h-5v10.25a3.76,3.76,0,0,0,.8,2.79,2.59,2.59,0,0,0,1.8.74,4,4,0,0,0,.91-.11,5.25,5.25,0,0,0,.82-.27l1.21,3.44A10.16,10.16,0,0,1,219.47,369.91Z" transform="translate(-15.85 -5.8)" fill="#fff"/><path d="M131.45,44.75a13.38,13.38,0,0,1-5,10.87,19,19,0,0,1-12.24,4,18.11,18.11,0,0,1-11.3-3.74,19.2,19.2,0,0,1-6.77-10.23l6.34-2.59a16.24,16.24,0,0,0,1.8,4.18,13.64,13.64,0,0,0,2.7,3.2,12,12,0,0,0,3.42,2.09,10.57,10.57,0,0,0,4,.76A11.37,11.37,0,0,0,121.8,51a7.63,7.63,0,0,0,2.88-6.23,7.47,7.47,0,0,0-2.37-5.55Q120.07,37,114,34.88a82.44,82.44,0,0,1-7.71-3Q98,27.69,98,19.55a12.58,12.58,0,0,1,4.54-9.72,16.54,16.54,0,0,1,11.3-4,17.35,17.35,0,0,1,10.23,3,14.16,14.16,0,0,1,5.76,7.42l-6.19,2.59A9.2,9.2,0,0,0,120.26,14a11.06,11.06,0,0,0-12.78.25,6.3,6.3,0,0,0-2.67,5.26,6.12,6.12,0,0,0,2.09,4.61q2.31,1.93,10,4.6t11.19,6.52A13.89,13.89,0,0,1,131.45,44.75Z" transform="translate(-15.85 -5.8)" fill="#fff"/><path d="M146.07,58.5h-6.63V7h8.07l25.05,40.1h.29l-.29-9.93V7h6.63V58.5h-6.91l-26.21-42h-.29l.29,9.94Z" transform="translate(-15.85 -5.8)" fill="#fff"/><path d="M219.15,7h8.57v.29l-19.16,22.1L229,58.21v.29h-8.13l-16.78-24-7.92,9.15V58.5h-6.62V7h6.62V33.52h.29Z" transform="translate(-15.85 -5.8)" fill="#fff"/></g></svg>