<svg xmlns="http://www.w3.org/2000/svg" viewBox="0 0 292.65 428.6"><title>ngpc</title><g id="Layer_3" data-name="Layer 3"><circle cx="146.32" cy="86.2" r="8.2" fill="#fff"/><line x1="3.82" y1="122.7" x2="288.82" y2="122.7" fill="none"/><rect x="3.82" y="119.7" width="285" height="6" fill="#fff"/><line x1="3.82" y1="379.2" x2="288.82" y2="379.2" fill="none"/><rect x="3.82" y="376.2" width="285" height="6" fill="#fff"/><circle cx="146.32" cy="420.4" r="8.2" fill="#fff"/></g><g id="NEW_TEXT" data-name="NEW TEXT"><path d="M54.48,159.28v102.6H40.68v-85.5l-19.95,8.7-5.25-11.7,30.15-14.1Z" transform="translate(-15.48 -5.8)" fill="#fff"/><path d="M105.17,224.38q-12.3,0-22.35-9.75a32.55,32.55,0,0,1-9.75-23.4q0-13.95,10.5-24,10.5-10.35,24.6-10.35a34.05,34.05,0,0,1,25,10.2,33,33,0,0,1,10.2,24.15q0,12.45-10,28.35l-29.85,44.7-11.1-7.65,25.35-35.1-.3-.3Q112.67,224.38,105.17,224.38Zm24.3-33.3a20,20,0,0,0-6.3-14.85,21.37,21.37,0,0,0-30,0,21,21,0,0,0,0,29.7,21.37,21.37,0,0,0,30,0A19.67,19.67,0,0,0,129.47,191.08Z" transform="translate(-15.48 -5.8)" fill="#fff"/><path d="M187.52,224.38q-12.3,0-22.35-9.75a32.55,32.55,0,0,1-9.75-23.4q0-13.95,10.5-24,10.5-10.35,24.6-10.35a34.05,34.05,0,0,1,25,10.2,33,33,0,0,1,10.2,24.15q0,12.45-10.05,28.35l-29.85,44.7-11.1-7.65,25.35-35.1-.3-.3Q195,224.38,187.52,224.38Zm24.3-33.3a20,20,0,0,0-6.3-14.85,21.11,21.11,0,1,0-30,29.7,21.37,21.37,0,0,0,30,0A19.67,19.67,0,0,0,211.82,191.08Z" transform="translate(-15.48 -5.8)" fill="#fff"/><path d="M269.87,224.38q-12.3,0-22.35-9.75a32.55,32.55,0,0,1-9.75-23.4q0-13.95,10.5-24,10.5-10.35,24.6-10.35a34.05,34.05,0,0,1,25.05,10.2,33,33,0,0,1,10.2,24.15q0,12.45-10.05,28.35l-29.85,44.7-11.1-7.65,25.35-35.1-.3-.3Q277.37,224.38,269.87,224.38Zm24.3-33.3a20,20,0,0,0-6.3-14.85,21.11,21.11,0,1,0-30,29.7,21.37,21.37,0,0,0,30,0A19.67,19.67,0,0,0,294.17,191.08Z" transform="translate(-15.48 -5.8)" fill="#fff"/><path d="M86.91,319.17H83.05V289.1h4.7l14.62,23.39h.17l-.17-5.79V289.1h3.86v30.07h-4L86.91,294.64h-.16l.16,5.8Z" transform="translate(-15.48 -5.8)" fill="#fff"/><path d="M120.85,319.84a9.86,9.86,0,0,1-7.48-3.1,11,11,0,0,1-2.94-7.86,11.19,11.19,0,0,1,2.86-7.83,10.27,10.27,0,0,1,14.6-.17q2.7,3,2.7,8.3l0,.42H114.38a6.72,6.72,0,0,0,2,4.87,6.47,6.47,0,0,0,4.62,1.85c2.46,0,4.39-1.24,5.79-3.7l3.45,1.68a10.32,10.32,0,0,1-3.84,4.07A10.66,10.66,0,0,1,120.85,319.84Zm-6.17-13.44h11.8a5.13,5.13,0,0,0-1.74-3.55,6.15,6.15,0,0,0-4.23-1.4,5.62,5.62,0,0,0-3.75,1.34A6.4,6.4,0,0,0,114.68,306.4Z" transform="translate(-15.48 -5.8)" fill="#fff"/><path d="M133.16,308.88a10.87,10.87,0,0,1,3-7.85,10.16,10.16,0,0,1,7.6-3.11A10,10,0,0,1,151.3,301a11.73,11.73,0,0,1,0,15.71,10,10,0,0,1-7.56,3.1,10.15,10.15,0,0,1-7.6-3.1A10.9,10.9,0,0,1,133.16,308.88Zm3.86,0a7.54,7.54,0,0,0,1.93,5.38,6.6,6.6,0,0,0,9.58,0,8.39,8.39,0,0,0,0-10.71,6.51,6.51,0,0,0-9.58,0A7.46,7.46,0,0,0,137,308.88Z" transform="translate(-15.48 -5.8)" fill="#fff"/><path d="M195.86,305.35q0,6.3-3.74,10a14.47,14.47,0,0,1-11,4.45,15.71,15.71,0,1,1,0-31.41,16.7,16.7,0,0,1,6.25,1.17,12.59,12.59,0,0,1,4.84,3.32l-2.78,2.77a9.27,9.27,0,0,0-3.59-2.62,11.85,11.85,0,0,0-4.72-.95,11.32,11.32,0,0,0-8.32,3.41,12.71,12.71,0,0,0,0,17.22,11.35,11.35,0,0,0,8.32,3.4,11.18,11.18,0,0,0,7.47-2.52A10,10,0,0,0,192,306.7H181.08v-3.61h14.57A12.85,12.85,0,0,1,195.86,305.35Z" transform="translate(-15.48 -5.8)" fill="#fff"/><path d="M208.92,319.84a9.84,9.84,0,0,1-7.47-3.1,11,11,0,0,1-2.94-7.86,11.18,11.18,0,0,1,2.85-7.83,10.27,10.27,0,0,1,14.6-.17c1.8,2,2.71,4.74,2.71,8.3l0,.42H202.46a6.67,6.67,0,0,0,2,4.87,6.47,6.47,0,0,0,4.62,1.85c2.46,0,4.4-1.24,5.8-3.7l3.44,1.68a10.18,10.18,0,0,1-3.84,4.07A10.63,10.63,0,0,1,208.92,319.84Zm-6.17-13.44h11.8a5.13,5.13,0,0,0-1.74-3.55,6.14,6.14,0,0,0-4.22-1.4,5.62,5.62,0,0,0-3.76,1.34A6.4,6.4,0,0,0,202.75,306.4Z" transform="translate(-15.48 -5.8)" fill="#fff"/><path d="M221.23,308.88a10.87,10.87,0,0,1,3-7.85,10.18,10.18,0,0,1,7.6-3.11,10,10,0,0,1,7.56,3.11,11.7,11.7,0,0,1,0,15.71,10,10,0,0,1-7.56,3.1,10.17,10.17,0,0,1-7.6-3.1A10.9,10.9,0,0,1,221.23,308.88Zm3.86,0a7.54,7.54,0,0,0,1.94,5.38,6.59,6.59,0,0,0,9.57,0,8.39,8.39,0,0,0,0-10.71,6.5,6.5,0,0,0-9.57,0A7.47,7.47,0,0,0,225.09,308.88Z" transform="translate(-15.48 -5.8)" fill="#fff"/><path d="M52.56,357.39v12.18H48.69V339.5H58.94a9.28,9.28,0,0,1,6.64,2.6,8.7,8.7,0,0,1,0,12.73,9.25,9.25,0,0,1-6.64,2.56Zm0-14.19v10.5H59a5.31,5.31,0,0,0,5.37-5.25A5.36,5.36,0,0,0,59,343.2Z" transform="translate(-15.48 -5.8)" fill="#fff"/><path d="M69.06,359.28a10.88,10.88,0,0,1,3-7.85,10.16,10.16,0,0,1,7.6-3.11,10,10,0,0,1,7.56,3.11,11.73,11.73,0,0,1,0,15.71,10,10,0,0,1-7.56,3.1,10.15,10.15,0,0,1-7.6-3.1A10.9,10.9,0,0,1,69.06,359.28Zm3.87,0a7.54,7.54,0,0,0,1.93,5.38,6.6,6.6,0,0,0,9.58,0,8.39,8.39,0,0,0,0-10.71,6.51,6.51,0,0,0-9.58,0A7.46,7.46,0,0,0,72.93,359.28Z" transform="translate(-15.48 -5.8)" fill="#fff"/><path d="M103.17,370.24a10.15,10.15,0,0,1-7.6-3.1,11.08,11.08,0,0,1-3-7.86,10.88,10.88,0,0,1,3-7.85,10.16,10.16,0,0,1,7.6-3.11,9.45,9.45,0,0,1,9,5.92l-3.53,1.47a5.81,5.81,0,0,0-5.75-3.86A6,6,0,0,0,98.34,354a8.35,8.35,0,0,0,0,10.58,6,6,0,0,0,4.58,2.15,6.05,6.05,0,0,0,6-3.87l3.44,1.47a9.16,9.16,0,0,1-3.54,4.35A10,10,0,0,1,103.17,370.24Z" transform="translate(-15.48 -5.8)" fill="#fff"/><path d="M133.79,369.57h-4.67l-6.42-9.7L119.55,363v6.59h-3.87V339.5h3.87V358l8.9-9h5v.17l-8,8,8.4,12.26Z" transform="translate(-15.48 -5.8)" fill="#fff"/><path d="M144.58,370.24a9.86,9.86,0,0,1-7.48-3.1,11,11,0,0,1-2.94-7.86,11.21,11.21,0,0,1,2.86-7.83,10.26,10.26,0,0,1,14.59-.17q2.71,3,2.71,8.3l0,.42H138.11a6.72,6.72,0,0,0,2,4.87,6.47,6.47,0,0,0,4.62,1.85c2.46,0,4.39-1.24,5.79-3.7L154,364.7a10.32,10.32,0,0,1-3.84,4.07A10.66,10.66,0,0,1,144.58,370.24Zm-6.17-13.44h11.8a5.15,5.15,0,0,0-1.75-3.55,6.12,6.12,0,0,0-4.22-1.4,5.64,5.64,0,0,0-3.76,1.34A6.39,6.39,0,0,0,138.41,356.8Z" transform="translate(-15.48 -5.8)" fill="#fff"/><path d="M165.37,369.91a5.87,5.87,0,0,1-4.18-1.56,5.73,5.73,0,0,1-1.7-4.32V352.52h-3.61V349h3.61v-6.3h3.86V349h5v3.53h-5v10.25a3.76,3.76,0,0,0,.8,2.79,2.61,2.61,0,0,0,1.81.74,3.82,3.82,0,0,0,.9-.11,4.93,4.93,0,0,0,.82-.27l1.22,3.44A10.26,10.26,0,0,1,165.37,369.91Z" transform="translate(-15.48 -5.8)" fill="#fff"/><path d="M195.31,370.24a15.71,15.71,0,1,1,0-31.41,13.92,13.92,0,0,1,11.05,4.91l-2.77,2.69a10.3,10.3,0,0,0-8.28-3.91,11.33,11.33,0,0,0-8.35,3.36,12.94,12.94,0,0,0,0,17.31,11.33,11.33,0,0,0,8.35,3.36,11.79,11.79,0,0,0,9.12-4.41l2.81,2.73a14.63,14.63,0,0,1-5.25,4A16,16,0,0,1,195.31,370.24Z" transform="translate(-15.48 -5.8)" fill="#fff"/><path d="M209.09,359.28a10.87,10.87,0,0,1,3-7.85,10.18,10.18,0,0,1,7.6-3.11,10,10,0,0,1,7.56,3.11,11.7,11.7,0,0,1,0,15.71,10,10,0,0,1-7.56,3.1,10.17,10.17,0,0,1-7.6-3.1A10.9,10.9,0,0,1,209.09,359.28Zm3.86,0a7.54,7.54,0,0,0,1.94,5.38,6.59,6.59,0,0,0,9.57,0,8.39,8.39,0,0,0,0-10.71,6.5,6.5,0,0,0-9.57,0A7.47,7.47,0,0,0,213,359.28Z" transform="translate(-15.48 -5.8)" fill="#fff"/><path d="M237.44,339.5v30.07h-3.86V339.5Z" transform="translate(-15.48 -5.8)" fill="#fff"/><path d="M240.76,359.28a10.87,10.87,0,0,1,3-7.85,10.18,10.18,0,0,1,7.6-3.11,10,10,0,0,1,7.56,3.11,11.7,11.7,0,0,1,0,15.71,10,10,0,0,1-7.56,3.1,10.17,10.17,0,0,1-7.6-3.1A10.9,10.9,0,0,1,240.76,359.28Zm3.86,0a7.54,7.54,0,0,0,1.94,5.38,6.59,6.59,0,0,0,9.57,0,8.39,8.39,0,0,0,0-10.71,6.5,6.5,0,0,0-9.57,0A7.47,7.47,0,0,0,244.62,359.28Z" transform="translate(-15.48 -5.8)" fill="#fff"/><path d="M268.9,369.57H265V349h3.69v3.36h.17a5.6,5.6,0,0,1,2.41-2.79,6.73,6.73,0,0,1,3.6-1.16,7.12,7.12,0,0,1,2.85.51l-1.18,3.74a6.23,6.23,0,0,0-2.26-.3,5,5,0,0,0-3.8,1.77,5.87,5.87,0,0,0-1.62,4.11Z" transform="translate(-15.48 -5.8)" fill="#fff"/><path d="M131.45,44.75a13.38,13.38,0,0,1-5,10.87,19,19,0,0,1-12.24,4,18.11,18.11,0,0,1-11.3-3.74,19.2,19.2,0,0,1-6.77-10.23l6.34-2.59a16.24,16.24,0,0,0,1.8,4.18,13.64,13.64,0,0,0,2.7,3.2,12,12,0,0,0,3.42,2.09,10.57,10.57,0,0,0,4,.76A11.37,11.37,0,0,0,121.8,51a7.63,7.63,0,0,0,2.89-6.23,7.48,7.48,0,0,0-2.38-5.55Q120.07,37,114,34.88a82.44,82.44,0,0,1-7.71-3Q98,27.69,98,19.55a12.58,12.58,0,0,1,4.54-9.72,16.54,16.54,0,0,1,11.3-4,17.35,17.35,0,0,1,10.23,3,14.16,14.16,0,0,1,5.76,7.42l-6.19,2.59A9.2,9.2,0,0,0,120.26,14a11.06,11.06,0,0,0-12.78.25,6.3,6.3,0,0,0-2.67,5.26,6.12,6.12,0,0,0,2.09,4.61q2.31,1.93,10,4.6t11.19,6.52A13.89,13.89,0,0,1,131.45,44.75Z" transform="translate(-15.48 -5.8)" fill="#fff"/><path d="M146.07,58.5h-6.63V7h8.07l25.05,40.1h.29l-.29-9.93V7h6.63V58.5h-6.91l-26.21-42h-.29l.29,9.94Z" transform="translate(-15.48 -5.8)" fill="#fff"/><path d="M219.15,7h8.57v.29l-19.16,22.1L229,58.21v.29h-8.13l-16.78-24-7.92,9.15V58.5h-6.62V7h6.62V33.52h.29Z" transform="translate(-15.48 -5.8)" fill="#fff"/></g></svg>