<svg xmlns="http://www.w3.org/2000/svg" viewBox="0 0 290.52 428.03"><title>pc</title><g id="Layer_3" data-name="Layer 3"><circle cx="143.39" cy="85.63" r="8.2" fill="#fff"/><line x1="0.89" y1="122.13" x2="285.89" y2="122.13" fill="none"/><rect x="0.89" y="119.13" width="285" height="6" fill="#fff"/><line x1="0.89" y1="378.63" x2="285.89" y2="378.63" fill="none"/><rect x="0.89" y="375.63" width="285" height="6" fill="#fff"/><circle cx="143.39" cy="419.83" r="8.2" fill="#fff"/></g><g id="TEXT_LAYER" data-name="TEXT LAYER"><path d="M25,58.5H18.41V7H25L43,38.34h.28L61.18,7h6.63V58.5H61.18V27.9l.29-8.64h-.29L45.05,47.56H41.17L25,19.26h-.29L25,27.9Z" transform="translate(-18.41 -6.37)" fill="#fff"/><path d="M85.59,11.05a4.51,4.51,0,0,1-1.37,3.31,4.68,4.68,0,0,1-8-3.31,4.68,4.68,0,1,1,9.36,0ZM84.22,23.22V58.5H77.6V23.22Z" transform="translate(-18.41 -6.37)" fill="#fff"/><path d="M108.63,59.65a17.39,17.39,0,0,1-13-5.33,19,19,0,0,1-5.12-13.46A18.66,18.66,0,0,1,95.6,27.4a17.39,17.39,0,0,1,13-5.33,16.16,16.16,0,0,1,15.48,10.15l-6,2.52q-2.81-6.63-9.86-6.62a10.23,10.23,0,0,0-7.85,3.67,13.22,13.22,0,0,0-3.24,9.07,13.22,13.22,0,0,0,3.24,9.07,10.23,10.23,0,0,0,7.85,3.67A10.37,10.37,0,0,0,118.42,47l5.9,2.52A15.75,15.75,0,0,1,118.24,57,17.19,17.19,0,0,1,108.63,59.65Z" transform="translate(-18.41 -6.37)" fill="#fff"/><path d="M136.35,58.5h-6.62V23.22h6.33V29h.29a9.55,9.55,0,0,1,4.14-4.79,11.5,11.5,0,0,1,6.16-2,12.33,12.33,0,0,1,4.89.87l-2,6.4a11.08,11.08,0,0,0-3.88-.5,8.59,8.59,0,0,0-6.52,3,10.12,10.12,0,0,0-2.77,7.06Z" transform="translate(-18.41 -6.37)" fill="#fff"/><path d="M151.68,40.86A18.66,18.66,0,0,1,156.8,27.4a17.39,17.39,0,0,1,13-5.33,17.17,17.17,0,0,1,13,5.33A18.54,18.54,0,0,1,188,40.86a18.37,18.37,0,0,1-5.18,13.46,17.17,17.17,0,0,1-13,5.33,17.39,17.39,0,0,1-13-5.33A18.66,18.66,0,0,1,151.68,40.86Zm6.63,0a12.94,12.94,0,0,0,3.31,9.22,11.33,11.33,0,0,0,16.42,0,13,13,0,0,0,3.31-9.22A12.85,12.85,0,0,0,178,31.72a11.16,11.16,0,0,0-16.42,0A12.8,12.8,0,0,0,158.31,40.86Z" transform="translate(-18.41 -6.37)" fill="#fff"/><path d="M220.66,48.71a9.55,9.55,0,0,1-4,7.77,15.88,15.88,0,0,1-10.15,3.17,16.07,16.07,0,0,1-9.36-2.77,15.25,15.25,0,0,1-5.76-7.31l5.9-2.52A10.88,10.88,0,0,0,201,52a9.18,9.18,0,0,0,5.44,1.77,9.61,9.61,0,0,0,5.29-1.37,3.89,3.89,0,0,0,2.12-3.24c0-2.26-1.73-3.91-5.18-5l-6.05-1.51q-10.29-2.59-10.3-9.94A9.19,9.19,0,0,1,196.29,25a18,18,0,0,1,18.5-.68,12.09,12.09,0,0,1,5.29,6l-5.9,2.44a7.43,7.43,0,0,0-3.28-3.49A10.25,10.25,0,0,0,205.83,28a8.49,8.49,0,0,0-4.65,1.3,3.74,3.74,0,0,0-2.05,3.17q0,3,5.69,4.32l5.33,1.36Q220.67,40.72,220.66,48.71Z" transform="translate(-18.41 -6.37)" fill="#fff"/><path d="M224.76,40.86a18.66,18.66,0,0,1,5.12-13.46,17.37,17.37,0,0,1,13-5.33,17.17,17.17,0,0,1,13,5.33,18.54,18.54,0,0,1,5.18,13.46,18.37,18.37,0,0,1-5.18,13.46,17.17,17.17,0,0,1-13,5.33,17.37,17.37,0,0,1-13-5.33A18.66,18.66,0,0,1,224.76,40.86Zm6.63,0a12.94,12.94,0,0,0,3.31,9.22,11.33,11.33,0,0,0,16.42,0,13,13,0,0,0,3.31-9.22,12.85,12.85,0,0,0-3.31-9.14,11.16,11.16,0,0,0-16.42,0A12.8,12.8,0,0,0,231.39,40.86Z" transform="translate(-18.41 -6.37)" fill="#fff"/><path d="M308.93,58.14a17.88,17.88,0,0,1-6.05.94,10,10,0,0,1-7.16-2.67A9.87,9.87,0,0,1,292.8,49V29.27H277V58.5h-6.62V29.27h-6.63V23.22h6.63V18.11a12.22,12.22,0,0,1,.9-4.75,10.88,10.88,0,0,1,6.26-6.12,12.91,12.91,0,0,1,4.79-.87,12.45,12.45,0,0,1,5.9,1.23l-1.8,5.83a8.48,8.48,0,0,0-3.88-.87,5.16,5.16,0,0,0-4,1.7,6.39,6.39,0,0,0-1.55,4.5v4.46H292.8V12.42h6.63v10.8h8.64v6.05h-8.64V46.84q0,3.52,1.36,4.78a4.48,4.48,0,0,0,3.1,1.26,6.7,6.7,0,0,0,1.55-.18,8.21,8.21,0,0,0,1.4-.46Z" transform="translate(-18.41 -6.37)" fill="#fff"/><path d="M67.23,159.28v102.6H53.43v-85.5l-20,8.7-5.25-11.7,30.15-14.1Z" transform="translate(-18.41 -6.37)" fill="#fff"/><path d="M117.93,224.38q-12.3,0-22.35-9.75a32.49,32.49,0,0,1-9.75-23.4q0-13.95,10.5-24,10.49-10.35,24.6-10.35a34.07,34.07,0,0,1,25,10.2,33.06,33.06,0,0,1,10.2,24.15q0,12.47-10.05,28.35l-29.85,44.7-11.1-7.65,25.35-35.1-.3-.3C127,223.33,122.93,224.38,117.93,224.38Zm24.3-33.3a20,20,0,0,0-6.3-14.85,21.37,21.37,0,0,0-30,0,21,21,0,0,0,0,29.7,21.37,21.37,0,0,0,30,0A19.65,19.65,0,0,0,142.23,191.08Z" transform="translate(-18.41 -6.37)" fill="#fff"/><path d="M237.77,233.53a27.74,27.74,0,0,1-10.05,21.9q-10.2,8.85-24.75,8.85t-24.75-8.85a27.74,27.74,0,0,1-10.05-21.9,26.48,26.48,0,0,1,4.35-14.77A30.05,30.05,0,0,1,185,208.18v-.6a32.09,32.09,0,0,1-9.67-9.6,21.79,21.79,0,0,1-3.67-12,27.59,27.59,0,0,1,8.84-20.85q8.7-8.24,22.5-8.25t22.5,8.25A27.61,27.61,0,0,1,234.33,186a21.8,21.8,0,0,1-3.68,12,32.12,32.12,0,0,1-9.68,9.6v.6a29.93,29.93,0,0,1,12.45,10.58A26.48,26.48,0,0,1,237.77,233.53Zm-55.5-.75a16.82,16.82,0,0,0,1.58,7.35,18.17,18.17,0,0,0,4.35,5.78,19.69,19.69,0,0,0,6.52,3.82,25.88,25.88,0,0,0,16.5,0,19.73,19.73,0,0,0,6.53-3.82,18.17,18.17,0,0,0,4.35-5.78,16.81,16.81,0,0,0,1.57-7.35,16.21,16.21,0,0,0-6-12.9,21.54,21.54,0,0,0-14.7-5.25,22.06,22.06,0,0,0-14.84,5.25A16.64,16.64,0,0,0,182.27,232.78Zm3.45-47.1a15.08,15.08,0,0,0,4.8,11.63c3.2,2.95,7.36,4.42,12.45,4.42s9.25-1.47,12.45-4.42a15.08,15.08,0,0,0,4.8-11.63q0-7.2-4.8-11.4c-3.2-2.79-7.34-4.2-12.45-4.2s-9.25,1.41-12.45,4.2S185.72,180.88,185.72,185.68Z" transform="translate(-18.41 -6.37)" fill="#fff"/><path d="M288.77,159.28v102.6H275v-85.5l-20,8.7-5.25-11.7,30.15-14.1Z" transform="translate(-18.41 -6.37)" fill="#fff"/><path d="M34.33,353.45H27.7V301.89h6.63l17.92,31.4h.29l17.93-31.4h6.62v51.56H70.47v-30.6l.29-8.64h-.29L54.34,342.5H50.45L34.33,314.21H34l.29,8.64Z" transform="translate(-18.41 -6.37)" fill="#fff"/><path d="M119.28,339.69a13.41,13.41,0,0,1-5,10.88,19,19,0,0,1-12.24,4,18.09,18.09,0,0,1-11.31-3.75A19.14,19.14,0,0,1,84,340.63L90.34,338a16,16,0,0,0,1.8,4.17,13.69,13.69,0,0,0,2.7,3.21,12.28,12.28,0,0,0,3.42,2.09,10.56,10.56,0,0,0,4,.75,11.4,11.4,0,0,0,7.42-2.34,7.61,7.61,0,0,0,2.88-6.23,7.46,7.46,0,0,0-2.38-5.54q-2.23-2.23-8.35-4.32t-7.71-3q-8.2-4.19-8.2-12.32a12.57,12.57,0,0,1,4.53-9.72,16.6,16.6,0,0,1,11.31-4,17.35,17.35,0,0,1,10.22,3,14.17,14.17,0,0,1,5.76,7.41l-6.19,2.59a9.21,9.21,0,0,0-3.42-4.78,11.06,11.06,0,0,0-12.78.25,6.27,6.27,0,0,0-2.67,5.25,6.09,6.09,0,0,0,2.09,4.61q2.31,1.95,10,4.61t11.2,6.52A13.9,13.9,0,0,1,119.28,339.69Z" transform="translate(-18.41 -6.37)" fill="#fff"/><path d="M149.16,333.86h-23v-5.47h23Z" transform="translate(-18.41 -6.37)" fill="#fff"/><path d="M158.38,353.45V301.89h15.77q11.81,0,19,7.13t7.16,18.65q0,11.59-7.16,18.68t-19,7.1ZM165,308.23v38.88h9.15q9,0,14.18-5.15t5.18-14.29q0-9.07-5.18-14.26t-14.18-5.18Z" transform="translate(-18.41 -6.37)" fill="#fff"/><path d="M258.6,327.67A26.11,26.11,0,0,1,251,346.82a26.76,26.76,0,0,1-37.73,0,27.85,27.85,0,0,1,0-38.3,26.68,26.68,0,0,1,37.73.07A26,26,0,0,1,258.6,327.67Zm-46.22,0A20.4,20.4,0,0,0,218,342.43a18.9,18.9,0,0,0,14.11,5.83,18.7,18.7,0,0,0,14-5.83q5.68-5.76,5.68-14.76t-5.68-14.76a18.7,18.7,0,0,0-14-5.83A18.9,18.9,0,0,0,218,312.91,20.4,20.4,0,0,0,212.38,327.67Z" transform="translate(-18.41 -6.37)" fill="#fff"/><path d="M298.27,339.69a13.41,13.41,0,0,1-5,10.88,19,19,0,0,1-12.24,4,18.09,18.09,0,0,1-11.31-3.75A19.07,19.07,0,0,1,263,340.63l6.33-2.59a16,16,0,0,0,1.8,4.17,13.69,13.69,0,0,0,2.7,3.21,12.28,12.28,0,0,0,3.42,2.09,10.56,10.56,0,0,0,4,.75,11.4,11.4,0,0,0,7.42-2.34,7.61,7.61,0,0,0,2.88-6.23,7.46,7.46,0,0,0-2.38-5.54q-2.24-2.23-8.35-4.32t-7.7-3q-8.22-4.19-8.21-12.32a12.57,12.57,0,0,1,4.53-9.72,16.6,16.6,0,0,1,11.31-4,17.35,17.35,0,0,1,10.22,3,14.17,14.17,0,0,1,5.76,7.41l-6.19,2.59a9.21,9.21,0,0,0-3.42-4.78,11.06,11.06,0,0,0-12.78.25,6.27,6.27,0,0,0-2.67,5.25,6.09,6.09,0,0,0,2.09,4.61q2.31,1.95,10,4.61t11.2,6.52A13.9,13.9,0,0,1,298.27,339.69Z" transform="translate(-18.41 -6.37)" fill="#fff"/></g></svg>