<svg xmlns="http://www.w3.org/2000/svg" viewBox="0 0 312.91 428.6"><title>pcengine</title><g id="Layer_3" data-name="Layer 3"><circle cx="154.87" cy="86.2" r="8.2" fill="#fff"/><line x1="12.37" y1="122.7" x2="297.37" y2="122.7" fill="none"/><rect x="12.37" y="119.7" width="285" height="6" fill="#fff"/><line x1="12.37" y1="379.2" x2="297.37" y2="379.2" fill="none"/><rect x="12.37" y="376.2" width="285" height="6" fill="#fff"/><circle cx="154.87" cy="420.4" r="8.2" fill="#fff"/></g><g id="NEW_TEXT" data-name="NEW TEXT"><path d="M56.8,159.28v102.6H43v-85.5l-19.95,8.7-5.25-11.7L48,159.28Z" transform="translate(-6.93 -5.8)" fill="#fff"/><path d="M107.5,224.38q-12.3,0-22.35-9.75a32.55,32.55,0,0,1-9.75-23.4q0-13.95,10.5-24,10.5-10.35,24.6-10.35a34.05,34.05,0,0,1,25.05,10.2,33,33,0,0,1,10.2,24.15q0,12.45-10.05,28.35l-29.85,44.7-11.1-7.65,25.35-35.1-.3-.3Q115,224.38,107.5,224.38Zm24.3-33.3a20,20,0,0,0-6.3-14.85,21.37,21.37,0,0,0-30,0,21,21,0,0,0,0,29.7,21.37,21.37,0,0,0,30,0A19.67,19.67,0,0,0,131.8,191.08Z" transform="translate(-6.93 -5.8)" fill="#fff"/><path d="M227.35,233.53a27.74,27.74,0,0,1-10,21.9q-10.2,8.85-24.75,8.85t-24.75-8.85a27.74,27.74,0,0,1-10.05-21.9,26.48,26.48,0,0,1,4.35-14.77,29.92,29.92,0,0,1,12.45-10.58v-.6a32.09,32.09,0,0,1-9.67-9.6,21.72,21.72,0,0,1-3.68-12,27.58,27.58,0,0,1,8.85-20.85q8.7-8.25,22.5-8.25t22.5,8.25A27.58,27.58,0,0,1,223.9,186a21.8,21.8,0,0,1-3.68,12,32.2,32.2,0,0,1-9.67,9.6v.6A29.92,29.92,0,0,1,223,218.76,26.48,26.48,0,0,1,227.35,233.53Zm-55.5-.75a17,17,0,0,0,1.57,7.35,18.17,18.17,0,0,0,4.35,5.78,19.73,19.73,0,0,0,6.53,3.82,25.88,25.88,0,0,0,16.5,0,19.69,19.69,0,0,0,6.52-3.82,18,18,0,0,0,4.35-5.78,16.82,16.82,0,0,0,1.58-7.35,16.21,16.21,0,0,0-6-12.9,21.54,21.54,0,0,0-14.7-5.25,22.1,22.1,0,0,0-14.85,5.25A16.66,16.66,0,0,0,171.85,232.78Zm3.45-47.1a15.08,15.08,0,0,0,4.8,11.63q4.8,4.42,12.45,4.42T205,197.31a15.08,15.08,0,0,0,4.8-11.63q0-7.2-4.8-11.4t-12.45-4.2q-7.65,0-12.45,4.2T175.3,185.68Z" transform="translate(-6.93 -5.8)" fill="#fff"/><path d="M305.8,173.38,256,264.28,243.7,258l47.55-85.5h-51.9l.3-13.2H305.8Z" transform="translate(-6.93 -5.8)" fill="#fff"/><path d="M13.55,332.57v20.88H6.93V301.89H24.5a15.86,15.86,0,0,1,11.37,4.47,14.87,14.87,0,0,1,0,21.81,15.84,15.84,0,0,1-11.37,4.4Zm0-24.34v18H24.64a8.76,8.76,0,0,0,6.55-2.66,8.66,8.66,0,0,0,2.67-6.34A8.54,8.54,0,0,0,31.19,311a8.61,8.61,0,0,0-6.55-2.74Z" transform="translate(-6.93 -5.8)" fill="#fff"/><path d="M71.08,354.6A26.21,26.21,0,0,1,44.3,327.67q0-11.52,7.63-19.15a25.7,25.7,0,0,1,19.15-7.78q11.67,0,18.94,8.43l-4.75,4.6a17.62,17.62,0,0,0-14.19-6.69,19.46,19.46,0,0,0-14.33,5.76q-5.69,5.69-5.68,14.83t5.68,14.83a19.46,19.46,0,0,0,14.33,5.76q9,0,15.63-7.56l4.82,4.68a25.06,25.06,0,0,1-9,6.81A27.56,27.56,0,0,1,71.08,354.6Z" transform="translate(-6.93 -5.8)" fill="#fff"/><path d="M145.24,301.89v6.34H121.77v16.34h21.17v6.2H121.77v16.34h23.47v6.34H115.15V301.89Z" transform="translate(-6.93 -5.8)" fill="#fff"/><path d="M152.3,318.17h6.33v4.89h.29a11.81,11.81,0,0,1,4.64-4.32,13.34,13.34,0,0,1,6.52-1.73q6.48,0,10,3.71t3.49,10.55v22.18h-6.62V331.7q-.21-8.64-8.71-8.64a8.29,8.29,0,0,0-6.63,3.21,11.61,11.61,0,0,0-2.66,7.66v19.52H152.3Z" transform="translate(-6.93 -5.8)" fill="#fff"/><path d="M206.58,370.15a19.52,19.52,0,0,1-5.54-.76,17.9,17.9,0,0,1-4.72-2.12,15.27,15.27,0,0,1-3.63-3.24,13.67,13.67,0,0,1-2.31-4.18l6.27-2.59a9.93,9.93,0,0,0,3.74,5,10.49,10.49,0,0,0,6.19,1.87q5.4,0,8.43-3.24c2-2.16,3-5.13,3-8.93v-3.38h-.29a13,13,0,0,1-5.07,4.43,15.19,15.19,0,0,1-6.95,1.62,15.59,15.59,0,0,1-11.88-5.4,19.56,19.56,0,0,1-4.9-13.39,19.28,19.28,0,0,1,4.9-13.32A15.5,15.5,0,0,1,205.72,317a15.19,15.19,0,0,1,6.95,1.62,13,13,0,0,1,5.07,4.43H218v-4.89h6.34v33.76q0,8.51-4.83,13.32T206.58,370.15Zm.22-21.6a10.12,10.12,0,0,0,8-3.53,14.62,14.62,0,0,0,0-18.36,10.18,10.18,0,0,0-8-3.6,10.32,10.32,0,0,0-8,3.6,13.16,13.16,0,0,0-3.24,9.15,13,13,0,0,0,3.24,9.14A10.32,10.32,0,0,0,206.8,348.55Z" transform="translate(-6.93 -5.8)" fill="#fff"/><path d="M241,306a4.68,4.68,0,1,1-1.37-3.31A4.52,4.52,0,0,1,241,306Zm-1.37,12.17v35.28H233V318.17Z" transform="translate(-6.93 -5.8)" fill="#fff"/><path d="M248.27,318.17h6.34v4.89h.28a11.77,11.77,0,0,1,4.65-4.32,13.34,13.34,0,0,1,6.51-1.73q6.49,0,10,3.71t3.49,10.55v22.18h-6.63V331.7q-.21-8.64-8.71-8.64a8.26,8.26,0,0,0-6.62,3.21,11.57,11.57,0,0,0-2.67,7.66v19.52h-6.62Z" transform="translate(-6.93 -5.8)" fill="#fff"/><path d="M303.13,354.6a16.88,16.88,0,0,1-12.81-5.33,18.81,18.81,0,0,1-5-13.46,19.18,19.18,0,0,1,4.89-13.43A16.21,16.21,0,0,1,302.7,317q7.85,0,12.49,5.08t4.65,14.22l-.07.72H292.05a11.44,11.44,0,0,0,3.45,8.35,11,11,0,0,0,7.92,3.17q6.34,0,9.94-6.34l5.9,2.88a17.55,17.55,0,0,1-6.59,7A18.18,18.18,0,0,1,303.13,354.6Zm-10.58-23h20.23a8.79,8.79,0,0,0-3-6.09,10.49,10.49,0,0,0-7.23-2.41,9.6,9.6,0,0,0-6.45,2.31A11,11,0,0,0,292.55,331.56Z" transform="translate(-6.93 -5.8)" fill="#fff"/><path d="M103.52,58.5H96.89V7H105l25,40.1h.29L130,37.12V7h6.63V58.5h-6.92l-26.2-42h-.29l.29,9.94Z" transform="translate(-6.93 -5.8)" fill="#fff"/><path d="M177.1,7v6.33H153.63V29.63H174.8v6.19H153.63V52.16H177.1V58.5H147V7Z" transform="translate(-6.93 -5.8)" fill="#fff"/><path d="M208.85,59.65a26.2,26.2,0,0,1-26.78-26.93q0-11.52,7.63-19.15A25.73,25.73,0,0,1,208.85,5.8q11.67,0,18.94,8.42L223,18.83a17.6,17.6,0,0,0-14.19-6.7,19.46,19.46,0,0,0-14.33,5.76q-5.69,5.68-5.68,14.83t5.68,14.84a19.46,19.46,0,0,0,14.33,5.76q9,0,15.63-7.56l4.82,4.68a25.15,25.15,0,0,1-9,6.8A27.4,27.4,0,0,1,208.85,59.65Z" transform="translate(-6.93 -5.8)" fill="#fff"/></g></svg>