<svg xmlns="http://www.w3.org/2000/svg" viewBox="0 0 341.85 428.03"><title>ports</title><g id="Layer_3" data-name="Layer 3"><circle cx="165.82" cy="85.63" r="8.2" fill="#fff"/><line x1="23.32" y1="122.13" x2="308.32" y2="122.13" fill="none"/><rect x="23.32" y="119.13" width="285" height="6" fill="#fff"/><line x1="23.32" y1="378.63" x2="308.32" y2="378.63" fill="none"/><rect x="23.32" y="375.63" width="285" height="6" fill="#fff"/><circle cx="165.82" cy="419.83" r="8.2" fill="#fff"/></g><g id="TEXT_LAYER" data-name="TEXT LAYER"><path d="M71.91,58.5H65L46.85,7H54.2L68.31,48.78h.29L83.28,7h7.35Z" transform="translate(4.02 -6.37)" fill="#fff"/><path d="M105.32,22.07q7.34,0,11.59,3.92t4.25,10.77V58.5h-6.34V53.6h-.29a12.61,12.61,0,0,1-10.94,6,14.26,14.26,0,0,1-9.76-3.45,11.07,11.07,0,0,1-3.92-8.64,10.5,10.5,0,0,1,4.14-8.72q4.14-3.24,11-3.24a19.54,19.54,0,0,1,9.72,2.16V36.25a7.54,7.54,0,0,0-2.74-5.87,9.39,9.39,0,0,0-6.4-2.41,10.16,10.16,0,0,0-8.79,4.68L91.06,29Q95.89,22.07,105.32,22.07ZM96.75,47.7A5.29,5.29,0,0,0,98.94,52a8.11,8.11,0,0,0,5.15,1.73,10.51,10.51,0,0,0,7.45-3.1,9.68,9.68,0,0,0,3.28-7.27q-3.09-2.45-8.64-2.45a11.19,11.19,0,0,0-6.73,2A5.76,5.76,0,0,0,96.75,47.7Z" transform="translate(4.02 -6.37)" fill="#fff"/><path d="M135.27,58.5h-6.63V23.22H135V29h.29a9.55,9.55,0,0,1,4.14-4.79,11.49,11.49,0,0,1,6.15-2,12.34,12.34,0,0,1,4.9.87l-2,6.4a11.08,11.08,0,0,0-3.88-.5A8.59,8.59,0,0,0,138,32a10.12,10.12,0,0,0-2.77,7.06Z" transform="translate(4.02 -6.37)" fill="#fff"/><path d="M163.35,11.05A4.51,4.51,0,0,1,162,14.36a4.68,4.68,0,0,1-8-3.31,4.68,4.68,0,1,1,9.36,0ZM162,23.22V58.5h-6.62V23.22Z" transform="translate(4.02 -6.37)" fill="#fff"/><path d="M168.24,40.86a18.66,18.66,0,0,1,5.12-13.46,17.39,17.39,0,0,1,13-5.33,17.17,17.17,0,0,1,13,5.33,18.54,18.54,0,0,1,5.18,13.46,18.37,18.37,0,0,1-5.18,13.46,17.17,17.17,0,0,1-13,5.33,17.39,17.39,0,0,1-13-5.33A18.66,18.66,0,0,1,168.24,40.86Zm6.63,0a12.94,12.94,0,0,0,3.31,9.22,11.33,11.33,0,0,0,16.42,0,13,13,0,0,0,3.31-9.22,12.85,12.85,0,0,0-3.31-9.14,11.16,11.16,0,0,0-16.42,0A12.8,12.8,0,0,0,174.87,40.86Z" transform="translate(4.02 -6.37)" fill="#fff"/><path d="M241.18,58.5h-6.34V53.6h-.28a11.77,11.77,0,0,1-4.65,4.32,13.23,13.23,0,0,1-6.51,1.73q-6.48,0-10-3.71T209.93,45.4V23.22h6.63V45q.21,8.64,8.71,8.64a8.25,8.25,0,0,0,6.62-3.2,11.6,11.6,0,0,0,2.67-7.67V23.22h6.62Z" transform="translate(4.02 -6.37)" fill="#fff"/><path d="M275.88,48.71a9.55,9.55,0,0,1-4,7.77,15.88,15.88,0,0,1-10.15,3.17,16.11,16.11,0,0,1-9.36-2.77,15.25,15.25,0,0,1-5.76-7.31l5.9-2.52A11,11,0,0,0,256.26,52a9.18,9.18,0,0,0,5.44,1.77A9.59,9.59,0,0,0,267,52.38a3.88,3.88,0,0,0,2.13-3.24c0-2.26-1.73-3.91-5.19-5l-6.05-1.51q-10.29-2.59-10.29-9.94A9.2,9.2,0,0,1,251.51,25,18,18,0,0,1,270,24.3a12.14,12.14,0,0,1,5.29,6l-5.91,2.44a7.45,7.45,0,0,0-3.27-3.49A10.29,10.29,0,0,0,261.05,28a8.45,8.45,0,0,0-4.64,1.3,3.72,3.72,0,0,0-2.05,3.17q0,3,5.68,4.32l5.33,1.36Q275.89,40.72,275.88,48.71Z" transform="translate(4.02 -6.37)" fill="#fff"/><path d="M9.78,261.88H-4V154.48H9.78l37.35,65.4h.6l37.35-65.4h13.8v107.4H85.08V198.13l.6-18h-.6l-33.6,59h-8.1l-33.6-59h-.6l.6,18Z" transform="translate(4.02 -6.37)" fill="#fff"/><path d="M143.73,186q15.3,0,24.15,8.18t8.85,22.42v45.3h-13.2v-10.2h-.6q-8.55,12.6-22.8,12.6-12.15,0-20.33-7.2a23,23,0,0,1-8.17-18q0-11.39,8.62-18.15t23-6.75q12.28,0,20.25,4.5v-3.15a15.7,15.7,0,0,0-5.7-12.22,19.57,19.57,0,0,0-13.35-5q-11.56,0-18.3,9.75L114,200.38Q124.07,186,143.73,186Zm-17.85,53.4a11,11,0,0,0,4.57,9,16.83,16.83,0,0,0,10.73,3.6,22,22,0,0,0,15.52-6.45,20.19,20.19,0,0,0,6.83-15.15q-6.47-5.08-18-5.1-8.42,0-14,4.05T125.88,239.38Z" transform="translate(4.02 -6.37)" fill="#fff"/><path d="M192.33,188.38h13.19v10.2h.61a24.46,24.46,0,0,1,9.67-9,27.72,27.72,0,0,1,13.58-3.6q13.5,0,20.77,7.73t7.27,22v46.2H243.63v-45.3q-.45-18-18.16-18a17.25,17.25,0,0,0-13.8,6.68,24.16,24.16,0,0,0-5.54,16v40.65h-13.8Z" transform="translate(4.02 -6.37)" fill="#fff"/><path d="M337.82,188.38l-46.05,105.9H277.52l17.11-37-30.31-68.85h15l21.9,52.8h.3l21.3-52.8Z" transform="translate(4.02 -6.37)" fill="#fff"/><path d="M91.6,332.57v20.88H85V301.89h17.56a15.86,15.86,0,0,1,11.38,4.47,14.89,14.89,0,0,1,0,21.81,15.85,15.85,0,0,1-11.38,4.4Zm0-24.34v18h11.09a8.77,8.77,0,0,0,6.55-2.66,8.65,8.65,0,0,0,2.66-6.34,9.22,9.22,0,0,0-9.21-9Z" transform="translate(4.02 -6.37)" fill="#fff"/><path d="M119.9,335.81A18.67,18.67,0,0,1,125,322.34,17.42,17.42,0,0,1,138,317a17.21,17.21,0,0,1,13,5.33,20.06,20.06,0,0,1,0,26.93,17.21,17.21,0,0,1-13,5.33,17.42,17.42,0,0,1-13-5.33A18.65,18.65,0,0,1,119.9,335.81Zm6.62,0a12.89,12.89,0,0,0,3.31,9.21,11.31,11.31,0,0,0,16.42,0,14.38,14.38,0,0,0,0-18.36,11.16,11.16,0,0,0-16.42,0A12.81,12.81,0,0,0,126.52,335.81Z" transform="translate(4.02 -6.37)" fill="#fff"/><path d="M161.51,318.17h6.34v5.76h.29q2.94-6.76,12.16-6.77l1.37.14v6.91l-2.95-.28a10.58,10.58,0,0,0-7.59,2.84,9.54,9.54,0,0,0-3,7.24v19.44h-6.63ZM202.84,354a10.07,10.07,0,0,1-7.16-2.66,9.89,9.89,0,0,1-2.92-7.42V324.21h-6.19v-6h6.19v-10.8h6.62v10.8H208v6h-8.65v17.57q0,3.53,1.37,4.79a4.46,4.46,0,0,0,3.1,1.26,6.7,6.7,0,0,0,1.55-.18,7.42,7.42,0,0,0,1.4-.47l2.09,5.91A17.93,17.93,0,0,1,202.84,354Z" transform="translate(4.02 -6.37)" fill="#fff"/><path d="M242.08,343.65a9.55,9.55,0,0,1-4,7.78,15.94,15.94,0,0,1-10.15,3.17,16.14,16.14,0,0,1-9.36-2.77,15.29,15.29,0,0,1-5.76-7.31l5.9-2.52a10.93,10.93,0,0,0,3.78,4.93,9.17,9.17,0,0,0,5.44,1.76,9.61,9.61,0,0,0,5.29-1.36,3.9,3.9,0,0,0,2.12-3.24q0-3.39-5.18-5l-6-1.51q-10.29-2.6-10.3-9.94a9.19,9.19,0,0,1,3.93-7.74,17.95,17.95,0,0,1,18.5-.68,12.11,12.11,0,0,1,5.29,6l-5.9,2.45a7.38,7.38,0,0,0-3.28-3.49,10.25,10.25,0,0,0-5.07-1.26,8.56,8.56,0,0,0-4.65,1.29,3.75,3.75,0,0,0-2,3.17q0,3,5.69,4.32l5.33,1.37Q242.09,335.67,242.08,343.65Z" transform="translate(4.02 -6.37)" fill="#fff"/></g></svg>