<svg xmlns="http://www.w3.org/2000/svg" viewBox="0 0 384.47 428.6"><title>ps2</title><g id="Layer_3" data-name="Layer 3"><circle cx="191.23" cy="86.2" r="8.2" fill="#fff"/><line x1="48.73" y1="122.7" x2="333.73" y2="122.7" fill="none"/><rect x="48.73" y="119.7" width="285" height="6" fill="#fff"/><line x1="48.73" y1="379.2" x2="333.73" y2="379.2" fill="none"/><rect x="48.73" y="376.2" width="285" height="6" fill="#fff"/><circle cx="191.23" cy="420.4" r="8.2" fill="#fff"/></g><g id="NEW_TEXT" data-name="NEW TEXT"><path d="M54.33,248.68v13.2h-65.4v-13.8l26.55-26.85q13.35-13.65,18.45-20.47A23.57,23.57,0,0,0,39,186.43a15.1,15.1,0,0,0-5.25-11.55q-5.25-4.8-13.5-4.8a18.51,18.51,0,0,0-12.15,4.2,18.94,18.94,0,0,0-6.6,10.2l-12.6-5.1a32,32,0,0,1,11.55-16,32.19,32.19,0,0,1,20.1-6.53q14,0,23.25,8.55a27.42,27.42,0,0,1,9.3,21q0,14.85-16.35,32.1l-30,30.15Z" transform="translate(29.43 -5.8)" fill="#fff"/><path d="M67.53,210.58q0-23.4,11.55-38.55t29.7-15.15q18.15,0,29.7,15.3Q150,187.33,150,210.58q0,23.1-11.55,38.55-11.55,15.17-29.7,15.15t-29.7-15.15Q67.53,233.68,67.53,210.58Zm68.4,0q0-17.7-7.5-29.1t-19.65-11.4q-12.3,0-19.65,11.4-7.5,11.4-7.5,29.1t7.5,29.25q7.35,11.25,19.65,11.25t19.65-11.4Q135.93,228.13,135.93,210.58Z" transform="translate(29.43 -5.8)" fill="#fff"/><path d="M163.23,210.58q0-23.4,11.55-38.55t29.7-15.15q18.14,0,29.69,15.3,11.55,15.15,11.56,38.4,0,23.1-11.56,38.55-11.55,15.17-29.69,15.15t-29.7-15.15Q163.21,233.68,163.23,210.58Zm68.4,0q0-17.7-7.5-29.1t-19.65-11.4q-12.31,0-19.65,11.4-7.52,11.4-7.5,29.1t7.5,29.25q7.33,11.25,19.65,11.25t19.65-11.4Q231.62,228.13,231.63,210.58Z" transform="translate(29.43 -5.8)" fill="#fff"/><path d="M320.87,240.28v21.6h-13.8v-21.6H258.32v-10.5l47.55-70.5h15v68.1h13.2v12.9Zm-46.95-12.9h33.15V179.53h-.6Z" transform="translate(29.43 -5.8)" fill="#fff"/><path d="M-22.8,332.57v20.88h-6.63V301.89h17.57A15.9,15.9,0,0,1-.48,306.36a14.37,14.37,0,0,1,4.75,10.87A14.29,14.29,0,0,1-.48,328.17a15.88,15.88,0,0,1-11.38,4.4Zm0-24.34v18h11.08a8.8,8.8,0,0,0,6.56-2.66,8.69,8.69,0,0,0,2.66-6.34A8.57,8.57,0,0,0-5.16,311a8.64,8.64,0,0,0-6.56-2.74Z" transform="translate(29.43 -5.8)" fill="#fff"/><path d="M17,301.89v51.56H10.39V301.89Z" transform="translate(29.43 -5.8)" fill="#fff"/><path d="M38.11,317q7.34,0,11.59,3.93T54,331.7v21.75H47.61v-4.9h-.29q-4.09,6-10.94,6.05a14.21,14.21,0,0,1-9.76-3.46,11,11,0,0,1-3.92-8.64,10.5,10.5,0,0,1,4.14-8.71q4.14-3.24,11.05-3.24a19.54,19.54,0,0,1,9.72,2.16V331.2a7.52,7.52,0,0,0-2.74-5.87,9.36,9.36,0,0,0-6.4-2.41,10.16,10.16,0,0,0-8.79,4.68l-5.83-3.67Q28.68,317,38.11,317Zm-8.57,25.64A5.32,5.32,0,0,0,31.73,347a8.1,8.1,0,0,0,5.15,1.72,10.55,10.55,0,0,0,7.45-3.09,9.68,9.68,0,0,0,3.28-7.27q-3.09-2.44-8.64-2.45a11.25,11.25,0,0,0-6.73,1.94A5.79,5.79,0,0,0,29.54,342.65Z" transform="translate(29.43 -5.8)" fill="#fff"/><path d="M92.25,318.17,70.15,369H63.31l8.2-17.79L57,318.17h7.2l10.51,25.34h.15l10.22-25.34Z" transform="translate(29.43 -5.8)" fill="#fff"/><path d="M122.85,343.65a9.55,9.55,0,0,1-4,7.78,15.94,15.94,0,0,1-10.15,3.17,16.14,16.14,0,0,1-9.36-2.77,15.29,15.29,0,0,1-5.76-7.31l5.9-2.52a10.93,10.93,0,0,0,3.78,4.93,9.17,9.17,0,0,0,5.44,1.76,9.61,9.61,0,0,0,5.29-1.36,3.9,3.9,0,0,0,2.12-3.24q0-3.39-5.18-5l-6.05-1.51q-10.29-2.6-10.3-9.94a9.17,9.17,0,0,1,3.93-7.74,17.95,17.95,0,0,1,18.5-.68,12.07,12.07,0,0,1,5.29,6l-5.9,2.45a7.38,7.38,0,0,0-3.28-3.49,10.25,10.25,0,0,0-5.07-1.26,8.56,8.56,0,0,0-4.65,1.29,3.75,3.75,0,0,0-2.05,3.17q0,3,5.69,4.32l5.33,1.37Q122.85,335.67,122.85,343.65Z" transform="translate(29.43 -5.8)" fill="#fff"/><path d="M142.22,354a10.11,10.11,0,0,1-7.17-2.66,9.92,9.92,0,0,1-2.91-7.42V324.21H126v-6h6.19v-10.8h6.62v10.8h8.64v6h-8.64v17.57q0,3.53,1.37,4.79a4.44,4.44,0,0,0,3.1,1.26,6.62,6.62,0,0,0,1.54-.18,7.29,7.29,0,0,0,1.41-.47l2.09,5.91A17.93,17.93,0,0,1,142.22,354Z" transform="translate(29.43 -5.8)" fill="#fff"/><path d="M166.41,317q7.34,0,11.59,3.93t4.25,10.76v21.75h-6.34v-4.9h-.28q-4.11,6-10.95,6.05a14.17,14.17,0,0,1-9.75-3.46A11,11,0,0,1,151,342.5a10.5,10.5,0,0,1,4.14-8.71q4.14-3.24,11.05-3.24a19.54,19.54,0,0,1,9.72,2.16V331.2a7.54,7.54,0,0,0-2.73-5.87,9.38,9.38,0,0,0-6.41-2.41A10.14,10.14,0,0,0,158,327.6l-5.84-3.67Q157,317,166.41,317Zm-8.57,25.64A5.3,5.3,0,0,0,160,347a8.08,8.08,0,0,0,5.15,1.72,10.58,10.58,0,0,0,7.45-3.09,9.7,9.7,0,0,0,3.27-7.27q-3.09-2.44-8.64-2.45a11.25,11.25,0,0,0-6.73,1.94A5.79,5.79,0,0,0,157.84,342.65Z" transform="translate(29.43 -5.8)" fill="#fff"/><path d="M203,354a10.11,10.11,0,0,1-7.17-2.66,9.85,9.85,0,0,1-2.91-7.42V324.21h-6.2v-6h6.2v-10.8h6.62v10.8h8.64v6h-8.64v17.57c0,2.35.45,4,1.37,4.79a4.44,4.44,0,0,0,3.09,1.26,6.64,6.64,0,0,0,1.55-.18,7.78,7.78,0,0,0,1.41-.47l2.08,5.91A17.87,17.87,0,0,1,203,354Z" transform="translate(29.43 -5.8)" fill="#fff"/><path d="M223.43,306a4.68,4.68,0,1,1-1.37-3.31A4.52,4.52,0,0,1,223.43,306Zm-1.37,12.17v35.28h-6.62V318.17Z" transform="translate(29.43 -5.8)" fill="#fff"/><path d="M228.33,335.81a18.67,18.67,0,0,1,5.11-13.47,17.44,17.44,0,0,1,13-5.33,17.21,17.21,0,0,1,13,5.33,20.06,20.06,0,0,1,0,26.93,17.21,17.21,0,0,1-13,5.33,17.44,17.44,0,0,1-13-5.33A18.65,18.65,0,0,1,228.33,335.81Zm6.62,0a12.89,12.89,0,0,0,3.31,9.21,11.31,11.31,0,0,0,16.42,0,14.38,14.38,0,0,0,0-18.36,11.16,11.16,0,0,0-16.42,0A12.81,12.81,0,0,0,235,335.81Z" transform="translate(29.43 -5.8)" fill="#fff"/><path d="M269.94,318.17h6.34v4.89h.29a11.74,11.74,0,0,1,4.64-4.32,13.34,13.34,0,0,1,6.52-1.73q6.48,0,10,3.71t3.49,10.55v22.18h-6.62V331.7q-.22-8.64-8.71-8.64a8.28,8.28,0,0,0-6.63,3.21,11.61,11.61,0,0,0-2.66,7.66v19.52h-6.63Z" transform="translate(29.43 -5.8)" fill="#fff"/><path d="M355.05,347.11v6.34h-31.4v-6.63l12.75-12.89a111.93,111.93,0,0,0,8.85-9.82,11.36,11.36,0,0,0,2.45-6.88,7.23,7.23,0,0,0-2.52-5.54,9.22,9.22,0,0,0-6.48-2.31,8.86,8.86,0,0,0-5.83,2,9.11,9.11,0,0,0-3.17,4.89l-6.05-2.44a15.81,15.81,0,0,1,15.2-10.8,15.85,15.85,0,0,1,11.16,4.1,13.19,13.19,0,0,1,4.46,10.08q0,7.13-7.85,15.41l-14.4,14.47Z" transform="translate(29.43 -5.8)" fill="#fff"/><path d="M122,44.75a13.41,13.41,0,0,1-5,10.87,19,19,0,0,1-12.24,4,18.11,18.11,0,0,1-11.3-3.74,19.15,19.15,0,0,1-6.77-10.23l6.34-2.59a16.24,16.24,0,0,0,1.8,4.18,13.18,13.18,0,0,0,2.7,3.2A12,12,0,0,0,101,52.56a10.49,10.49,0,0,0,4,.76A11.37,11.37,0,0,0,112.37,51a7.63,7.63,0,0,0,2.88-6.23,7.47,7.47,0,0,0-2.37-5.55q-2.23-2.22-8.36-4.32t-7.7-3q-8.2-4.17-8.21-12.31a12.55,12.55,0,0,1,4.54-9.72,16.54,16.54,0,0,1,11.3-4,17.35,17.35,0,0,1,10.23,3,14.16,14.16,0,0,1,5.76,7.42l-6.2,2.59A9.09,9.09,0,0,0,110.82,14,11.06,11.06,0,0,0,98,14.29a6.32,6.32,0,0,0-2.66,5.26,6.12,6.12,0,0,0,2.09,4.61q2.3,1.93,10,4.6t11.19,6.52A13.93,13.93,0,0,1,122,44.75Z" transform="translate(29.43 -5.8)" fill="#fff"/><path d="M126.84,40.86A18.66,18.66,0,0,1,132,27.4a17.39,17.39,0,0,1,13-5.33,17.17,17.17,0,0,1,13,5.33,18.54,18.54,0,0,1,5.18,13.46A18.37,18.37,0,0,1,158,54.32a17.17,17.17,0,0,1-13,5.33,17.39,17.39,0,0,1-13-5.33A18.66,18.66,0,0,1,126.84,40.86Zm6.63,0a12.94,12.94,0,0,0,3.31,9.22,11.33,11.33,0,0,0,16.42,0,13,13,0,0,0,3.31-9.22,12.85,12.85,0,0,0-3.31-9.14,11.16,11.16,0,0,0-16.42,0A12.8,12.8,0,0,0,133.47,40.86Z" transform="translate(29.43 -5.8)" fill="#fff"/><path d="M168.46,23.22h6.34v4.9h.28a11.77,11.77,0,0,1,4.65-4.32,13.24,13.24,0,0,1,6.52-1.73q6.48,0,10,3.71t3.49,10.54V58.5h-6.63V36.76q-.21-8.64-8.71-8.64a8.25,8.25,0,0,0-6.62,3.2A11.6,11.6,0,0,0,175.08,39V58.5h-6.62Z" transform="translate(29.43 -5.8)" fill="#fff"/><path d="M238.3,23.22,216.2,74.05h-6.84l8.2-17.78L203,23.22h7.2l10.51,25.34h.15L231.1,23.22Z" transform="translate(29.43 -5.8)" fill="#fff"/></g></svg>