<svg xmlns="http://www.w3.org/2000/svg" viewBox="0 0 345.14 428.6"><title>psp</title><g id="Layer_3" data-name="Layer 3"><circle cx="172.87" cy="86.2" r="8.2" fill="#fff"/><line x1="30.37" y1="122.7" x2="315.37" y2="122.7" fill="none"/><rect x="30.37" y="119.7" width="285" height="6" fill="#fff"/><line x1="30.37" y1="379.2" x2="315.37" y2="379.2" fill="none"/><rect x="30.37" y="376.2" width="285" height="6" fill="#fff"/><circle cx="172.87" cy="420.4" r="8.2" fill="#fff"/></g><g id="NEW_TEXT" data-name="NEW TEXT"><path d="M54.33,248.68v13.2h-65.4v-13.8l26.55-26.85q13.35-13.65,18.45-20.47A23.57,23.57,0,0,0,39,186.43a15.1,15.1,0,0,0-5.25-11.55q-5.25-4.8-13.5-4.8a18.51,18.51,0,0,0-12.15,4.2,18.94,18.94,0,0,0-6.6,10.2l-12.6-5.1a32,32,0,0,1,11.55-16,32.19,32.19,0,0,1,20.1-6.53q14,0,23.25,8.55a27.42,27.42,0,0,1,9.3,21q0,14.85-16.35,32.1l-30,30.15Z" transform="translate(11.07 -5.8)" fill="#fff"/><path d="M67.53,210.58q0-23.4,11.55-38.55t29.7-15.15q18.15,0,29.7,15.3Q150,187.33,150,210.58q0,23.1-11.55,38.55-11.55,15.17-29.7,15.15t-29.7-15.15Q67.53,233.68,67.53,210.58Zm68.4,0q0-17.7-7.5-29.1t-19.65-11.4q-12.3,0-19.65,11.4-7.5,11.4-7.5,29.1t7.5,29.25q7.35,11.25,19.65,11.25t19.65-11.4Q135.93,228.13,135.93,210.58Z" transform="translate(11.07 -5.8)" fill="#fff"/><path d="M163.23,210.58q0-23.4,11.55-38.55t29.7-15.15q18.14,0,29.69,15.3,11.55,15.15,11.56,38.4,0,23.1-11.56,38.55-11.55,15.17-29.69,15.15t-29.7-15.15Q163.21,233.68,163.23,210.58Zm68.4,0q0-17.7-7.5-29.1t-19.65-11.4q-12.31,0-19.65,11.4-7.52,11.4-7.5,29.1t7.5,29.25q7.33,11.25,19.65,11.25t19.65-11.4Q231.62,228.13,231.63,210.58Z" transform="translate(11.07 -5.8)" fill="#fff"/><path d="M320.87,240.28v21.6h-13.8v-21.6H258.32v-10.5l47.55-70.5h15v68.1h13.2v12.9Zm-46.95-12.9h33.15V179.53h-.6Z" transform="translate(11.07 -5.8)" fill="#fff"/><path d="M69.65,307v12.18H65.79V289.1H76a9.27,9.27,0,0,1,6.63,2.6,8.68,8.68,0,0,1,0,12.73A9.23,9.23,0,0,1,76,307Zm0-14.19v10.5h6.47a5.08,5.08,0,0,0,3.82-1.56,5.27,5.27,0,0,0-3.82-8.94Z" transform="translate(11.07 -5.8)" fill="#fff"/><path d="M92.88,289.1v30.07H89V289.1Z" transform="translate(11.07 -5.8)" fill="#fff"/><path d="M105.19,297.92a9.58,9.58,0,0,1,6.76,2.29,8.14,8.14,0,0,1,2.47,6.28v12.68h-3.69v-2.85h-.17a7.37,7.37,0,0,1-6.38,3.52,8.3,8.3,0,0,1-5.69-2,6.44,6.44,0,0,1-2.29-5,6.11,6.11,0,0,1,2.41-5.08,10.18,10.18,0,0,1,6.45-1.89,11.44,11.44,0,0,1,5.67,1.26v-.89a4.39,4.39,0,0,0-1.6-3.42,5.45,5.45,0,0,0-3.73-1.41,5.93,5.93,0,0,0-5.13,2.73L96.87,302Q99.67,297.91,105.19,297.92Zm-5,14.95a3.06,3.06,0,0,0,1.28,2.52,4.71,4.71,0,0,0,3,1,6.16,6.16,0,0,0,4.35-1.81,5.65,5.65,0,0,0,1.91-4.24,8,8,0,0,0-5-1.43,6.53,6.53,0,0,0-3.93,1.14A3.35,3.35,0,0,0,100.19,312.87Z" transform="translate(11.07 -5.8)" fill="#fff"/><path d="M136.77,298.59l-12.89,29.65h-4l4.79-10.37-8.48-19.28h4.2l6.13,14.79h.08l6-14.79Z" transform="translate(11.07 -5.8)" fill="#fff"/><path d="M154.62,313.46a5.62,5.62,0,0,1-2.35,4.54,9.33,9.33,0,0,1-5.93,1.84,9.46,9.46,0,0,1-5.46-1.61,9,9,0,0,1-3.36-4.27l3.45-1.47a6.33,6.33,0,0,0,2.2,2.88,5.36,5.36,0,0,0,3.17,1,5.59,5.59,0,0,0,3.09-.8,2.25,2.25,0,0,0,1.24-1.89c0-1.31-1-2.28-3-2.9l-3.53-.88q-6-1.51-6-5.79a5.37,5.37,0,0,1,2.29-4.52,10.52,10.52,0,0,1,10.8-.4,7.07,7.07,0,0,1,3.08,3.49l-3.44,1.43a4.33,4.33,0,0,0-1.91-2,6,6,0,0,0-3-.74,5,5,0,0,0-2.71.76,2.17,2.17,0,0,0-1.2,1.85c0,1.17,1.11,2,3.32,2.52l3.11.8Q154.61,308.79,154.62,313.46Z" transform="translate(11.07 -5.8)" fill="#fff"/><path d="M165.92,319.51a5.85,5.85,0,0,1-4.18-1.56,5.69,5.69,0,0,1-1.7-4.32V302.12h-3.62v-3.53H160v-6.3h3.86v6.3h5v3.53h-5v10.25a3.76,3.76,0,0,0,.8,2.79,2.59,2.59,0,0,0,1.8.74,4,4,0,0,0,.91-.11,5.25,5.25,0,0,0,.82-.27l1.21,3.44A10.16,10.16,0,0,1,165.92,319.51Z" transform="translate(11.07 -5.8)" fill="#fff"/><path d="M180,297.92a9.56,9.56,0,0,1,6.76,2.29,8.14,8.14,0,0,1,2.48,6.28v12.68h-3.7v-2.85h-.17a7.35,7.35,0,0,1-6.38,3.52,8.3,8.3,0,0,1-5.69-2,6.44,6.44,0,0,1-2.29-5,6.09,6.09,0,0,1,2.42-5.08,10.13,10.13,0,0,1,6.44-1.89,11.39,11.39,0,0,1,5.67,1.26v-.89a4.41,4.41,0,0,0-1.59-3.42,5.48,5.48,0,0,0-3.74-1.41,5.93,5.93,0,0,0-5.13,2.73l-3.4-2.14A9.49,9.49,0,0,1,180,297.92Zm-5,14.95a3.09,3.09,0,0,0,1.28,2.52,4.75,4.75,0,0,0,3,1,6.13,6.13,0,0,0,4.35-1.81,5.65,5.65,0,0,0,1.91-4.24,7.93,7.93,0,0,0-5-1.43,6.5,6.5,0,0,0-3.92,1.14A3.34,3.34,0,0,0,175,312.87Z" transform="translate(11.07 -5.8)" fill="#fff"/><path d="M201.36,319.51a5.87,5.87,0,0,1-4.18-1.56,5.77,5.77,0,0,1-1.7-4.32V302.12h-3.61v-3.53h3.61v-6.3h3.87v6.3h5v3.53h-5v10.25a3.72,3.72,0,0,0,.8,2.79,2.59,2.59,0,0,0,1.8.74,4,4,0,0,0,.91-.11,4.81,4.81,0,0,0,.81-.27l1.22,3.44A10.22,10.22,0,0,1,201.36,319.51Z" transform="translate(11.07 -5.8)" fill="#fff"/><path d="M213.29,291.49a2.67,2.67,0,0,1-.8,1.94,2.75,2.75,0,0,1-3.86,0,2.74,2.74,0,0,1,0-3.87,2.73,2.73,0,0,1,4.66,1.93Zm-.8,7.1v20.58h-3.86V298.59Z" transform="translate(11.07 -5.8)" fill="#fff"/><path d="M216.15,308.88a10.87,10.87,0,0,1,3-7.85,10.16,10.16,0,0,1,7.6-3.11,10,10,0,0,1,7.56,3.11,11.7,11.7,0,0,1,0,15.71,10,10,0,0,1-7.56,3.1,10.15,10.15,0,0,1-7.6-3.1A10.9,10.9,0,0,1,216.15,308.88Zm3.86,0a7.54,7.54,0,0,0,1.93,5.38,6.6,6.6,0,0,0,9.58,0,8.39,8.39,0,0,0,0-10.71,6.51,6.51,0,0,0-9.58,0A7.46,7.46,0,0,0,220,308.88Z" transform="translate(11.07 -5.8)" fill="#fff"/><path d="M240.42,298.59h3.7v2.86h.17a6.85,6.85,0,0,1,2.71-2.52,7.75,7.75,0,0,1,3.8-1,7.58,7.58,0,0,1,5.81,2.16,8.66,8.66,0,0,1,2,6.16v12.93h-3.86V306.49q-.14-5-5.08-5a4.84,4.84,0,0,0-3.87,1.87,6.72,6.72,0,0,0-1.55,4.47v11.38h-3.87Z" transform="translate(11.07 -5.8)" fill="#fff"/><path d="M92.69,357.39v12.18H88.83V339.5H99.07a9.28,9.28,0,0,1,6.64,2.6,8.7,8.7,0,0,1,0,12.73,9.25,9.25,0,0,1-6.64,2.56Zm0-14.19v10.5h6.47a5.31,5.31,0,0,0,5.37-5.25,5.36,5.36,0,0,0-5.37-5.25Z" transform="translate(11.07 -5.8)" fill="#fff"/><path d="M109.2,359.28a10.87,10.87,0,0,1,3-7.85,10.16,10.16,0,0,1,7.6-3.11,10,10,0,0,1,7.56,3.11,11.73,11.73,0,0,1,0,15.71,10,10,0,0,1-7.56,3.1,10.15,10.15,0,0,1-7.6-3.1A10.9,10.9,0,0,1,109.2,359.28Zm3.86,0a7.54,7.54,0,0,0,1.93,5.38,6.6,6.6,0,0,0,9.58,0,8.39,8.39,0,0,0,0-10.71,6.51,6.51,0,0,0-9.58,0A7.46,7.46,0,0,0,113.06,359.28Z" transform="translate(11.07 -5.8)" fill="#fff"/><path d="M133.47,349h3.7v3.36h.17c1.14-2.63,3.51-4,7.09-4l.8.09v4l-1.72-.17a6.19,6.19,0,0,0-4.43,1.66,5.58,5.58,0,0,0-1.74,4.22v11.34h-3.87Zm24.11,20.92a5.87,5.87,0,0,1-4.18-1.56,5.73,5.73,0,0,1-1.7-4.32V352.52h-3.61V349h3.61v-6.3h3.86V349h5v3.53h-5v10.25a3.76,3.76,0,0,0,.8,2.79,2.61,2.61,0,0,0,1.81.74,3.82,3.82,0,0,0,.9-.11,4.93,4.93,0,0,0,.82-.27l1.22,3.44A10.26,10.26,0,0,1,157.58,369.91Z" transform="translate(11.07 -5.8)" fill="#fff"/><path d="M171.69,348.32a9.55,9.55,0,0,1,6.76,2.29,8.11,8.11,0,0,1,2.48,6.28v12.68h-3.69v-2.85h-.17a7.38,7.38,0,0,1-6.39,3.52,8.33,8.33,0,0,1-5.69-2,6.48,6.48,0,0,1-2.29-5,6.12,6.12,0,0,1,2.42-5.08,10.18,10.18,0,0,1,6.45-1.89,11.44,11.44,0,0,1,5.67,1.26v-.89a4.42,4.42,0,0,0-1.6-3.42,5.46,5.46,0,0,0-3.74-1.41,5.92,5.92,0,0,0-5.12,2.73l-3.4-2.14A9.46,9.46,0,0,1,171.69,348.32Zm-5,14.95a3.09,3.09,0,0,0,1.28,2.52,4.75,4.75,0,0,0,3,1,6.12,6.12,0,0,0,4.34-1.81,5.62,5.62,0,0,0,1.92-4.24,8,8,0,0,0-5-1.43,6.53,6.53,0,0,0-3.93,1.14A3.36,3.36,0,0,0,166.69,363.27Z" transform="translate(11.07 -5.8)" fill="#fff"/><path d="M196.18,370.24a9,9,0,0,1-4.14-1,7.28,7.28,0,0,1-2.88-2.56H189v2.85h-3.7V339.5h3.86V349l-.16,2.86h.16a7.13,7.13,0,0,1,2.88-2.56,9.13,9.13,0,0,1,11,2.22,11.89,11.89,0,0,1,0,15.54A8.85,8.85,0,0,1,196.18,370.24Zm-.63-3.52a6,6,0,0,0,4.66-2.1,7.58,7.58,0,0,0,1.89-5.34,7.67,7.67,0,0,0-1.89-5.33,6.28,6.28,0,0,0-9.37,0,8.71,8.71,0,0,0,0,10.71A6.14,6.14,0,0,0,195.55,366.72Z" transform="translate(11.07 -5.8)" fill="#fff"/><path d="M213.14,339.5v30.07h-3.86V339.5Z" transform="translate(11.07 -5.8)" fill="#fff"/><path d="M226.88,370.24a9.86,9.86,0,0,1-7.48-3.1,11,11,0,0,1-2.94-7.86,11.21,11.21,0,0,1,2.86-7.83,10.26,10.26,0,0,1,14.59-.17q2.72,3,2.71,8.3l0,.42H220.41a6.72,6.72,0,0,0,2,4.87,6.43,6.43,0,0,0,4.62,1.85c2.46,0,4.39-1.24,5.79-3.7l3.45,1.68a10.27,10.27,0,0,1-3.85,4.07A10.6,10.6,0,0,1,226.88,370.24Zm-6.17-13.44h11.8a5.15,5.15,0,0,0-1.75-3.55,6.12,6.12,0,0,0-4.22-1.4,5.64,5.64,0,0,0-3.76,1.34A6.39,6.39,0,0,0,220.71,356.8Z" transform="translate(11.07 -5.8)" fill="#fff"/><path d="M122,44.75a13.41,13.41,0,0,1-5,10.87,19,19,0,0,1-12.24,4,18.11,18.11,0,0,1-11.3-3.74,19.15,19.15,0,0,1-6.77-10.23l6.34-2.59a16.24,16.24,0,0,0,1.8,4.18,13.18,13.18,0,0,0,2.7,3.2A12,12,0,0,0,101,52.56a10.49,10.49,0,0,0,4,.76A11.37,11.37,0,0,0,112.37,51a7.63,7.63,0,0,0,2.88-6.23,7.47,7.47,0,0,0-2.37-5.55q-2.23-2.22-8.36-4.32t-7.7-3q-8.2-4.17-8.21-12.31a12.55,12.55,0,0,1,4.54-9.72,16.54,16.54,0,0,1,11.3-4,17.35,17.35,0,0,1,10.23,3,14.16,14.16,0,0,1,5.76,7.42l-6.2,2.59A9.09,9.09,0,0,0,110.82,14,11.06,11.06,0,0,0,98,14.29a6.32,6.32,0,0,0-2.66,5.26,6.12,6.12,0,0,0,2.09,4.61q2.3,1.93,10,4.6t11.19,6.52A13.93,13.93,0,0,1,122,44.75Z" transform="translate(11.07 -5.8)" fill="#fff"/><path d="M126.84,40.86A18.66,18.66,0,0,1,132,27.4a17.39,17.39,0,0,1,13-5.33,17.17,17.17,0,0,1,13,5.33,18.54,18.54,0,0,1,5.18,13.46A18.37,18.37,0,0,1,158,54.32a17.17,17.17,0,0,1-13,5.33,17.39,17.39,0,0,1-13-5.33A18.66,18.66,0,0,1,126.84,40.86Zm6.63,0a12.94,12.94,0,0,0,3.31,9.22,11.33,11.33,0,0,0,16.42,0,13,13,0,0,0,3.31-9.22,12.85,12.85,0,0,0-3.31-9.14,11.16,11.16,0,0,0-16.42,0A12.8,12.8,0,0,0,133.47,40.86Z" transform="translate(11.07 -5.8)" fill="#fff"/><path d="M168.46,23.22h6.34v4.9h.28a11.77,11.77,0,0,1,4.65-4.32,13.23,13.23,0,0,1,6.51-1.73q6.48,0,10,3.71t3.49,10.54V58.5h-6.63V36.76q-.21-8.64-8.71-8.64a8.25,8.25,0,0,0-6.62,3.2A11.6,11.6,0,0,0,175.08,39V58.5h-6.62Z" transform="translate(11.07 -5.8)" fill="#fff"/><path d="M238.3,23.22,216.2,74.05h-6.84l8.2-17.78L203,23.22h7.2l10.51,25.34h.15L231.1,23.22Z" transform="translate(11.07 -5.8)" fill="#fff"/></g></svg>