<svg xmlns="http://www.w3.org/2000/svg" viewBox="0 0 330.62 428.6"><title>psx</title><g id="Layer_3" data-name="Layer 3"><circle cx="164.59" cy="86.2" r="8.2" fill="#fff"/><line x1="22.09" y1="122.7" x2="307.09" y2="122.7" fill="none"/><rect x="22.09" y="119.7" width="285" height="6" fill="#fff"/><line x1="22.09" y1="379.2" x2="307.09" y2="379.2" fill="none"/><rect x="22.09" y="376.2" width="285" height="6" fill="#fff"/><circle cx="164.59" cy="420.4" r="8.2" fill="#fff"/></g><g id="NEW_TEXT" data-name="NEW TEXT"><path d="M53.73,159.28v102.6H39.93v-85.5L20,185.08l-5.25-11.7,30.15-14.1Z" transform="translate(2.79 -5.8)" fill="#fff"/><path d="M104.43,224.38q-12.32,0-22.35-9.75a32.51,32.51,0,0,1-9.75-23.4q0-13.95,10.5-24,10.49-10.35,24.6-10.35a34.07,34.07,0,0,1,25,10.2,33,33,0,0,1,10.2,24.15q0,12.45-10.05,28.35l-29.85,44.7-11.1-7.65L117,221.53l-.3-.3Q111.92,224.38,104.43,224.38Zm24.3-33.3a20,20,0,0,0-6.3-14.85,21.37,21.37,0,0,0-30,0,21,21,0,0,0,0,29.7,21.37,21.37,0,0,0,30,0A19.67,19.67,0,0,0,128.73,191.08Z" transform="translate(2.79 -5.8)" fill="#fff"/><path d="M186.77,224.38q-12.3,0-22.35-9.75a32.55,32.55,0,0,1-9.75-23.4q0-13.95,10.5-24,10.5-10.35,24.6-10.35a34.05,34.05,0,0,1,25,10.2A33,33,0,0,1,225,191.23q0,12.45-10.05,28.35l-29.85,44.7L174,256.63l25.35-35.1-.3-.3Q194.27,224.38,186.77,224.38Zm24.3-33.3a20,20,0,0,0-6.3-14.85,21.11,21.11,0,1,0-30,29.7,21.37,21.37,0,0,0,30,0A19.67,19.67,0,0,0,211.07,191.08Z" transform="translate(2.79 -5.8)" fill="#fff"/><path d="M295.07,240.28v21.6h-13.8v-21.6H232.52v-10.5l47.55-70.5h15v68.1h13.2v12.9Zm-46.95-12.9h33.15V179.53h-.6Z" transform="translate(2.79 -5.8)" fill="#fff"/><path d="M3.83,332.57v20.88H-2.79V301.9H14.78a15.85,15.85,0,0,1,11.37,4.46,14.87,14.87,0,0,1,0,21.81,15.84,15.84,0,0,1-11.37,4.4Zm0-24.34v18H14.92a8.76,8.76,0,0,0,6.55-2.66,8.66,8.66,0,0,0,2.67-6.34A8.54,8.54,0,0,0,21.47,311a8.61,8.61,0,0,0-6.55-2.74Z" transform="translate(2.79 -5.8)" fill="#fff"/><path d="M43.65,301.9v51.55H37V301.9Z" transform="translate(2.79 -5.8)" fill="#fff"/><path d="M64.75,317q7.34,0,11.59,3.92t4.25,10.76v21.75H74.25v-4.9H74q-4.09,6-10.94,6.05a14.21,14.21,0,0,1-9.76-3.46,11,11,0,0,1-3.92-8.64,10.5,10.5,0,0,1,4.14-8.71q4.14-3.24,11.05-3.24a19.59,19.59,0,0,1,9.72,2.16V331.2a7.54,7.54,0,0,0-2.74-5.87,9.36,9.36,0,0,0-6.4-2.41,10.16,10.16,0,0,0-8.79,4.68l-5.83-3.67Q55.31,317,64.75,317Zm-8.57,25.63A5.29,5.29,0,0,0,58.37,347a8.11,8.11,0,0,0,5.15,1.73A10.57,10.57,0,0,0,71,345.6a9.68,9.68,0,0,0,3.28-7.27c-2.06-1.63-5-2.45-8.64-2.45a11.25,11.25,0,0,0-6.73,1.94A5.79,5.79,0,0,0,56.18,342.65Z" transform="translate(2.79 -5.8)" fill="#fff"/><path d="M118.89,318.17,96.79,369H90l8.2-17.79-14.54-33h7.2l10.51,25.34h.15l10.22-25.34Z" transform="translate(2.79 -5.8)" fill="#fff"/><path d="M149.49,343.66a9.57,9.57,0,0,1-4,7.77,16,16,0,0,1-10.16,3.17,16.18,16.18,0,0,1-9.36-2.77,15.41,15.41,0,0,1-5.76-7.31l5.91-2.52a10.88,10.88,0,0,0,3.78,4.93,9.15,9.15,0,0,0,5.43,1.77,9.62,9.62,0,0,0,5.3-1.37,3.89,3.89,0,0,0,2.12-3.24c0-2.26-1.73-3.91-5.18-5l-6-1.51q-10.31-2.6-10.3-9.94a9.19,9.19,0,0,1,3.93-7.74,18,18,0,0,1,18.5-.68,12.16,12.16,0,0,1,5.29,6l-5.9,2.45a7.43,7.43,0,0,0-3.28-3.49,10.25,10.25,0,0,0-5.07-1.26,8.56,8.56,0,0,0-4.65,1.29,3.75,3.75,0,0,0-2,3.17q0,3,5.69,4.32l5.33,1.37Q149.48,335.67,149.49,343.66Z" transform="translate(2.79 -5.8)" fill="#fff"/><path d="M168.86,354a10.07,10.07,0,0,1-7.17-2.66,9.88,9.88,0,0,1-2.91-7.42V324.21h-6.2v-6h6.2v-10.8h6.62v10.8H174v6H165.4v17.57c0,2.36.46,4,1.37,4.79a4.44,4.44,0,0,0,3.09,1.26,6.64,6.64,0,0,0,1.55-.18,7.53,7.53,0,0,0,1.41-.47l2.08,5.91A17.83,17.83,0,0,1,168.86,354Z" transform="translate(2.79 -5.8)" fill="#fff"/><path d="M193.05,317q7.33,0,11.59,3.92t4.25,10.76v21.75h-6.34v-4.9h-.29q-4.09,6-10.94,6.05a14.21,14.21,0,0,1-9.76-3.46,11,11,0,0,1-3.92-8.64,10.5,10.5,0,0,1,4.14-8.71q4.14-3.24,11.05-3.24a19.54,19.54,0,0,1,9.72,2.16V331.2a7.56,7.56,0,0,0-2.73-5.87,9.38,9.38,0,0,0-6.41-2.41,10.16,10.16,0,0,0-8.79,4.68l-5.83-3.67Q183.62,317,193.05,317Zm-8.57,25.63a5.27,5.27,0,0,0,2.2,4.32,8.08,8.08,0,0,0,5.14,1.73,10.6,10.6,0,0,0,7.46-3.1,9.7,9.7,0,0,0,3.27-7.27q-3.09-2.44-8.64-2.45a11.25,11.25,0,0,0-6.73,1.94A5.79,5.79,0,0,0,184.48,342.65Z" transform="translate(2.79 -5.8)" fill="#fff"/><path d="M229.62,354a10,10,0,0,1-7.16-2.66,9.89,9.89,0,0,1-2.92-7.42V324.21h-6.19v-6h6.19v-10.8h6.63v10.8h8.64v6h-8.64v17.57c0,2.36.45,4,1.37,4.79a4.44,4.44,0,0,0,3.09,1.26,6.64,6.64,0,0,0,1.55-.18,7.42,7.42,0,0,0,1.4-.47l2.09,5.91A17.89,17.89,0,0,1,229.62,354Z" transform="translate(2.79 -5.8)" fill="#fff"/><path d="M250.07,306a4.68,4.68,0,1,1-1.37-3.31A4.52,4.52,0,0,1,250.07,306Zm-1.37,12.17v35.28h-6.62V318.17Z" transform="translate(2.79 -5.8)" fill="#fff"/><path d="M255,335.81a18.67,18.67,0,0,1,5.11-13.47,17.41,17.41,0,0,1,13-5.32,17.2,17.2,0,0,1,13,5.32,20.09,20.09,0,0,1,0,26.93,17.21,17.21,0,0,1-13,5.33,17.42,17.42,0,0,1-13-5.33A18.65,18.65,0,0,1,255,335.81Zm6.62,0A12.89,12.89,0,0,0,264.9,345a11.31,11.31,0,0,0,16.42,0,14.38,14.38,0,0,0,0-18.36,11.16,11.16,0,0,0-16.42,0A12.83,12.83,0,0,0,261.59,335.81Z" transform="translate(2.79 -5.8)" fill="#fff"/><path d="M296.58,318.17h6.34v4.89h.29a11.74,11.74,0,0,1,4.64-4.32,13.33,13.33,0,0,1,6.52-1.72q6.48,0,10,3.7t3.49,10.55v22.18h-6.62V331.7q-.22-8.64-8.72-8.64a8.27,8.27,0,0,0-6.62,3.21,11.57,11.57,0,0,0-2.66,7.67v19.51h-6.63Z" transform="translate(2.79 -5.8)" fill="#fff"/><path d="M122,44.75a13.41,13.41,0,0,1-5,10.87,19,19,0,0,1-12.24,4,18.11,18.11,0,0,1-11.3-3.74,19.15,19.15,0,0,1-6.77-10.23l6.34-2.59a16.24,16.24,0,0,0,1.8,4.18,13.18,13.18,0,0,0,2.7,3.2A12,12,0,0,0,101,52.56a10.49,10.49,0,0,0,4,.76A11.37,11.37,0,0,0,112.37,51a7.63,7.63,0,0,0,2.88-6.23,7.47,7.47,0,0,0-2.37-5.55q-2.23-2.22-8.36-4.32t-7.7-3q-8.2-4.17-8.21-12.31a12.55,12.55,0,0,1,4.54-9.72,16.54,16.54,0,0,1,11.3-4,17.35,17.35,0,0,1,10.23,3,14.16,14.16,0,0,1,5.76,7.42l-6.2,2.59A9.09,9.09,0,0,0,110.82,14,11.06,11.06,0,0,0,98,14.29a6.32,6.32,0,0,0-2.66,5.26,6.12,6.12,0,0,0,2.09,4.61q2.3,1.93,10,4.6t11.19,6.52A13.93,13.93,0,0,1,122,44.75Z" transform="translate(2.79 -5.8)" fill="#fff"/><path d="M126.84,40.86A18.66,18.66,0,0,1,132,27.4a17.39,17.39,0,0,1,13-5.33,17.17,17.17,0,0,1,13,5.33,18.54,18.54,0,0,1,5.18,13.46A18.37,18.37,0,0,1,158,54.32a17.17,17.17,0,0,1-13,5.33,17.39,17.39,0,0,1-13-5.33A18.66,18.66,0,0,1,126.84,40.86Zm6.63,0a12.94,12.94,0,0,0,3.31,9.22,11.33,11.33,0,0,0,16.42,0,13,13,0,0,0,3.31-9.22,12.85,12.85,0,0,0-3.31-9.14,11.16,11.16,0,0,0-16.42,0A12.8,12.8,0,0,0,133.47,40.86Z" transform="translate(2.79 -5.8)" fill="#fff"/><path d="M168.46,23.22h6.34v4.9h.28a11.77,11.77,0,0,1,4.65-4.32,13.23,13.23,0,0,1,6.51-1.73q6.48,0,10,3.71t3.49,10.54V58.5h-6.63V36.76q-.21-8.64-8.71-8.64a8.25,8.25,0,0,0-6.62,3.2A11.6,11.6,0,0,0,175.08,39V58.5h-6.62Z" transform="translate(2.79 -5.8)" fill="#fff"/><path d="M238.3,23.22,216.2,74.05h-6.84l8.2-17.78L203,23.22h7.2l10.51,25.34h.15L231.1,23.22Z" transform="translate(2.79 -5.8)" fill="#fff"/></g></svg>