<svg xmlns="http://www.w3.org/2000/svg" viewBox="0 0 297.44 428.03"><title>retropie</title><g id="Layer_3" data-name="Layer 3"><circle cx="148.72" cy="85.63" r="8.2" fill="#fff"/><line x1="6.22" y1="122.13" x2="291.22" y2="122.13" fill="none"/><rect x="6.22" y="119.13" width="285" height="6" fill="#fff"/><line x1="6.22" y1="378.63" x2="291.22" y2="378.63" fill="none"/><rect x="6.22" y="375.63" width="285" height="6" fill="#fff"/><circle cx="148.72" cy="419.83" r="8.2" fill="#fff"/></g><g id="NEW_TEXT" data-name="NEW TEXT"><path d="M78.48,248.68v13.2H13.08v-13.8l26.55-26.85Q53,207.58,58.08,200.76a23.57,23.57,0,0,0,5.1-14.33,15.1,15.1,0,0,0-5.25-11.55q-5.25-4.8-13.5-4.8a18.51,18.51,0,0,0-12.15,4.2,18.94,18.94,0,0,0-6.6,10.2l-12.6-5.1a32,32,0,0,1,11.55-16,32.19,32.19,0,0,1,20.1-6.53q14,0,23.25,8.55a27.42,27.42,0,0,1,9.3,21q0,14.85-16.35,32.1l-30,30.15Z" transform="translate(-13.08 -6.37)" fill="#fff"/><path d="M91.68,210.58q0-23.4,11.55-38.55t29.7-15.15q18.13,0,29.7,15.3,11.55,15.15,11.55,38.4,0,23.1-11.55,38.55-11.56,15.15-29.7,15.15t-29.7-15.15Q91.67,233.68,91.68,210.58Zm68.4,0q0-17.7-7.5-29.1-7.35-11.4-19.65-11.4t-19.65,11.4q-7.52,11.4-7.5,29.1t7.5,29.25q7.34,11.25,19.65,11.25t19.65-11.4Q160.08,228.13,160.08,210.58Z" transform="translate(-13.08 -6.37)" fill="#fff"/><path d="M224.27,159.28v102.6h-13.8v-85.5l-19.95,8.7-5.25-11.7,30.15-14.1Z" transform="translate(-13.08 -6.37)" fill="#fff"/><path d="M310.52,232.78a29,29,0,0,1-10,22.5q-9.9,9-24.6,9a34.14,34.14,0,0,1-20.85-6.9,35.07,35.07,0,0,1-12.75-18.75l12.6-5.25q2.4,8.55,7.88,13.13a19.79,19.79,0,0,0,13.12,4.57,21.69,21.69,0,0,0,14.55-5.25,16.93,16.93,0,0,0,6-13.05,16.18,16.18,0,0,0-6.3-12.9,22.1,22.1,0,0,0-14.85-5.25h-8.85v-12.9h7.8q8.25,0,13.5-4.57A15.08,15.08,0,0,0,293,185.23a13.68,13.68,0,0,0-5-10.95q-4.95-4.2-13-4.2-13.05,0-17.85,13.35L244.37,178A31.73,31.73,0,0,1,275,156.88q13.65,0,22.95,8.1a25.36,25.36,0,0,1,9.15,20.25q0,14.85-13.8,22.05v.6A28.73,28.73,0,0,1,306,217.93,25.45,25.45,0,0,1,310.52,232.78Z" transform="translate(-13.08 -6.37)" fill="#fff"/><path d="M42.25,353.45H35.62V301.9H53.19a16.07,16.07,0,0,1,11.41,4.42,14.8,14.8,0,0,1,1.23,20.38A15.54,15.54,0,0,1,57,332l-.14.22,14.47,21v.29H63.48L49.59,332.57H42.25Zm0-45.22v18.15H52.9a9.65,9.65,0,0,0,6.84-2.63,8.58,8.58,0,0,0,2.81-6.52,9.1,9.1,0,0,0-9.22-9Z" transform="translate(-13.08 -6.37)" fill="#fff"/><path d="M91.2,354.6a16.88,16.88,0,0,1-12.81-5.33,18.81,18.81,0,0,1-5-13.46,19.18,19.18,0,0,1,4.89-13.43A16.2,16.2,0,0,1,90.77,317q7.85,0,12.49,5.07t4.65,14.22l-.07.72H80.12a11.44,11.44,0,0,0,3.45,8.35,11,11,0,0,0,7.92,3.17q6.35,0,9.94-6.34l5.9,2.89a17.59,17.59,0,0,1-6.59,7A18.18,18.18,0,0,1,91.2,354.6Zm-10.58-23h20.23a8.75,8.75,0,0,0-3-6.08,10.44,10.44,0,0,0-7.23-2.42,9.6,9.6,0,0,0-6.45,2.31A11,11,0,0,0,80.62,331.56Z" transform="translate(-13.08 -6.37)" fill="#fff"/><path d="M126.84,354a10,10,0,0,1-7.16-2.66,9.89,9.89,0,0,1-2.92-7.42V324.21h-6.19v-6h6.19v-10.8h6.63v10.8H132v6h-8.64v17.57c0,2.36.45,4,1.37,4.79a4.44,4.44,0,0,0,3.09,1.26,6.64,6.64,0,0,0,1.55-.18,7.42,7.42,0,0,0,1.4-.47l2.09,5.91A17.89,17.89,0,0,1,126.84,354Z" transform="translate(-13.08 -6.37)" fill="#fff"/><path d="M145,353.45h-6.63V318.17h6.34v5.76H145a9.55,9.55,0,0,1,4.14-4.79,11.49,11.49,0,0,1,6.15-2,12.56,12.56,0,0,1,4.9.86l-2,6.41a11.08,11.08,0,0,0-3.88-.5,8.59,8.59,0,0,0-6.52,3A10.12,10.12,0,0,0,145,334Z" transform="translate(-13.08 -6.37)" fill="#fff"/><path d="M160.32,335.81a18.71,18.71,0,0,1,5.11-13.47,17.44,17.44,0,0,1,13-5.32,17.2,17.2,0,0,1,13,5.32,20.09,20.09,0,0,1,0,26.93,17.21,17.21,0,0,1-13,5.33,17.44,17.44,0,0,1-13-5.33A18.69,18.69,0,0,1,160.32,335.81Zm6.63,0a12.89,12.89,0,0,0,3.31,9.21,11.3,11.3,0,0,0,16.41,0,14.35,14.35,0,0,0,0-18.36,11.15,11.15,0,0,0-16.41,0A12.83,12.83,0,0,0,167,335.81Z" transform="translate(-13.08 -6.37)" fill="#fff"/><path d="M220.66,354.6a15.12,15.12,0,0,1-7.09-1.66,12.28,12.28,0,0,1-4.93-4.39h-.29l.29,4.9V369H202V318.17h6.34v4.89h.29a12.43,12.43,0,0,1,4.93-4.39,15.68,15.68,0,0,1,18.9,3.82,20.33,20.33,0,0,1,0,26.64A15.16,15.16,0,0,1,220.66,354.6Zm-1.08-6.05a10.32,10.32,0,0,0,8-3.6,13,13,0,0,0,3.24-9.14,13.16,13.16,0,0,0-3.24-9.15,10.74,10.74,0,0,0-16,0,14.88,14.88,0,0,0,0,18.36A10.46,10.46,0,0,0,219.58,348.55Z" transform="translate(-13.08 -6.37)" fill="#fff"/><path d="M251.69,306a4.68,4.68,0,1,1-1.37-3.31A4.52,4.52,0,0,1,251.69,306Zm-1.37,12.17v35.28H243.7V318.17Z" transform="translate(-13.08 -6.37)" fill="#fff"/><path d="M274.44,354.6a16.88,16.88,0,0,1-12.81-5.33,18.81,18.81,0,0,1-5-13.46,19.18,19.18,0,0,1,4.89-13.43A16.2,16.2,0,0,1,274,317q7.85,0,12.49,5.07t4.65,14.22l-.07.72H263.36a11.44,11.44,0,0,0,3.45,8.35,11,11,0,0,0,7.92,3.17q6.33,0,9.94-6.34l5.9,2.89a17.59,17.59,0,0,1-6.59,7A18.2,18.2,0,0,1,274.44,354.6Zm-10.58-23h20.23a8.75,8.75,0,0,0-3-6.08,10.44,10.44,0,0,0-7.23-2.42,9.6,9.6,0,0,0-6.45,2.31A11,11,0,0,0,263.86,331.56Z" transform="translate(-13.08 -6.37)" fill="#fff"/><path d="M71.91,58.5H65L46.85,7H54.2L68.31,48.78h.29L83.28,7h7.35Z" transform="translate(-13.08 -6.37)" fill="#fff"/><path d="M105.32,22.07q7.34,0,11.59,3.92t4.25,10.77V58.5h-6.34V53.6h-.29a12.61,12.61,0,0,1-10.94,6,14.26,14.26,0,0,1-9.76-3.45,11.07,11.07,0,0,1-3.92-8.64,10.5,10.5,0,0,1,4.14-8.72q4.14-3.24,11-3.24a19.54,19.54,0,0,1,9.72,2.16V36.25a7.54,7.54,0,0,0-2.74-5.87,9.39,9.39,0,0,0-6.4-2.41,10.16,10.16,0,0,0-8.79,4.68L91.06,29Q95.89,22.07,105.32,22.07ZM96.75,47.7A5.29,5.29,0,0,0,98.94,52a8.11,8.11,0,0,0,5.15,1.73,10.51,10.51,0,0,0,7.45-3.1,9.68,9.68,0,0,0,3.28-7.27q-3.09-2.45-8.64-2.45a11.19,11.19,0,0,0-6.73,2A5.76,5.76,0,0,0,96.75,47.7Z" transform="translate(-13.08 -6.37)" fill="#fff"/><path d="M135.27,58.5h-6.63V23.22H135V29h.29a9.55,9.55,0,0,1,4.14-4.79,11.49,11.49,0,0,1,6.15-2,12.34,12.34,0,0,1,4.9.87l-2,6.4a11.08,11.08,0,0,0-3.88-.5A8.59,8.59,0,0,0,138,32a10.12,10.12,0,0,0-2.77,7.06Z" transform="translate(-13.08 -6.37)" fill="#fff"/><path d="M163.35,11.05A4.51,4.51,0,0,1,162,14.36a4.68,4.68,0,0,1-8-3.31,4.68,4.68,0,1,1,9.36,0ZM162,23.22V58.5h-6.62V23.22Z" transform="translate(-13.08 -6.37)" fill="#fff"/><path d="M168.24,40.86a18.66,18.66,0,0,1,5.12-13.46,17.39,17.39,0,0,1,13-5.33,17.17,17.17,0,0,1,13,5.33,18.54,18.54,0,0,1,5.18,13.46,18.37,18.37,0,0,1-5.18,13.46,17.17,17.17,0,0,1-13,5.33,17.39,17.39,0,0,1-13-5.33A18.66,18.66,0,0,1,168.24,40.86Zm6.63,0a12.94,12.94,0,0,0,3.31,9.22,11.33,11.33,0,0,0,16.42,0,13,13,0,0,0,3.31-9.22,12.85,12.85,0,0,0-3.31-9.14,11.16,11.16,0,0,0-16.42,0A12.8,12.8,0,0,0,174.87,40.86Z" transform="translate(-13.08 -6.37)" fill="#fff"/><path d="M241.18,58.5h-6.34V53.6h-.28a11.77,11.77,0,0,1-4.65,4.32,13.23,13.23,0,0,1-6.51,1.73q-6.48,0-10-3.71T209.93,45.4V23.22h6.63V45q.21,8.64,8.71,8.64a8.25,8.25,0,0,0,6.62-3.2,11.6,11.6,0,0,0,2.67-7.67V23.22h6.62Z" transform="translate(-13.08 -6.37)" fill="#fff"/><path d="M275.88,48.71a9.55,9.55,0,0,1-4,7.77,15.88,15.88,0,0,1-10.15,3.17,16.11,16.11,0,0,1-9.36-2.77,15.25,15.25,0,0,1-5.76-7.31l5.9-2.52A11,11,0,0,0,256.26,52a9.18,9.18,0,0,0,5.44,1.77A9.59,9.59,0,0,0,267,52.38a3.88,3.88,0,0,0,2.13-3.24c0-2.26-1.73-3.91-5.19-5l-6.05-1.51q-10.29-2.59-10.29-9.94A9.2,9.2,0,0,1,251.51,25,18,18,0,0,1,270,24.3a12.14,12.14,0,0,1,5.29,6l-5.91,2.44a7.45,7.45,0,0,0-3.27-3.49A10.29,10.29,0,0,0,261.05,28a8.45,8.45,0,0,0-4.64,1.3,3.72,3.72,0,0,0-2.05,3.17q0,3,5.68,4.32l5.33,1.36Q275.89,40.72,275.88,48.71Z" transform="translate(-13.08 -6.37)" fill="#fff"/></g></svg>