<svg xmlns="http://www.w3.org/2000/svg" viewBox="0 0 293.55 428.6"><title>saturn</title><g id="Layer_3" data-name="Layer 3"><circle cx="147.07" cy="86.2" r="8.2" fill="#fff"/><line x1="4.57" y1="122.7" x2="289.57" y2="122.7" fill="none"/><rect x="4.57" y="119.7" width="285" height="6" fill="#fff"/><line x1="4.57" y1="379.2" x2="289.57" y2="379.2" fill="none"/><rect x="4.57" y="376.2" width="285" height="6" fill="#fff"/><circle cx="147.07" cy="420.4" r="8.2" fill="#fff"/></g><g id="NEW_TEXT" data-name="NEW TEXT"><path d="M53.73,159.28v102.6H39.93v-85.5L20,185.08l-5.25-11.7,30.15-14.1Z" transform="translate(-14.73 -5.8)" fill="#fff"/><path d="M104.43,224.38q-12.32,0-22.35-9.75a32.51,32.51,0,0,1-9.75-23.4q0-13.95,10.5-24,10.49-10.35,24.6-10.35a34.07,34.07,0,0,1,25,10.2,33,33,0,0,1,10.2,24.15q0,12.45-10.05,28.35l-29.85,44.7-11.1-7.65L117,221.53l-.3-.3Q111.92,224.38,104.43,224.38Zm24.3-33.3a20,20,0,0,0-6.3-14.85,21.37,21.37,0,0,0-30,0,21,21,0,0,0,0,29.7,21.37,21.37,0,0,0,30,0A19.67,19.67,0,0,0,128.73,191.08Z" transform="translate(-14.73 -5.8)" fill="#fff"/><path d="M186.77,224.38q-12.3,0-22.35-9.75a32.55,32.55,0,0,1-9.75-23.4q0-13.95,10.5-24,10.5-10.35,24.6-10.35a34.05,34.05,0,0,1,25,10.2A33,33,0,0,1,225,191.23q0,12.45-10.05,28.35l-29.84,44.7L174,256.63l25.36-35.1-.31-.3Q194.27,224.38,186.77,224.38Zm24.3-33.3a20,20,0,0,0-6.3-14.85,21.11,21.11,0,1,0-30,29.7,21.37,21.37,0,0,0,30,0A19.67,19.67,0,0,0,211.07,191.08Z" transform="translate(-14.73 -5.8)" fill="#fff"/><path d="M295.07,240.28v21.6h-13.8v-21.6H232.52v-10.5l47.55-70.5h15v68.1h13.2v12.9Zm-46.95-12.9h33.15V179.53h-.6Z" transform="translate(-14.73 -5.8)" fill="#fff"/><path d="M96.06,339.7a13.4,13.4,0,0,1-5,10.87,19,19,0,0,1-12.24,4,18.14,18.14,0,0,1-11.31-3.74,19.13,19.13,0,0,1-6.76-10.23L67.12,338a16,16,0,0,0,1.8,4.17,13.69,13.69,0,0,0,2.7,3.21A12.28,12.28,0,0,0,75,347.51a10.56,10.56,0,0,0,4,.75,11.4,11.4,0,0,0,7.42-2.34,7.61,7.61,0,0,0,2.88-6.22,7.45,7.45,0,0,0-2.38-5.55q-2.23-2.23-8.35-4.32c-4.13-1.49-6.7-2.49-7.7-3q-8.22-4.19-8.21-12.31a12.54,12.54,0,0,1,4.53-9.72,16.56,16.56,0,0,1,11.31-4,17.35,17.35,0,0,1,10.22,3,14.17,14.17,0,0,1,5.76,7.41l-6.19,2.6A9.2,9.2,0,0,0,84.87,309a11.06,11.06,0,0,0-12.78.25,6.27,6.27,0,0,0-2.66,5.26,6.07,6.07,0,0,0,2.08,4.6q2.31,1.95,10,4.61t11.2,6.52A13.93,13.93,0,0,1,96.06,339.7Z" transform="translate(-14.73 -5.8)" fill="#fff"/><path d="M116.3,317q7.33,0,11.59,3.92t4.25,10.76v21.75H125.8v-4.9h-.29q-4.1,6-10.94,6.05a14.21,14.21,0,0,1-9.76-3.46,11,11,0,0,1-3.92-8.64,10.5,10.5,0,0,1,4.14-8.71q4.14-3.24,11-3.24a19.54,19.54,0,0,1,9.72,2.16V331.2a7.54,7.54,0,0,0-2.74-5.87,9.36,9.36,0,0,0-6.4-2.41,10.16,10.16,0,0,0-8.79,4.68L102,323.93Q106.87,317,116.3,317Zm-8.57,25.63a5.29,5.29,0,0,0,2.19,4.32,8.11,8.11,0,0,0,5.15,1.73,10.56,10.56,0,0,0,7.45-3.1,9.68,9.68,0,0,0,3.28-7.27q-3.09-2.44-8.64-2.45a11.25,11.25,0,0,0-6.73,1.94A5.79,5.79,0,0,0,107.73,342.65Z" transform="translate(-14.73 -5.8)" fill="#fff"/><path d="M152.87,354a10,10,0,0,1-7.16-2.66,9.89,9.89,0,0,1-2.92-7.42V324.21H136.6v-6h6.19v-10.8h6.63v10.8h8.64v6h-8.64v17.57c0,2.36.45,4,1.36,4.79a4.48,4.48,0,0,0,3.1,1.26,6.7,6.7,0,0,0,1.55-.18,7.42,7.42,0,0,0,1.4-.47l2.09,5.91A17.89,17.89,0,0,1,152.87,354Z" transform="translate(-14.73 -5.8)" fill="#fff"/><path d="M195.35,353.45H189v-4.9h-.29a11.77,11.77,0,0,1-4.65,4.32,13.31,13.31,0,0,1-6.51,1.73q-6.48,0-10-3.71t-3.5-10.55V318.17h6.63v21.74q.21,8.64,8.71,8.64a8.28,8.28,0,0,0,6.62-3.2,11.6,11.6,0,0,0,2.67-7.67V318.17h6.62Z" transform="translate(-14.73 -5.8)" fill="#fff"/><path d="M210,353.45h-6.62V318.17h6.33v5.76H210a9.55,9.55,0,0,1,4.14-4.79,11.5,11.5,0,0,1,6.16-2,12.51,12.51,0,0,1,4.89.86l-2,6.41a11.18,11.18,0,0,0-3.89-.5,8.59,8.59,0,0,0-6.52,3A10.12,10.12,0,0,0,210,334Z" transform="translate(-14.73 -5.8)" fill="#fff"/><path d="M229.55,318.17h6.34v4.89h.28a11.84,11.84,0,0,1,4.65-4.32,13.32,13.32,0,0,1,6.51-1.72q6.49,0,10,3.7t3.49,10.55v22.18h-6.63V331.7q-.21-8.64-8.71-8.64a8.26,8.26,0,0,0-6.62,3.21,11.58,11.58,0,0,0-2.67,7.67v19.51h-6.62Z" transform="translate(-14.73 -5.8)" fill="#fff"/><path d="M120.51,44.75a13.41,13.41,0,0,1-5,10.87,19,19,0,0,1-12.24,4A18.11,18.11,0,0,1,92,55.91a19.15,19.15,0,0,1-6.77-10.23l6.33-2.59a17,17,0,0,0,1.8,4.18,13.64,13.64,0,0,0,2.7,3.2,12.33,12.33,0,0,0,3.42,2.09,10.57,10.57,0,0,0,4,.76A11.38,11.38,0,0,0,110.86,51a7.63,7.63,0,0,0,2.88-6.23,7.45,7.45,0,0,0-2.38-5.55Q109.14,37,103,34.88a81.78,81.78,0,0,1-7.7-3q-8.2-4.17-8.21-12.31a12.55,12.55,0,0,1,4.54-9.72,16.54,16.54,0,0,1,11.3-4,17.32,17.32,0,0,1,10.22,3,14.16,14.16,0,0,1,5.76,7.42l-6.19,2.59A9.09,9.09,0,0,0,109.31,14a11.06,11.06,0,0,0-12.78.25,6.32,6.32,0,0,0-2.66,5.26A6.09,6.09,0,0,0,96,24.16q2.3,1.93,10,4.6,7.86,2.67,11.2,6.52A13.93,13.93,0,0,1,120.51,44.75Z" transform="translate(-14.73 -5.8)" fill="#fff"/><path d="M143.19,59.65a16.85,16.85,0,0,1-12.82-5.33,18.81,18.81,0,0,1-5-13.46,19.14,19.14,0,0,1,4.9-13.43,16.22,16.22,0,0,1,12.53-5.36q7.85,0,12.49,5.07t4.64,14.22l-.07.72H132.1a11.53,11.53,0,0,0,3.46,8.36,11,11,0,0,0,7.92,3.16q6.33,0,9.93-6.33l5.91,2.88a17.66,17.66,0,0,1-6.59,7A18.23,18.23,0,0,1,143.19,59.65Zm-10.59-23h20.24a8.81,8.81,0,0,0-3-6.08,10.45,10.45,0,0,0-7.24-2.41,9.58,9.58,0,0,0-6.44,2.3A11,11,0,0,0,132.6,36.61Z" transform="translate(-14.73 -5.8)" fill="#fff"/><path d="M181.92,75.2a19.83,19.83,0,0,1-5.54-.75,18.25,18.25,0,0,1-4.72-2.13A15.27,15.27,0,0,1,168,69.08a13.74,13.74,0,0,1-2.31-4.17L172,62.32a10,10,0,0,0,3.74,5,10.5,10.5,0,0,0,6.19,1.88q5.4,0,8.43-3.24t3-8.93V53.6h-.29A13,13,0,0,1,188,58a15.22,15.22,0,0,1-6.95,1.62,15.59,15.59,0,0,1-11.88-5.4,19.54,19.54,0,0,1-4.9-13.39,19.29,19.29,0,0,1,4.9-13.32,15.49,15.49,0,0,1,11.88-5.47A15.22,15.22,0,0,1,188,23.69a13,13,0,0,1,5.07,4.43h.29v-4.9h6.34V57q0,8.49-4.83,13.32T181.92,75.2Zm.22-21.6a10.14,10.14,0,0,0,8-3.52,13.12,13.12,0,0,0,3.24-9.22,13.13,13.13,0,0,0-3.24-9.14,10.19,10.19,0,0,0-8-3.6,10.32,10.32,0,0,0-8,3.6,13.13,13.13,0,0,0-3.24,9.14A13,13,0,0,0,174.15,50,10.32,10.32,0,0,0,182.14,53.6Z" transform="translate(-14.73 -5.8)" fill="#fff"/><path d="M220.8,22.07q7.35,0,11.6,3.92t4.24,10.77V58.5h-6.33V53.6H230q-4.11,6.06-10.94,6a14.24,14.24,0,0,1-9.76-3.45,11,11,0,0,1-3.92-8.64,10.47,10.47,0,0,1,4.14-8.72q4.13-3.24,11.05-3.24a19.59,19.59,0,0,1,9.72,2.16V36.25a7.57,7.57,0,0,0-2.74-5.87A9.41,9.41,0,0,0,221.16,28a10.15,10.15,0,0,0-8.78,4.68L206.55,29Q211.36,22.07,220.8,22.07ZM212.24,47.7A5.29,5.29,0,0,0,214.43,52a8.09,8.09,0,0,0,5.15,1.73,10.53,10.53,0,0,0,7.45-3.1,9.71,9.71,0,0,0,3.28-7.27q-3.1-2.45-8.64-2.45a11.19,11.19,0,0,0-6.73,2A5.74,5.74,0,0,0,212.24,47.7Z" transform="translate(-14.73 -5.8)" fill="#fff"/></g></svg>