<svg xmlns="http://www.w3.org/2000/svg" viewBox="0 0 350.42 428.6"><title>scummvm-sys</title><g id="Layer_3" data-name="Layer 3"><circle cx="176.94" cy="86.2" r="8.2" fill="#fff"/><line x1="34.44" y1="122.7" x2="319.44" y2="122.7" fill="none"/><rect x="34.44" y="119.7" width="285" height="6" fill="#fff"/><line x1="34.44" y1="379.2" x2="319.44" y2="379.2" fill="none"/><rect x="34.44" y="376.2" width="285" height="6" fill="#fff"/><circle cx="176.94" cy="420.4" r="8.2" fill="#fff"/></g><g id="NEW_TEXT" data-name="NEW TEXT"><path d="M70.45,248.68v13.2H5.05v-13.8L31.6,221.23Q45,207.58,50.05,200.76a23.57,23.57,0,0,0,5.1-14.33,15.1,15.1,0,0,0-5.25-11.55q-5.25-4.8-13.5-4.8a18.51,18.51,0,0,0-12.15,4.2,18.94,18.94,0,0,0-6.6,10.2l-12.6-5.1a32,32,0,0,1,11.55-16,32.19,32.19,0,0,1,20.1-6.53q13.95,0,23.25,8.55a27.42,27.42,0,0,1,9.3,21q0,14.85-16.35,32.1l-30,30.15Z" transform="translate(15.14 -5.8)" fill="#fff"/><path d="M83.65,210.58q0-23.4,11.55-38.55t29.7-15.15q18.15,0,29.7,15.3,11.55,15.15,11.55,38.4,0,23.1-11.55,38.55-11.55,15.15-29.7,15.15T95.2,249.13Q83.65,233.68,83.65,210.58Zm68.4,0q0-17.7-7.5-29.1t-19.65-11.4q-12.3,0-19.65,11.4-7.5,11.4-7.5,29.1t7.5,29.25q7.35,11.25,19.65,11.25t19.65-11.4Q152.05,228.13,152.05,210.58Z" transform="translate(15.14 -5.8)" fill="#fff"/><path d="M179.35,210.58q0-23.4,11.55-38.55t29.7-15.15q18.15,0,29.7,15.3,11.55,15.15,11.55,38.4,0,23.1-11.55,38.55-11.55,15.15-29.7,15.15t-29.7-15.15Q179.35,233.68,179.35,210.58Zm68.4,0q0-17.7-7.5-29.1t-19.65-11.4q-12.3,0-19.65,11.4t-7.5,29.1q0,17.7,7.5,29.25,7.35,11.25,19.65,11.25t19.65-11.4Q247.75,228.13,247.75,210.58Z" transform="translate(15.14 -5.8)" fill="#fff"/><path d="M312,159.28v102.6h-13.8v-85.5l-19.95,8.7L273,173.38l30.15-14.1Z" transform="translate(15.14 -5.8)" fill="#fff"/><path d="M20.14,339.7a13.38,13.38,0,0,1-5,10.87,19,19,0,0,1-12.24,4,18.11,18.11,0,0,1-11.3-3.74,19.2,19.2,0,0,1-6.77-10.23L-8.8,338A16,16,0,0,0-7,342.21a13.69,13.69,0,0,0,2.7,3.21,12.28,12.28,0,0,0,3.42,2.09,10.56,10.56,0,0,0,4,.75,11.37,11.37,0,0,0,7.41-2.34,7.62,7.62,0,0,0,2.89-6.22A7.48,7.48,0,0,0,11,334.15q-2.23-2.23-8.35-4.32c-4.13-1.49-6.7-2.49-7.71-3q-8.21-4.19-8.21-12.31a12.55,12.55,0,0,1,4.54-9.72,16.55,16.55,0,0,1,11.3-4,17.36,17.36,0,0,1,10.23,3,14.17,14.17,0,0,1,5.76,7.41l-6.19,2.6A9.2,9.2,0,0,0,9,309a10.14,10.14,0,0,0-6.23-1.91,10.05,10.05,0,0,0-6.55,2.16A6.28,6.28,0,0,0-6.5,314.5a6.08,6.08,0,0,0,2.09,4.6q2.31,1.95,10,4.61t11.19,6.52A13.89,13.89,0,0,1,20.14,339.7Z" transform="translate(15.14 -5.8)" fill="#fff"/><path d="M43.11,354.6a17.42,17.42,0,0,1-13-5.33A19,19,0,0,1,25,335.81a18.67,18.67,0,0,1,5.11-13.47,17.41,17.41,0,0,1,13-5.32,16.12,16.12,0,0,1,15.48,10.15l-6.05,2.52q-2.8-6.63-9.86-6.63a10.24,10.24,0,0,0-7.85,3.68,14.32,14.32,0,0,0,0,18.14,10.23,10.23,0,0,0,7.85,3.67,10.37,10.37,0,0,0,10.22-6.62l5.91,2.52a15.82,15.82,0,0,1-6.09,7.45A17.19,17.19,0,0,1,43.11,354.6Z" transform="translate(15.14 -5.8)" fill="#fff"/><path d="M95.53,353.45H89.19v-4.9H88.9a11.74,11.74,0,0,1-4.64,4.32,13.34,13.34,0,0,1-6.52,1.73q-6.48,0-10-3.71t-3.49-10.55V318.17H70.9v21.74q.22,8.64,8.71,8.64a8.31,8.31,0,0,0,6.63-3.2,11.64,11.64,0,0,0,2.66-7.67V318.17h6.63Z" transform="translate(15.14 -5.8)" fill="#fff"/><path d="M110.21,353.45h-6.62V318.17h6.34v4.89h.28a11.84,11.84,0,0,1,4.65-4.32,13,13,0,0,1,13.07.08,10.69,10.69,0,0,1,4.32,5A13.75,13.75,0,0,1,144.41,317q6.12,0,9.44,3.74t3.31,10.66v22h-6.63v-21q0-5-1.8-7.16c-1.2-1.46-3.21-2.2-6-2.2a7.91,7.91,0,0,0-6.41,3.24,11.85,11.85,0,0,0-2.59,7.64v19.51h-6.63v-21q0-5-1.8-7.16c-1.2-1.46-3.22-2.2-6.05-2.2a7.89,7.89,0,0,0-6.4,3.24,11.86,11.86,0,0,0-2.6,7.64Z" transform="translate(15.14 -5.8)" fill="#fff"/><path d="M171.56,353.45h-6.63V318.17h6.34v4.89h.29a11.74,11.74,0,0,1,4.64-4.32,13,13,0,0,1,13.07.08,10.59,10.59,0,0,1,4.32,5A13.76,13.76,0,0,1,205.76,317q6.11,0,9.43,3.74t3.31,10.66v22h-6.62v-21q0-5-1.8-7.16c-1.2-1.46-3.22-2.2-6.05-2.2a7.91,7.91,0,0,0-6.41,3.24,11.85,11.85,0,0,0-2.59,7.64v19.51H188.4v-21q0-5-1.8-7.16c-1.2-1.46-3.21-2.2-6-2.2a7.91,7.91,0,0,0-6.41,3.24,11.85,11.85,0,0,0-2.59,7.64Z" transform="translate(15.14 -5.8)" fill="#fff"/><path d="M261.12,353.45h-6.91L236.07,301.9h7.34l14.11,41.83h.29L272.5,301.9h7.34Z" transform="translate(15.14 -5.8)" fill="#fff"/><path d="M292.51,353.45h-6.62V301.9h6.62l17.93,31.39h.29l17.93-31.39h6.62v51.55h-6.62v-30.6l.29-8.64h-.29L312.53,342.5h-3.89l-16.13-28.29h-.28l.28,8.64Z" transform="translate(15.14 -5.8)" fill="#fff"/><path d="M79.25,44.75a13.4,13.4,0,0,1-5,10.87,19,19,0,0,1-12.24,4,18.14,18.14,0,0,1-11.31-3.74A19.2,19.2,0,0,1,44,45.68l6.34-2.59a16.24,16.24,0,0,0,1.8,4.18,13.64,13.64,0,0,0,2.7,3.2,12,12,0,0,0,3.42,2.09,10.57,10.57,0,0,0,4,.76A11.4,11.4,0,0,0,69.61,51a7.63,7.63,0,0,0,2.88-6.23,7.48,7.48,0,0,0-2.38-5.55Q67.88,37,61.76,34.88a82.44,82.44,0,0,1-7.71-3q-8.2-4.17-8.2-12.31a12.57,12.57,0,0,1,4.53-9.72,16.55,16.55,0,0,1,11.31-4,17.34,17.34,0,0,1,10.22,3,14.16,14.16,0,0,1,5.76,7.42l-6.19,2.59A9.2,9.2,0,0,0,68.06,14a11.06,11.06,0,0,0-12.78.25,6.3,6.3,0,0,0-2.67,5.26,6.12,6.12,0,0,0,2.09,4.61q2.31,1.93,10,4.6t11.2,6.52A13.93,13.93,0,0,1,79.25,44.75Z" transform="translate(15.14 -5.8)" fill="#fff"/><path d="M102.22,59.65a17.4,17.4,0,0,1-13-5.33,19,19,0,0,1-5.11-13.46A18.65,18.65,0,0,1,89.19,27.4a17.4,17.4,0,0,1,13-5.33A16.16,16.16,0,0,1,117.7,32.22l-6,2.52q-2.81-6.63-9.86-6.62a10.24,10.24,0,0,0-7.85,3.67,13.22,13.22,0,0,0-3.24,9.07,13.22,13.22,0,0,0,3.24,9.07,10.24,10.24,0,0,0,7.85,3.67A10.36,10.36,0,0,0,112,47l5.91,2.52A15.82,15.82,0,0,1,111.83,57,17.19,17.19,0,0,1,102.22,59.65Z" transform="translate(15.14 -5.8)" fill="#fff"/><path d="M154.64,58.5H148.3V53.6H148a11.74,11.74,0,0,1-4.64,4.32,13.24,13.24,0,0,1-6.52,1.73q-6.48,0-10-3.71T123.39,45.4V23.22H130V45q.23,8.64,8.71,8.64a8.28,8.28,0,0,0,6.63-3.2A11.64,11.64,0,0,0,148,42.73V23.22h6.63Z" transform="translate(15.14 -5.8)" fill="#fff"/><path d="M169.32,58.5H162.7V23.22H169v4.9h.28A11.77,11.77,0,0,1,174,23.8a12.72,12.72,0,0,1,6.23-1.73,12.88,12.88,0,0,1,6.84,1.8,10.67,10.67,0,0,1,4.32,5,13.73,13.73,0,0,1,12.16-6.77q6.12,0,9.44,3.74t3.31,10.66v22h-6.63v-21c0-3.32-.6-5.7-1.8-7.17s-3.21-2.19-6-2.19a7.91,7.91,0,0,0-6.41,3.24A11.83,11.83,0,0,0,192.8,39V58.5h-6.63v-21c0-3.32-.6-5.7-1.8-7.17s-3.21-2.19-6.05-2.19a7.89,7.89,0,0,0-6.4,3.24,11.84,11.84,0,0,0-2.6,7.63Z" transform="translate(15.14 -5.8)" fill="#fff"/><path d="M230.67,58.5H224V23.22h6.34v4.9h.29a11.74,11.74,0,0,1,4.64-4.32,12.75,12.75,0,0,1,6.23-1.73,12.88,12.88,0,0,1,6.84,1.8,10.56,10.56,0,0,1,4.32,5,13.75,13.75,0,0,1,12.17-6.77q6.12,0,9.43,3.74t3.31,10.66v22H271v-21c0-3.32-.6-5.7-1.8-7.17s-3.22-2.19-6.05-2.19a7.91,7.91,0,0,0-6.41,3.24A11.83,11.83,0,0,0,254.14,39V58.5h-6.62v-21c0-3.32-.6-5.7-1.8-7.17s-3.22-2.19-6.05-2.19a7.91,7.91,0,0,0-6.41,3.24A11.83,11.83,0,0,0,230.67,39Z" transform="translate(15.14 -5.8)" fill="#fff"/></g></svg>