<svg xmlns="http://www.w3.org/2000/svg" viewBox="0 0 293.55 428.6"><title>sega32x</title><g id="Layer_3" data-name="Layer 3"><circle cx="147.07" cy="86.2" r="8.2" fill="#fff"/><line x1="4.57" y1="122.7" x2="289.57" y2="122.7" fill="none"/><rect x="4.57" y="119.7" width="285" height="6" fill="#fff"/><line x1="4.57" y1="379.2" x2="289.57" y2="379.2" fill="none"/><rect x="4.57" y="376.2" width="285" height="6" fill="#fff"/><circle cx="147.07" cy="420.4" r="8.2" fill="#fff"/></g><g id="NEW_TEXT" data-name="NEW TEXT"><path d="M53.73,159.28v102.6H39.93v-85.5L20,185.08l-5.25-11.7,30.15-14.1Z" transform="translate(-14.73 -5.8)" fill="#fff"/><path d="M104.43,224.38q-12.32,0-22.35-9.75a32.51,32.51,0,0,1-9.75-23.4q0-13.95,10.5-24,10.49-10.35,24.6-10.35a34.07,34.07,0,0,1,25,10.2,33,33,0,0,1,10.2,24.15q0,12.45-10.05,28.35l-29.85,44.7-11.1-7.65L117,221.53l-.3-.3Q111.92,224.38,104.43,224.38Zm24.3-33.3a20,20,0,0,0-6.3-14.85,21.37,21.37,0,0,0-30,0,21,21,0,0,0,0,29.7,21.37,21.37,0,0,0,30,0A19.67,19.67,0,0,0,128.73,191.08Z" transform="translate(-14.73 -5.8)" fill="#fff"/><path d="M186.77,224.38q-12.3,0-22.35-9.75a32.55,32.55,0,0,1-9.75-23.4q0-13.95,10.5-24,10.5-10.35,24.6-10.35a34.05,34.05,0,0,1,25,10.2A33,33,0,0,1,225,191.23q0,12.45-10.05,28.35l-29.84,44.7L174,256.63l25.36-35.1-.31-.3Q194.27,224.38,186.77,224.38Zm24.3-33.3a20,20,0,0,0-6.3-14.85,21.11,21.11,0,1,0-30,29.7,21.37,21.37,0,0,0,30,0A19.67,19.67,0,0,0,211.07,191.08Z" transform="translate(-14.73 -5.8)" fill="#fff"/><path d="M295.07,240.28v21.6h-13.8v-21.6H232.52v-10.5l47.55-70.5h15v68.1h13.2v12.9Zm-46.95-12.9h33.15V179.53h-.6Z" transform="translate(-14.73 -5.8)" fill="#fff"/><path d="M136.57,339.48a13.89,13.89,0,0,1-4.83,10.8,16.9,16.9,0,0,1-11.81,4.32,16.41,16.41,0,0,1-10-3.31,16.81,16.81,0,0,1-6.12-9l6-2.52a12.33,12.33,0,0,0,3.78,6.3,9.53,9.53,0,0,0,6.3,2.19,10.43,10.43,0,0,0,7-2.52,8.11,8.11,0,0,0,2.88-6.26,7.75,7.75,0,0,0-3-6.19,10.6,10.6,0,0,0-7.12-2.52H115.4v-6.19h3.74a9.53,9.53,0,0,0,6.48-2.2,7.22,7.22,0,0,0,2.52-5.72,6.57,6.57,0,0,0-2.37-5.26,9.41,9.41,0,0,0-6.27-2q-6.25,0-8.57,6.41l-6.12-2.59a15.37,15.37,0,0,1,5.55-7.34,15.14,15.14,0,0,1,9.14-2.81,16.15,16.15,0,0,1,11,3.89,12.18,12.18,0,0,1,4.39,9.72q0,7.13-6.62,10.58v.29a13.76,13.76,0,0,1,6.08,4.82A12.25,12.25,0,0,1,136.57,339.48Z" transform="translate(-14.73 -5.8)" fill="#fff"/><path d="M173.72,347.11v6.34h-31.4v-6.63l12.75-12.88a113.16,113.16,0,0,0,8.85-9.83,11.3,11.3,0,0,0,2.45-6.88,7.23,7.23,0,0,0-2.52-5.54,9.22,9.22,0,0,0-6.48-2.31,8.91,8.91,0,0,0-5.83,2,9.11,9.11,0,0,0-3.17,4.89l-6.05-2.44a15.81,15.81,0,0,1,15.2-10.8,15.9,15.9,0,0,1,11.16,4.1,13.19,13.19,0,0,1,4.46,10.08q0,7.13-7.85,15.41l-14.4,14.47Z" transform="translate(-14.73 -5.8)" fill="#fff"/><path d="M185.81,353.45H178l17.28-26.64L179,301.9H187l12.53,19.72h.29l12.53-19.72h7.92L204,326.81l17.28,26.64h-7.78l-13.68-21.1h-.29Z" transform="translate(-14.73 -5.8)" fill="#fff"/><path d="M120.51,44.75a13.41,13.41,0,0,1-5,10.87,19,19,0,0,1-12.24,4A18.11,18.11,0,0,1,92,55.91a19.15,19.15,0,0,1-6.77-10.23l6.33-2.59a17,17,0,0,0,1.8,4.18,13.64,13.64,0,0,0,2.7,3.2,12.33,12.33,0,0,0,3.42,2.09,10.57,10.57,0,0,0,4,.76A11.38,11.38,0,0,0,110.86,51a7.63,7.63,0,0,0,2.88-6.23,7.45,7.45,0,0,0-2.38-5.55Q109.14,37,103,34.88a81.78,81.78,0,0,1-7.7-3q-8.2-4.17-8.21-12.31a12.55,12.55,0,0,1,4.54-9.72,16.54,16.54,0,0,1,11.3-4,17.35,17.35,0,0,1,10.23,3,14.19,14.19,0,0,1,5.75,7.42l-6.19,2.59A9.09,9.09,0,0,0,109.31,14a11.06,11.06,0,0,0-12.78.25,6.32,6.32,0,0,0-2.66,5.26A6.09,6.09,0,0,0,96,24.16q2.3,1.93,10,4.6,7.86,2.67,11.2,6.52A13.93,13.93,0,0,1,120.51,44.75Z" transform="translate(-14.73 -5.8)" fill="#fff"/><path d="M143.19,59.65a16.85,16.85,0,0,1-12.82-5.33,18.81,18.81,0,0,1-5-13.46,19.14,19.14,0,0,1,4.9-13.43,16.22,16.22,0,0,1,12.53-5.36q7.85,0,12.49,5.07t4.64,14.22l-.07.72H132.1a11.53,11.53,0,0,0,3.46,8.36,11,11,0,0,0,7.92,3.16q6.33,0,9.93-6.33l5.91,2.88a17.66,17.66,0,0,1-6.59,7A18.23,18.23,0,0,1,143.19,59.65Zm-10.59-23h20.24a8.81,8.81,0,0,0-3-6.08,10.45,10.45,0,0,0-7.24-2.41,9.58,9.58,0,0,0-6.44,2.3A11,11,0,0,0,132.6,36.61Z" transform="translate(-14.73 -5.8)" fill="#fff"/><path d="M181.92,75.2a19.88,19.88,0,0,1-5.54-.75,18.25,18.25,0,0,1-4.72-2.13A15.27,15.27,0,0,1,168,69.08a13.74,13.74,0,0,1-2.31-4.17L172,62.32a10,10,0,0,0,3.74,5,10.5,10.5,0,0,0,6.19,1.88q5.4,0,8.43-3.24t3-8.93V53.6h-.29A13,13,0,0,1,188,58a15.22,15.22,0,0,1-6.95,1.62,15.59,15.59,0,0,1-11.88-5.4,19.54,19.54,0,0,1-4.9-13.39,19.29,19.29,0,0,1,4.9-13.32,15.49,15.49,0,0,1,11.88-5.47A15.22,15.22,0,0,1,188,23.69a13,13,0,0,1,5.07,4.43h.29v-4.9h6.34V57q0,8.49-4.83,13.32T181.92,75.2Zm.22-21.6a10.14,10.14,0,0,0,8-3.52,13.12,13.12,0,0,0,3.24-9.22,13.13,13.13,0,0,0-3.24-9.14,10.18,10.18,0,0,0-8-3.6,10.32,10.32,0,0,0-8,3.6,13.13,13.13,0,0,0-3.24,9.14A13,13,0,0,0,174.15,50,10.32,10.32,0,0,0,182.14,53.6Z" transform="translate(-14.73 -5.8)" fill="#fff"/><path d="M220.8,22.07q7.35,0,11.6,3.92t4.24,10.77V58.5h-6.33V53.6H230q-4.11,6.06-10.94,6a14.26,14.26,0,0,1-9.76-3.45,11,11,0,0,1-3.92-8.64,10.47,10.47,0,0,1,4.14-8.72q4.13-3.24,11.05-3.24a19.59,19.59,0,0,1,9.72,2.16V36.25a7.54,7.54,0,0,0-2.74-5.87A9.41,9.41,0,0,0,221.16,28a10.15,10.15,0,0,0-8.78,4.68L206.55,29Q211.36,22.07,220.8,22.07ZM212.24,47.7A5.29,5.29,0,0,0,214.43,52a8.11,8.11,0,0,0,5.15,1.73,10.53,10.53,0,0,0,7.45-3.1,9.71,9.71,0,0,0,3.28-7.27q-3.1-2.45-8.64-2.45a11.19,11.19,0,0,0-6.73,2A5.76,5.76,0,0,0,212.24,47.7Z" transform="translate(-14.73 -5.8)" fill="#fff"/></g></svg>