<svg xmlns="http://www.w3.org/2000/svg" viewBox="0 0 305.4 428.03"><title>sfc</title><g id="Layer_3" data-name="Layer 3"><circle cx="153" cy="85.63" r="8.2" fill="#fff"/><line x1="10.5" y1="122.13" x2="295.5" y2="122.13" fill="none"/><rect x="10.5" y="119.13" width="285" height="6" fill="#fff"/><line x1="10.5" y1="378.63" x2="295.5" y2="378.63" fill="none"/><rect x="10.5" y="375.63" width="285" height="6" fill="#fff"/><circle cx="153" cy="419.83" r="8.2" fill="#fff"/></g><g id="NEW_TEXT" data-name="NEW TEXT"><path d="M47.8,159.28v102.6H34v-85.5l-19.95,8.7L8.8,173.38,39,159.28Z" transform="translate(-8.8 -6.37)" fill="#fff"/><path d="M98.5,224.38q-12.3,0-22.35-9.75a32.55,32.55,0,0,1-9.75-23.4q0-13.95,10.5-24,10.5-10.35,24.6-10.35a34.05,34.05,0,0,1,25,10.2,33,33,0,0,1,10.2,24.15q0,12.45-10,28.35l-29.85,44.7-11.1-7.65,25.35-35.1-.3-.3Q106,224.38,98.5,224.38Zm24.3-33.3a20,20,0,0,0-6.3-14.85,21.37,21.37,0,0,0-30,0,21,21,0,0,0,0,29.7,21.37,21.37,0,0,0,30,0A19.67,19.67,0,0,0,122.8,191.08Z" transform="translate(-8.8 -6.37)" fill="#fff"/><path d="M180.85,224.38q-12.3,0-22.35-9.75a32.55,32.55,0,0,1-9.75-23.4q0-13.95,10.5-24,10.5-10.35,24.6-10.35a34.05,34.05,0,0,1,25.05,10.2,33,33,0,0,1,10.2,24.15q0,12.45-10,28.35l-29.85,44.7-11.1-7.65,25.35-35.1-.3-.3Q188.35,224.38,180.85,224.38Zm24.3-33.3a20,20,0,0,0-6.3-14.85,21.11,21.11,0,1,0-30,29.7,21.37,21.37,0,0,0,30,0A19.67,19.67,0,0,0,205.15,191.08Z" transform="translate(-8.8 -6.37)" fill="#fff"/><path d="M231.7,210.58q0-23.4,11.55-38.55T273,156.88q18.15,0,29.7,15.3,11.55,15.15,11.55,38.4,0,23.1-11.55,38.55Q291.1,264.28,273,264.28t-29.7-15.15Q231.7,233.68,231.7,210.58Zm68.4,0q0-17.7-7.5-29.1T273,170.08q-12.3,0-19.65,11.4-7.5,11.4-7.5,29.1t7.5,29.25q7.35,11.25,19.65,11.25t19.65-11.4Q300.1,228.13,300.1,210.58Z" transform="translate(-8.8 -6.37)" fill="#fff"/><path d="M125.2,305.15a7.81,7.81,0,0,1-2.9,6.34,11.06,11.06,0,0,1-7.14,2.35,10.51,10.51,0,0,1-6.59-2.18,11.15,11.15,0,0,1-3.95-6l3.69-1.52a10.15,10.15,0,0,0,1,2.44,8,8,0,0,0,1.58,1.87,7.3,7.3,0,0,0,2,1.22,6.2,6.2,0,0,0,2.31.44,6.64,6.64,0,0,0,4.33-1.37,4.44,4.44,0,0,0,1.68-3.63,4.31,4.31,0,0,0-1.39-3.23A13,13,0,0,0,115,299.4c-2.41-.87-3.9-1.46-4.49-1.77-3.19-1.62-4.79-4-4.79-7.18a7.31,7.31,0,0,1,2.65-5.67,9.64,9.64,0,0,1,6.59-2.35,10.15,10.15,0,0,1,6,1.76,8.26,8.26,0,0,1,3.36,4.33L120.66,290a5.31,5.31,0,0,0-2-2.79,6,6,0,0,0-3.64-1.12,5.88,5.88,0,0,0-3.82,1.26,3.7,3.7,0,0,0-1.55,3.07,3.53,3.53,0,0,0,1.22,2.69,21.17,21.17,0,0,0,5.83,2.69,14.85,14.85,0,0,1,6.54,3.8A8.13,8.13,0,0,1,125.2,305.15Z" transform="translate(-8.8 -6.37)" fill="#fff"/><path d="M146.62,313.17h-3.7v-2.85h-.17a6.92,6.92,0,0,1-2.71,2.52,7.74,7.74,0,0,1-3.8,1,7.58,7.58,0,0,1-5.81-2.16,8.61,8.61,0,0,1-2-6.15V292.59h3.86v12.69c.09,3.36,1.78,5,5.09,5a4.85,4.85,0,0,0,3.86-1.87,6.77,6.77,0,0,0,1.55-4.48V292.59h3.87Z" transform="translate(-8.8 -6.37)" fill="#fff"/><path d="M162,313.84a9,9,0,0,1-4.14-1,7.32,7.32,0,0,1-2.87-2.56h-.17l.17,2.85v9.07h-3.87V292.59h3.7v2.86H155a7.17,7.17,0,0,1,2.87-2.56,9.13,9.13,0,0,1,11,2.22,11.86,11.86,0,0,1,0,15.54A8.83,8.83,0,0,1,162,313.84Zm-.63-3.52a6,6,0,0,0,4.66-2.1,7.6,7.6,0,0,0,1.89-5.34,7.67,7.67,0,0,0-1.89-5.33,6.26,6.26,0,0,0-9.36,0,8.68,8.68,0,0,0,0,10.71A6.13,6.13,0,0,0,161.4,310.32Z" transform="translate(-8.8 -6.37)" fill="#fff"/><path d="M184.58,313.84a9.84,9.84,0,0,1-7.47-3.1,11,11,0,0,1-2.94-7.86,11.15,11.15,0,0,1,2.86-7.83,10.26,10.26,0,0,1,14.59-.17q2.72,3,2.71,8.3l0,.42H178.12a6.67,6.67,0,0,0,2,4.87,6.47,6.47,0,0,0,4.62,1.85c2.47,0,4.4-1.24,5.8-3.7L194,308.3a10.18,10.18,0,0,1-3.84,4.07A10.63,10.63,0,0,1,184.58,313.84Zm-6.17-13.44h11.8a5.13,5.13,0,0,0-1.74-3.55,6.14,6.14,0,0,0-4.22-1.4,5.62,5.62,0,0,0-3.76,1.34A6.46,6.46,0,0,0,178.41,300.4Z" transform="translate(-8.8 -6.37)" fill="#fff"/><path d="M201.72,313.17h-3.86V292.59h3.69V296h.17a5.57,5.57,0,0,1,2.42-2.79,6.68,6.68,0,0,1,3.59-1.16,7.12,7.12,0,0,1,2.85.51l-1.17,3.74a6.33,6.33,0,0,0-2.27-.3,5,5,0,0,0-3.8,1.77,5.87,5.87,0,0,0-1.62,4.11Z" transform="translate(-8.8 -6.37)" fill="#fff"/><path d="M84.73,350.68v12.89H80.87V333.5H98.42v3.7H84.73v9.87H97.08v3.61Z" transform="translate(-8.8 -6.37)" fill="#fff"/><path d="M109.09,342.32a9.55,9.55,0,0,1,6.76,2.29,8.14,8.14,0,0,1,2.48,6.28v12.68h-3.7v-2.85h-.16a7.38,7.38,0,0,1-6.39,3.52,8.31,8.31,0,0,1-5.69-2,6.48,6.48,0,0,1-2.29-5,6.12,6.12,0,0,1,2.42-5.08,10.17,10.17,0,0,1,6.44-1.89,11.39,11.39,0,0,1,5.67,1.26v-.89a4.41,4.41,0,0,0-1.59-3.42,5.48,5.48,0,0,0-3.74-1.41,5.91,5.91,0,0,0-5.12,2.73l-3.41-2.14A9.49,9.49,0,0,1,109.09,342.32Zm-5,14.95a3.09,3.09,0,0,0,1.28,2.52,4.75,4.75,0,0,0,3,1,6.12,6.12,0,0,0,4.34-1.81,5.61,5.61,0,0,0,1.91-4.24,7.93,7.93,0,0,0-5-1.43,6.52,6.52,0,0,0-3.92,1.14A3.36,3.36,0,0,0,104.09,357.27Z" transform="translate(-8.8 -6.37)" fill="#fff"/><path d="M126.56,363.57H122.7V343h3.69v2.86h.17a6.85,6.85,0,0,1,2.71-2.52,7.55,7.55,0,0,1,7.62,0,6.19,6.19,0,0,1,2.52,2.9,8,8,0,0,1,7.1-3.95,7,7,0,0,1,5.5,2.18,9.09,9.09,0,0,1,1.94,6.22v12.85h-3.87V351.31a6.6,6.6,0,0,0-1.05-4.18,4.33,4.33,0,0,0-3.53-1.28,4.6,4.6,0,0,0-3.73,1.89,6.9,6.9,0,0,0-1.52,4.45v11.38h-3.86V351.31a6.6,6.6,0,0,0-1-4.18,4.34,4.34,0,0,0-3.53-1.28,4.63,4.63,0,0,0-3.74,1.89,7,7,0,0,0-1.51,4.45Z" transform="translate(-8.8 -6.37)" fill="#fff"/><path d="M163.48,335.89a2.67,2.67,0,0,1-.8,1.94,2.75,2.75,0,0,1-3.86,0,2.74,2.74,0,0,1,0-3.87,2.73,2.73,0,0,1,4.66,1.93Zm-.8,7.1v20.58h-3.86V343Z" transform="translate(-8.8 -6.37)" fill="#fff"/><path d="M176.92,364.24a10.15,10.15,0,0,1-7.6-3.1,11.08,11.08,0,0,1-3-7.86,10.87,10.87,0,0,1,3-7.85,10.16,10.16,0,0,1,7.6-3.11,9.66,9.66,0,0,1,5.5,1.58,9.54,9.54,0,0,1,3.53,4.34l-3.53,1.47a5.81,5.81,0,0,0-5.75-3.86,6,6,0,0,0-4.58,2.14,8.35,8.35,0,0,0,0,10.58,6,6,0,0,0,4.58,2.15,6,6,0,0,0,6-3.87l3.45,1.47a9.24,9.24,0,0,1-3.55,4.35A10,10,0,0,1,176.92,364.24Z" transform="translate(-8.8 -6.37)" fill="#fff"/><path d="M188.05,353.28a10.87,10.87,0,0,1,3-7.85,10.18,10.18,0,0,1,7.6-3.11,10,10,0,0,1,7.56,3.11,11.7,11.7,0,0,1,0,15.71,10,10,0,0,1-7.56,3.1,10.17,10.17,0,0,1-7.6-3.1A10.9,10.9,0,0,1,188.05,353.28Zm3.86,0a7.54,7.54,0,0,0,1.94,5.38,6.59,6.59,0,0,0,9.57,0,8.39,8.39,0,0,0,0-10.71,6.5,6.5,0,0,0-9.57,0A7.47,7.47,0,0,0,191.91,353.28Z" transform="translate(-8.8 -6.37)" fill="#fff"/><path d="M216.19,363.57h-3.86V343H216v2.86h.17a6.85,6.85,0,0,1,2.71-2.52,7.55,7.55,0,0,1,7.62,0,6.19,6.19,0,0,1,2.52,2.9,8,8,0,0,1,7.1-3.95,7,7,0,0,1,5.5,2.18,9.09,9.09,0,0,1,1.93,6.22v12.85h-3.86V351.31a6.6,6.6,0,0,0-1.05-4.18,4.34,4.34,0,0,0-3.53-1.28,4.63,4.63,0,0,0-3.74,1.89,7,7,0,0,0-1.51,4.45v11.38H226V351.31a6.6,6.6,0,0,0-1.05-4.18,4.34,4.34,0,0,0-3.53-1.28,4.63,4.63,0,0,0-3.74,1.89,6.89,6.89,0,0,0-1.51,4.45Z" transform="translate(-8.8 -6.37)" fill="#fff"/><path d="M29.93,58.5H23.31V7h8.06l25.06,40.1h.29l-.29-9.93V7h6.62V58.5H56.14l-26.21-42h-.28l.28,9.94Z" transform="translate(-8.8 -6.37)" fill="#fff"/><path d="M80.84,11.05a4.51,4.51,0,0,1-1.37,3.31,4.68,4.68,0,0,1-8-3.31,4.68,4.68,0,1,1,9.36,0ZM79.47,23.22V58.5H72.84V23.22Z" transform="translate(-8.8 -6.37)" fill="#fff"/><path d="M88.11,23.22h6.33v4.9h.29a11.77,11.77,0,0,1,4.65-4.32,13.2,13.2,0,0,1,6.51-1.73q6.48,0,10,3.71t3.5,10.54V58.5h-6.63V36.76q-.21-8.64-8.71-8.64a8.25,8.25,0,0,0-6.62,3.2A11.6,11.6,0,0,0,94.73,39V58.5H88.11Z" transform="translate(-8.8 -6.37)" fill="#fff"/><path d="M139.3,59.08a10,10,0,0,1-7.16-2.67A9.87,9.87,0,0,1,129.22,49V29.27H123V23.22h6.19V12.42h6.62v10.8h8.64v6.05h-8.64V46.84q0,3.52,1.37,4.78a4.46,4.46,0,0,0,3.1,1.26,6.7,6.7,0,0,0,1.55-.18,8.21,8.21,0,0,0,1.4-.46l2.09,5.9A17.92,17.92,0,0,1,139.3,59.08Z" transform="translate(-8.8 -6.37)" fill="#fff"/><path d="M166.3,59.65a16.86,16.86,0,0,1-12.82-5.33,18.81,18.81,0,0,1-5-13.46,19.19,19.19,0,0,1,4.9-13.43,16.22,16.22,0,0,1,12.53-5.36q7.84,0,12.49,5.07T183,41.36l-.07.72H155.21a11.53,11.53,0,0,0,3.46,8.36,11.06,11.06,0,0,0,7.92,3.16q6.33,0,9.93-6.33l5.91,2.88a17.66,17.66,0,0,1-6.59,7A18.23,18.23,0,0,1,166.3,59.65Zm-10.58-23H176a8.77,8.77,0,0,0-3-6.08,10.45,10.45,0,0,0-7.24-2.41,9.58,9.58,0,0,0-6.44,2.3A11,11,0,0,0,155.72,36.61Z" transform="translate(-8.8 -6.37)" fill="#fff"/><path d="M189.05,23.22h6.34v4.9h.29a11.67,11.67,0,0,1,4.64-4.32,13.24,13.24,0,0,1,6.52-1.73q6.48,0,10,3.71t3.49,10.54V58.5h-6.62V36.76q-.23-8.64-8.72-8.64a8.26,8.26,0,0,0-6.62,3.2A11.59,11.59,0,0,0,195.68,39V58.5h-6.63Z" transform="translate(-8.8 -6.37)" fill="#fff"/><path d="M242.83,59.65A15.49,15.49,0,0,1,231,54.18a19.42,19.42,0,0,1-4.9-13.32A19.42,19.42,0,0,1,231,27.54a15.49,15.49,0,0,1,11.87-5.47,15.28,15.28,0,0,1,7.1,1.65,12.45,12.45,0,0,1,4.93,4.4h.29l-.29-4.9V7h6.62V58.5h-6.33V53.6h-.29a12.45,12.45,0,0,1-4.93,4.4A15.28,15.28,0,0,1,242.83,59.65Zm1.09-6a10.15,10.15,0,0,0,8-3.52,13.12,13.12,0,0,0,3.24-9.22,13.13,13.13,0,0,0-3.24-9.14,10.21,10.21,0,0,0-8-3.6,10.34,10.34,0,0,0-8,3.6,13.13,13.13,0,0,0-3.24,9.14A13,13,0,0,0,235.92,50,10.34,10.34,0,0,0,243.92,53.6Z" transform="translate(-8.8 -6.37)" fill="#fff"/><path d="M267.17,40.86a18.65,18.65,0,0,1,5.11-13.46,17.41,17.41,0,0,1,13-5.33,17.17,17.17,0,0,1,13,5.33,18.54,18.54,0,0,1,5.18,13.46,18.37,18.37,0,0,1-5.18,13.46,17.17,17.17,0,0,1-13,5.33,17.41,17.41,0,0,1-13-5.33A18.65,18.65,0,0,1,267.17,40.86Zm6.62,0a12.94,12.94,0,0,0,3.32,9.22,11.32,11.32,0,0,0,16.41,0,12.94,12.94,0,0,0,3.31-9.22,12.8,12.8,0,0,0-3.31-9.14,11.15,11.15,0,0,0-16.41,0A12.81,12.81,0,0,0,273.79,40.86Z" transform="translate(-8.8 -6.37)" fill="#fff"/></g></svg>