<svg xmlns="http://www.w3.org/2000/svg" viewBox="0 0 289.2 428.6"><title>sg-1000</title><g id="Layer_3" data-name="Layer 3"><circle cx="144.6" cy="86.2" r="8.2" fill="#fff"/><line x1="2.1" y1="122.7" x2="287.1" y2="122.7" fill="none"/><rect x="2.1" y="119.7" width="285" height="6" fill="#fff"/><line x1="2.1" y1="379.2" x2="287.1" y2="379.2" fill="none"/><rect x="2.1" y="376.2" width="285" height="6" fill="#fff"/><circle cx="144.6" cy="420.4" r="8.2" fill="#fff"/></g><g id="TEXT_LAYER" data-name="TEXT LAYER"><path d="M120.51,44.75a13.41,13.41,0,0,1-5,10.87,19,19,0,0,1-12.24,4A18.11,18.11,0,0,1,92,55.91a19.15,19.15,0,0,1-6.77-10.23l6.33-2.59a17,17,0,0,0,1.8,4.18,13.64,13.64,0,0,0,2.7,3.2,12.33,12.33,0,0,0,3.42,2.09,10.57,10.57,0,0,0,4,.76A11.38,11.38,0,0,0,110.86,51a7.63,7.63,0,0,0,2.88-6.23,7.45,7.45,0,0,0-2.38-5.55Q109.14,37,103,34.88a81.78,81.78,0,0,1-7.7-3q-8.2-4.17-8.21-12.31a12.55,12.55,0,0,1,4.54-9.72,16.54,16.54,0,0,1,11.3-4,17.35,17.35,0,0,1,10.23,3,14.19,14.19,0,0,1,5.75,7.42l-6.19,2.59A9.09,9.09,0,0,0,109.31,14a11.06,11.06,0,0,0-12.78.25,6.32,6.32,0,0,0-2.66,5.26A6.09,6.09,0,0,0,96,24.16q2.3,1.93,10,4.6,7.86,2.67,11.2,6.52A13.93,13.93,0,0,1,120.51,44.75Z" transform="translate(-17.2 -5.8)" fill="#fff"/><path d="M143.19,59.65a16.85,16.85,0,0,1-12.82-5.33,18.81,18.81,0,0,1-5-13.46,19.14,19.14,0,0,1,4.9-13.43,16.22,16.22,0,0,1,12.53-5.36q7.85,0,12.49,5.07t4.64,14.22l-.07.72H132.1a11.53,11.53,0,0,0,3.46,8.36,11,11,0,0,0,7.92,3.16q6.33,0,9.93-6.33l5.91,2.88a17.66,17.66,0,0,1-6.59,7A18.23,18.23,0,0,1,143.19,59.65Zm-10.59-23h20.24a8.81,8.81,0,0,0-3-6.08,10.45,10.45,0,0,0-7.24-2.41,9.58,9.58,0,0,0-6.44,2.3A11,11,0,0,0,132.6,36.61Z" transform="translate(-17.2 -5.8)" fill="#fff"/><path d="M181.92,75.2a19.83,19.83,0,0,1-5.54-.75,17.92,17.92,0,0,1-4.72-2.13A15.27,15.27,0,0,1,168,69.08a13.62,13.62,0,0,1-2.31-4.17L172,62.32a9.91,9.91,0,0,0,3.74,5,10.5,10.5,0,0,0,6.19,1.88q5.4,0,8.43-3.24t3-8.93V53.6h-.29A13,13,0,0,1,188,58a15.22,15.22,0,0,1-6.95,1.62,15.59,15.59,0,0,1-11.88-5.4,19.54,19.54,0,0,1-4.9-13.39,19.29,19.29,0,0,1,4.9-13.32,15.49,15.49,0,0,1,11.88-5.47A15.22,15.22,0,0,1,188,23.69a13,13,0,0,1,5.07,4.43h.29v-4.9h6.34V57q0,8.49-4.83,13.32T181.92,75.2Zm.22-21.6a10.14,10.14,0,0,0,8-3.52,13.12,13.12,0,0,0,3.24-9.22,13.13,13.13,0,0,0-3.24-9.14,10.19,10.19,0,0,0-8-3.6,10.32,10.32,0,0,0-8,3.6,13.13,13.13,0,0,0-3.24,9.14A13,13,0,0,0,174.15,50,10.32,10.32,0,0,0,182.14,53.6Z" transform="translate(-17.2 -5.8)" fill="#fff"/><path d="M220.8,22.07q7.35,0,11.6,3.92t4.24,10.77V58.5h-6.33V53.6H230q-4.11,6.06-10.94,6a14.24,14.24,0,0,1-9.76-3.45,11,11,0,0,1-3.92-8.64,10.47,10.47,0,0,1,4.14-8.72q4.13-3.24,11.05-3.24a19.59,19.59,0,0,1,9.72,2.16V36.25a7.57,7.57,0,0,0-2.74-5.87A9.41,9.41,0,0,0,221.16,28a10.15,10.15,0,0,0-8.78,4.68L206.55,29Q211.36,22.07,220.8,22.07ZM212.24,47.7A5.29,5.29,0,0,0,214.43,52a8.09,8.09,0,0,0,5.15,1.73,10.53,10.53,0,0,0,7.45-3.1,9.71,9.71,0,0,0,3.28-7.27q-3.1-2.45-8.64-2.45a11.19,11.19,0,0,0-6.73,2A5.74,5.74,0,0,0,212.24,47.7Z" transform="translate(-17.2 -5.8)" fill="#fff"/><path d="M56.2,159.28v102.6H42.4v-85.5l-19.95,8.7-5.25-11.7,30.15-14.1Z" transform="translate(-17.2 -5.8)" fill="#fff"/><path d="M106.9,224.38q-12.3,0-22.35-9.75a32.53,32.53,0,0,1-9.75-23.4q0-13.95,10.5-24,10.5-10.35,24.6-10.35a34.05,34.05,0,0,1,25,10.2,33,33,0,0,1,10.2,24.15q0,12.47-10.05,28.35l-29.85,44.7-11.1-7.65,25.35-35.1-.3-.3Q114.4,224.38,106.9,224.38Zm24.3-33.3a20,20,0,0,0-6.3-14.85,21.37,21.37,0,0,0-30,0,21,21,0,0,0,0,29.7,21.37,21.37,0,0,0,30,0A19.65,19.65,0,0,0,131.2,191.08Z" transform="translate(-17.2 -5.8)" fill="#fff"/><path d="M226.75,233.53a27.74,27.74,0,0,1-10.05,21.9q-10.2,8.85-24.75,8.85t-24.75-8.85a27.74,27.74,0,0,1-10-21.9,26.48,26.48,0,0,1,4.35-14.77A30,30,0,0,1,174,208.18v-.6a32,32,0,0,1-9.67-9.6,21.72,21.72,0,0,1-3.68-12,27.6,27.6,0,0,1,8.85-20.85q8.7-8.24,22.5-8.25t22.5,8.25A27.6,27.6,0,0,1,223.3,186a21.87,21.87,0,0,1-3.67,12,32.24,32.24,0,0,1-9.68,9.6v.6a30,30,0,0,1,12.45,10.58A26.48,26.48,0,0,1,226.75,233.53Zm-55.5-.75a17,17,0,0,0,1.57,7.35,18.2,18.2,0,0,0,4.36,5.78,19.58,19.58,0,0,0,6.52,3.82,25.88,25.88,0,0,0,16.5,0,19.69,19.69,0,0,0,6.52-3.82,18,18,0,0,0,4.35-5.78,16.68,16.68,0,0,0,1.58-7.35,16.21,16.21,0,0,0-6-12.9,21.54,21.54,0,0,0-14.7-5.25,22.1,22.1,0,0,0-14.85,5.25A16.66,16.66,0,0,0,171.25,232.78Zm3.45-47.1a15.08,15.08,0,0,0,4.8,11.63q4.8,4.42,12.45,4.42t12.45-4.42a15.08,15.08,0,0,0,4.8-11.63q0-7.2-4.8-11.4c-3.2-2.79-7.35-4.2-12.45-4.2s-9.25,1.41-12.45,4.2S174.7,180.88,174.7,185.68Z" transform="translate(-17.2 -5.8)" fill="#fff"/><path d="M306.4,232.78a29,29,0,0,1-10,22.5q-9.9,9-24.6,9a34.14,34.14,0,0,1-20.85-6.9,35.07,35.07,0,0,1-12.75-18.75l12.6-5.25q2.4,8.55,7.87,13.13a19.81,19.81,0,0,0,13.13,4.57,21.69,21.69,0,0,0,14.55-5.25,16.93,16.93,0,0,0,6-13.05,16.18,16.18,0,0,0-6.3-12.9,22.1,22.1,0,0,0-14.85-5.25H262.3v-12.9h7.8q8.25,0,13.5-4.57a15.08,15.08,0,0,0,5.25-11.93,13.68,13.68,0,0,0-5-10.95c-3.3-2.79-7.65-4.2-13-4.2q-13.05,0-17.85,13.35L240.25,178a31.73,31.73,0,0,1,30.6-21.15q13.65,0,22.95,8.1A25.36,25.36,0,0,1,303,185.23q0,14.85-13.8,22.05v.6a28.71,28.71,0,0,1,12.67,10.05A25.48,25.48,0,0,1,306.4,232.78Z" transform="translate(-17.2 -5.8)" fill="#fff"/><path d="M52.87,339.69a13.42,13.42,0,0,1-5,10.88,19,19,0,0,1-12.24,4,18.11,18.11,0,0,1-11.31-3.75,19.07,19.07,0,0,1-6.76-10.22L23.92,338a16,16,0,0,0,1.8,4.17,13.69,13.69,0,0,0,2.7,3.21,12.28,12.28,0,0,0,3.42,2.09,10.56,10.56,0,0,0,4,.75,11.38,11.38,0,0,0,7.42-2.34,7.61,7.61,0,0,0,2.88-6.23,7.42,7.42,0,0,0-2.38-5.54q-2.23-2.23-8.35-4.32t-7.7-3q-8.22-4.19-8.21-12.32A12.57,12.57,0,0,1,24,304.77a16.62,16.62,0,0,1,11.31-4,17.35,17.35,0,0,1,10.22,3,14.17,14.17,0,0,1,5.76,7.41l-6.19,2.59A9.21,9.21,0,0,0,41.67,309a10.06,10.06,0,0,0-6.23-1.91,10.07,10.07,0,0,0-6.55,2.16,6.26,6.26,0,0,0-2.66,5.25,6.08,6.08,0,0,0,2.08,4.61q2.31,1.95,10,4.61t11.2,6.52A13.91,13.91,0,0,1,52.87,339.69Z" transform="translate(-17.2 -5.8)" fill="#fff"/><path d="M110.47,329.76q0,10.8-6.41,17.21-7.2,7.62-18.94,7.63a26.93,26.93,0,1,1,0-53.86,28.71,28.71,0,0,1,10.73,2,21.39,21.39,0,0,1,8.28,5.69l-4.75,4.75a16,16,0,0,0-6.16-4.5,20.34,20.34,0,0,0-8.1-1.62,19.37,19.37,0,0,0-14.25,5.83,21.79,21.79,0,0,0,0,29.52,19.37,19.37,0,0,0,14.25,5.83,19.18,19.18,0,0,0,12.82-4.32,17.21,17.21,0,0,0,5.9-11.88H85.12v-6.19h25A22.09,22.09,0,0,1,110.47,329.76Z" transform="translate(-17.2 -5.8)" fill="#fff"/><path d="M140.42,333.86h-23v-5.47h23Z" transform="translate(-17.2 -5.8)" fill="#fff"/><path d="M163.89,304.2v49.25h-6.62v-41l-9.58,4.17L145.17,311l14.47-6.77Z" transform="translate(-17.2 -5.8)" fill="#fff"/><path d="M173.1,328.82q0-11.24,5.55-18.5a17.15,17.15,0,0,1,14.25-7.27q8.72,0,14.26,7.34t5.54,18.43q0,11.08-5.54,18.51a17.61,17.61,0,0,1-28.51,0Q173.1,339.91,173.1,328.82Zm32.84,0q0-8.49-3.6-14t-9.44-5.47q-5.9,0-9.43,5.47t-3.6,14q0,8.51,3.6,14t9.43,5.4q5.91,0,9.44-5.47T205.94,328.82Z" transform="translate(-17.2 -5.8)" fill="#fff"/><path d="M219,328.82q0-11.24,5.54-18.5a17.16,17.16,0,0,1,14.26-7.27q8.72,0,14.25,7.34t5.55,18.43q0,11.08-5.55,18.51a17.61,17.61,0,0,1-28.51,0Q219,339.91,219,328.82Zm32.83,0q0-8.49-3.6-14t-9.43-5.47q-5.91,0-9.43,5.47t-3.6,14q0,8.51,3.6,14t9.43,5.4q5.9,0,9.43-5.47T251.87,328.82Z" transform="translate(-17.2 -5.8)" fill="#fff"/><path d="M265,328.82q0-11.24,5.55-18.5a17.15,17.15,0,0,1,14.25-7.27q8.72,0,14.26,7.34t5.54,18.43q0,11.08-5.54,18.51a17.61,17.61,0,0,1-28.51,0Q265,339.91,265,328.82Zm32.84,0q0-8.49-3.6-14t-9.44-5.47q-5.89,0-9.43,5.47t-3.6,14q0,8.51,3.6,14t9.43,5.4q5.91,0,9.44-5.47T297.81,328.82Z" transform="translate(-17.2 -5.8)" fill="#fff"/></g></svg>