<svg xmlns="http://www.w3.org/2000/svg" viewBox="0 0 323.92 428.03"><title>snes</title><g id="Layer_3" data-name="Layer 3"><circle cx="162.5" cy="85.63" r="8.2" fill="#fff"/><line x1="20" y1="122.13" x2="305" y2="122.13" fill="none"/><rect x="20" y="119.13" width="285" height="6" fill="#fff"/><line x1="20" y1="378.63" x2="305" y2="378.63" fill="none"/><rect x="20" y="375.63" width="285" height="6" fill="#fff"/><circle cx="162.5" cy="419.83" r="8.2" fill="#fff"/></g><g id="NEW_TEXT" data-name="NEW TEXT"><path d="M66.85,159.28v102.6H53.05v-85.5l-19.95,8.7-5.25-11.7L58,159.28Z" transform="translate(0.7 -6.37)" fill="#fff"/><path d="M117.55,224.38q-12.3,0-22.35-9.75a32.55,32.55,0,0,1-9.75-23.4q0-13.95,10.5-24,10.5-10.35,24.6-10.35a34.05,34.05,0,0,1,25,10.2,33,33,0,0,1,10.2,24.15q0,12.45-10.05,28.35l-29.85,44.7-11.1-7.65,25.35-35.1-.3-.3Q125.05,224.38,117.55,224.38Zm24.3-33.3a20,20,0,0,0-6.3-14.85,21.37,21.37,0,0,0-30,0,21,21,0,0,0,0,29.7,21.37,21.37,0,0,0,30,0A19.67,19.67,0,0,0,141.85,191.08Z" transform="translate(0.7 -6.37)" fill="#fff"/><path d="M199.9,224.38q-12.3,0-22.35-9.75a32.55,32.55,0,0,1-9.75-23.4q0-13.95,10.5-24,10.5-10.35,24.6-10.35a34.05,34.05,0,0,1,25,10.2,33,33,0,0,1,10.2,24.15q0,12.45-10.05,28.35l-29.85,44.7-11.1-7.65,25.35-35.1-.3-.3Q207.4,224.38,199.9,224.38Zm24.3-33.3a20,20,0,0,0-6.3-14.85,21.11,21.11,0,1,0-30,29.7,21.37,21.37,0,0,0,30,0A19.67,19.67,0,0,0,224.2,191.08Z" transform="translate(0.7 -6.37)" fill="#fff"/><path d="M289.15,159.28v102.6h-13.8v-85.5l-20,8.7-5.25-11.7,30.15-14.1Z" transform="translate(0.7 -6.37)" fill="#fff"/><path d="M34.58,339.69a13.42,13.42,0,0,1-5,10.88,19,19,0,0,1-12.24,4,18.06,18.06,0,0,1-11.3-3.75A19.08,19.08,0,0,1-.7,340.63L5.63,338a16.73,16.73,0,0,0,1.8,4.17,13.69,13.69,0,0,0,2.7,3.21,12.58,12.58,0,0,0,3.42,2.09,10.56,10.56,0,0,0,4,.75,11.38,11.38,0,0,0,7.42-2.34,7.61,7.61,0,0,0,2.88-6.23,7.42,7.42,0,0,0-2.38-5.54q-2.22-2.23-8.35-4.32c-4.13-1.49-6.69-2.5-7.7-3q-8.21-4.19-8.21-12.32a12.55,12.55,0,0,1,4.54-9.72,16.59,16.59,0,0,1,11.3-4,17.33,17.33,0,0,1,10.22,3A14.17,14.17,0,0,1,33,311.18l-6.19,2.59A9.1,9.1,0,0,0,23.38,309a10.06,10.06,0,0,0-6.23-1.91,10.07,10.07,0,0,0-6.55,2.16,6.29,6.29,0,0,0-2.66,5.25A6.06,6.06,0,0,0,10,319.1q2.3,1.95,10,4.61,7.86,2.67,11.2,6.52A13.91,13.91,0,0,1,34.58,339.69Z" transform="translate(0.7 -6.37)" fill="#fff"/><path d="M71.3,353.45H65v-4.9h-.29A11.67,11.67,0,0,1,60,352.87a13.34,13.34,0,0,1-6.52,1.73q-6.48,0-10-3.71t-3.49-10.55V318.17h6.62v21.74q.22,8.64,8.72,8.64a8.29,8.29,0,0,0,6.62-3.2,11.59,11.59,0,0,0,2.66-7.67V318.17H71.3Z" transform="translate(0.7 -6.37)" fill="#fff"/><path d="M97.72,354.6a15.12,15.12,0,0,1-7.09-1.66,12.28,12.28,0,0,1-4.93-4.39h-.29l.29,4.9V369H79.07V318.17h6.34v4.89h.29a12.43,12.43,0,0,1,4.93-4.39,15.64,15.64,0,0,1,18.9,3.82,20.33,20.33,0,0,1,0,26.64A15.18,15.18,0,0,1,97.72,354.6Zm-1.08-6.05a10.32,10.32,0,0,0,8-3.6,13,13,0,0,0,3.24-9.14,13.16,13.16,0,0,0-3.24-9.15,10.74,10.74,0,0,0-16,0,14.88,14.88,0,0,0,0,18.36A10.48,10.48,0,0,0,96.64,348.55Z" transform="translate(0.7 -6.37)" fill="#fff"/><path d="M136.38,354.6a16.88,16.88,0,0,1-12.81-5.33,18.81,18.81,0,0,1-5-13.46,19.18,19.18,0,0,1,4.89-13.43A16.21,16.21,0,0,1,136,317q7.85,0,12.49,5.08t4.65,14.22L153,337H125.3a11.44,11.44,0,0,0,3.45,8.35,11,11,0,0,0,7.92,3.17q6.35,0,9.94-6.34l5.9,2.88a17.55,17.55,0,0,1-6.59,7A18.18,18.18,0,0,1,136.38,354.6Zm-10.58-23H146a8.79,8.79,0,0,0-3-6.09,10.49,10.49,0,0,0-7.23-2.41,9.6,9.6,0,0,0-6.45,2.31A11,11,0,0,0,125.8,331.56Z" transform="translate(0.7 -6.37)" fill="#fff"/><path d="M165.76,353.45h-6.62V318.17h6.33v5.76h.29a9.51,9.51,0,0,1,4.14-4.79,11.5,11.5,0,0,1,6.16-2A12.48,12.48,0,0,1,181,318l-2,6.41a11,11,0,0,0-3.89-.5,8.56,8.56,0,0,0-6.52,3,10.12,10.12,0,0,0-2.77,7.06Z" transform="translate(0.7 -6.37)" fill="#fff"/><path d="M208.89,353.45h-6.63V301.89h8.07l25,40.11h.29l-.29-9.94V301.89H242v51.56h-6.92l-26.2-42.05h-.29l.29,9.93Z" transform="translate(0.7 -6.37)" fill="#fff"/><path d="M282.47,301.89v6.34H259v16.34h21.17v6.2H259v16.34h23.47v6.34H252.38V301.89Z" transform="translate(0.7 -6.37)" fill="#fff"/><path d="M323.22,339.69a13.39,13.39,0,0,1-5,10.88,19,19,0,0,1-12.24,4,18.06,18.06,0,0,1-11.3-3.75,19.14,19.14,0,0,1-6.77-10.22l6.34-2.59a16,16,0,0,0,1.8,4.17,13.69,13.69,0,0,0,2.7,3.21,12.28,12.28,0,0,0,3.42,2.09,10.56,10.56,0,0,0,4,.75,11.37,11.37,0,0,0,7.41-2.34,7.62,7.62,0,0,0,2.89-6.23,7.46,7.46,0,0,0-2.38-5.54q-2.24-2.23-8.35-4.32t-7.71-3q-8.2-4.19-8.21-12.32a12.58,12.58,0,0,1,4.54-9.72,16.59,16.59,0,0,1,11.3-4,17.36,17.36,0,0,1,10.23,3,14.17,14.17,0,0,1,5.76,7.41l-6.19,2.59A9.21,9.21,0,0,0,312,309a11.06,11.06,0,0,0-12.78.25,6.27,6.27,0,0,0-2.67,5.25,6.09,6.09,0,0,0,2.09,4.61q2.31,1.95,10,4.61t11.2,6.52A13.9,13.9,0,0,1,323.22,339.69Z" transform="translate(0.7 -6.37)" fill="#fff"/><path d="M29.93,58.5H23.31V7h8.06l25.06,40.1h.29l-.29-9.93V7h6.62V58.5H56.14l-26.21-42h-.28l.28,9.94Z" transform="translate(0.7 -6.37)" fill="#fff"/><path d="M80.84,11.05a4.51,4.51,0,0,1-1.37,3.31,4.68,4.68,0,0,1-8-3.31,4.68,4.68,0,1,1,9.36,0ZM79.47,23.22V58.5H72.85V23.22Z" transform="translate(0.7 -6.37)" fill="#fff"/><path d="M88.11,23.22h6.33v4.9h.29a11.77,11.77,0,0,1,4.65-4.32,13.2,13.2,0,0,1,6.51-1.73q6.48,0,10,3.71t3.5,10.54V58.5h-6.63V36.76q-.21-8.64-8.71-8.64a8.25,8.25,0,0,0-6.62,3.2A11.6,11.6,0,0,0,94.73,39V58.5H88.11Z" transform="translate(0.7 -6.37)" fill="#fff"/><path d="M139.3,59.08a10,10,0,0,1-7.16-2.67A9.87,9.87,0,0,1,129.22,49V29.27H123V23.22h6.19V12.42h6.62v10.8h8.64v6.05h-8.64V46.84q0,3.52,1.37,4.78a4.46,4.46,0,0,0,3.1,1.26,6.7,6.7,0,0,0,1.55-.18,8.21,8.21,0,0,0,1.4-.46l2.09,5.9A17.92,17.92,0,0,1,139.3,59.08Z" transform="translate(0.7 -6.37)" fill="#fff"/><path d="M166.3,59.65a16.86,16.86,0,0,1-12.82-5.33,18.81,18.81,0,0,1-5-13.46,19.19,19.19,0,0,1,4.9-13.43,16.22,16.22,0,0,1,12.53-5.36q7.84,0,12.49,5.07T183,41.36l-.07.72H155.21a11.53,11.53,0,0,0,3.46,8.36,11.06,11.06,0,0,0,7.92,3.16q6.33,0,9.93-6.33l5.91,2.88a17.66,17.66,0,0,1-6.59,7A18.23,18.23,0,0,1,166.3,59.65Zm-10.58-23H176a8.77,8.77,0,0,0-3-6.08,10.45,10.45,0,0,0-7.24-2.41,9.58,9.58,0,0,0-6.44,2.3A11,11,0,0,0,155.72,36.61Z" transform="translate(0.7 -6.37)" fill="#fff"/><path d="M189.05,23.22h6.34v4.9h.29a11.67,11.67,0,0,1,4.64-4.32,13.24,13.24,0,0,1,6.52-1.73q6.48,0,10,3.71t3.49,10.54V58.5h-6.62V36.76q-.23-8.64-8.72-8.64a8.26,8.26,0,0,0-6.62,3.2A11.59,11.59,0,0,0,195.68,39V58.5h-6.63Z" transform="translate(0.7 -6.37)" fill="#fff"/><path d="M242.83,59.65A15.49,15.49,0,0,1,231,54.18a19.42,19.42,0,0,1-4.9-13.32A19.42,19.42,0,0,1,231,27.54a15.49,15.49,0,0,1,11.87-5.47,15.28,15.28,0,0,1,7.1,1.65,12.45,12.45,0,0,1,4.93,4.4h.29l-.29-4.9V7h6.62V58.5h-6.33V53.6h-.29a12.45,12.45,0,0,1-4.93,4.4A15.28,15.28,0,0,1,242.83,59.65Zm1.09-6a10.15,10.15,0,0,0,8-3.52,13.12,13.12,0,0,0,3.24-9.22,13.13,13.13,0,0,0-3.24-9.14,10.21,10.21,0,0,0-8-3.6,10.34,10.34,0,0,0-8,3.6,13.13,13.13,0,0,0-3.24,9.14A13,13,0,0,0,235.92,50,10.34,10.34,0,0,0,243.92,53.6Z" transform="translate(0.7 -6.37)" fill="#fff"/><path d="M267.17,40.86a18.65,18.65,0,0,1,5.11-13.46,17.41,17.41,0,0,1,13-5.33,17.17,17.17,0,0,1,13,5.33,18.54,18.54,0,0,1,5.18,13.46,18.37,18.37,0,0,1-5.18,13.46,17.17,17.17,0,0,1-13,5.33,17.41,17.41,0,0,1-13-5.33A18.65,18.65,0,0,1,267.17,40.86Zm6.62,0a12.94,12.94,0,0,0,3.32,9.22,11.32,11.32,0,0,0,16.41,0,12.94,12.94,0,0,0,3.31-9.22,12.8,12.8,0,0,0-3.31-9.14,11.15,11.15,0,0,0-16.41,0A12.81,12.81,0,0,0,273.79,40.86Z" transform="translate(0.7 -6.37)" fill="#fff"/></g></svg>