<svg xmlns="http://www.w3.org/2000/svg" viewBox="0 0 291.9 428.6"><title>tgcd</title><g id="Layer_3" data-name="Layer 3"><circle cx="145.95" cy="86.2" r="8.2" fill="#fff"/><line x1="3.45" y1="122.7" x2="288.45" y2="122.7" fill="none"/><rect x="3.45" y="119.7" width="285" height="6" fill="#fff"/><line x1="3.45" y1="379.2" x2="288.45" y2="379.2" fill="none"/><rect x="3.45" y="376.2" width="285" height="6" fill="#fff"/><circle cx="145.95" cy="420.4" r="8.2" fill="#fff"/></g><g id="NEW_TEXT" data-name="NEW TEXT"><path d="M54.85,159.28v102.6H41.05v-85.5l-19.95,8.7-5.25-11.7L46,159.28Z" transform="translate(-15.85 -5.8)" fill="#fff"/><path d="M105.55,224.38q-12.3,0-22.35-9.75a32.55,32.55,0,0,1-9.75-23.4q0-13.95,10.5-24,10.5-10.35,24.6-10.35a34.05,34.05,0,0,1,25,10.2,33,33,0,0,1,10.2,24.15q0,12.45-10.05,28.35l-29.85,44.7-11.1-7.65,25.35-35.1-.3-.3Q113.05,224.38,105.55,224.38Zm24.3-33.3a20,20,0,0,0-6.3-14.85,21.37,21.37,0,0,0-30,0,21,21,0,0,0,0,29.7,21.37,21.37,0,0,0,30,0A19.67,19.67,0,0,0,129.85,191.08Z" transform="translate(-15.85 -5.8)" fill="#fff"/><path d="M225.4,233.53a27.74,27.74,0,0,1-10.05,21.9q-10.2,8.85-24.75,8.85t-24.75-8.85a27.74,27.74,0,0,1-10-21.9,26.48,26.48,0,0,1,4.35-14.77,29.92,29.92,0,0,1,12.45-10.58v-.6a32.24,32.24,0,0,1-9.68-9.6,21.79,21.79,0,0,1-3.67-12,27.58,27.58,0,0,1,8.85-20.85q8.7-8.25,22.5-8.25t22.5,8.25A27.58,27.58,0,0,1,222,186a21.8,21.8,0,0,1-3.68,12,32.2,32.2,0,0,1-9.67,9.6v.6a29.92,29.92,0,0,1,12.45,10.58A26.48,26.48,0,0,1,225.4,233.53Zm-55.5-.75a16.84,16.84,0,0,0,1.57,7.35,18.17,18.17,0,0,0,4.35,5.78,19.73,19.73,0,0,0,6.53,3.82,25.88,25.88,0,0,0,16.5,0,19.83,19.83,0,0,0,6.53-3.82,18.28,18.28,0,0,0,4.34-5.78,16.85,16.85,0,0,0,1.58-7.35,16.21,16.21,0,0,0-6-12.9,21.54,21.54,0,0,0-14.7-5.25,22.1,22.1,0,0,0-14.85,5.25A16.66,16.66,0,0,0,169.9,232.78Zm3.45-47.1a15.08,15.08,0,0,0,4.8,11.63q4.8,4.42,12.45,4.42t12.45-4.42a15.08,15.08,0,0,0,4.8-11.63q0-7.2-4.8-11.4t-12.45-4.2q-7.65,0-12.45,4.2T173.35,185.68Z" transform="translate(-15.85 -5.8)" fill="#fff"/><path d="M269.5,224.38q-12.3,0-22.35-9.75a32.55,32.55,0,0,1-9.75-23.4q0-13.95,10.5-24,10.5-10.35,24.6-10.35a34.05,34.05,0,0,1,25.05,10.2,33,33,0,0,1,10.2,24.15q0,12.45-10.05,28.35l-29.85,44.7-11.1-7.65,25.35-35.1-.3-.3Q277,224.38,269.5,224.38Zm24.3-33.3a20,20,0,0,0-6.3-14.85,21.11,21.11,0,1,0-30,29.7,21.37,21.37,0,0,0,30,0A19.67,19.67,0,0,0,293.8,191.08Z" transform="translate(-15.85 -5.8)" fill="#fff"/><path d="M70,292.07v26.38H66.1V292.07H57.7v-3.7H78.37v3.7Z" transform="translate(-15.85 -5.8)" fill="#fff"/><path d="M97.27,318.45h-3.7v-2.86H93.4a6.82,6.82,0,0,1-2.7,2.52,7.82,7.82,0,0,1-3.81,1A7.6,7.6,0,0,1,81.08,317a8.66,8.66,0,0,1-2-6.16V297.87H82.9v12.68c.09,3.36,1.78,5,5.09,5a4.82,4.82,0,0,0,3.86-1.87,6.74,6.74,0,0,0,1.55-4.47V297.87h3.87Z" transform="translate(-15.85 -5.8)" fill="#fff"/><path d="M105.84,318.45H102V297.87h3.7v3.36h.17a5.53,5.53,0,0,1,2.41-2.8,6.71,6.71,0,0,1,3.59-1.15,7.39,7.39,0,0,1,2.86.5l-1.18,3.74a6.54,6.54,0,0,0-2.27-.29,5,5,0,0,0-3.8,1.76,5.94,5.94,0,0,0-1.61,4.12Z" transform="translate(-15.85 -5.8)" fill="#fff"/><path d="M128.31,319.12a8.78,8.78,0,0,1-4.14-1,7.2,7.2,0,0,1-2.88-2.56h-.17v2.86h-3.69V288.37h3.86v9.5l-.17,2.85h.17a7.2,7.2,0,0,1,2.88-2.56,9.1,9.1,0,0,1,11,2.23,11.86,11.86,0,0,1,0,15.54A8.85,8.85,0,0,1,128.31,319.12Zm-.63-3.53a6,6,0,0,0,4.66-2.1,7.57,7.57,0,0,0,1.89-5.33,7.68,7.68,0,0,0-1.89-5.34,6.28,6.28,0,0,0-9.37,0,8.68,8.68,0,0,0,0,10.71A6.14,6.14,0,0,0,127.68,315.59Z" transform="translate(-15.85 -5.8)" fill="#fff"/><path d="M140.44,308.16a10.9,10.9,0,0,1,3-7.86,10.16,10.16,0,0,1,7.6-3.11,10,10,0,0,1,7.56,3.11,10.84,10.84,0,0,1,3,7.86,10.72,10.72,0,0,1-3,7.85,10,10,0,0,1-7.56,3.11,10.16,10.16,0,0,1-7.6-3.11A10.88,10.88,0,0,1,140.44,308.16Zm3.87,0a7.51,7.51,0,0,0,1.93,5.37,6.59,6.59,0,0,0,9.57,0,8.36,8.36,0,0,0,0-10.71,6.5,6.5,0,0,0-9.57,0A7.47,7.47,0,0,0,144.31,308.16Z" transform="translate(-15.85 -5.8)" fill="#fff"/><path d="M174.25,328.19a11.62,11.62,0,0,1-3.23-.44,10.27,10.27,0,0,1-2.75-1.24,8.76,8.76,0,0,1-2.12-1.89,8,8,0,0,1-1.35-2.44l3.66-1.51a5.8,5.8,0,0,0,2.18,2.9,6.11,6.11,0,0,0,3.61,1.09,6.41,6.41,0,0,0,4.92-1.89,7.35,7.35,0,0,0,1.76-5.21v-2h-.17a7.52,7.52,0,0,1-3,2.58,8.82,8.82,0,0,1-4.05.95,9.09,9.09,0,0,1-6.93-3.15,11.37,11.37,0,0,1-2.86-7.81,11.19,11.19,0,0,1,2.86-7.77,9,9,0,0,1,6.93-3.2,8.82,8.82,0,0,1,4.05.95,7.52,7.52,0,0,1,3,2.58h.17v-2.85h3.7v19.69a10.47,10.47,0,0,1-2.82,7.77A10.19,10.19,0,0,1,174.25,328.19Zm.13-12.6a5.92,5.92,0,0,0,4.66-2.06,8.53,8.53,0,0,0,0-10.71,6,6,0,0,0-4.66-2.1,6,6,0,0,0-4.66,2.1,7.68,7.68,0,0,0-1.89,5.34,7.57,7.57,0,0,0,1.89,5.33A6,6,0,0,0,174.38,315.59Z" transform="translate(-15.85 -5.8)" fill="#fff"/><path d="M193.19,318.45h-3.86V297.87H193v3.36h.16a5.6,5.6,0,0,1,2.42-2.8,6.69,6.69,0,0,1,3.59-1.15,7.39,7.39,0,0,1,2.86.5l-1.18,3.74a6.58,6.58,0,0,0-2.27-.29,5,5,0,0,0-3.8,1.76,5.91,5.91,0,0,0-1.62,4.12Z" transform="translate(-15.85 -5.8)" fill="#fff"/><path d="M211.55,297.19a9.61,9.61,0,0,1,6.76,2.29,8.14,8.14,0,0,1,2.48,6.28v12.69h-3.7v-2.86h-.17a7.36,7.36,0,0,1-6.38,3.53,8.27,8.27,0,0,1-5.69-2,6.42,6.42,0,0,1-2.29-5A6.14,6.14,0,0,1,205,307a10.18,10.18,0,0,1,6.45-1.89,11.39,11.39,0,0,1,5.67,1.26v-.88A4.41,4.41,0,0,0,215.5,302a5.52,5.52,0,0,0-3.74-1.4,5.93,5.93,0,0,0-5.13,2.73l-3.4-2.14A9.5,9.5,0,0,1,211.55,297.19Zm-5,15a3.12,3.12,0,0,0,1.28,2.52,4.74,4.74,0,0,0,3,1,6.16,6.16,0,0,0,4.35-1.8,5.63,5.63,0,0,0,1.91-4.24,7.87,7.87,0,0,0-5-1.43,6.56,6.56,0,0,0-3.92,1.13A3.39,3.39,0,0,0,206.55,312.15Z" transform="translate(-15.85 -5.8)" fill="#fff"/><path d="M234.23,288a7.35,7.35,0,0,1,3.44.71l-1,3.4a5.08,5.08,0,0,0-2.27-.5,3,3,0,0,0-2.33,1,3.74,3.74,0,0,0-.9,2.62v2.61h5.38v3.52h-5.38v17.06h-3.86V301.39h-3.87v-3.52h3.87v-3a6.58,6.58,0,0,1,2-4.95A6.91,6.91,0,0,1,234.23,288Z" transform="translate(-15.85 -5.8)" fill="#fff"/><path d="M250,308l7.35,10.46h-4.54l-5.08-7.61-5,7.61h-4.53L245.44,308l-7.1-10.12h4.37l5.08,7.26,4.84-7.26h4.53Z" transform="translate(-15.85 -5.8)" fill="#fff"/><path d="M149.16,369.52A15.86,15.86,0,0,1,138,342.64a15,15,0,0,1,11.17-4.54,13.88,13.88,0,0,1,11,4.92l-2.77,2.69a10.24,10.24,0,0,0-8.27-3.91,11.35,11.35,0,0,0-8.36,3.36,12.93,12.93,0,0,0,0,17.3,11.35,11.35,0,0,0,8.36,3.36,11.75,11.75,0,0,0,9.11-4.41l2.82,2.73a14.63,14.63,0,0,1-5.25,4A16,16,0,0,1,149.16,369.52Z" transform="translate(-15.85 -5.8)" fill="#fff"/><path d="M165.62,368.85V338.77h9.2q6.88,0,11.07,4.16a16.28,16.28,0,0,1,0,21.78q-4.19,4.14-11.07,4.14Zm3.87-26.38v22.68h5.33a11.21,11.21,0,0,0,8.27-3q3-3,3-8.34t-3-8.31a11.15,11.15,0,0,0-8.27-3Z" transform="translate(-15.85 -5.8)" fill="#fff"/><path d="M103.52,58.5H96.89V7H105l25,40.1h.29L130,37.12V7h6.63V58.5h-6.92l-26.2-42h-.29l.29,9.94Z" transform="translate(-15.85 -5.8)" fill="#fff"/><path d="M177.1,7v6.33H153.63V29.63H174.8v6.19H153.63V52.16H177.1V58.5H147V7Z" transform="translate(-15.85 -5.8)" fill="#fff"/><path d="M208.85,59.65a26.2,26.2,0,0,1-26.78-26.93q0-11.52,7.63-19.15A25.73,25.73,0,0,1,208.85,5.8q11.67,0,18.94,8.42L223,18.83a17.6,17.6,0,0,0-14.19-6.7,19.46,19.46,0,0,0-14.33,5.76q-5.69,5.68-5.68,14.83t5.68,14.84a19.46,19.46,0,0,0,14.33,5.76q9,0,15.63-7.56l4.82,4.68a25.15,25.15,0,0,1-9,6.8A27.4,27.4,0,0,1,208.85,59.65Z" transform="translate(-15.85 -5.8)" fill="#fff"/></g></svg>