<svg xmlns="http://www.w3.org/2000/svg" viewBox="0 0 335.01 428.03"><title>virtualboy</title><g id="Layer_3" data-name="Layer 3"><circle cx="167.22" cy="85.63" r="8.2" fill="#fff"/><line x1="24.72" y1="122.13" x2="309.72" y2="122.13" fill="none"/><rect x="24.72" y="119.13" width="285" height="6" fill="#fff"/><line x1="24.72" y1="378.63" x2="309.72" y2="378.63" fill="none"/><rect x="24.72" y="375.63" width="285" height="6" fill="#fff"/><circle cx="167.22" cy="419.83" r="8.2" fill="#fff"/></g><g id="TEXT_LAYER" data-name="TEXT LAYER"><path d="M29.93,58.5H23.31V7h8.06l25.06,40.1h.29l-.29-9.93V7h6.62V58.5H56.14l-26.21-42h-.28l.28,9.94Z" transform="translate(5.42 -6.37)" fill="#fff"/><path d="M80.84,11.05a4.51,4.51,0,0,1-1.37,3.31,4.68,4.68,0,0,1-8-3.31,4.68,4.68,0,1,1,9.36,0ZM79.47,23.22V58.5H72.84V23.22Z" transform="translate(5.42 -6.37)" fill="#fff"/><path d="M88.11,23.22h6.33v4.9h.29a11.77,11.77,0,0,1,4.65-4.32,13.2,13.2,0,0,1,6.51-1.73q6.48,0,10,3.71t3.5,10.54V58.5h-6.63V36.76q-.21-8.64-8.71-8.64a8.25,8.25,0,0,0-6.62,3.2A11.6,11.6,0,0,0,94.73,39V58.5H88.11Z" transform="translate(5.42 -6.37)" fill="#fff"/><path d="M139.3,59.08a10,10,0,0,1-7.16-2.67A9.87,9.87,0,0,1,129.22,49V29.27H123V23.22h6.19V12.42h6.62v10.8h8.64v6.05h-8.64V46.84q0,3.52,1.37,4.78a4.46,4.46,0,0,0,3.1,1.26,6.7,6.7,0,0,0,1.55-.18,8.21,8.21,0,0,0,1.4-.46l2.09,5.9A17.92,17.92,0,0,1,139.3,59.08Z" transform="translate(5.42 -6.37)" fill="#fff"/><path d="M166.3,59.65a16.86,16.86,0,0,1-12.82-5.33,18.81,18.81,0,0,1-5-13.46,19.19,19.19,0,0,1,4.9-13.43,16.22,16.22,0,0,1,12.53-5.36q7.84,0,12.49,5.07T183,41.36l-.07.72H155.21a11.53,11.53,0,0,0,3.46,8.36,11.06,11.06,0,0,0,7.92,3.16q6.33,0,9.93-6.33l5.91,2.88a17.66,17.66,0,0,1-6.59,7A18.23,18.23,0,0,1,166.3,59.65Zm-10.58-23H176a8.77,8.77,0,0,0-3-6.08,10.45,10.45,0,0,0-7.24-2.41,9.58,9.58,0,0,0-6.44,2.3A11,11,0,0,0,155.72,36.61Z" transform="translate(5.42 -6.37)" fill="#fff"/><path d="M189.05,23.22h6.34v4.9h.29a11.67,11.67,0,0,1,4.64-4.32,13.24,13.24,0,0,1,6.52-1.73q6.48,0,10,3.71t3.49,10.54V58.5h-6.62V36.76q-.23-8.64-8.72-8.64a8.26,8.26,0,0,0-6.62,3.2A11.59,11.59,0,0,0,195.68,39V58.5h-6.63Z" transform="translate(5.42 -6.37)" fill="#fff"/><path d="M242.83,59.65A15.49,15.49,0,0,1,231,54.18a19.42,19.42,0,0,1-4.9-13.32A19.42,19.42,0,0,1,231,27.54a15.49,15.49,0,0,1,11.87-5.47,15.28,15.28,0,0,1,7.1,1.65,12.45,12.45,0,0,1,4.93,4.4h.29l-.29-4.9V7h6.62V58.5h-6.33V53.6h-.29a12.45,12.45,0,0,1-4.93,4.4A15.28,15.28,0,0,1,242.83,59.65Zm1.09-6a10.15,10.15,0,0,0,8-3.52,13.12,13.12,0,0,0,3.24-9.22,13.13,13.13,0,0,0-3.24-9.14,10.21,10.21,0,0,0-8-3.6,10.34,10.34,0,0,0-8,3.6,13.13,13.13,0,0,0-3.24,9.14A13,13,0,0,0,235.92,50,10.34,10.34,0,0,0,243.92,53.6Z" transform="translate(5.42 -6.37)" fill="#fff"/><path d="M267.17,40.86a18.65,18.65,0,0,1,5.11-13.46,17.41,17.41,0,0,1,13-5.33,17.17,17.17,0,0,1,13,5.33,18.54,18.54,0,0,1,5.18,13.46,18.37,18.37,0,0,1-5.18,13.46,17.17,17.17,0,0,1-13,5.33,17.41,17.41,0,0,1-13-5.33A18.65,18.65,0,0,1,267.17,40.86Zm6.62,0a12.94,12.94,0,0,0,3.32,9.22,11.32,11.32,0,0,0,16.41,0,12.94,12.94,0,0,0,3.31-9.22,12.8,12.8,0,0,0-3.31-9.14,11.15,11.15,0,0,0-16.41,0A12.81,12.81,0,0,0,273.79,40.86Z" transform="translate(5.42 -6.37)" fill="#fff"/><path d="M54,159.28v102.6H40.23v-85.5l-19.95,8.7L15,173.38l30.15-14.1Z" transform="translate(5.42 -6.37)" fill="#fff"/><path d="M104.72,224.38q-12.3,0-22.35-9.75a32.53,32.53,0,0,1-9.75-23.4q0-13.95,10.5-24,10.5-10.35,24.6-10.35a34.05,34.05,0,0,1,25.05,10.2A33,33,0,0,1,143,191.23q0,12.47-10.05,28.35l-29.85,44.7L92,256.63l25.35-35.1-.3-.3Q112.22,224.38,104.72,224.38Zm24.3-33.3a20,20,0,0,0-6.3-14.85,21.37,21.37,0,0,0-30,0,21,21,0,0,0,0,29.7,21.37,21.37,0,0,0,30,0A19.65,19.65,0,0,0,129,191.08Z" transform="translate(5.42 -6.37)" fill="#fff"/><path d="M187.07,224.38q-12.3,0-22.35-9.75a32.53,32.53,0,0,1-9.75-23.4q0-13.95,10.5-24,10.5-10.35,24.6-10.35a34.09,34.09,0,0,1,25.06,10.2,33.05,33.05,0,0,1,10.19,24.15q0,12.47-10,28.35l-29.85,44.7-11.1-7.65,25.35-35.1-.29-.3Q194.57,224.38,187.07,224.38Zm24.31-33.3a20,20,0,0,0-6.31-14.85,21.11,21.11,0,1,0-30,29.7,21.37,21.37,0,0,0,30,0A19.66,19.66,0,0,0,211.38,191.08Z" transform="translate(5.42 -6.37)" fill="#fff"/><path d="M307.37,229.78a32.89,32.89,0,0,1-10.2,24.6q-10.2,9.9-25.2,9.9a34.74,34.74,0,0,1-21.75-7.5,35.4,35.4,0,0,1-12.9-20.25l12.3-4.95a27.29,27.29,0,0,0,8.18,14.25,20.25,20.25,0,0,0,13.87,5.25q9.6,0,15.68-5.92t6.07-15.23q0-9.45-6.07-15.45t-15.53-6a20,20,0,0,0-17.25,8.85l-13.95-6,6.6-52.05h53.85v13.2h-42.3L255,201.88l.6.15q7.65-6.15,18.6-6.15a31.85,31.85,0,0,1,23.48,9.75Q307.38,215.4,307.37,229.78Z" transform="translate(5.42 -6.37)" fill="#fff"/><path d="M19.64,353.45H12.73L-5.42,301.89H1.93L16,343.73h.29L31,301.89h7.35Z" transform="translate(5.42 -6.37)" fill="#fff"/><path d="M50.38,306A4.68,4.68,0,1,1,49,302.69,4.48,4.48,0,0,1,50.38,306ZM49,318.17v35.28H42.39V318.17Z" transform="translate(5.42 -6.37)" fill="#fff"/><path d="M57.65,318.17H64v5.76h.29q2.94-6.76,12.17-6.77l1.36.14v6.91l-3-.28a10.58,10.58,0,0,0-7.59,2.84,9.54,9.54,0,0,0-3,7.24v19.44H57.65ZM99,354a10.07,10.07,0,0,1-7.16-2.66,9.89,9.89,0,0,1-2.92-7.42V324.21H82.71v-6H88.9v-10.8h6.62v10.8h8.65v6H95.52v17.57q0,3.53,1.37,4.79a4.46,4.46,0,0,0,3.1,1.26,6.7,6.7,0,0,0,1.55-.18,7.42,7.42,0,0,0,1.4-.47l2.09,5.91A17.89,17.89,0,0,1,99,354Z" transform="translate(5.42 -6.37)" fill="#fff"/><path d="M141.46,353.45h-6.34v-4.9h-.28a11.77,11.77,0,0,1-4.65,4.32,13.34,13.34,0,0,1-6.51,1.73q-6.48,0-10-3.71t-3.49-10.55V318.17h6.63v21.74q.21,8.64,8.71,8.64a8.28,8.28,0,0,0,6.62-3.2,11.6,11.6,0,0,0,2.67-7.67V318.17h6.62Z" transform="translate(5.42 -6.37)" fill="#fff"/><path d="M162.56,317q7.33,0,11.59,3.93t4.25,10.76v21.75h-6.34v-4.9h-.29q-4.1,6-10.94,6.05a14.21,14.21,0,0,1-9.76-3.46,11,11,0,0,1-3.92-8.64,10.5,10.5,0,0,1,4.14-8.71q4.14-3.24,11.05-3.24a19.54,19.54,0,0,1,9.72,2.16V331.2a7.52,7.52,0,0,0-2.74-5.87,9.36,9.36,0,0,0-6.4-2.41,10.16,10.16,0,0,0-8.79,4.68l-5.83-3.67Q153.13,317,162.56,317ZM154,342.65a5.3,5.3,0,0,0,2.19,4.32,8.1,8.1,0,0,0,5.15,1.72,10.55,10.55,0,0,0,7.45-3.09,9.68,9.68,0,0,0,3.28-7.27q-3.09-2.44-8.64-2.45a11.25,11.25,0,0,0-6.73,1.94A5.79,5.79,0,0,0,154,342.65Z" transform="translate(5.42 -6.37)" fill="#fff"/><path d="M192.51,301.89v51.56h-6.63V301.89Z" transform="translate(5.42 -6.37)" fill="#fff"/><path d="M217.56,353.45V301.89h18.65a15,15,0,0,1,10.51,4,12.88,12.88,0,0,1,4.4,10,10.88,10.88,0,0,1-7,10.73V327a12.57,12.57,0,0,1,6.34,4.5,12,12,0,0,1,2.37,7.31,13.58,13.58,0,0,1-4.6,10.51,15.55,15.55,0,0,1-11,4.18Zm6.63-45.22V324h12a8,8,0,0,0,5.91-2.38,7.66,7.66,0,0,0,.07-11,7.61,7.61,0,0,0-5.69-2.38Zm0,22v16.92h13.32a8.48,8.48,0,0,0,8.57-8.5,8.1,8.1,0,0,0-2.53-5.9,8.58,8.58,0,0,0-6.33-2.52Z" transform="translate(5.42 -6.37)" fill="#fff"/><path d="M257.16,335.81a18.71,18.71,0,0,1,5.11-13.47,17.44,17.44,0,0,1,13-5.33,17.21,17.21,0,0,1,13,5.33,20.09,20.09,0,0,1,0,26.93,17.21,17.21,0,0,1-13,5.33,17.44,17.44,0,0,1-13-5.33A18.69,18.69,0,0,1,257.16,335.81Zm6.63,0A12.89,12.89,0,0,0,267.1,345a11.3,11.3,0,0,0,16.41,0,14.35,14.35,0,0,0,0-18.36,11.15,11.15,0,0,0-16.41,0A12.81,12.81,0,0,0,263.79,335.81Z" transform="translate(5.42 -6.37)" fill="#fff"/><path d="M329.59,318.17,307.49,369h-6.84l8.21-17.79-14.54-33h7.19L312,343.51h.14l10.23-25.34Z" transform="translate(5.42 -6.37)" fill="#fff"/></g></svg>