<svg xmlns="http://www.w3.org/2000/svg" viewBox="0 0 339.74 428.03"><title>wii</title><g id="Layer_3" data-name="Layer 3"><circle cx="169.87" cy="85.63" r="8.2" fill="#fff"/><line x1="27.37" y1="122.13" x2="312.37" y2="122.13" fill="none"/><rect x="27.37" y="119.13" width="285" height="6" fill="#fff"/><line x1="27.37" y1="378.63" x2="312.37" y2="378.63" fill="none"/><rect x="27.37" y="375.63" width="285" height="6" fill="#fff"/><circle cx="169.87" cy="419.83" r="8.2" fill="#fff"/></g><g id="NEW_TEXT" data-name="NEW TEXT"><path d="M57.33,248.68v13.2H-8.07v-13.8l26.55-26.85q13.35-13.65,18.45-20.47A23.57,23.57,0,0,0,42,186.43a15.1,15.1,0,0,0-5.25-11.55q-5.25-4.8-13.5-4.8a18.51,18.51,0,0,0-12.15,4.2,18.94,18.94,0,0,0-6.6,10.2l-12.6-5.1a32,32,0,0,1,11.55-16,32.19,32.19,0,0,1,20.1-6.53q14,0,23.25,8.55a27.42,27.42,0,0,1,9.3,21q0,14.85-16.35,32.1l-30,30.15Z" transform="translate(8.07 -6.37)" fill="#fff"/><path d="M70.53,210.58q0-23.4,11.55-38.55t29.7-15.15q18.15,0,29.7,15.3Q153,187.33,153,210.58q0,23.1-11.55,38.55-11.55,15.15-29.7,15.15t-29.7-15.15Q70.53,233.68,70.53,210.58Zm68.4,0q0-17.7-7.5-29.1t-19.65-11.4q-12.3,0-19.65,11.4-7.5,11.4-7.5,29.1t7.5,29.25q7.35,11.25,19.65,11.25t19.65-11.4Q138.93,228.13,138.93,210.58Z" transform="translate(8.07 -6.37)" fill="#fff"/><path d="M166.22,210.58q0-23.4,11.55-38.55t29.7-15.15q18.15,0,29.7,15.3,11.55,15.15,11.55,38.4,0,23.1-11.55,38.55-11.55,15.15-29.7,15.15t-29.7-15.15Q166.22,233.68,166.22,210.58Zm68.4,0q0-17.7-7.5-29.1t-19.65-11.4q-12.3,0-19.65,11.4t-7.5,29.1q0,17.7,7.5,29.25,7.35,11.25,19.65,11.25t19.65-11.4Q234.62,228.13,234.62,210.58Z" transform="translate(8.07 -6.37)" fill="#fff"/><path d="M299.57,196.78q12.45,0,22.2,9.9a31.52,31.52,0,0,1,9.9,23.25q0,13.8-10.5,24.15-10.65,10.2-24.6,10.2a34.05,34.05,0,0,1-25.05-10.2,33,33,0,0,1-10.2-24.15q0-12.45,10.05-28.35l29.85-44.7,11.1,7.65L287,199.63l.3.3Q291.92,196.78,299.57,196.78Zm-24.3,33.3a20.41,20.41,0,0,0,6.15,15,20.86,20.86,0,0,0,15.15,6,20.75,20.75,0,0,0,21.15-21,20,20,0,0,0-6.3-14.85,20.23,20.23,0,0,0-14.85-6.15,21.07,21.07,0,0,0-15,6.15A20,20,0,0,0,275.27,230.08Z" transform="translate(8.07 -6.37)" fill="#fff"/><path d="M172,301.48h7l-14,52.27h-6.86l-11.24-34.46h-.29l-11.24,34.46h-6.87L114,301.48h7l11,41.1h.29l11.31-34.09h6.28l11.32,34.09h.29Z" transform="translate(8.07 -6.37)" fill="#fff"/><path d="M191.44,305.64a4.73,4.73,0,1,1-1.39-3.36A4.54,4.54,0,0,1,191.44,305.64ZM190.05,318v35.77h-6.71V318Z" transform="translate(8.07 -6.37)" fill="#fff"/><path d="M207.5,305.64a4.73,4.73,0,1,1-1.39-3.36A4.54,4.54,0,0,1,207.5,305.64ZM206.11,318v35.77H199.4V318Z" transform="translate(8.07 -6.37)" fill="#fff"/><path d="M29.93,58.5H23.31V7h8.06l25.06,40.1h.29l-.29-9.93V7h6.62V58.5H56.14l-26.21-42h-.28l.28,9.94Z" transform="translate(8.07 -6.37)" fill="#fff"/><path d="M80.84,11.05a4.51,4.51,0,0,1-1.37,3.31,4.68,4.68,0,0,1-8-3.31,4.68,4.68,0,1,1,9.36,0ZM79.47,23.22V58.5H72.85V23.22Z" transform="translate(8.07 -6.37)" fill="#fff"/><path d="M88.11,23.22h6.33v4.9h.29a11.77,11.77,0,0,1,4.65-4.32,13.2,13.2,0,0,1,6.51-1.73q6.48,0,10,3.71t3.5,10.54V58.5h-6.63V36.76q-.21-8.64-8.71-8.64a8.25,8.25,0,0,0-6.62,3.2A11.6,11.6,0,0,0,94.73,39V58.5H88.11Z" transform="translate(8.07 -6.37)" fill="#fff"/><path d="M139.3,59.08a10,10,0,0,1-7.16-2.67A9.87,9.87,0,0,1,129.22,49V29.27H123V23.22h6.19V12.42h6.62v10.8h8.64v6.05h-8.64V46.84q0,3.52,1.37,4.78a4.46,4.46,0,0,0,3.1,1.26,6.7,6.7,0,0,0,1.55-.18,8.21,8.21,0,0,0,1.4-.46l2.09,5.9A17.92,17.92,0,0,1,139.3,59.08Z" transform="translate(8.07 -6.37)" fill="#fff"/><path d="M166.3,59.65a16.86,16.86,0,0,1-12.82-5.33,18.81,18.81,0,0,1-5-13.46,19.19,19.19,0,0,1,4.9-13.43,16.22,16.22,0,0,1,12.53-5.36q7.84,0,12.49,5.07T183,41.36l-.07.72H155.21a11.53,11.53,0,0,0,3.46,8.36,11.06,11.06,0,0,0,7.92,3.16q6.33,0,9.93-6.33l5.91,2.88a17.66,17.66,0,0,1-6.59,7A18.23,18.23,0,0,1,166.3,59.65Zm-10.58-23H176a8.77,8.77,0,0,0-3-6.08,10.45,10.45,0,0,0-7.24-2.41,9.58,9.58,0,0,0-6.44,2.3A11,11,0,0,0,155.72,36.61Z" transform="translate(8.07 -6.37)" fill="#fff"/><path d="M189.05,23.22h6.34v4.9h.29a11.67,11.67,0,0,1,4.64-4.32,13.24,13.24,0,0,1,6.52-1.73q6.48,0,10,3.71t3.49,10.54V58.5h-6.62V36.76q-.23-8.64-8.72-8.64a8.26,8.26,0,0,0-6.62,3.2A11.59,11.59,0,0,0,195.68,39V58.5h-6.63Z" transform="translate(8.07 -6.37)" fill="#fff"/><path d="M242.83,59.65A15.49,15.49,0,0,1,231,54.18a19.42,19.42,0,0,1-4.9-13.32A19.42,19.42,0,0,1,231,27.54a15.49,15.49,0,0,1,11.87-5.47,15.28,15.28,0,0,1,7.1,1.65,12.45,12.45,0,0,1,4.93,4.4h.29l-.29-4.9V7h6.62V58.5h-6.33V53.6h-.29a12.45,12.45,0,0,1-4.93,4.4A15.28,15.28,0,0,1,242.83,59.65Zm1.09-6a10.15,10.15,0,0,0,8-3.52,13.12,13.12,0,0,0,3.24-9.22,13.13,13.13,0,0,0-3.24-9.14,10.21,10.21,0,0,0-8-3.6,10.34,10.34,0,0,0-8,3.6,13.13,13.13,0,0,0-3.24,9.14A13,13,0,0,0,235.92,50,10.34,10.34,0,0,0,243.92,53.6Z" transform="translate(8.07 -6.37)" fill="#fff"/><path d="M267.17,40.86a18.65,18.65,0,0,1,5.11-13.46,17.41,17.41,0,0,1,13-5.33,17.17,17.17,0,0,1,13,5.33,18.54,18.54,0,0,1,5.18,13.46,18.37,18.37,0,0,1-5.18,13.46,17.17,17.17,0,0,1-13,5.33,17.41,17.41,0,0,1-13-5.33A18.65,18.65,0,0,1,267.17,40.86Zm6.62,0a12.94,12.94,0,0,0,3.32,9.22,11.32,11.32,0,0,0,16.41,0,12.94,12.94,0,0,0,3.31-9.22,12.8,12.8,0,0,0-3.31-9.14,11.15,11.15,0,0,0-16.41,0A12.81,12.81,0,0,0,273.79,40.86Z" transform="translate(8.07 -6.37)" fill="#fff"/></g></svg>