<svg xmlns="http://www.w3.org/2000/svg" viewBox="0 0 408.21 428.03"><title>wonderswan</title><g id="Layer_3" data-name="Layer 3"><circle cx="205.42" cy="85.63" r="8.2" fill="#fff"/><line x1="62.92" y1="122.13" x2="347.92" y2="122.13" fill="none"/><rect x="62.92" y="119.13" width="285" height="6" fill="#fff"/><line x1="62.92" y1="378.63" x2="347.92" y2="378.63" fill="none"/><rect x="62.92" y="375.63" width="285" height="6" fill="#fff"/><circle cx="205.42" cy="419.83" r="8.2" fill="#fff"/></g><g id="NEW_TEXT" data-name="NEW TEXT"><path d="M54.48,159.28v102.6H40.68v-85.5l-19.95,8.7-5.25-11.7,30.15-14.1Z" transform="translate(43.62 -6.37)" fill="#fff"/><path d="M105.18,224.38q-12.32,0-22.35-9.75a32.51,32.51,0,0,1-9.75-23.4q0-13.95,10.5-24,10.49-10.35,24.6-10.35a34.07,34.07,0,0,1,25,10.2,33,33,0,0,1,10.2,24.15q0,12.45-10.05,28.35l-29.85,44.7-11.1-7.65,25.35-35.1-.3-.3Q112.67,224.38,105.18,224.38Zm24.3-33.3a20,20,0,0,0-6.3-14.85,21.37,21.37,0,0,0-30,0,21,21,0,0,0,0,29.7,21.37,21.37,0,0,0,30,0A19.67,19.67,0,0,0,129.48,191.08Z" transform="translate(43.62 -6.37)" fill="#fff"/><path d="M187.52,224.38q-12.3,0-22.35-9.75a32.55,32.55,0,0,1-9.75-23.4q0-13.95,10.5-24,10.5-10.35,24.6-10.35a34.05,34.05,0,0,1,25,10.2,33,33,0,0,1,10.2,24.15q0,12.45-10.05,28.35l-29.85,44.7-11.1-7.65,25.35-35.1-.3-.3Q195,224.38,187.52,224.38Zm24.3-33.3a20,20,0,0,0-6.3-14.85,21.11,21.11,0,1,0-30,29.7,21.37,21.37,0,0,0,30,0A19.67,19.67,0,0,0,211.82,191.08Z" transform="translate(43.62 -6.37)" fill="#fff"/><path d="M269.87,224.38q-12.3,0-22.35-9.75a32.55,32.55,0,0,1-9.75-23.4q0-13.95,10.5-24,10.5-10.35,24.6-10.35a34.05,34.05,0,0,1,25.05,10.2,33,33,0,0,1,10.2,24.15q0,12.45-10.05,28.35l-29.85,44.7-11.1-7.65,25.35-35.1-.3-.3Q277.37,224.38,269.87,224.38Zm24.3-33.3a20,20,0,0,0-6.3-14.85,21.11,21.11,0,1,0-30,29.7,21.37,21.37,0,0,0,30,0A19.67,19.67,0,0,0,294.17,191.08Z" transform="translate(43.62 -6.37)" fill="#fff"/><path d="M14.34,301.48h7L7.41,353.75H.54L-10.7,319.29H-11l-11.24,34.46h-6.86l-14.53-52.27h7l11,41.1h.29L-14,308.49h6.27L3.61,342.58H3.9Z" transform="translate(43.62 -6.37)" fill="#fff"/><path d="M20.55,335.86a18.93,18.93,0,0,1,5.18-13.65,17.66,17.66,0,0,1,13.21-5.4,17.42,17.42,0,0,1,13.14,5.4,18.78,18.78,0,0,1,5.26,13.65,18.59,18.59,0,0,1-5.26,13.65,17.39,17.39,0,0,1-13.14,5.41,17.63,17.63,0,0,1-13.21-5.41A18.9,18.9,0,0,1,20.55,335.86Zm6.71,0a13.11,13.11,0,0,0,3.36,9.35,11,11,0,0,0,8.32,3.58,11,11,0,0,0,8.32-3.58,14.58,14.58,0,0,0,0-18.62,11.31,11.31,0,0,0-16.64,0A13,13,0,0,0,27.26,335.86Z" transform="translate(43.62 -6.37)" fill="#fff"/><path d="M62.74,318h6.42v5h.3a11.94,11.94,0,0,1,4.71-4.38,13.53,13.53,0,0,1,6.6-1.75q6.57,0,10.11,3.76t3.54,10.69v22.49H87.71V331.7q-.22-8.76-8.84-8.76a8.41,8.41,0,0,0-6.71,3.25,11.79,11.79,0,0,0-2.7,7.78v19.78H62.74Z" transform="translate(43.62 -6.37)" fill="#fff"/><path d="M117.27,354.92a15.7,15.7,0,0,1-12-5.55,20.83,20.83,0,0,1,0-27,15.7,15.7,0,0,1,12-5.55,15.39,15.39,0,0,1,7.19,1.68,12.56,12.56,0,0,1,5,4.45h.29l-.29-5v-16.5h6.72v52.27h-6.43v-5h-.29a12.63,12.63,0,0,1-5,4.45A15.39,15.39,0,0,1,117.27,354.92Zm1.1-6.13a10.3,10.3,0,0,0,8.1-3.58,14.85,14.85,0,0,0,0-18.62,10.34,10.34,0,0,0-8.1-3.65,10.49,10.49,0,0,0-8.11,3.65,13.35,13.35,0,0,0-3.28,9.27,13.15,13.15,0,0,0,3.28,9.27A10.46,10.46,0,0,0,118.37,348.79Z" transform="translate(43.62 -6.37)" fill="#fff"/><path d="M160.05,354.92a17.1,17.1,0,0,1-13-5.41,19.1,19.1,0,0,1-5.11-13.65,19.43,19.43,0,0,1,5-13.61,16.44,16.44,0,0,1,12.7-5.44q7.95,0,12.67,5.15t4.7,14.42l-.07.73h-28.1a11.6,11.6,0,0,0,3.5,8.46,11.23,11.23,0,0,0,8,3.22q6.42,0,10.08-6.43l6,2.92a17.81,17.81,0,0,1-6.68,7.08A18.42,18.42,0,0,1,160.05,354.92Zm-10.73-23.36h20.51a8.87,8.87,0,0,0-3-6.17,10.6,10.6,0,0,0-7.34-2.45,9.73,9.73,0,0,0-6.53,2.34A11.17,11.17,0,0,0,149.32,331.56Z" transform="translate(43.62 -6.37)" fill="#fff"/><path d="M189.83,353.75h-6.71V318h6.42v5.84h.29A9.69,9.69,0,0,1,194,319a11.72,11.72,0,0,1,6.24-2,12.71,12.71,0,0,1,5,.87l-2.05,6.5a11.14,11.14,0,0,0-3.94-.51,8.72,8.72,0,0,0-6.61,3.06,10.29,10.29,0,0,0-2.81,7.16Z" transform="translate(43.62 -6.37)" fill="#fff"/><path d="M235.53,343.82a9.7,9.7,0,0,1-4.09,7.89,16.13,16.13,0,0,1-10.29,3.21,16.36,16.36,0,0,1-9.49-2.81,15.54,15.54,0,0,1-5.84-7.41l6-2.56a11.05,11.05,0,0,0,3.83,5,9.25,9.25,0,0,0,5.51,1.79,9.64,9.64,0,0,0,5.36-1.39,3.92,3.92,0,0,0,2.16-3.28q0-3.43-5.26-5l-6.13-1.53q-10.44-2.62-10.44-10.07a9.31,9.31,0,0,1,4-7.85,18.24,18.24,0,0,1,18.76-.7,12.33,12.33,0,0,1,5.37,6.06l-6,2.49a7.59,7.59,0,0,0-3.32-3.55,10.43,10.43,0,0,0-5.15-1.27,8.7,8.7,0,0,0-4.71,1.31,3.81,3.81,0,0,0-2.08,3.21c0,2.05,1.93,3.51,5.77,4.38l5.4,1.39Q235.53,335.72,235.53,343.82Z" transform="translate(43.62 -6.37)" fill="#fff"/><path d="M292,318,280.5,353.75h-6.86l-8.91-27.45-8.83,27.45h-6.79L237.57,318h7l8,27h.07l8.83-27h6.94l8.83,27h.08l7.88-27Z" transform="translate(43.62 -6.37)" fill="#fff"/><path d="M309.26,316.81q7.44,0,11.75,4t4.31,10.91v22.05H318.9v-5h-.3q-4.16,6.12-11.09,6.13a14.4,14.4,0,0,1-9.89-3.51,11.15,11.15,0,0,1-4-8.76,10.66,10.66,0,0,1,4.19-8.83q4.2-3.29,11.21-3.28a19.85,19.85,0,0,1,9.86,2.18v-1.53a7.66,7.66,0,0,0-2.78-5.95,9.5,9.5,0,0,0-6.5-2.44,10.29,10.29,0,0,0-8.9,4.74l-5.91-3.72Q299.7,316.81,309.26,316.81Zm-8.69,26a5.36,5.36,0,0,0,2.23,4.38,8.16,8.16,0,0,0,5.22,1.75,10.7,10.7,0,0,0,7.55-3.14,9.81,9.81,0,0,0,3.33-7.37c-2.1-1.66-5-2.48-8.76-2.48a11.33,11.33,0,0,0-6.83,2A5.86,5.86,0,0,0,300.57,342.8Z" transform="translate(43.62 -6.37)" fill="#fff"/><path d="M332.91,318h6.43v5h.29a11.94,11.94,0,0,1,4.71-4.38,13.53,13.53,0,0,1,6.6-1.75q6.57,0,10.11,3.76t3.54,10.69v22.49h-6.71V331.7q-.22-8.76-8.84-8.76a8.41,8.41,0,0,0-6.71,3.25,11.79,11.79,0,0,0-2.7,7.78v19.78h-6.72Z" transform="translate(43.62 -6.37)" fill="#fff"/><path d="M60.89,58.5V7H79.54a15,15,0,0,1,10.51,4,12.9,12.9,0,0,1,4.4,10,10.89,10.89,0,0,1-7,10.73V32a12.63,12.63,0,0,1,6.34,4.5,12,12,0,0,1,2.37,7.31,13.56,13.56,0,0,1-4.6,10.51,15.51,15.51,0,0,1-11,4.18Zm6.63-45.22V29.05h12a8.05,8.05,0,0,0,5.91-2.37,7.67,7.67,0,0,0,.07-11,7.65,7.65,0,0,0-5.69-2.38Zm0,22V52.16H80.84a8.48,8.48,0,0,0,8.57-8.49,8.1,8.1,0,0,0-2.53-5.91,8.58,8.58,0,0,0-6.33-2.52Z" transform="translate(43.62 -6.37)" fill="#fff"/><path d="M115.9,22.07q7.35,0,11.59,3.92t4.25,10.77V58.5h-6.33V53.6h-.29q-4.11,6.06-11,6a14.23,14.23,0,0,1-9.75-3.45,11,11,0,0,1-3.93-8.64,10.5,10.5,0,0,1,4.14-8.72q4.14-3.24,11.05-3.24a19.6,19.6,0,0,1,9.73,2.16V36.25a7.57,7.57,0,0,0-2.74-5.87A9.43,9.43,0,0,0,116.26,28a10.14,10.14,0,0,0-8.78,4.68L101.64,29Q106.47,22.07,115.9,22.07ZM107.33,47.7a5.27,5.27,0,0,0,2.2,4.32,8.09,8.09,0,0,0,5.15,1.73,10.55,10.55,0,0,0,7.45-3.1,9.71,9.71,0,0,0,3.28-7.27q-3.1-2.45-8.65-2.45a11.21,11.21,0,0,0-6.73,2A5.76,5.76,0,0,0,107.33,47.7Z" transform="translate(43.62 -6.37)" fill="#fff"/><path d="M139.23,23.22h6.33v4.9h.29a11.77,11.77,0,0,1,4.65-4.32A13.2,13.2,0,0,1,157,22.07q6.48,0,10,3.71t3.5,10.54V58.5h-6.63V36.76q-.21-8.64-8.71-8.64a8.25,8.25,0,0,0-6.62,3.2A11.6,11.6,0,0,0,145.85,39V58.5h-6.62Z" transform="translate(43.62 -6.37)" fill="#fff"/><path d="M193,59.65a15.49,15.49,0,0,1-11.88-5.47,19.46,19.46,0,0,1-4.89-13.32,19.46,19.46,0,0,1,4.89-13.32A15.49,15.49,0,0,1,193,22.07a15.24,15.24,0,0,1,7.09,1.65,12.48,12.48,0,0,1,4.94,4.4h.28l-.28-4.9V7h6.62V58.5h-6.34V53.6H205A12.48,12.48,0,0,1,200.1,58,15.24,15.24,0,0,1,193,59.65Zm1.08-6a10.12,10.12,0,0,0,8-3.52,13.12,13.12,0,0,0,3.24-9.22,13.13,13.13,0,0,0-3.24-9.14,10.18,10.18,0,0,0-8-3.6,10.32,10.32,0,0,0-8,3.6,13.13,13.13,0,0,0-3.24,9.14A13,13,0,0,0,186.1,50,10.32,10.32,0,0,0,194.09,53.6Z" transform="translate(43.62 -6.37)" fill="#fff"/><path d="M232.76,22.07q7.34,0,11.59,3.92t4.25,10.77V58.5h-6.34V53.6H242a12.61,12.61,0,0,1-10.94,6,14.26,14.26,0,0,1-9.76-3.45,11.07,11.07,0,0,1-3.92-8.64,10.5,10.5,0,0,1,4.14-8.72q4.14-3.24,11-3.24a19.59,19.59,0,0,1,9.72,2.16V36.25a7.54,7.54,0,0,0-2.74-5.87,9.41,9.41,0,0,0-6.4-2.41,10.16,10.16,0,0,0-8.79,4.68L218.5,29Q223.32,22.07,232.76,22.07ZM224.19,47.7A5.29,5.29,0,0,0,226.38,52a8.11,8.11,0,0,0,5.15,1.73,10.51,10.51,0,0,0,7.45-3.1,9.68,9.68,0,0,0,3.28-7.27q-3.09-2.45-8.64-2.45a11.19,11.19,0,0,0-6.73,2A5.76,5.76,0,0,0,224.19,47.7Z" transform="translate(43.62 -6.37)" fill="#fff"/><path d="M264.65,11.05a4.51,4.51,0,0,1-1.37,3.31,4.68,4.68,0,0,1-6.62,0,4.51,4.51,0,0,1-1.37-3.31,4.68,4.68,0,1,1,9.36,0Zm-1.37,12.17V58.5h-6.62V23.22Z" transform="translate(43.62 -6.37)" fill="#fff"/></g></svg>