<svg xmlns="http://www.w3.org/2000/svg" viewBox="0 0 352.49 428.03"><title>wonderswancolor</title><g id="Layer_3" data-name="Layer 3"><circle cx="176.55" cy="85.63" r="8.2" fill="#fff"/><line x1="34.05" y1="122.13" x2="319.05" y2="122.13" fill="none"/><rect x="34.05" y="119.13" width="285" height="6" fill="#fff"/><line x1="34.05" y1="378.63" x2="319.05" y2="378.63" fill="none"/><rect x="34.05" y="375.63" width="285" height="6" fill="#fff"/><circle cx="176.55" cy="419.83" r="8.2" fill="#fff"/></g><g id="NEW_TEXT" data-name="NEW TEXT"><path d="M50.65,248.68v13.2h-65.4v-13.8L11.8,221.23q13.35-13.65,18.45-20.47a23.57,23.57,0,0,0,5.1-14.33,15.1,15.1,0,0,0-5.25-11.55q-5.25-4.8-13.5-4.8a18.51,18.51,0,0,0-12.15,4.2,18.94,18.94,0,0,0-6.6,10.2l-12.6-5.1a32,32,0,0,1,11.55-16,32.19,32.19,0,0,1,20.1-6.53q14,0,23.25,8.55a27.42,27.42,0,0,1,9.3,21q0,14.85-16.35,32.1l-30,30.15Z" transform="translate(14.75 -6.37)" fill="#fff"/><path d="M63.85,210.58q0-23.4,11.55-38.55t29.7-15.15q18.15,0,29.7,15.3,11.55,15.15,11.55,38.4,0,23.1-11.55,38.55-11.55,15.15-29.7,15.15T75.4,249.13Q63.85,233.68,63.85,210.58Zm68.4,0q0-17.7-7.5-29.1t-19.65-11.4q-12.3,0-19.65,11.4T78,210.58q0,17.7,7.5,29.25,7.35,11.25,19.65,11.25t19.65-11.4Q132.25,228.13,132.25,210.58Z" transform="translate(14.75 -6.37)" fill="#fff"/><path d="M159.55,210.58q0-23.4,11.55-38.55t29.7-15.15q18.15,0,29.7,15.3,11.55,15.15,11.55,38.4,0,23.1-11.55,38.55Q219,264.28,200.8,264.28t-29.7-15.15Q159.55,233.68,159.55,210.58Zm68.4,0q0-17.7-7.5-29.1-7.35-11.4-19.65-11.4t-19.65,11.4q-7.5,11.4-7.5,29.1t7.5,29.25q7.35,11.25,19.65,11.25t19.65-11.4Q228,228.13,228,210.58Z" transform="translate(14.75 -6.37)" fill="#fff"/><path d="M255.25,210.58q0-23.4,11.55-38.55t29.7-15.15q18.15,0,29.7,15.3,11.55,15.15,11.55,38.4,0,23.1-11.55,38.55-11.55,15.15-29.7,15.15t-29.7-15.15Q255.25,233.68,255.25,210.58Zm68.4,0q0-17.7-7.5-29.1-7.35-11.4-19.65-11.4t-19.65,11.4q-7.5,11.4-7.5,29.1t7.5,29.25q7.35,11.25,19.65,11.25t19.65-11.4Q323.65,228.13,323.65,210.58Z" transform="translate(14.75 -6.37)" fill="#fff"/><path d="M77,289.1h4l-8,30.07H69l-6.47-19.82h-.16l-6.47,19.82H52L43.61,289.1h4L54,312.75h.16l6.51-19.62h3.62l6.51,19.62H71Z" transform="translate(14.75 -6.37)" fill="#fff"/><path d="M80.53,308.88a10.87,10.87,0,0,1,3-7.85,10.18,10.18,0,0,1,7.6-3.11A10,10,0,0,1,98.67,301a11.7,11.7,0,0,1,0,15.71,10,10,0,0,1-7.56,3.1,10.17,10.17,0,0,1-7.6-3.1A10.9,10.9,0,0,1,80.53,308.88Zm3.86,0a7.54,7.54,0,0,0,1.94,5.38,6.59,6.59,0,0,0,9.57,0,8.39,8.39,0,0,0,0-10.71,6.5,6.5,0,0,0-9.57,0A7.47,7.47,0,0,0,84.39,308.88Z" transform="translate(14.75 -6.37)" fill="#fff"/><path d="M104.81,298.59h3.69v2.86h.17a6.85,6.85,0,0,1,2.71-2.52,7.78,7.78,0,0,1,3.8-1,7.62,7.62,0,0,1,5.82,2.16,8.65,8.65,0,0,1,2,6.16v12.93h-3.86V306.49c-.08-3.36-1.78-5-5.08-5a4.84,4.84,0,0,0-3.87,1.87,6.77,6.77,0,0,0-1.55,4.47v11.38h-3.86Z" transform="translate(14.75 -6.37)" fill="#fff"/><path d="M136.18,319.84a9,9,0,0,1-6.93-3.19,12,12,0,0,1,0-15.54,9,9,0,0,1,6.93-3.19,8.83,8.83,0,0,1,4.14,1,7.17,7.17,0,0,1,2.87,2.56h.17l-.17-2.86V289.1h3.87v30.07h-3.7v-2.85h-.17a7.32,7.32,0,0,1-2.87,2.56A9,9,0,0,1,136.18,319.84Zm.63-3.52a5.92,5.92,0,0,0,4.66-2.06,8.53,8.53,0,0,0,0-10.71,5.93,5.93,0,0,0-4.66-2.1,6,6,0,0,0-4.66,2.1,7.67,7.67,0,0,0-1.89,5.33,7.6,7.6,0,0,0,1.89,5.34A6,6,0,0,0,136.81,316.32Z" transform="translate(14.75 -6.37)" fill="#fff"/><path d="M160.79,319.84a9.84,9.84,0,0,1-7.47-3.1,11,11,0,0,1-2.94-7.86,11.18,11.18,0,0,1,2.85-7.83,10.27,10.27,0,0,1,14.6-.17c1.8,2,2.71,4.74,2.71,8.3l0,.42H154.32a6.72,6.72,0,0,0,2,4.87,6.47,6.47,0,0,0,4.62,1.85c2.46,0,4.4-1.24,5.8-3.7l3.44,1.68a10.18,10.18,0,0,1-3.84,4.07A10.66,10.66,0,0,1,160.79,319.84Zm-6.17-13.44h11.8a5.13,5.13,0,0,0-1.74-3.55,6.14,6.14,0,0,0-4.22-1.4,5.62,5.62,0,0,0-3.76,1.34A6.4,6.4,0,0,0,154.62,306.4Z" transform="translate(14.75 -6.37)" fill="#fff"/><path d="M177.93,319.17h-3.87V298.59h3.7V302h.17a5.6,5.6,0,0,1,2.41-2.79,6.73,6.73,0,0,1,3.59-1.16,7.17,7.17,0,0,1,2.86.51l-1.18,3.74a6.23,6.23,0,0,0-2.26-.3,5,5,0,0,0-3.81,1.77,5.9,5.9,0,0,0-1.61,4.11Z" transform="translate(14.75 -6.37)" fill="#fff"/><path d="M204.22,313.46a5.59,5.59,0,0,1-2.35,4.54,9.3,9.3,0,0,1-5.92,1.84,9.42,9.42,0,0,1-5.46-1.61,8.89,8.89,0,0,1-3.36-4.27l3.44-1.47a6.28,6.28,0,0,0,2.21,2.88,5.31,5.31,0,0,0,3.17,1,5.57,5.57,0,0,0,3.08-.8,2.25,2.25,0,0,0,1.24-1.89c0-1.31-1-2.28-3-2.9l-3.53-.88c-4-1-6-2.94-6-5.79a5.37,5.37,0,0,1,2.29-4.52,10.52,10.52,0,0,1,10.8-.4,7,7,0,0,1,3.08,3.49l-3.44,1.43a4.33,4.33,0,0,0-1.91-2,6,6,0,0,0-3-.74,5,5,0,0,0-2.71.76,2.17,2.17,0,0,0-1.2,1.85c0,1.17,1.11,2,3.32,2.52l3.11.8Q204.23,308.79,204.22,313.46Z" transform="translate(14.75 -6.37)" fill="#fff"/><path d="M236.73,298.59l-6.64,20.58h-4L221,303.38l-5.08,15.79H212l-6.63-20.58h4L214,314.13h.05l5.08-15.54h4l5.08,15.54h0l4.54-15.54Z" transform="translate(14.75 -6.37)" fill="#fff"/><path d="M246.64,297.92a9.55,9.55,0,0,1,6.76,2.29,8.14,8.14,0,0,1,2.48,6.28v12.68h-3.7v-2.85H252a7.38,7.38,0,0,1-6.39,3.52,8.31,8.31,0,0,1-5.69-2,6.44,6.44,0,0,1-2.29-5,6.12,6.12,0,0,1,2.42-5.08,10.17,10.17,0,0,1,6.44-1.89,11.39,11.39,0,0,1,5.67,1.26v-.89a4.41,4.41,0,0,0-1.59-3.42,5.48,5.48,0,0,0-3.74-1.41,5.91,5.91,0,0,0-5.12,2.73L238.32,302A9.49,9.49,0,0,1,246.64,297.92Zm-5,14.95a3.09,3.09,0,0,0,1.28,2.52,4.75,4.75,0,0,0,3,1,6.12,6.12,0,0,0,4.34-1.81,5.61,5.61,0,0,0,1.91-4.24,7.93,7.93,0,0,0-5-1.43,6.52,6.52,0,0,0-3.92,1.14A3.36,3.36,0,0,0,241.64,312.87Z" transform="translate(14.75 -6.37)" fill="#fff"/><path d="M260.25,298.59h3.69v2.86h.17a6.85,6.85,0,0,1,2.71-2.52,7.78,7.78,0,0,1,3.8-1,7.62,7.62,0,0,1,5.82,2.16,8.66,8.66,0,0,1,2,6.16v12.93h-3.87V306.49c-.08-3.36-1.78-5-5.08-5a4.8,4.8,0,0,0-3.86,1.87,6.73,6.73,0,0,0-1.56,4.47v11.38h-3.86Z" transform="translate(14.75 -6.37)" fill="#fff"/><path d="M129.08,370.24a15.71,15.71,0,1,1,0-31.41,13.92,13.92,0,0,1,11,4.91l-2.77,2.69a10.3,10.3,0,0,0-8.28-3.91,11.35,11.35,0,0,0-8.36,3.36,13,13,0,0,0,0,17.31,11.35,11.35,0,0,0,8.36,3.36,11.79,11.79,0,0,0,9.12-4.41l2.81,2.73a14.63,14.63,0,0,1-5.25,4A16,16,0,0,1,129.08,370.24Z" transform="translate(14.75 -6.37)" fill="#fff"/><path d="M142.86,359.28a10.87,10.87,0,0,1,3-7.85,10.18,10.18,0,0,1,7.6-3.11,10,10,0,0,1,7.56,3.11,11.7,11.7,0,0,1,0,15.71,10,10,0,0,1-7.56,3.1,10.17,10.17,0,0,1-7.6-3.1A10.9,10.9,0,0,1,142.86,359.28Zm3.86,0a7.58,7.58,0,0,0,1.93,5.38,6.6,6.6,0,0,0,9.58,0,8.39,8.39,0,0,0,0-10.71,6.51,6.51,0,0,0-9.58,0A7.51,7.51,0,0,0,146.72,359.28Z" transform="translate(14.75 -6.37)" fill="#fff"/><path d="M171.21,339.5v30.07h-3.87V339.5Z" transform="translate(14.75 -6.37)" fill="#fff"/><path d="M174.53,359.28a10.87,10.87,0,0,1,3-7.85,10.16,10.16,0,0,1,7.6-3.11,10,10,0,0,1,7.56,3.11,11.73,11.73,0,0,1,0,15.71,10,10,0,0,1-7.56,3.1,10.15,10.15,0,0,1-7.6-3.1A10.9,10.9,0,0,1,174.53,359.28Zm3.86,0a7.54,7.54,0,0,0,1.93,5.38,6.6,6.6,0,0,0,9.58,0,8.39,8.39,0,0,0,0-10.71,6.51,6.51,0,0,0-9.58,0A7.46,7.46,0,0,0,178.39,359.28Z" transform="translate(14.75 -6.37)" fill="#fff"/><path d="M202.67,369.57H198.8V349h3.7v3.36h.17a5.55,5.55,0,0,1,2.41-2.79,6.73,6.73,0,0,1,3.59-1.16,7.21,7.21,0,0,1,2.86.51l-1.18,3.74a6.26,6.26,0,0,0-2.27-.3,5,5,0,0,0-3.8,1.77,5.9,5.9,0,0,0-1.61,4.11Z" transform="translate(14.75 -6.37)" fill="#fff"/><path d="M60.89,58.5V7H79.54a15,15,0,0,1,10.51,4,12.9,12.9,0,0,1,4.4,10,10.89,10.89,0,0,1-7,10.73V32a12.63,12.63,0,0,1,6.34,4.5,12,12,0,0,1,2.37,7.31,13.56,13.56,0,0,1-4.6,10.51,15.51,15.51,0,0,1-11,4.18Zm6.63-45.22V29.05h12a8.05,8.05,0,0,0,5.91-2.37,7.67,7.67,0,0,0,.07-11,7.65,7.65,0,0,0-5.69-2.38Zm0,22V52.16H80.84a8.48,8.48,0,0,0,8.57-8.49,8.13,8.13,0,0,0-2.52-5.91,8.62,8.62,0,0,0-6.34-2.52Z" transform="translate(14.75 -6.37)" fill="#fff"/><path d="M115.9,22.07q7.35,0,11.59,3.92t4.25,10.77V58.5h-6.33V53.6h-.29q-4.11,6.06-11,6a14.23,14.23,0,0,1-9.75-3.45,11,11,0,0,1-3.93-8.64,10.5,10.5,0,0,1,4.14-8.72q4.14-3.24,11.06-3.24a19.59,19.59,0,0,1,9.72,2.16V36.25a7.57,7.57,0,0,0-2.74-5.87A9.43,9.43,0,0,0,116.26,28a10.14,10.14,0,0,0-8.78,4.68L101.65,29Q106.47,22.07,115.9,22.07ZM107.33,47.7a5.27,5.27,0,0,0,2.2,4.32,8.09,8.09,0,0,0,5.15,1.73,10.55,10.55,0,0,0,7.45-3.1,9.71,9.71,0,0,0,3.28-7.27q-3.1-2.45-8.64-2.45a11.22,11.22,0,0,0-6.74,2A5.76,5.76,0,0,0,107.33,47.7Z" transform="translate(14.75 -6.37)" fill="#fff"/><path d="M139.23,23.22h6.33v4.9h.29a11.77,11.77,0,0,1,4.65-4.32A13.2,13.2,0,0,1,157,22.07q6.48,0,10,3.71t3.5,10.54V58.5h-6.63V36.76q-.21-8.64-8.71-8.64a8.25,8.25,0,0,0-6.62,3.2A11.6,11.6,0,0,0,145.85,39V58.5h-6.62Z" transform="translate(14.75 -6.37)" fill="#fff"/><path d="M193,59.65a15.49,15.49,0,0,1-11.88-5.47,19.46,19.46,0,0,1-4.89-13.32,19.46,19.46,0,0,1,4.89-13.32A15.49,15.49,0,0,1,193,22.07a15.24,15.24,0,0,1,7.09,1.65,12.48,12.48,0,0,1,4.94,4.4h.28l-.28-4.9V7h6.62V58.5h-6.34V53.6H205A12.48,12.48,0,0,1,200.1,58,15.24,15.24,0,0,1,193,59.65Zm1.08-6a10.12,10.12,0,0,0,8-3.52,13.12,13.12,0,0,0,3.24-9.22,13.13,13.13,0,0,0-3.24-9.14,10.18,10.18,0,0,0-8-3.6,10.32,10.32,0,0,0-8,3.6,13.13,13.13,0,0,0-3.24,9.14A13,13,0,0,0,186.1,50,10.32,10.32,0,0,0,194.09,53.6Z" transform="translate(14.75 -6.37)" fill="#fff"/><path d="M232.76,22.07q7.34,0,11.59,3.92t4.25,10.77V58.5h-6.34V53.6H242a12.61,12.61,0,0,1-10.94,6,14.26,14.26,0,0,1-9.76-3.45,11.07,11.07,0,0,1-3.92-8.64,10.5,10.5,0,0,1,4.14-8.72q4.14-3.24,11-3.24a19.59,19.59,0,0,1,9.72,2.16V36.25a7.54,7.54,0,0,0-2.74-5.87,9.41,9.41,0,0,0-6.4-2.41,10.16,10.16,0,0,0-8.79,4.68L218.5,29Q223.32,22.07,232.76,22.07ZM224.19,47.7A5.29,5.29,0,0,0,226.38,52a8.11,8.11,0,0,0,5.15,1.73,10.51,10.51,0,0,0,7.45-3.1,9.68,9.68,0,0,0,3.28-7.27q-3.09-2.45-8.64-2.45a11.19,11.19,0,0,0-6.73,2A5.76,5.76,0,0,0,224.19,47.7Z" transform="translate(14.75 -6.37)" fill="#fff"/><path d="M264.65,11.05a4.51,4.51,0,0,1-1.37,3.31,4.68,4.68,0,0,1-6.62,0,4.51,4.51,0,0,1-1.37-3.31,4.68,4.68,0,1,1,9.36,0Zm-1.37,12.17V58.5h-6.62V23.22Z" transform="translate(14.75 -6.37)" fill="#fff"/></g></svg>