<svg xmlns="http://www.w3.org/2000/svg" viewBox="0 0 402.91 428.6"><title>zxspectrum</title><g id="Layer_3" data-name="Layer 3"><circle cx="202.17" cy="86.2" r="8.2" fill="#fff"/><line x1="59.67" y1="122.7" x2="344.67" y2="122.7" fill="none"/><rect x="59.67" y="119.7" width="285" height="6" fill="#fff"/><line x1="59.67" y1="379.2" x2="344.67" y2="379.2" fill="none"/><rect x="59.67" y="376.2" width="285" height="6" fill="#fff"/><circle cx="202.17" cy="420.4" r="8.2" fill="#fff"/></g><g id="NEW_TEXT" data-name="NEW TEXT"><path d="M57,159.28v102.6H43.23v-85.5l-19.95,8.7L18,173.38l30.15-14.1Z" transform="translate(40.37 -5.8)" fill="#fff"/><path d="M107.73,224.38q-12.3,0-22.35-9.75a32.51,32.51,0,0,1-9.75-23.4q0-13.95,10.5-24,10.49-10.35,24.6-10.35a34.07,34.07,0,0,1,25,10.2A33,33,0,0,1,146,191.23q0,12.45-10,28.35l-29.85,44.7L95,256.63l25.35-35.1-.3-.3C116.82,223.33,112.73,224.38,107.73,224.38Zm24.3-33.3a20,20,0,0,0-6.3-14.85,21.37,21.37,0,0,0-30,0,21,21,0,0,0,0,29.7,21.37,21.37,0,0,0,30,0A19.67,19.67,0,0,0,132,191.08Z" transform="translate(40.37 -5.8)" fill="#fff"/><path d="M227.58,233.53a27.75,27.75,0,0,1-10.06,21.9q-10.2,8.85-24.75,8.85T168,255.43a27.73,27.73,0,0,1-10-21.9,26.4,26.4,0,0,1,4.35-14.77,29.89,29.89,0,0,1,12.44-10.58v-.6a32.2,32.2,0,0,1-9.67-9.6,21.79,21.79,0,0,1-3.67-12,27.57,27.57,0,0,1,8.84-20.85q8.7-8.25,22.5-8.25t22.5,8.25A27.59,27.59,0,0,1,224.13,186a21.8,21.8,0,0,1-3.68,12,32.24,32.24,0,0,1-9.68,9.6v.6a29.92,29.92,0,0,1,12.45,10.58A26.49,26.49,0,0,1,227.58,233.53Zm-55.5-.75a16.84,16.84,0,0,0,1.57,7.35,18.17,18.17,0,0,0,4.35,5.78,19.69,19.69,0,0,0,6.52,3.82,25.88,25.88,0,0,0,16.5,0,19.73,19.73,0,0,0,6.53-3.82,18.17,18.17,0,0,0,4.35-5.78,16.84,16.84,0,0,0,1.57-7.35,16.21,16.21,0,0,0-6-12.9,21.54,21.54,0,0,0-14.7-5.25,22.1,22.1,0,0,0-14.85,5.25A16.65,16.65,0,0,0,172.08,232.78Zm3.44-47.1a15.05,15.05,0,0,0,4.81,11.63q4.78,4.42,12.44,4.42c5.11,0,9.25-1.47,12.45-4.42a15.08,15.08,0,0,0,4.8-11.63q0-7.2-4.8-11.4c-3.2-2.8-7.34-4.2-12.45-4.2s-9.25,1.4-12.44,4.2S175.52,180.88,175.52,185.68Z" transform="translate(40.37 -5.8)" fill="#fff"/><path d="M305,248.68v13.2h-65.4v-13.8l26.55-26.85q13.35-13.65,18.45-20.47a23.57,23.57,0,0,0,5.1-14.33,15.1,15.1,0,0,0-5.25-11.55q-5.25-4.8-13.5-4.8a18.51,18.51,0,0,0-12.15,4.2,18.94,18.94,0,0,0-6.6,10.2l-12.6-5.1a32.93,32.93,0,0,1,31.65-22.5q13.95,0,23.25,8.55a27.42,27.42,0,0,1,9.3,21q0,14.85-16.35,32.1l-30,30.15Z" transform="translate(40.37 -5.8)" fill="#fff"/><path d="M-4.95,353.45H-40.37v-6.91l27.43-38.31H-39.22V301.9h34v6.91l-27.43,38.3H-4.95Z" transform="translate(40.37 -5.8)" fill="#fff"/><path d="M6.86,353.45H-.92l17.28-26.64L.09,301.9H8l12.53,19.72h.29L33.36,301.9h7.92L25,326.81l17.28,26.64H34.51l-13.68-21.1h-.29Z" transform="translate(40.37 -5.8)" fill="#fff"/><path d="M94.12,339.7a13.38,13.38,0,0,1-5,10.87,19,19,0,0,1-12.24,4,18.11,18.11,0,0,1-11.3-3.74,19.2,19.2,0,0,1-6.77-10.23L65.18,338a16,16,0,0,0,1.8,4.17,13.69,13.69,0,0,0,2.7,3.21,12.28,12.28,0,0,0,3.42,2.09,10.56,10.56,0,0,0,4,.75,11.37,11.37,0,0,0,7.41-2.34,7.61,7.61,0,0,0,2.88-6.22A7.47,7.47,0,0,0,85,334.15q-2.24-2.23-8.35-4.32c-4.13-1.49-6.7-2.49-7.71-3q-8.2-4.19-8.21-12.31a12.55,12.55,0,0,1,4.54-9.72,16.55,16.55,0,0,1,11.3-4,17.36,17.36,0,0,1,10.23,3,14.17,14.17,0,0,1,5.76,7.41l-6.19,2.6A9.2,9.2,0,0,0,82.93,309a11.06,11.06,0,0,0-12.78.25,6.28,6.28,0,0,0-2.67,5.26,6.08,6.08,0,0,0,2.09,4.6q2.31,1.95,10,4.61t11.19,6.52A13.89,13.89,0,0,1,94.12,339.7Z" transform="translate(40.37 -5.8)" fill="#fff"/><path d="M119.32,354.6a15.12,15.12,0,0,1-7.09-1.66,12.28,12.28,0,0,1-4.93-4.39H107l.29,4.9V369h-6.63V318.17H107v4.89h.29a12.43,12.43,0,0,1,4.93-4.39,15.68,15.68,0,0,1,18.9,3.82,20.33,20.33,0,0,1,0,26.64A15.15,15.15,0,0,1,119.32,354.6Zm-1.08-6.05a10.32,10.32,0,0,0,8-3.6,13,13,0,0,0,3.24-9.14,13.16,13.16,0,0,0-3.24-9.15,10.74,10.74,0,0,0-16,0,14.88,14.88,0,0,0,0,18.36A10.46,10.46,0,0,0,118.24,348.55Z" transform="translate(40.37 -5.8)" fill="#fff"/><path d="M158,354.6a16.88,16.88,0,0,1-12.81-5.33,18.81,18.81,0,0,1-5-13.46A19.18,19.18,0,0,1,145,322.38,16.2,16.2,0,0,1,157.55,317q7.84,0,12.49,5.07t4.65,14.22l-.07.72H146.9a11.44,11.44,0,0,0,3.45,8.35,11,11,0,0,0,7.92,3.17q6.34,0,9.94-6.34l5.9,2.89a17.59,17.59,0,0,1-6.59,7A18.18,18.18,0,0,1,158,354.6Zm-10.58-23h20.23a8.75,8.75,0,0,0-3-6.08,10.44,10.44,0,0,0-7.23-2.42,9.6,9.6,0,0,0-6.45,2.31A11,11,0,0,0,147.4,331.56Z" transform="translate(40.37 -5.8)" fill="#fff"/><path d="M197.22,354.6a17.44,17.44,0,0,1-13-5.33,19,19,0,0,1-5.11-13.46,18.67,18.67,0,0,1,5.11-13.47,17.43,17.43,0,0,1,13-5.32,16.1,16.1,0,0,1,15.48,10.15l-6,2.52c-1.88-4.42-5.16-6.63-9.87-6.63a10.25,10.25,0,0,0-7.85,3.68,14.32,14.32,0,0,0,0,18.14,10.24,10.24,0,0,0,7.85,3.67A10.38,10.38,0,0,0,207,341.93l5.9,2.52a15.8,15.8,0,0,1-6.08,7.45A17.22,17.22,0,0,1,197.22,354.6Z" transform="translate(40.37 -5.8)" fill="#fff"/><path d="M232.29,354a10.07,10.07,0,0,1-7.17-2.66,9.88,9.88,0,0,1-2.91-7.42V324.21H216v-6h6.19v-10.8h6.62v10.8h8.64v6h-8.64v17.57c0,2.36.46,4,1.37,4.79a4.44,4.44,0,0,0,3.09,1.26,6.64,6.64,0,0,0,1.55-.18,7.29,7.29,0,0,0,1.41-.47l2.08,5.91A17.83,17.83,0,0,1,232.29,354Z" transform="translate(40.37 -5.8)" fill="#fff"/><path d="M250.43,353.45h-6.62V318.17h6.33v5.76h.29a9.55,9.55,0,0,1,4.14-4.79,11.5,11.5,0,0,1,6.16-2,12.48,12.48,0,0,1,4.89.86l-2,6.41a11.18,11.18,0,0,0-3.89-.5,8.59,8.59,0,0,0-6.52,3,10.12,10.12,0,0,0-2.77,7.06Z" transform="translate(40.37 -5.8)" fill="#fff"/><path d="M300.9,353.45h-6.33v-4.9h-.29a11.77,11.77,0,0,1-4.65,4.32,13.31,13.31,0,0,1-6.51,1.73q-6.48,0-10-3.71t-3.5-10.55V318.17h6.63v21.74q.21,8.64,8.71,8.64a8.28,8.28,0,0,0,6.62-3.2,11.6,11.6,0,0,0,2.67-7.67V318.17h6.62Z" transform="translate(40.37 -5.8)" fill="#fff"/><path d="M315.59,353.45H309V318.17h6.33v4.89h.29a11.88,11.88,0,0,1,4.64-4.32,13,13,0,0,1,13.07.08,10.59,10.59,0,0,1,4.32,5A13.77,13.77,0,0,1,349.79,317q6.12,0,9.43,3.74t3.31,10.66v22h-6.62v-21q0-5-1.8-7.16c-1.2-1.46-3.22-2.2-6.05-2.2a7.92,7.92,0,0,0-6.41,3.24,11.91,11.91,0,0,0-2.59,7.64v19.51h-6.62v-21q0-5-1.8-7.16c-1.2-1.46-3.22-2.2-6.05-2.2a7.91,7.91,0,0,0-6.41,3.24,11.85,11.85,0,0,0-2.59,7.64Z" transform="translate(40.37 -5.8)" fill="#fff"/><path d="M86.17,44.75a13.41,13.41,0,0,1-5,10.87,19,19,0,0,1-12.24,4,18.16,18.16,0,0,1-11.31-3.74,19.13,19.13,0,0,1-6.76-10.23l6.33-2.59A16.24,16.24,0,0,0,59,47.27a13.64,13.64,0,0,0,2.7,3.2,12,12,0,0,0,3.42,2.09,10.57,10.57,0,0,0,4,.76A11.38,11.38,0,0,0,76.52,51a7.63,7.63,0,0,0,2.88-6.23A7.45,7.45,0,0,0,77,39.2Q74.79,37,68.67,34.88a80.58,80.58,0,0,1-7.7-3q-8.22-4.17-8.21-12.31a12.57,12.57,0,0,1,4.53-9.72,16.57,16.57,0,0,1,11.31-4,17.34,17.34,0,0,1,10.22,3,14.16,14.16,0,0,1,5.76,7.42l-6.19,2.59A9.2,9.2,0,0,0,75,14a11.06,11.06,0,0,0-12.78.25,6.29,6.29,0,0,0-2.66,5.26,6.11,6.11,0,0,0,2.08,4.61q2.31,1.93,10,4.6t11.2,6.52A13.93,13.93,0,0,1,86.17,44.75Z" transform="translate(40.37 -5.8)" fill="#fff"/><path d="M101.57,11.05a4.68,4.68,0,1,1-9.36,0,4.68,4.68,0,1,1,9.36,0Zm-1.36,12.17V58.5H93.58V23.22Z" transform="translate(40.37 -5.8)" fill="#fff"/><path d="M108.85,23.22h6.33v4.9h.29a11.74,11.74,0,0,1,4.64-4.32,13.24,13.24,0,0,1,6.52-1.73q6.48,0,10,3.71t3.49,10.54V58.5h-6.62V36.76q-.21-8.64-8.71-8.64a8.28,8.28,0,0,0-6.63,3.2A11.64,11.64,0,0,0,115.47,39V58.5h-6.62Z" transform="translate(40.37 -5.8)" fill="#fff"/><path d="M164,59.65a17.41,17.41,0,0,1-13-5.33,19,19,0,0,1-5.11-13.46A18.69,18.69,0,0,1,151,27.4a17.41,17.41,0,0,1,13-5.33,16.16,16.16,0,0,1,15.48,10.15l-6,2.52q-2.81-6.63-9.87-6.62a10.21,10.21,0,0,0-7.84,3.67,13.22,13.22,0,0,0-3.24,9.07,13.22,13.22,0,0,0,3.24,9.07,10.21,10.21,0,0,0,7.84,3.67A10.37,10.37,0,0,0,173.79,47l5.9,2.52A15.75,15.75,0,0,1,173.61,57,17.21,17.21,0,0,1,164,59.65Z" transform="translate(40.37 -5.8)" fill="#fff"/><path d="M192.08,7V58.5h-6.63V7Z" transform="translate(40.37 -5.8)" fill="#fff"/><path d="M213.17,22.07q7.35,0,11.59,3.92T229,36.76V58.5h-6.33V53.6h-.29q-4.11,6.06-10.95,6a14.23,14.23,0,0,1-9.75-3.45,11,11,0,0,1-3.93-8.64,10.5,10.5,0,0,1,4.14-8.72Q206,35.6,213,35.6a19.59,19.59,0,0,1,9.72,2.16V36.25a7.57,7.57,0,0,0-2.74-5.87A9.41,9.41,0,0,0,213.53,28a10.14,10.14,0,0,0-8.78,4.68L198.92,29Q203.74,22.07,213.17,22.07ZM204.6,47.7A5.27,5.27,0,0,0,206.8,52,8.09,8.09,0,0,0,212,53.75a10.55,10.55,0,0,0,7.45-3.1,9.71,9.71,0,0,0,3.28-7.27q-3.1-2.45-8.64-2.45a11.22,11.22,0,0,0-6.74,2A5.76,5.76,0,0,0,204.6,47.7Z" transform="translate(40.37 -5.8)" fill="#fff"/><path d="M245.07,11.05a4.51,4.51,0,0,1-1.37,3.31,4.68,4.68,0,0,1-8-3.31,4.68,4.68,0,1,1,9.36,0ZM243.7,23.22V58.5h-6.62V23.22Z" transform="translate(40.37 -5.8)" fill="#fff"/><path d="M259,58.5h-6.62V23.22h6.33V29H259a9.55,9.55,0,0,1,4.14-4.79,11.5,11.5,0,0,1,6.16-2,12.29,12.29,0,0,1,4.89.87l-2,6.4a11.15,11.15,0,0,0-3.89-.5,8.59,8.59,0,0,0-6.52,3A10.16,10.16,0,0,0,259,39.06Z" transform="translate(40.37 -5.8)" fill="#fff"/></g></svg>